<svg width="61" height="61" viewBox="0 0 61 61" fill="none" xmlns="http://www.w3.org/2000/svg">
<g clip-path="url(#clip0_2570_3774)">
<path d="M17.7871 45.7467C14.9913 45.7467 12.7292 48.0342 12.7292 50.8301C12.7292 53.6259 14.9913 55.9134 17.7871 55.9134C20.5829 55.9134 22.8704 53.6259 22.8704 50.8301C22.8704 48.0342 20.5829 45.7467 17.7871 45.7467ZM43.2038 45.7467C40.4079 45.7467 38.1459 48.0342 38.1459 50.8301C38.1459 53.6259 40.4079 55.9134 43.2038 55.9134C45.9996 55.9134 48.2871 53.6259 48.2871 50.8301C48.2871 48.0342 45.9996 45.7467 43.2038 45.7467ZM20.5829 33.0384H39.5184C41.4246 33.0384 43.1021 31.9963 43.9663 30.4205L52.5571 14.8401C53.2434 13.6201 52.7859 12.0697 51.5659 11.3834C50.3459 10.7226 48.7954 11.1547 48.1346 12.3747L39.5184 27.9551H21.6759L11.5346 6.52883C11.1279 5.63924 10.2129 5.08008 9.24711 5.08008H5.07878C3.68086 5.08008 2.53711 6.22383 2.53711 7.62174C2.53711 9.01966 3.68086 10.1634 5.07878 10.1634H7.62044L16.7704 29.4547L13.3392 35.6563C11.4838 39.0622 13.9238 43.2051 17.7871 43.2051H45.7454C47.1434 43.2051 48.2871 42.0613 48.2871 40.6634C48.2871 39.2655 47.1434 38.1217 45.7454 38.1217H17.7871L20.5829 33.0384Z" fill="#FF5880"/>
</g>
<path fill-rule="evenodd" clip-rule="evenodd" d="M12.6348 11.084L50.2854 11.084L50.2854 16.1288L12.6348 16.1287L12.6348 11.084Z" fill="#FF5880"/>
<defs>
<clipPath id="clip0_2570_3774">
<rect width="61" height="61" fill="white"/>
</clipPath>
</defs>
</svg>
