<svg width="62" height="61" viewBox="0 0 62 61" fill="none" xmlns="http://www.w3.org/2000/svg">
<g clip-path="url(#clip0_2570_3745)">
<path d="M18.2871 45.7467C15.4913 45.7467 13.2292 48.0342 13.2292 50.8301C13.2292 53.6259 15.4913 55.9134 18.2871 55.9134C21.0829 55.9134 23.3704 53.6259 23.3704 50.8301C23.3704 48.0342 21.0829 45.7467 18.2871 45.7467ZM43.7038 45.7467C40.9079 45.7467 38.6459 48.0342 38.6459 50.8301C38.6459 53.6259 40.9079 55.9134 43.7038 55.9134C46.4996 55.9134 48.7871 53.6259 48.7871 50.8301C48.7871 48.0342 46.4996 45.7467 43.7038 45.7467ZM21.0829 33.0384H40.0184C41.9246 33.0384 43.6021 31.9963 44.4663 30.4205L53.0571 14.8401C53.7434 13.6201 53.2859 12.0697 52.0659 11.3834C50.8459 10.7226 49.2954 11.1547 48.6346 12.3747L40.0184 27.9551H22.1759L12.0346 6.52883C11.6279 5.63924 10.7129 5.08008 9.74711 5.08008H5.57878C4.18086 5.08008 3.03711 6.22383 3.03711 7.62174C3.03711 9.01966 4.18086 10.1634 5.57878 10.1634H8.12044L17.2704 29.4547L13.8392 35.6563C11.9838 39.0622 14.4238 43.2051 18.2871 43.2051H46.2454C47.6434 43.2051 48.7871 42.0613 48.7871 40.6634C48.7871 39.2655 47.6434 38.1217 46.2454 38.1217H18.2871L21.0829 33.0384Z" fill="white"/>
</g>
<path fill-rule="evenodd" clip-rule="evenodd" d="M13.1348 11.084L50.7854 11.084L50.7854 16.1288L13.1348 16.1287L13.1348 11.084Z" fill="white"/>
<defs>
<clipPath id="clip0_2570_3745">
<rect width="61" height="61" fill="white" transform="translate(0.5)"/>
</clipPath>
</defs>
</svg>
