<svg width="18" height="15" viewBox="0 0 18 15" fill="none" xmlns="http://www.w3.org/2000/svg">
<path d="M2.00979 14.4143C2.55453 14.3978 3.08662 14.2557 3.49899 13.7985C4.01483 13.2267 3.94791 12.8666 3.94791 11.8699C3.94791 10.8733 3.79033 10.3894 3.2745 9.97151C2.91566 9.68082 2.49044 9.55404 2.08637 9.57558C1.6823 9.59712 0.852487 9.69947 0.448791 9.74346C0.0450955 9.78745 -0.00506546 9.98547 0.000635092 10.2278C0.0326194 11.5892 0.027491 11.255 0.0267914 11.8409C0.0261584 12.3711 0.0328184 12.742 0.000240469 13.9959C-0.00718209 14.2819 0.157226 14.4094 0.494036 14.4143C1.30364 14.4259 1.36687 14.4143 2.00979 14.4143ZM1.86218 12.6987C1.41363 12.6987 1.41363 12.7867 1.41363 11.9729C1.41363 11.1591 1.41363 11.1591 1.86218 11.1591C2.26588 11.1591 2.35559 11.555 2.35559 11.9509C2.35559 12.3468 2.26588 12.6987 1.86218 12.6987Z" fill="white"/>
<path d="M2.6062 8.65385C1.84302 8.75334 1.7981 8.76688 1.12367 8.78562C0.449251 8.80437 0.000506422 8.30193 0.000506422 7.64304V6.85238V6.06172C0.000506422 5.79614 -0.000633027 5.77771 0.000506422 5.6664C0.000506422 5.49069 0.0673875 5.31499 0.359907 5.31499H0.723771H0.873461C1.09758 5.31499 1.23286 5.46822 1.23286 5.70981C1.23286 5.9514 1.40174 6.1935 1.6622 6.1935C1.92266 6.1935 2.10444 6.0034 2.10444 5.72655C2.10444 5.44969 2.0374 5.15983 1.6622 4.89598C1.14386 4.53147 0.495382 4.1237 0.234655 3.70841C-0.0260727 3.29313 0.022967 2.78927 0.000506422 2.54768V1.27384C0.000506422 0.39533 0.449251 0 1.30334 0H2.38154C3.23511 0 3.68436 0.307479 3.6844 1.27384C3.68444 2.14206 3.68376 2.50476 3.68436 2.81123C3.68436 3.1846 3.59451 3.29441 3.23511 3.29441H2.88968C2.57818 3.29441 2.47382 3.14068 2.47382 2.85516C2.47382 2.68631 2.32741 2.4159 2.05786 2.4159C1.81104 2.4159 1.62526 2.59161 1.62526 2.85516C1.62526 3.0184 1.65475 3.46246 1.96663 3.72663C2.42866 4.11797 2.74881 4.16377 3.1548 4.60091C3.6269 5.10923 3.68436 5.38088 3.68436 6.28135V6.63276V7.64304C3.66194 8.23655 3.36938 8.55435 2.6062 8.65385Z" fill="white"/>
<path d="M5.34471 8.23777C5.70448 8.24084 6.37753 8.2158 6.9613 8.10596C7.54506 7.99612 8.1743 7.95218 8.1743 6.9417L8.12939 4.21754L8.1743 1.09794C8.1743 0.395451 7.63544 0.0873737 7.09658 0.0434362C6.55772 -0.000501248 5.74441 -0.000501248 5.25547 0.0434362C4.76653 0.0873737 4.22266 0.395451 4.22266 1.09794L4.26756 4.21754L4.22266 7.2932C4.22266 8.1499 4.95992 8.23449 5.34471 8.23777ZM6.19551 5.31593C5.69858 5.31593 5.65962 4.63357 5.65962 4.19036C5.65962 3.73549 5.70452 3.06479 6.19848 3.06479C6.69243 3.06479 6.73734 3.73549 6.73734 4.19036C6.73734 4.63357 6.69243 5.31593 6.19551 5.31593Z" fill="white"/>
<path d="M10.8231 7.66657C10.8231 7.66657 11.6993 7.55726 12.081 7.51332C12.8214 7.42809 12.9342 6.7439 12.9342 6.1952C12.9342 3.71419 12.8389 2.64921 12.9342 0.351513C12.9342 0.0873737 12.8214 1.42705e-06 12.575 1.42705e-06H11.5416C11.3171 -0.000501251 11.1722 0.131826 11.1829 0.351513C11.2727 2.19689 11.2727 3.55895 11.2727 4.21801C11.2727 4.48163 11.0482 4.65738 10.8237 4.65738C10.5992 4.65738 10.3746 4.48163 10.3746 4.21801C10.3746 3.55895 10.3746 2.19689 10.4645 0.351513C10.4645 0.131826 10.3516 1.42705e-06 10.1052 1.36415e-05H9.0724C8.84731 1.36415e-05 8.70083 0.0873737 8.71316 0.351513C8.82041 2.64921 8.75807 3.941 8.75807 6.50276C8.75807 7.64513 9.25145 7.78961 9.79032 7.75446C10.3292 7.71931 10.8231 7.66657 10.8231 7.66657Z" fill="white"/>
<path d="M13.8323 7.25676L14.9544 7.12454C15.2244 7.0806 15.2244 6.92682 15.2244 6.75159C15.2244 5.70935 15.1795 5.44826 15.1795 4.96495C15.1795 4.70132 15.3142 4.52557 15.5387 4.52557C15.7633 4.52557 15.898 4.70132 15.898 4.96495C15.898 5.44826 15.8531 5.59464 15.8531 6.64914C15.8531 6.78044 15.8531 7.0221 16.2117 6.97816L17.4691 6.83177C17.7161 6.80981 17.781 6.69996 17.761 6.45831C17.6936 5.64546 17.6936 5.71137 17.6544 4.70508C17.6544 3.50375 17.3565 3.3188 16.9513 3.17884V3.16717C17.3349 3.16717 17.784 2.7538 17.784 2.28476C17.784 1.77948 17.784 1.12669 17.784 0.878763C17.784 0.483326 17.4248 1.36415e-05 16.8859 1.36415e-05C16.4092 1.36415e-05 15.2273 1.36415e-05 14.5957 1.36415e-05C14.119 1.36415e-05 14.0679 1.36415e-05 13.8772 1.36415e-05C13.6234 1.36415e-05 13.4612 0.147004 13.4731 0.395451C13.518 3.55895 13.518 3.17057 13.4731 6.90526C13.4707 7.10246 13.518 7.30069 13.8323 7.25676ZM15.5387 2.6802C15.2244 2.6802 15.0448 2.46051 15.0448 2.02114C15.0448 1.58176 15.2244 1.36207 15.5387 1.36207C15.8531 1.36207 16.0327 1.58176 16.0327 2.02114C16.0327 2.46051 15.8531 2.6802 15.5387 2.6802Z" fill="white"/>
<path d="M10.3293 14.4195H11.8561C12.1924 14.4195 12.1699 14.1115 12.1699 14.1115C12.1699 14.1115 12.0357 12.0032 11.9908 10.6413C11.9903 10.5851 11.9908 10.5229 11.9908 10.4656C11.9908 10.3777 12.0806 10.2898 12.1705 10.2898C12.3967 10.2898 12.5372 10.6413 12.7991 10.6413C12.9339 10.6413 13.0237 10.5534 13.0237 10.4216C13.0237 9.22188 13.0236 9.67479 13.0236 8.62041C13.0236 8.35601 12.9558 8.26823 12.6639 8.2904C12.372 8.31256 9.56534 8.66362 9.56534 8.66362C9.18364 8.72952 9.16168 8.81739 9.16169 9.19153C9.16169 10.3777 9.16152 9.4122 9.16171 10.4216C9.16173 10.5534 9.25152 10.6413 9.38624 10.6413C9.64819 10.6413 9.78873 10.2898 10.015 10.2898C10.1053 10.2898 10.1946 10.3777 10.1946 10.4656C10.2101 10.5459 10.2005 10.4632 10.1946 10.6413C10.1497 11.995 9.99195 14.1115 9.99195 14.1115C9.99195 14.1115 9.99195 14.4195 10.3293 14.4195Z" fill="white"/>
<path d="M4.76587 14.4195H5.93443C6.249 14.4195 6.271 14.221 6.271 14.0669C6.271 13.9129 6.271 13.8469 6.249 13.3633C6.249 13.1872 6.33888 13.0112 6.56358 13.0112C6.78827 13.0112 6.88613 13.1874 6.87815 13.3633C6.85521 13.8689 6.85773 14.0224 6.85521 14.0669C6.83776 14.375 6.99003 14.4195 7.19273 14.4195H8.36114C8.5629 14.4195 8.72018 14.353 8.69771 14.0229C8.545 11.7794 8.56294 12.2623 8.42799 9.22566C8.41527 8.93938 8.31564 8.85156 8.04601 8.85156C7.95613 8.85161 6.60804 9.02761 6.60804 9.02761L5.08002 9.20365C4.90027 9.22566 4.71626 9.26967 4.69804 9.57775C4.51842 12.6145 4.60832 11.8223 4.42853 14.0669C4.4105 14.3665 4.58578 14.4195 4.76587 14.4195ZM6.56358 11.9549C6.33888 11.9549 6.06925 11.7789 6.06925 11.2947C6.06925 10.8106 6.33888 10.6346 6.56358 10.6346C6.78827 10.6346 7.05791 10.8106 7.05791 11.2947C7.05791 11.7789 6.78827 11.9549 6.56358 11.9549Z" fill="white"/>
<path d="M13.8341 14.4198H15.0012C15.3143 14.4186 15.3592 14.2649 15.3592 14.1332C15.3592 14.1113 15.3603 14.2652 15.3154 12.8387C15.3154 12.6631 15.4501 12.5314 15.6296 12.5314C15.8091 12.5314 15.9438 12.6631 15.9438 12.8387C15.8989 14.2652 15.8978 14.1113 15.8978 14.1332C15.8978 14.2872 15.9876 14.4198 16.258 14.4198H17.4248C17.7387 14.4198 17.7836 14.2869 17.7836 14.0674C17.5591 10.4684 17.581 10.8633 17.4463 8.14248C17.4322 7.85718 17.1994 7.76941 16.975 7.79127C16.7506 7.81313 15.4944 7.96584 15.4944 7.96584C15.4944 7.96584 14.3274 8.09771 14.1928 8.11966C14.0581 8.14161 13.8248 8.21895 13.8112 8.49277C13.6766 11.2155 13.7433 10.511 13.474 14.0674C13.4508 14.3742 13.6535 14.4198 13.8341 14.4198ZM15.6296 11.3023C15.2705 11.3023 15.1359 10.9951 15.1359 10.4683C15.1359 9.94161 15.2705 9.63435 15.6296 9.63435C15.9887 9.63435 16.1233 9.94161 16.1233 10.4683C16.1233 10.9951 15.9887 11.3023 15.6296 11.3023Z" fill="white"/>
</svg>
