<svg width="24" height="24" viewBox="0 0 24 24" fill="none" xmlns="http://www.w3.org/2000/svg">
<path fill-rule="evenodd" clip-rule="evenodd" d="M24 12C24 18.6274 18.6274 24 12 24C5.37258 24 0 18.6274 0 12C0 5.37258 5.37258 0 12 0C18.6274 0 24 5.37258 24 12ZM12 21.6C17.3019 21.6 21.6 17.3019 21.6 12C21.6 6.69807 17.3019 2.4 12 2.4C6.69807 2.4 2.4 6.69807 2.4 12C2.4 17.3019 6.69807 21.6 12 21.6Z" fill="#C4C4C4"/>
<path d="M13.0078 14.316C13.0078 12.3 16.2838 12.3 16.2838 9.444C16.2838 7.596 14.6878 6 12.0838 6C10.387 6 9.3622 6.7056 8.6734 7.3944C8.287 7.7976 8.0014 8.2512 7.7998 8.772L9.9838 9.78C10.1014 9.528 10.2694 9.3096 10.471 9.108C10.807 8.772 11.3278 8.436 12.0838 8.436C13.0078 8.436 13.5958 9.024 13.5958 9.612C13.5958 10.9728 10.6558 11.2752 10.6558 13.56C10.6558 13.7784 10.6894 13.9464 10.7398 14.0976C10.7566 14.1816 10.7902 14.2488 10.8238 14.316H13.0078ZM10.4878 16.752C10.4878 17.508 11.0758 18.096 11.8318 18.096C12.5878 18.096 13.1758 17.508 13.1758 16.752C13.1758 15.996 12.5878 15.408 11.8318 15.408C11.0758 15.408 10.4878 15.996 10.4878 16.752Z" fill="#C4C4C4"/>
</svg>
