<svg width="62" height="62" viewBox="0 0 62 62" fill="none" xmlns="http://www.w3.org/2000/svg">
<rect width="62" height="62" fill="white"/>
<path d="M30.1852 31.7318C35.1836 29.8738 35.9157 21.5743 35.0943 20.0903C35.0036 19.9263 38.1834 20.8666 38.1896 20.8898C38.8299 23.2665 39.5609 25.4963 42.5332 25.9162C42.7723 25.95 44.0946 25.9592 43.7108 24.532C43.6469 24.2943 42.4874 19.0999 42.0056 17.4714C41.7876 16.7344 39.5343 15.5902 36.7951 15.0791C34.4303 14.6379 31.8941 15.5417 31.6569 15.71C30.3063 16.6679 29.0852 18.8064 27.8318 20.5579C23.8317 26.1481 23.6845 26.7475 21.8975 27.3553C17.6646 28.7949 15.8489 29.314 15.4922 29.4647" stroke="#2E3BF5" stroke-width="2" stroke-miterlimit="1.5" stroke-linecap="round" stroke-linejoin="round"/>
<path d="M46.6295 22.7916C48.2334 21.4831 48.0746 19.4348 46.9985 18.5977C45.823 17.6833 43.8478 17.5951 42.1445 17.7344" stroke="#2E3BF5" stroke-width="2" stroke-miterlimit="1.5" stroke-linecap="round" stroke-linejoin="round"/>
<path d="M18.998 41.5263L25.5249 39.3469C26.998 38.6802 31.8696 40.569 32.4861 40.6932C33.4609 40.8895 34.3085 40.7228 35.5011 40.4113L43.6116 38.4998C47.7862 37.248 48.5795 33.7763 46.758 32.5996L38.7561 32.7227C36.4106 32.9707 36.2624 37.1071 39.2417 37.1212" stroke="#2E3BF5" stroke-width="2" stroke-miterlimit="1.5" stroke-linecap="round" stroke-linejoin="round"/>
<path d="M46.7579 32.6006C48.3035 31.4507 48.2815 29.0034 46.5608 27.7559L38.5993 27.872C35.6239 28.7062 36.3615 32.5409 38.9026 32.7197" stroke="#2E3BF5" stroke-width="2" stroke-miterlimit="1.5" stroke-linecap="round" stroke-linejoin="round"/>
<path d="M46.5757 27.762C48.3491 26.6819 48.3705 24.0523 46.6498 22.8047L43.4023 22.8682" stroke="#2E3BF5" stroke-width="2" stroke-miterlimit="1.5" stroke-linecap="round" stroke-linejoin="round"/>
<path d="M38.6868 22.918C35.4762 23.4866 36.2959 27.6742 38.8369 27.853" stroke="#2E3BF5" stroke-width="2" stroke-miterlimit="1.5" stroke-linecap="round" stroke-linejoin="round"/>
<path d="M51.2207 20.8242L51.2745 29.8598" stroke="#2E3BF5" stroke-width="2" stroke-miterlimit="1.5" stroke-linecap="round" stroke-linejoin="round"/>
<path d="M53.9766 22.416L54.0388 32.8626" stroke="#2E3BF5" stroke-width="2" stroke-miterlimit="1.5" stroke-linecap="round" stroke-linejoin="round"/>
<path d="M56.7012 19.875L56.7694 31.3293" stroke="#2E3BF5" stroke-width="2" stroke-miterlimit="1.5" stroke-linecap="round" stroke-linejoin="round"/>
<path d="M9.13672 2.92969L9.13672 48.1029" stroke="#2E3BF5" stroke-width="2" stroke-miterlimit="1.5" stroke-linecap="round" stroke-linejoin="round"/>
<path d="M59.3374 48.1738H8.84961" stroke="#2E3BF5" stroke-width="2" stroke-miterlimit="1.5" stroke-linecap="round" stroke-linejoin="round"/>
<path d="M2.49359 60.0631L9.13672 48.1055" stroke="#2E3BF5" stroke-width="2" stroke-miterlimit="1.5" stroke-linecap="round" stroke-linejoin="round"/>
<path d="M7.51562 5.16255L9.08378 2.69922L10.5834 5.0905" stroke="#2E3BF5" stroke-width="2" stroke-miterlimit="1.5" stroke-linecap="round" stroke-linejoin="round"/>
<path d="M56.6777 46.1836L59.9993 48.2211L56.7749 50.1695" stroke="#2E3BF5" stroke-width="2" stroke-miterlimit="1.5" stroke-linecap="round" stroke-linejoin="round"/>
<path d="M4.86523 59.1191L2.39209 60.6185L1.98891 57.853" stroke="#2E3BF5" stroke-width="2" stroke-miterlimit="1.5" stroke-linecap="round" stroke-linejoin="round"/>
</svg>
