<svg width="62" height="62" viewBox="0 0 62 62" fill="none" xmlns="http://www.w3.org/2000/svg">
<rect width="62" height="62" fill="white"/>
<path d="M43.7539 18.8301C43.8364 19.9174 44.603 20.825 45.6147 21.1257" stroke="#2E3BF5" stroke-width="2" stroke-miterlimit="1.5" stroke-linecap="round" stroke-linejoin="round"/>
<path fill-rule="evenodd" clip-rule="evenodd" d="M46.8843 6.83993C47.0511 6.82352 48.2848 9.15107 49.748 11.78C51.0315 14.086 52.5773 16.6149 52.5773 18.1185C52.5773 21.3365 50.0263 23.949 46.8843 23.949C43.7423 23.949 41.1914 21.3365 41.1914 18.1185C41.1914 16.745 42.4585 14.5245 43.6024 12.3943C45.1385 9.53369 46.6873 6.85929 46.8843 6.83993V6.83993Z" stroke="#2E3BF5" stroke-width="2" stroke-miterlimit="1.5" stroke-linecap="round" stroke-linejoin="round"/>
<path d="M46.4765 29.3202C54.1125 29.3202 60.3027 22.9805 60.3027 15.1601C60.3027 7.33969 54.1125 1 46.4765 1C38.8406 1 32.6504 7.33969 32.6504 15.1601C32.6504 22.9805 38.8406 29.3202 46.4765 29.3202Z" stroke="#2E3BF5" stroke-width="2" stroke-miterlimit="1.5" stroke-linecap="round" stroke-linejoin="round"/>
<path d="M20.6641 40.8379H45.0003" stroke="#2E3BF5" stroke-width="2" stroke-miterlimit="1.5" stroke-linecap="round" stroke-linejoin="round"/>
<path d="M44.9989 40.8389L45.1211 29.6367" stroke="#2E3BF5" stroke-width="2" stroke-miterlimit="1.5" stroke-linecap="round" stroke-linejoin="round"/>
<path d="M14.1376 23.8091C14.0541 20.248 10.1474 20.9678 10.1159 23.7585L9.96658 39.458L8.02103 37.6128C5.19843 34.4758 0.607129 35.7053 4.5 39.8758C4.5 39.8758 8.07199 46.0726 9.32542 47.4818C9.98741 48.226 11.7393 49.2167 11.7393 49.2167L11.8159 60.6842L24.0639 60.7807L23.9799 50.3074C23.9799 50.3074 26.0884 47.1298 26.3895 45.2636C26.4817 44.692 26.681 41.1997 26.7412 40.2549C26.9291 34.6031 26.8386 26.381 26.8386 26.381C26.8639 23.0701 23.3302 22.5911 23.0214 25.3987L23.0466 34.4892L23.0168 23.7291C23.0115 20.2003 18.975 19.8194 18.8895 23.6855M14.1376 23.8091L14.2867 34.6163M14.1376 23.8091C13.7882 18.8459 19.181 18.5203 18.8895 23.6855M18.8895 23.6855L18.6215 34.6005C18.6215 34.6005 18.8292 26.4163 18.8895 23.6855Z" stroke="#2E3BF5" stroke-width="2" stroke-miterlimit="1.5" stroke-linecap="round" stroke-linejoin="round"/>
<circle cx="18.9238" cy="40.8379" r="1.7383" fill="#2E3BF5"/>
</svg>
