<svg width="62" height="62" viewBox="0 0 62 62" fill="none" xmlns="http://www.w3.org/2000/svg">
<rect width="62" height="62" fill="white"/>
<path d="M42.1602 9.33984V13.4825" stroke="#2E3BF5" stroke-width="2" stroke-miterlimit="1.5" stroke-linecap="round" stroke-linejoin="round"/>
<path d="M20.4688 52.1876V48.0449" stroke="#2E3BF5" stroke-width="2" stroke-miterlimit="1.5" stroke-linecap="round" stroke-linejoin="round"/>
<path d="M52.2402 41.8887H48.1953" stroke="#2E3BF5" stroke-width="2" stroke-miterlimit="1.5" stroke-linecap="round" stroke-linejoin="round"/>
<path d="M10.2402 19.6738H14.2852" stroke="#2E3BF5" stroke-width="2" stroke-miterlimit="1.5" stroke-linecap="round" stroke-linejoin="round"/>
<path d="M20.4688 9.33984V13.4825" stroke="#2E3BF5" stroke-width="2" stroke-miterlimit="1.5" stroke-linecap="round" stroke-linejoin="round"/>
<path d="M42.1602 52.1876V48.0449" stroke="#2E3BF5" stroke-width="2" stroke-miterlimit="1.5" stroke-linecap="round" stroke-linejoin="round"/>
<path d="M52.2402 19.6738H48.1953" stroke="#2E3BF5" stroke-width="2" stroke-miterlimit="1.5" stroke-linecap="round" stroke-linejoin="round"/>
<path d="M10.2402 41.8887H14.2852" stroke="#2E3BF5" stroke-width="2" stroke-miterlimit="1.5" stroke-linecap="round" stroke-linejoin="round"/>
<path d="M25.9336 5V13.4826" stroke="#2E3BF5" stroke-width="2" stroke-miterlimit="1.5" stroke-linecap="round" stroke-linejoin="round"/>
<path d="M36.6953 56.5275V48.0449" stroke="#2E3BF5" stroke-width="2" stroke-miterlimit="1.5" stroke-linecap="round" stroke-linejoin="round"/>
<path d="M56.4798 25.2715H48.1973" stroke="#2E3BF5" stroke-width="2" stroke-miterlimit="1.5" stroke-linecap="round" stroke-linejoin="round"/>
<path d="M6 36.293H14.2825" stroke="#2E3BF5" stroke-width="2" stroke-miterlimit="1.5" stroke-linecap="round" stroke-linejoin="round"/>
<path d="M31.2793 9.33984V13.4825" stroke="#2E3BF5" stroke-width="2" stroke-miterlimit="1.5" stroke-linecap="round" stroke-linejoin="round"/>
<path d="M31.3477 52.1876V48.0449" stroke="#2E3BF5" stroke-width="2" stroke-miterlimit="1.5" stroke-linecap="round" stroke-linejoin="round"/>
<path d="M52.2402 30.7441H48.1953" stroke="#2E3BF5" stroke-width="2" stroke-miterlimit="1.5" stroke-linecap="round" stroke-linejoin="round"/>
<path d="M10.2402 30.8184H14.2852" stroke="#2E3BF5" stroke-width="2" stroke-miterlimit="1.5" stroke-linecap="round" stroke-linejoin="round"/>
<path d="M36.6289 5V13.4826" stroke="#2E3BF5" stroke-width="2" stroke-miterlimit="1.5" stroke-linecap="round" stroke-linejoin="round"/>
<path d="M25.9961 56.5275V48.0449" stroke="#2E3BF5" stroke-width="2" stroke-miterlimit="1.5" stroke-linecap="round" stroke-linejoin="round"/>
<path d="M56.4798 36.2266H48.1973" stroke="#2E3BF5" stroke-width="2" stroke-miterlimit="1.5" stroke-linecap="round" stroke-linejoin="round"/>
<path d="M6 25.3359H14.2825" stroke="#2E3BF5" stroke-width="2" stroke-miterlimit="1.5" stroke-linecap="round" stroke-linejoin="round"/>
<path fill-rule="evenodd" clip-rule="evenodd" d="M47.554 18.6203C47.554 16.0315 45.5017 13.9297 42.974 13.9297H19.5429C17.0151 13.9297 14.9629 16.0315 14.9629 18.6203V42.6174C14.9629 45.2062 17.0151 47.308 19.5429 47.308H42.974C45.5017 47.308 47.554 45.2062 47.554 42.6174V18.6203V18.6203Z" stroke="#2E3BF5" stroke-width="2" stroke-miterlimit="1.5" stroke-linecap="round" stroke-linejoin="round"/>
<path fill-rule="evenodd" clip-rule="evenodd" d="M40.0727 24.3641C40.0727 22.9989 38.9905 21.8906 37.6576 21.8906H25.3018C23.9689 21.8906 22.8867 22.9989 22.8867 24.3641V37.0183C22.8867 38.3834 23.9689 39.4917 25.3018 39.4917H37.6576C38.9905 39.4917 40.0727 38.3834 40.0727 37.0183V24.3641V24.3641Z" stroke="#2E3BF5" stroke-width="2" stroke-miterlimit="1.5" stroke-linecap="round" stroke-linejoin="round"/>
</svg>
