<svg width="1239" height="804" viewBox="0 0 1239 804" fill="none" xmlns="http://www.w3.org/2000/svg">
<rect width="1239" height="804" fill="white"/>
<rect width="620" height="804" fill="#EA4882"/>
<path d="M153.657 639.881C166.032 639.497 178.119 636.194 187.487 625.573C199.206 612.288 197.685 603.923 197.685 580.767C197.685 557.612 194.106 546.37 182.388 536.662C174.236 529.909 164.576 526.964 155.397 527.464C146.217 527.965 127.366 530.342 118.195 531.364C109.024 532.386 107.885 536.987 108.014 542.616C108.741 574.245 108.625 566.481 108.609 580.093C108.594 592.411 108.746 601.027 108.005 630.16C107.837 636.804 111.572 639.767 119.223 639.879C137.615 640.15 139.052 639.881 153.657 639.881ZM150.304 600.022C140.114 600.022 140.114 602.066 140.114 583.16C140.114 564.253 140.114 564.253 150.304 564.253C159.474 564.253 161.512 573.451 161.512 582.649C161.512 591.846 159.474 600.022 150.304 600.022Z" fill="white"/>
<path d="M167.206 506.052C149.868 508.363 148.848 508.678 133.527 509.114C118.206 509.549 108.012 497.876 108.012 482.568V464.199V445.83C108.012 439.66 107.986 439.232 108.012 436.646C108.012 432.563 109.531 428.481 116.176 428.481C117.437 428.482 122.418 428.481 124.442 428.481H127.843C132.934 428.481 136.007 432.041 136.007 437.654C136.007 443.267 139.844 448.892 145.761 448.892C151.677 448.892 155.807 444.475 155.807 438.043C155.807 431.611 154.284 424.877 145.761 418.747C133.985 410.278 119.254 400.805 113.331 391.156C107.408 381.508 108.522 369.802 108.012 364.189V334.595C108.012 314.185 118.206 305 137.608 305H162.102C181.493 305 191.698 312.144 191.699 334.595C191.7 354.766 191.685 363.192 191.698 370.312C191.698 378.987 189.657 381.538 181.493 381.538H173.645C166.569 381.538 164.198 377.966 164.198 371.333C164.198 367.41 160.872 361.128 154.749 361.128C149.142 361.128 144.921 365.21 144.921 371.333C144.921 375.126 145.591 385.442 152.676 391.58C163.172 400.672 170.445 401.735 179.668 411.891C190.393 423.701 191.698 430.012 191.698 450.933V459.097V482.568C191.189 496.357 184.543 503.74 167.206 506.052Z" fill="white"/>
<path d="M229.416 496.385C237.588 496.457 252.878 495.875 266.14 493.323C279.401 490.771 293.696 489.75 293.696 466.274L292.676 402.985L293.696 330.508C293.696 314.187 281.454 307.03 269.213 306.009C256.972 304.988 238.496 304.988 227.388 306.009C216.281 307.03 203.926 314.187 203.926 330.508L204.946 402.985L203.926 474.441C203.926 494.344 220.674 496.309 229.416 496.385ZM248.743 428.503C237.455 428.503 236.569 412.65 236.569 402.353C236.569 391.785 237.589 376.203 248.811 376.203C260.032 376.203 261.052 391.785 261.052 402.353C261.052 412.65 260.032 428.503 248.743 428.503Z" fill="white"/>
<path d="M353.87 483.115C353.87 483.115 373.775 480.575 382.446 479.554C399.265 477.574 401.828 461.679 401.828 448.931C401.828 391.291 399.662 366.548 401.828 313.167C401.828 307.03 399.265 305 393.667 305H370.192C365.091 304.988 361.8 308.063 362.043 313.167C364.084 356.04 364.084 387.684 364.084 402.996C364.084 409.12 358.983 413.203 353.882 413.203C348.782 413.203 343.681 409.12 343.681 402.996C343.681 387.684 343.681 356.04 345.721 313.167C345.721 308.063 343.158 305 337.561 305H314.098C308.985 305 305.657 307.03 305.937 313.167C308.374 366.548 306.957 396.56 306.957 456.076C306.957 482.617 318.166 485.973 330.407 485.157C342.648 484.34 353.87 483.115 353.87 483.115Z" fill="white"/>
<path d="M422.23 473.594L447.72 470.522C453.854 469.501 453.854 465.929 453.854 461.857C453.854 437.644 452.833 431.578 452.833 420.349C452.833 414.224 455.894 410.141 460.994 410.141C466.095 410.141 469.155 414.224 469.155 420.349C469.155 431.578 468.135 434.978 468.135 459.477C468.135 462.528 468.135 468.142 476.283 467.121L504.846 463.72C510.457 463.21 511.932 460.658 511.477 455.044C509.947 436.159 509.947 437.69 509.056 414.312C509.056 386.401 502.288 382.105 493.083 378.853V378.582C501.799 378.582 512 368.978 512 358.081C512 346.342 512 331.176 512 325.416C512 316.229 503.839 305 491.598 305C480.769 305 453.92 305 439.572 305C428.743 305 427.582 305 423.25 305C417.483 305 413.798 308.415 414.069 314.187C415.089 387.684 415.089 378.661 414.069 465.428C414.015 470.009 415.089 474.615 422.23 473.594ZM460.994 367.268C453.854 367.268 449.773 362.164 449.773 351.956C449.773 341.749 453.854 336.645 460.994 336.645C468.135 336.645 472.216 341.749 472.216 351.956C472.216 362.164 468.135 367.268 460.994 367.268Z" fill="white"/>
<path d="M342.635 639.998H377.319C384.958 639.998 384.448 632.841 384.448 632.841C384.448 632.841 381.4 583.861 380.38 552.22C380.368 550.914 380.38 549.469 380.38 548.137C380.38 546.096 382.42 544.055 384.46 544.055C389.599 544.055 392.79 552.22 398.741 552.22C401.802 552.22 403.842 550.179 403.842 547.117C403.842 519.243 403.841 529.765 403.841 505.269C403.841 499.127 402.3 497.087 395.669 497.602C389.038 498.117 325.281 506.273 325.281 506.273C316.609 507.804 316.111 509.846 316.111 518.538C316.111 546.096 316.107 523.665 316.111 547.117C316.112 550.179 318.152 552.22 321.212 552.22C327.163 552.22 330.355 544.055 335.494 544.055C337.548 544.055 339.575 546.096 339.575 548.137C339.928 550.002 339.709 548.083 339.575 552.22C338.555 583.67 334.972 632.841 334.972 632.841C334.972 632.841 334.972 639.998 342.635 639.998Z" fill="white"/>
<path d="M216.281 639.999H242.828C249.974 639.999 250.474 635.385 250.474 631.806C250.474 628.228 250.474 626.694 249.974 615.459C249.974 611.369 252.016 607.279 257.12 607.279C262.224 607.279 264.448 611.373 264.266 615.459C263.745 627.205 263.802 630.773 263.745 631.806C263.349 638.964 266.808 639.999 271.412 639.999H297.955C302.539 639.999 306.112 638.453 305.601 630.784C302.132 578.662 302.54 589.881 299.474 519.331C299.185 512.68 296.922 510.64 290.796 510.64C288.755 510.641 258.13 514.73 258.13 514.73L223.418 518.82C219.335 519.331 215.155 520.353 214.741 527.511C210.66 598.064 212.702 579.659 208.618 631.806C208.208 638.766 212.19 639.999 216.281 639.999ZM257.12 582.739C252.016 582.739 245.89 578.649 245.89 567.401C245.89 556.154 252.016 552.064 257.12 552.064C262.224 552.064 268.35 556.154 268.35 567.401C268.35 578.649 262.224 582.739 257.12 582.739Z" fill="white"/>
<path d="M422.277 640.016H448.792C455.904 639.988 456.923 636.419 456.923 633.36C456.923 632.85 456.949 636.426 455.929 603.283C455.929 599.204 458.988 596.145 463.067 596.145C467.146 596.145 470.205 599.204 470.205 603.283C469.185 636.426 469.159 632.85 469.159 633.36C469.159 636.936 471.199 640.016 477.342 640.016H503.85C510.979 640.016 511.999 636.929 511.999 631.83C506.901 548.215 507.398 557.39 504.338 494.179C504.017 487.551 498.73 485.511 493.631 486.019C488.533 486.527 459.996 490.075 459.996 490.075C459.996 490.075 433.485 493.139 430.426 493.649C427.367 494.159 422.066 495.955 421.759 502.317C418.7 565.573 420.215 549.206 414.097 631.83C413.569 638.958 418.176 640.016 422.277 640.016ZM463.067 567.591C454.91 567.591 451.851 560.452 451.851 548.215C451.851 535.977 454.91 528.839 463.067 528.839C471.224 528.839 474.283 535.977 474.283 548.215C474.283 560.452 471.224 567.591 463.067 567.591Z" fill="white"/>
<path d="M833.939 298.242H845.182V287C838.973 287 833.939 292.033 833.939 298.242Z" fill="#EA4882"/>
<path d="M856.424 287H845.182V298.243H856.424V287Z" fill="#EA4882"/>
<path d="M867.666 287H856.424V298.243H867.666V287Z" fill="#EA4882"/>
<path d="M878.909 287H867.667V298.243H878.909V287Z" fill="#EA4882"/>
<path d="M878.909 287V298.242H890.152C890.152 292.033 885.118 287 878.909 287Z" fill="#EA4882"/>
<path d="M912.636 292.622C912.636 293.932 912.636 298.243 912.636 298.243C912.636 298.243 908.809 298.243 907.015 298.243C905.613 298.243 901.394 298.243 901.394 298.243C901.394 298.243 901.394 294.325 901.394 292.622C901.394 289.517 903.91 287 907.015 287C910.119 287 912.636 289.517 912.636 292.622Z" fill="#EA4882"/>
<path d="M923.879 298.242H935.121V287C928.912 287 923.879 292.033 923.879 298.242Z" fill="#EA4882"/>
<path d="M946.364 287H935.121V298.243H946.364V287Z" fill="#EA4882"/>
<path d="M957.606 287H946.363V298.243H957.606V287Z" fill="#EA4882"/>
<path d="M968.849 287H957.606V298.243H968.849V287Z" fill="#EA4882"/>
<path d="M980.091 287H968.849V298.243H980.091V287Z" fill="#EA4882"/>
<path d="M985.712 298.243C984.402 298.243 980.091 298.243 980.091 298.243C980.091 298.243 980.091 294.416 980.091 292.622C980.091 291.22 980.091 287 980.091 287C980.091 287 984.009 287 985.712 287C988.816 287 991.333 289.517 991.333 292.622C991.333 295.726 988.816 298.243 985.712 298.243Z" fill="#EA4882"/>
<path d="M1013.82 292.622C1013.82 293.932 1013.82 298.243 1013.82 298.243C1013.82 298.243 1009.99 298.243 1008.2 298.243C1006.8 298.243 1002.58 298.243 1002.58 298.243C1002.58 298.243 1002.58 294.325 1002.58 292.622C1002.58 289.517 1005.09 287 1008.2 287C1011.3 287 1013.82 289.517 1013.82 292.622Z" fill="#EA4882"/>
<path d="M845.182 309.486V298.244H833.939C833.939 304.453 838.973 309.486 845.182 309.486Z" fill="#EA4882"/>
<path d="M856.425 298.244H845.183V309.487C851.392 309.487 856.425 304.453 856.425 298.244Z" fill="#EA4882"/>
<path d="M878.909 309.486V298.244H867.667C867.667 304.453 872.7 309.486 878.909 309.486Z" fill="#EA4882"/>
<path d="M890.152 298.244H878.909V309.486H890.152V298.244Z" fill="#EA4882"/>
<path d="M912.636 298.244H901.394V309.486H912.636V298.244Z" fill="#EA4882"/>
<path d="M935.121 298.244H923.879V309.486H935.121V298.244Z" fill="#EA4882"/>
<path d="M957.606 298.244H946.363V309.486H957.606V298.244Z" fill="#EA4882"/>
<path d="M1013.82 309.486V298.244H1002.58C1002.58 304.453 1007.61 309.486 1013.82 309.486Z" fill="#EA4882"/>
<path d="M1019.44 309.486C1018.13 309.486 1013.82 309.486 1013.82 309.486C1013.82 309.486 1013.82 305.659 1013.82 303.865C1013.82 302.464 1013.82 298.244 1013.82 298.244C1013.82 298.244 1017.74 298.244 1019.44 298.244C1022.54 298.244 1025.06 300.76 1025.06 303.865C1025.06 306.969 1022.54 309.486 1019.44 309.486Z" fill="#EA4882"/>
<path d="M862.045 309.485C865.15 309.485 867.666 312.002 867.666 315.107C867.666 318.211 865.15 320.728 862.045 320.728C858.941 320.728 856.424 318.211 856.424 315.107C856.424 312.002 858.941 309.485 862.045 309.485Z" fill="#EA4882"/>
<path d="M890.152 320.728V309.485H878.909C878.909 315.694 883.942 320.728 890.152 320.728Z" fill="#EA4882"/>
<path d="M901.394 309.485H890.151V320.728H901.394V309.485Z" fill="#EA4882"/>
<path d="M912.636 309.485H901.394V320.728C907.603 320.728 912.636 315.694 912.636 309.485Z" fill="#EA4882"/>
<path d="M923.879 315.107C923.879 313.796 923.879 309.485 923.879 309.485C923.879 309.485 927.706 309.485 929.5 309.485C930.901 309.485 935.121 309.485 935.121 309.485C935.121 309.485 935.121 313.404 935.121 315.107C935.121 318.211 932.604 320.728 929.5 320.728C926.396 320.728 923.879 318.211 923.879 315.107Z" fill="#EA4882"/>
<path d="M957.606 309.485H946.363V320.728H957.606V309.485Z" fill="#EA4882"/>
<path d="M957.606 309.485V320.728H968.849C968.849 314.519 963.815 309.485 957.606 309.485Z" fill="#EA4882"/>
<path d="M839.561 320.729C840.871 320.729 845.182 320.729 845.182 320.729C845.182 320.729 845.182 324.556 845.182 326.35C845.182 327.751 845.182 331.971 845.182 331.971C845.182 331.971 841.265 331.971 839.561 331.971C836.455 331.971 833.939 329.454 833.939 326.35C833.939 323.246 836.455 320.729 839.561 320.729Z" fill="#EA4882"/>
<path d="M850.803 331.971C849.493 331.971 845.182 331.971 845.182 331.971C845.182 331.971 845.182 328.144 845.182 326.35C845.182 324.949 845.182 320.729 845.182 320.729C845.182 320.729 849.1 320.729 850.803 320.729C853.907 320.729 856.424 323.246 856.424 326.35C856.424 329.455 853.907 331.971 850.803 331.971Z" fill="#EA4882"/>
<path d="M878.909 326.35C878.909 327.66 878.909 331.971 878.909 331.971C878.909 331.971 875.083 331.971 873.288 331.971C871.887 331.971 867.667 331.971 867.667 331.971C867.667 331.971 867.667 328.053 867.667 326.35C867.667 323.246 870.184 320.729 873.288 320.729C876.393 320.729 878.909 323.246 878.909 326.35Z" fill="#EA4882"/>
<path d="M957.606 331.972V320.729H946.363C946.363 326.939 951.397 331.972 957.606 331.972Z" fill="#EA4882"/>
<path d="M968.849 320.729H957.606V331.971H968.849V320.729Z" fill="#EA4882"/>
<path d="M1025.06 326.35C1025.06 327.66 1025.06 331.971 1025.06 331.971C1025.06 331.971 1021.23 331.971 1019.44 331.971C1018.04 331.971 1013.82 331.971 1013.82 331.971C1013.82 331.971 1013.82 328.053 1013.82 326.35C1013.82 323.246 1016.34 320.729 1019.44 320.729C1022.54 320.729 1025.06 323.246 1025.06 326.35Z" fill="#EA4882"/>
<path d="M862.045 331.971C863.355 331.971 867.666 331.971 867.666 331.971C867.666 331.971 867.666 335.797 867.666 337.592C867.666 338.993 867.666 343.213 867.666 343.213C867.666 343.213 863.749 343.213 862.045 343.213C858.939 343.213 856.424 340.695 856.424 337.592C856.424 334.488 858.939 331.971 862.045 331.971Z" fill="#EA4882"/>
<path d="M878.909 331.97H867.667V343.213C873.876 343.213 878.909 338.179 878.909 331.97Z" fill="#EA4882"/>
<path d="M923.879 343.213H935.121V331.97C928.912 331.97 923.879 337.004 923.879 343.213Z" fill="#EA4882"/>
<path d="M935.121 331.97V343.213H946.364C946.364 337.004 941.33 331.97 935.121 331.97Z" fill="#EA4882"/>
<path d="M968.849 331.971H957.606V343.213H968.849V331.971Z" fill="#EA4882"/>
<path d="M980.091 331.971H968.849V343.213H980.091V331.971Z" fill="#EA4882"/>
<path d="M980.091 331.97V343.213H991.333C991.333 337.004 986.3 331.97 980.091 331.97Z" fill="#EA4882"/>
<path d="M1013.82 337.592C1013.82 336.282 1013.82 331.971 1013.82 331.971C1013.82 331.971 1017.65 331.971 1019.44 331.971C1020.84 331.971 1025.06 331.971 1025.06 331.971C1025.06 331.971 1025.06 335.889 1025.06 337.592C1025.06 340.696 1022.54 343.213 1019.44 343.213C1016.34 343.213 1013.82 340.696 1013.82 337.592Z" fill="#EA4882"/>
<path d="M895.773 343.212C897.083 343.212 901.394 343.212 901.394 343.212C901.394 343.212 901.394 347.039 901.394 348.834C901.394 350.235 901.394 354.455 901.394 354.455C901.394 354.455 897.477 354.455 895.773 354.455C892.667 354.455 890.151 351.937 890.151 348.834C890.151 345.73 892.667 343.212 895.773 343.212Z" fill="#EA4882"/>
<path d="M912.636 343.212H901.394V354.455H912.636V343.212Z" fill="#EA4882"/>
<path d="M923.879 343.212H912.637V354.455H923.879V343.212Z" fill="#EA4882"/>
<path d="M935.121 343.212H923.879V354.455H935.121V343.212Z" fill="#EA4882"/>
<path d="M946.364 343.212H935.121V354.454C941.33 354.454 946.364 349.421 946.364 343.212Z" fill="#EA4882"/>
<path d="M968.849 354.454V343.212H957.606C957.606 349.421 962.64 354.454 968.849 354.454Z" fill="#EA4882"/>
<path d="M980.091 343.212H968.849V354.455H980.091V343.212Z" fill="#EA4882"/>
<path d="M991.333 343.212H980.091V354.454C986.3 354.454 991.333 349.421 991.333 343.212Z" fill="#EA4882"/>
<path d="M845.182 360.077C845.182 361.387 845.182 365.698 845.182 365.698C845.182 365.698 841.355 365.698 839.561 365.698C838.159 365.698 833.939 365.698 833.939 365.698C833.939 365.698 833.939 361.78 833.939 360.077C833.94 356.972 836.456 354.456 839.561 354.456C842.665 354.456 845.182 356.972 845.182 360.077Z" fill="#EA4882"/>
<path d="M867.666 360.077C867.666 361.387 867.666 365.698 867.666 365.698C867.666 365.698 863.839 365.698 862.045 365.698C860.644 365.698 856.424 365.698 856.424 365.698C856.424 365.698 856.424 361.78 856.424 360.077C856.424 356.972 858.941 354.456 862.045 354.456C865.149 354.456 867.666 356.972 867.666 360.077Z" fill="#EA4882"/>
<path d="M884.53 354.456C887.635 354.456 890.152 356.972 890.152 360.077C890.152 363.181 887.635 365.698 884.53 365.698C881.426 365.698 878.909 363.181 878.909 360.077C878.909 356.972 881.426 354.456 884.53 354.456Z" fill="#EA4882"/>
<path d="M912.636 354.456H901.394V365.698H912.636V354.456Z" fill="#EA4882"/>
<path d="M935.121 354.456H923.879V365.698H935.121V354.456Z" fill="#EA4882"/>
<path d="M957.606 360.077C957.606 361.387 957.606 365.698 957.606 365.698C957.606 365.698 953.779 365.698 951.984 365.698C950.583 365.698 946.363 365.698 946.363 365.698C946.363 365.698 946.363 361.78 946.363 360.077C946.363 356.972 948.88 354.456 951.984 354.456C955.089 354.456 957.606 356.972 957.606 360.077Z" fill="#EA4882"/>
<path d="M980.091 354.456H968.849V365.698H980.091V354.456Z" fill="#EA4882"/>
<path d="M996.954 354.456C1000.06 354.456 1002.58 356.972 1002.58 360.077C1002.58 363.181 1000.06 365.698 996.954 365.698C993.85 365.698 991.333 363.181 991.333 360.077C991.333 356.972 993.85 354.456 996.954 354.456Z" fill="#EA4882"/>
<path d="M1025.06 360.077C1025.06 361.387 1025.06 365.698 1025.06 365.698C1025.06 365.698 1021.23 365.698 1019.44 365.698C1018.04 365.698 1013.82 365.698 1013.82 365.698C1013.82 365.698 1013.82 361.78 1013.82 360.077C1013.82 356.972 1016.34 354.456 1019.44 354.456C1022.54 354.456 1025.06 356.972 1025.06 360.077Z" fill="#EA4882"/>
<path d="M845.182 376.942V365.7H833.939C833.939 371.909 838.973 376.942 845.182 376.942Z" fill="#EA4882"/>
<path d="M856.424 365.699H845.182V376.942H856.424V365.699Z" fill="#EA4882"/>
<path d="M867.666 365.699H856.424V376.942H867.666V365.699Z" fill="#EA4882"/>
<path d="M867.667 365.7V376.942H878.909C878.909 370.733 873.876 365.7 867.667 365.7Z" fill="#EA4882"/>
<path d="M912.636 365.699H901.394V376.942H912.636V365.699Z" fill="#EA4882"/>
<path d="M923.879 365.699H912.637V376.942H923.879V365.699Z" fill="#EA4882"/>
<path d="M935.121 365.699H923.879V376.942H935.121V365.699Z" fill="#EA4882"/>
<path d="M946.364 365.699H935.121V376.942H946.364V365.699Z" fill="#EA4882"/>
<path d="M957.606 365.699H946.363V376.942H957.606V365.699Z" fill="#EA4882"/>
<path d="M968.849 365.699H957.606V376.942H968.849V365.699Z" fill="#EA4882"/>
<path d="M980.091 365.7H968.849V376.942C975.058 376.942 980.091 371.909 980.091 365.7Z" fill="#EA4882"/>
<path d="M1008.2 365.699C1009.51 365.699 1013.82 365.699 1013.82 365.699C1013.82 365.699 1013.82 369.526 1013.82 371.32C1013.82 372.721 1013.82 376.942 1013.82 376.942C1013.82 376.942 1009.9 376.942 1008.2 376.942C1005.09 376.942 1002.58 374.424 1002.58 371.32C1002.58 368.217 1005.09 365.699 1008.2 365.699Z" fill="#EA4882"/>
<path d="M1025.06 365.7H1013.82V376.942C1020.03 376.942 1025.06 371.909 1025.06 365.7Z" fill="#EA4882"/>
<path d="M755.242 382.562C755.242 383.872 755.242 388.183 755.242 388.183C755.242 388.183 751.416 388.183 749.621 388.183C748.22 388.183 744 388.183 744 388.183C744 388.183 744 384.265 744 382.562C744 379.458 746.517 376.941 749.621 376.941C752.726 376.941 755.242 379.458 755.242 382.562Z" fill="#EA4882"/>
<path d="M766.485 388.184H777.728V376.941C771.519 376.941 766.485 381.975 766.485 388.184Z" fill="#EA4882"/>
<path d="M777.728 376.941V388.184H788.97C788.97 381.975 783.937 376.941 777.728 376.941Z" fill="#EA4882"/>
<path d="M805.833 376.941C807.143 376.941 811.454 376.941 811.454 376.941C811.454 376.941 811.454 380.767 811.454 382.562C811.454 383.963 811.454 388.183 811.454 388.183C811.454 388.183 807.537 388.183 805.833 388.183C802.728 388.183 800.212 385.666 800.212 382.562C800.212 379.458 802.728 376.941 805.833 376.941Z" fill="#EA4882"/>
<path d="M822.697 376.941H811.454V388.183H822.697V376.941Z" fill="#EA4882"/>
<path d="M828.318 388.183C827.008 388.183 822.697 388.183 822.697 388.183C822.697 388.183 822.697 384.356 822.697 382.562C822.697 381.161 822.697 376.941 822.697 376.941C822.697 376.941 826.615 376.941 828.318 376.941C831.423 376.941 833.94 379.458 833.94 382.562C833.94 385.666 831.423 388.183 828.318 388.183Z" fill="#EA4882"/>
<path d="M878.909 376.941H867.667V388.183H878.909V376.941Z" fill="#EA4882"/>
<path d="M878.909 376.941V388.184H890.152C890.152 381.975 885.118 376.941 878.909 376.941Z" fill="#EA4882"/>
<path d="M912.636 388.184V376.941H901.394C901.394 383.15 906.427 388.184 912.636 388.184Z" fill="#EA4882"/>
<path d="M923.879 376.941H912.637V388.183H923.879V376.941Z" fill="#EA4882"/>
<path d="M935.121 376.941H923.879V388.183H935.121V376.941Z" fill="#EA4882"/>
<path d="M946.364 376.941H935.121V388.183H946.364V376.941Z" fill="#EA4882"/>
<path d="M957.606 376.941H946.363V388.183H957.606V376.941Z" fill="#EA4882"/>
<path d="M968.849 376.941H957.606V388.183H968.849V376.941Z" fill="#EA4882"/>
<path d="M985.712 376.941C988.817 376.941 991.333 379.458 991.333 382.562C991.333 385.667 988.817 388.183 985.712 388.183C982.608 388.183 980.091 385.667 980.091 382.562C980.091 379.458 982.608 376.941 985.712 376.941Z" fill="#EA4882"/>
<path d="M1047.55 382.562C1047.55 383.872 1047.55 388.183 1047.55 388.183C1047.55 388.183 1043.72 388.183 1041.92 388.183C1040.52 388.183 1036.3 388.183 1036.3 388.183C1036.3 388.183 1036.3 384.265 1036.3 382.562C1036.3 379.458 1038.82 376.941 1041.92 376.941C1045.03 376.941 1047.55 379.458 1047.55 382.562Z" fill="#EA4882"/>
<path d="M1081.27 382.562C1081.27 383.872 1081.27 388.183 1081.27 388.183C1081.27 388.183 1077.45 388.183 1075.65 388.183C1074.25 388.183 1070.03 388.183 1070.03 388.183C1070.03 388.183 1070.03 384.265 1070.03 382.562C1070.03 379.458 1072.55 376.941 1075.65 376.941C1078.76 376.941 1081.27 379.458 1081.27 382.562Z" fill="#EA4882"/>
<path d="M1098.14 376.941C1099.45 376.941 1103.76 376.941 1103.76 376.941C1103.76 376.941 1103.76 380.767 1103.76 382.562C1103.76 383.963 1103.76 388.183 1103.76 388.183C1103.76 388.183 1099.84 388.183 1098.14 388.183C1095.03 388.183 1092.52 385.666 1092.52 382.562C1092.52 379.458 1095.03 376.941 1098.14 376.941Z" fill="#EA4882"/>
<path d="M1103.76 376.941V388.184H1115C1115 381.975 1109.97 376.941 1103.76 376.941Z" fill="#EA4882"/>
<path d="M744 393.804C744 392.494 744 388.183 744 388.183C744 388.183 747.827 388.183 749.621 388.183C751.023 388.183 755.242 388.183 755.242 388.183C755.242 388.183 755.242 392.101 755.242 393.804C755.242 396.908 752.726 399.425 749.621 399.425C746.517 399.425 744 396.908 744 393.804Z" fill="#EA4882"/>
<path d="M777.728 388.183H766.485V399.425H777.728V388.183Z" fill="#EA4882"/>
<path d="M788.97 388.182H777.728V399.425C783.937 399.425 788.97 394.391 788.97 388.182Z" fill="#EA4882"/>
<path d="M839.561 388.183C840.871 388.183 845.182 388.183 845.182 388.183C845.182 388.183 845.182 392.009 845.182 393.804C845.182 395.205 845.182 399.425 845.182 399.425C845.182 399.425 841.265 399.425 839.561 399.425C836.455 399.425 833.939 396.907 833.939 393.804C833.939 390.7 836.455 388.183 839.561 388.183Z" fill="#EA4882"/>
<path d="M856.424 388.183H845.182V399.425H856.424V388.183Z" fill="#EA4882"/>
<path d="M867.666 388.183H856.424V399.425H867.666V388.183Z" fill="#EA4882"/>
<path d="M878.909 388.183H867.667V399.425H878.909V388.183Z" fill="#EA4882"/>
<path d="M890.152 388.183H878.909V399.425H890.152V388.183Z" fill="#EA4882"/>
<path d="M890.151 388.182V399.425H901.394C901.394 393.215 896.36 388.182 890.151 388.182Z" fill="#EA4882"/>
<path d="M935.121 388.183H923.879V399.425H935.121V388.183Z" fill="#EA4882"/>
<path d="M946.364 388.183H935.121V399.425H946.364V388.183Z" fill="#EA4882"/>
<path d="M957.606 388.183H946.363V399.425H957.606V388.183Z" fill="#EA4882"/>
<path d="M968.849 388.183H957.606V399.425H968.849V388.183Z" fill="#EA4882"/>
<path d="M968.849 388.182V399.425H980.091C980.091 393.215 975.058 388.182 968.849 388.182Z" fill="#EA4882"/>
<path d="M1013.82 393.804C1013.82 395.114 1013.82 399.425 1013.82 399.425C1013.82 399.425 1009.99 399.425 1008.2 399.425C1006.8 399.425 1002.58 399.425 1002.58 399.425C1002.58 399.425 1002.58 395.507 1002.58 393.804C1002.58 390.699 1005.09 388.183 1008.2 388.183C1011.3 388.183 1013.82 390.699 1013.82 393.804Z" fill="#EA4882"/>
<path d="M1047.55 399.425V388.182H1036.3C1036.3 394.391 1041.34 399.425 1047.55 399.425Z" fill="#EA4882"/>
<path d="M1047.55 388.182V399.425H1058.79C1058.79 393.215 1053.75 388.182 1047.55 388.182Z" fill="#EA4882"/>
<path d="M1081.27 388.183H1070.03V399.425H1081.27V388.183Z" fill="#EA4882"/>
<path d="M1086.89 399.425C1085.58 399.425 1081.27 399.425 1081.27 399.425C1081.27 399.425 1081.27 395.598 1081.27 393.804C1081.27 392.402 1081.27 388.183 1081.27 388.183C1081.27 388.183 1085.19 388.183 1086.89 388.183C1090 388.183 1092.51 390.699 1092.51 393.804C1092.51 396.908 1090 399.425 1086.89 399.425Z" fill="#EA4882"/>
<path d="M1115 388.183H1103.76V399.425H1115V388.183Z" fill="#EA4882"/>
<path d="M755.243 410.669H766.486V399.426C760.277 399.426 755.243 404.46 755.243 410.669Z" fill="#EA4882"/>
<path d="M777.728 399.426H766.485V410.669C772.694 410.669 777.728 405.635 777.728 399.426Z" fill="#EA4882"/>
<path d="M800.212 405.047C800.212 406.357 800.212 410.668 800.212 410.668C800.212 410.668 796.385 410.668 794.591 410.668C793.19 410.668 788.97 410.668 788.97 410.668C788.97 410.668 788.97 406.75 788.97 405.047C788.97 401.943 791.486 399.426 794.591 399.426C797.695 399.426 800.212 401.943 800.212 405.047Z" fill="#EA4882"/>
<path d="M817.075 399.426C820.18 399.426 822.697 401.943 822.697 405.047C822.697 408.152 820.18 410.668 817.075 410.668C813.971 410.668 811.454 408.152 811.454 405.047C811.454 401.943 813.971 399.426 817.075 399.426Z" fill="#EA4882"/>
<path d="M856.425 410.669V399.426H845.183C845.183 405.635 850.216 410.669 856.425 410.669Z" fill="#EA4882"/>
<path d="M867.666 399.426H856.424V410.668H867.666V399.426Z" fill="#EA4882"/>
<path d="M878.909 399.426H867.667V410.668H878.909V399.426Z" fill="#EA4882"/>
<path d="M890.151 405.047C890.151 403.737 890.151 399.426 890.151 399.426C890.151 399.426 893.978 399.426 895.773 399.426C897.174 399.426 901.394 399.426 901.394 399.426C901.394 399.426 901.394 403.344 901.394 405.047C901.394 408.151 898.877 410.668 895.773 410.668C892.668 410.668 890.151 408.151 890.151 405.047Z" fill="#EA4882"/>
<path d="M923.879 405.047C923.879 403.737 923.879 399.426 923.879 399.426C923.879 399.426 927.706 399.426 929.5 399.426C930.901 399.426 935.121 399.426 935.121 399.426C935.121 399.426 935.121 403.344 935.121 405.047C935.121 408.151 932.604 410.668 929.5 410.668C926.396 410.668 923.879 408.151 923.879 405.047Z" fill="#EA4882"/>
<path d="M946.363 405.047C946.363 403.737 946.363 399.426 946.363 399.426C946.363 399.426 950.19 399.426 951.984 399.426C953.386 399.426 957.606 399.426 957.606 399.426C957.606 399.426 957.606 403.344 957.606 405.047C957.606 408.151 955.089 410.668 951.984 410.668C948.88 410.668 946.363 408.151 946.363 405.047Z" fill="#EA4882"/>
<path d="M980.091 410.669V399.426H968.849C968.849 405.635 973.882 410.669 980.091 410.669Z" fill="#EA4882"/>
<path d="M991.333 399.426H980.091V410.668H991.333V399.426Z" fill="#EA4882"/>
<path d="M1002.58 399.426H991.333V410.668H1002.58V399.426Z" fill="#EA4882"/>
<path d="M1013.82 399.426H1002.58V410.668H1013.82V399.426Z" fill="#EA4882"/>
<path d="M1030.68 399.426C1033.79 399.426 1036.3 401.943 1036.3 405.047C1036.3 408.152 1033.79 410.668 1030.68 410.668C1027.58 410.668 1025.06 408.152 1025.06 405.047C1025.06 401.943 1027.58 399.426 1030.68 399.426Z" fill="#EA4882"/>
<path d="M1058.79 399.426H1047.55V410.668H1058.79V399.426Z" fill="#EA4882"/>
<path d="M1070.03 399.426H1058.79V410.668H1070.03V399.426Z" fill="#EA4882"/>
<path d="M1081.27 399.426H1070.03V410.668H1081.27V399.426Z" fill="#EA4882"/>
<path d="M1115 399.426H1103.76V410.668H1115V399.426Z" fill="#EA4882"/>
<path d="M749.621 410.667C750.931 410.667 755.242 410.667 755.242 410.667C755.242 410.667 755.242 414.494 755.242 416.289C755.242 417.69 755.242 421.91 755.242 421.91C755.242 421.91 751.325 421.91 749.621 421.91C746.516 421.91 744 419.392 744 416.289C744 413.185 746.516 410.667 749.621 410.667Z" fill="#EA4882"/>
<path d="M766.486 410.667H755.243V421.91C761.452 421.91 766.486 416.876 766.486 410.667Z" fill="#EA4882"/>
<path d="M777.728 421.91H788.97V410.667C782.761 410.668 777.728 415.701 777.728 421.91Z" fill="#EA4882"/>
<path d="M800.211 410.667H788.969V421.91C795.178 421.91 800.211 416.876 800.211 410.667Z" fill="#EA4882"/>
<path d="M828.318 410.667C829.629 410.667 833.94 410.667 833.94 410.667C833.94 410.667 833.94 414.494 833.94 416.289C833.94 417.69 833.94 421.91 833.94 421.91C833.94 421.91 830.022 421.91 828.318 421.91C825.213 421.91 822.697 419.392 822.697 416.289C822.697 413.185 825.213 410.667 828.318 410.667Z" fill="#EA4882"/>
<path d="M833.939 410.667V421.91H845.182C845.182 415.701 840.148 410.667 833.939 410.667Z" fill="#EA4882"/>
<path d="M867.666 410.667H856.424V421.91H867.666V410.667Z" fill="#EA4882"/>
<path d="M878.909 410.667H867.667V421.91H878.909V410.667Z" fill="#EA4882"/>
<path d="M884.53 421.91C883.22 421.91 878.909 421.91 878.909 421.91C878.909 421.91 878.909 418.083 878.909 416.289C878.909 414.887 878.909 410.667 878.909 410.667C878.909 410.667 882.827 410.667 884.53 410.667C887.635 410.667 890.152 413.184 890.152 416.289C890.152 419.393 887.635 421.91 884.53 421.91Z" fill="#EA4882"/>
<path d="M923.879 416.289C923.879 417.599 923.879 421.91 923.879 421.91C923.879 421.91 920.052 421.91 918.258 421.91C916.857 421.91 912.637 421.91 912.637 421.91C912.637 421.91 912.637 417.992 912.637 416.289C912.637 413.184 915.153 410.667 918.258 410.667C921.362 410.667 923.879 413.184 923.879 416.289Z" fill="#EA4882"/>
<path d="M940.742 410.667C943.847 410.667 946.364 413.184 946.364 416.289C946.364 419.393 943.847 421.91 940.742 421.91C937.638 421.91 935.121 419.393 935.121 416.289C935.121 413.184 937.638 410.667 940.742 410.667Z" fill="#EA4882"/>
<path d="M1013.82 421.91V410.667H1002.58C1002.58 416.876 1007.61 421.91 1013.82 421.91Z" fill="#EA4882"/>
<path d="M1019.44 421.91C1018.13 421.91 1013.82 421.91 1013.82 421.91C1013.82 421.91 1013.82 418.083 1013.82 416.289C1013.82 414.887 1013.82 410.667 1013.82 410.667C1013.82 410.667 1017.74 410.667 1019.44 410.667C1022.54 410.667 1025.06 413.184 1025.06 416.289C1025.06 419.393 1022.54 421.91 1019.44 421.91Z" fill="#EA4882"/>
<path d="M1041.92 410.667C1043.23 410.667 1047.55 410.667 1047.55 410.667C1047.55 410.667 1047.55 414.494 1047.55 416.289C1047.55 417.69 1047.55 421.91 1047.55 421.91C1047.55 421.91 1043.63 421.91 1041.92 421.91C1038.82 421.91 1036.3 419.392 1036.3 416.289C1036.3 413.185 1038.82 410.667 1041.92 410.667Z" fill="#EA4882"/>
<path d="M1058.79 410.667H1047.55V421.91H1058.79V410.667Z" fill="#EA4882"/>
<path d="M1081.27 410.667H1070.03V421.91H1081.27V410.667Z" fill="#EA4882"/>
<path d="M1098.14 410.667C1099.45 410.667 1103.76 410.667 1103.76 410.667C1103.76 410.667 1103.76 414.494 1103.76 416.289C1103.76 417.69 1103.76 421.91 1103.76 421.91C1103.76 421.91 1099.84 421.91 1098.14 421.91C1095.03 421.91 1092.52 419.392 1092.52 416.289C1092.52 413.185 1095.03 410.667 1098.14 410.667Z" fill="#EA4882"/>
<path d="M1115 410.667H1103.76V421.91C1109.97 421.91 1115 416.876 1115 410.667Z" fill="#EA4882"/>
<path d="M777.728 427.532C777.728 426.222 777.728 421.911 777.728 421.911C777.728 421.911 781.554 421.911 783.349 421.911C784.75 421.911 788.97 421.911 788.97 421.911C788.97 421.911 788.97 425.829 788.97 427.532C788.97 430.637 786.453 433.154 783.349 433.154C780.244 433.154 777.728 430.637 777.728 427.532Z" fill="#EA4882"/>
<path d="M800.212 433.154H811.454V421.912C805.245 421.912 800.212 426.945 800.212 433.154Z" fill="#EA4882"/>
<path d="M817.075 433.154C815.765 433.154 811.454 433.154 811.454 433.154C811.454 433.154 811.454 429.326 811.454 427.532C811.454 426.131 811.454 421.911 811.454 421.911C811.454 421.911 815.372 421.911 817.075 421.911C820.18 421.911 822.697 424.428 822.697 427.532C822.697 430.637 820.18 433.154 817.075 433.154Z" fill="#EA4882"/>
<path d="M833.939 427.532C833.939 426.222 833.939 421.911 833.939 421.911C833.939 421.911 837.766 421.911 839.561 421.911C840.962 421.911 845.182 421.911 845.182 421.911C845.182 421.911 845.182 425.829 845.182 427.532C845.182 430.637 842.665 433.154 839.561 433.154C836.456 433.154 833.939 430.637 833.939 427.532Z" fill="#EA4882"/>
<path d="M867.666 421.911H856.424V433.154H867.666V421.911Z" fill="#EA4882"/>
<path d="M878.909 421.911H867.667V433.154H878.909V421.911Z" fill="#EA4882"/>
<path d="M901.394 433.154H912.636V421.912C906.427 421.912 901.394 426.945 901.394 433.154Z" fill="#EA4882"/>
<path d="M923.879 421.911H912.637V433.154H923.879V421.911Z" fill="#EA4882"/>
<path d="M929.5 433.154C928.19 433.154 923.879 433.154 923.879 433.154C923.879 433.154 923.879 429.326 923.879 427.532C923.879 426.131 923.879 421.911 923.879 421.911C923.879 421.911 927.797 421.911 929.5 421.911C932.604 421.911 935.121 424.428 935.121 427.532C935.121 430.637 932.604 433.154 929.5 433.154Z" fill="#EA4882"/>
<path d="M1002.58 427.532C1002.58 428.842 1002.58 433.154 1002.58 433.154C1002.58 433.154 998.749 433.154 996.954 433.153C995.553 433.154 991.333 433.153 991.333 433.153C991.333 433.153 991.333 429.235 991.333 427.532C991.333 424.428 993.85 421.911 996.954 421.911C1000.06 421.911 1002.58 424.428 1002.58 427.532Z" fill="#EA4882"/>
<path d="M1036.3 427.532C1036.3 428.842 1036.3 433.154 1036.3 433.154C1036.3 433.154 1032.48 433.154 1030.68 433.153C1029.28 433.154 1025.06 433.153 1025.06 433.153C1025.06 433.153 1025.06 429.235 1025.06 427.532C1025.06 424.428 1027.58 421.911 1030.68 421.911C1033.79 421.911 1036.3 424.428 1036.3 427.532Z" fill="#EA4882"/>
<path d="M1058.79 421.911H1047.55V433.154H1058.79V421.911Z" fill="#EA4882"/>
<path d="M1070.03 421.911H1058.79V433.154H1070.03V421.911Z" fill="#EA4882"/>
<path d="M1081.27 421.912H1070.03V433.154C1076.24 433.154 1081.27 428.121 1081.27 421.912Z" fill="#EA4882"/>
<path d="M777.728 438.774C777.728 440.084 777.728 444.395 777.728 444.395C777.728 444.395 773.901 444.395 772.107 444.395C770.705 444.395 766.485 444.395 766.485 444.395C766.485 444.395 766.485 440.477 766.485 438.774C766.485 435.67 769.002 433.153 772.106 433.153C775.211 433.153 777.728 435.67 777.728 438.774Z" fill="#EA4882"/>
<path d="M800.212 438.774C800.212 437.464 800.212 433.153 800.212 433.153C800.212 433.153 804.039 433.153 805.833 433.153C807.234 433.153 811.454 433.153 811.454 433.153C811.454 433.153 811.454 437.071 811.454 438.774C811.454 441.878 808.937 444.395 805.833 444.395C802.729 444.395 800.212 441.878 800.212 438.774Z" fill="#EA4882"/>
<path d="M845.183 444.395H856.425V433.152C850.216 433.152 845.183 438.186 845.183 444.395Z" fill="#EA4882"/>
<path d="M867.666 433.153H856.424V444.395H867.666V433.153Z" fill="#EA4882"/>
<path d="M878.909 433.153H867.667V444.395C873.876 444.395 878.909 439.362 878.909 433.153Z" fill="#EA4882"/>
<path d="M912.636 433.153H901.394V444.395H912.636V433.153Z" fill="#EA4882"/>
<path d="M940.742 433.153C943.847 433.153 946.364 435.67 946.364 438.774C946.364 441.879 943.847 444.395 940.742 444.395C937.638 444.395 935.121 441.879 935.121 438.774C935.121 435.67 937.638 433.153 940.742 433.153Z" fill="#EA4882"/>
<path d="M968.849 438.774C968.849 440.084 968.849 444.395 968.849 444.395C968.849 444.395 965.022 444.395 963.228 444.395C961.826 444.395 957.606 444.395 957.606 444.395C957.606 444.395 957.606 440.477 957.606 438.774C957.607 435.67 960.123 433.153 963.228 433.153C966.332 433.153 968.849 435.67 968.849 438.774Z" fill="#EA4882"/>
<path d="M980.091 444.395H991.333V433.153C985.124 433.153 980.091 438.186 980.091 444.395Z" fill="#EA4882"/>
<path d="M1002.58 433.153H991.333V444.395C997.542 444.395 1002.58 439.362 1002.58 433.153Z" fill="#EA4882"/>
<path d="M1013.82 444.395H1025.06V433.152C1018.85 433.152 1013.82 438.186 1013.82 444.395Z" fill="#EA4882"/>
<path d="M1036.3 433.153H1025.06V444.395C1031.27 444.395 1036.3 439.362 1036.3 433.153Z" fill="#EA4882"/>
<path d="M1058.79 433.153H1047.55V444.395H1058.79V433.153Z" fill="#EA4882"/>
<path d="M1081.27 444.395H1092.51V433.153C1086.31 433.153 1081.27 438.186 1081.27 444.395Z" fill="#EA4882"/>
<path d="M1098.14 444.395C1096.83 444.395 1092.52 444.395 1092.52 444.395C1092.52 444.395 1092.52 440.568 1092.52 438.774C1092.52 437.373 1092.52 433.153 1092.52 433.153C1092.52 433.153 1096.43 433.153 1098.14 433.153C1101.24 433.153 1103.76 435.67 1103.76 438.774C1103.76 441.878 1101.24 444.395 1098.14 444.395Z" fill="#EA4882"/>
<path d="M749.621 444.394C752.726 444.394 755.242 446.911 755.242 450.015C755.242 453.12 752.726 455.636 749.621 455.636C746.517 455.636 744 453.12 744 450.015C744 446.911 746.517 444.394 749.621 444.394Z" fill="#EA4882"/>
<path d="M777.728 444.394H766.485V455.636H777.728V444.394Z" fill="#EA4882"/>
<path d="M817.075 444.394C820.18 444.394 822.697 446.911 822.697 450.015C822.697 453.12 820.18 455.636 817.075 455.636C813.971 455.636 811.454 453.12 811.454 450.015C811.454 446.911 813.971 444.394 817.075 444.394Z" fill="#EA4882"/>
<path d="M856.424 444.394H845.182V455.636H856.424V444.394Z" fill="#EA4882"/>
<path d="M884.53 444.394C887.635 444.394 890.152 446.911 890.152 450.015C890.152 453.12 887.635 455.636 884.53 455.636C881.426 455.636 878.909 453.12 878.909 450.015C878.909 446.911 881.426 444.394 884.53 444.394Z" fill="#EA4882"/>
<path d="M901.394 450.015C901.394 448.705 901.394 444.394 901.394 444.394C901.394 444.394 905.22 444.394 907.015 444.394C908.416 444.394 912.636 444.394 912.636 444.394C912.636 444.394 912.636 448.312 912.636 450.015C912.636 453.12 910.119 455.636 907.015 455.636C903.91 455.636 901.394 453.12 901.394 450.015Z" fill="#EA4882"/>
<path d="M951.984 444.394C953.295 444.394 957.606 444.394 957.606 444.394C957.606 444.394 957.606 448.221 957.606 450.015C957.606 451.416 957.606 455.636 957.606 455.636C957.606 455.636 953.688 455.636 951.984 455.636C948.879 455.636 946.363 453.119 946.363 450.015C946.363 446.912 948.879 444.394 951.984 444.394Z" fill="#EA4882"/>
<path d="M968.849 444.394H957.606V455.636H968.849V444.394Z" fill="#EA4882"/>
<path d="M980.091 444.394H968.849V455.636H980.091V444.394Z" fill="#EA4882"/>
<path d="M991.333 444.394H980.091V455.636H991.333V444.394Z" fill="#EA4882"/>
<path d="M1025.06 444.394H1013.82V455.636H1025.06V444.394Z" fill="#EA4882"/>
<path d="M1036.3 455.636H1047.55V444.394C1041.34 444.394 1036.3 449.427 1036.3 455.636Z" fill="#EA4882"/>
<path d="M1058.79 444.394H1047.55V455.636H1058.79V444.394Z" fill="#EA4882"/>
<path d="M1092.51 444.394H1081.27V455.636H1092.51V444.394Z" fill="#EA4882"/>
<path d="M777.728 455.638H766.485V466.88H777.728V455.638Z" fill="#EA4882"/>
<path d="M788.97 455.638H777.728V466.88H788.97V455.638Z" fill="#EA4882"/>
<path d="M794.591 466.88C793.281 466.88 788.97 466.88 788.97 466.88C788.97 466.88 788.97 463.053 788.97 461.259C788.97 459.858 788.97 455.638 788.97 455.638C788.97 455.638 792.888 455.638 794.591 455.638C797.695 455.638 800.212 458.154 800.212 461.259C800.212 464.363 797.695 466.88 794.591 466.88Z" fill="#EA4882"/>
<path d="M828.318 455.638C831.423 455.638 833.94 458.154 833.94 461.259C833.94 464.364 831.423 466.88 828.318 466.88C825.214 466.88 822.697 464.364 822.697 461.259C822.697 458.154 825.214 455.638 828.318 455.638Z" fill="#EA4882"/>
<path d="M845.182 461.259C845.182 459.949 845.182 455.638 845.182 455.638C845.182 455.638 849.009 455.638 850.803 455.638C852.204 455.638 856.424 455.638 856.424 455.638C856.424 455.638 856.424 459.556 856.424 461.259C856.424 464.363 853.907 466.88 850.803 466.88C847.698 466.88 845.182 464.363 845.182 461.259Z" fill="#EA4882"/>
<path d="M918.258 455.638C921.363 455.638 923.879 458.154 923.879 461.259C923.879 464.364 921.363 466.88 918.258 466.88C915.153 466.88 912.637 464.364 912.637 461.259C912.637 458.154 915.153 455.638 918.258 455.638Z" fill="#EA4882"/>
<path d="M991.333 455.638H980.091V466.88H991.333V455.638Z" fill="#EA4882"/>
<path d="M1025.06 455.638H1013.82V466.88H1025.06V455.638Z" fill="#EA4882"/>
<path d="M1036.3 455.638H1025.06V466.88H1036.3V455.638Z" fill="#EA4882"/>
<path d="M1047.55 455.638H1036.3V466.88H1047.55V455.638Z" fill="#EA4882"/>
<path d="M1058.79 455.638H1047.55V466.881C1053.75 466.881 1058.79 461.847 1058.79 455.638Z" fill="#EA4882"/>
<path d="M1070.03 466.881H1081.27V455.638C1075.06 455.638 1070.03 460.672 1070.03 466.881Z" fill="#EA4882"/>
<path d="M1092.51 455.638H1081.27V466.88H1092.51V455.638Z" fill="#EA4882"/>
<path d="M760.863 466.879C762.174 466.879 766.485 466.879 766.485 466.879C766.485 466.879 766.485 470.706 766.485 472.501C766.485 473.902 766.485 478.122 766.485 478.122C766.485 478.122 762.567 478.122 760.863 478.122C757.758 478.122 755.242 475.604 755.242 472.501C755.242 469.397 757.758 466.879 760.863 466.879Z" fill="#EA4882"/>
<path d="M777.728 466.879H766.485V478.122H777.728V466.879Z" fill="#EA4882"/>
<path d="M788.97 466.879H777.728V478.121C783.937 478.121 788.97 473.088 788.97 466.879Z" fill="#EA4882"/>
<path d="M805.833 466.879C807.143 466.879 811.454 466.879 811.454 466.879C811.454 466.879 811.454 470.706 811.454 472.501C811.454 473.902 811.454 478.122 811.454 478.122C811.454 478.122 807.537 478.122 805.833 478.122C802.728 478.122 800.212 475.604 800.212 472.501C800.212 469.397 802.728 466.879 805.833 466.879Z" fill="#EA4882"/>
<path d="M817.075 478.122C815.765 478.122 811.454 478.122 811.454 478.122C811.454 478.122 811.454 474.295 811.454 472.501C811.454 471.099 811.454 466.879 811.454 466.879C811.454 466.879 815.372 466.879 817.075 466.879C820.18 466.879 822.697 469.396 822.697 472.501C822.697 475.605 820.18 478.122 817.075 478.122Z" fill="#EA4882"/>
<path d="M839.561 466.879C842.665 466.879 845.182 469.396 845.182 472.501C845.182 475.605 842.665 478.122 839.561 478.122C836.456 478.122 833.939 475.605 833.939 472.501C833.939 469.396 836.456 466.879 839.561 466.879Z" fill="#EA4882"/>
<path d="M862.045 466.879C863.355 466.879 867.666 466.879 867.666 466.879C867.666 466.879 867.666 470.706 867.666 472.501C867.666 473.902 867.666 478.122 867.666 478.122C867.666 478.122 863.749 478.122 862.045 478.122C858.939 478.122 856.424 475.604 856.424 472.501C856.424 469.397 858.939 466.879 862.045 466.879Z" fill="#EA4882"/>
<path d="M873.288 478.122C871.978 478.122 867.667 478.122 867.667 478.122C867.667 478.122 867.667 474.295 867.667 472.501C867.667 471.099 867.667 466.879 867.667 466.879C867.667 466.879 871.585 466.879 873.288 466.879C876.393 466.879 878.909 469.396 878.909 472.501C878.909 475.605 876.393 478.122 873.288 478.122Z" fill="#EA4882"/>
<path d="M895.773 466.879C897.083 466.879 901.394 466.879 901.394 466.879C901.394 466.879 901.394 470.706 901.394 472.501C901.394 473.902 901.394 478.122 901.394 478.122C901.394 478.122 897.477 478.122 895.773 478.122C892.667 478.122 890.151 475.604 890.151 472.501C890.151 469.397 892.667 466.879 895.773 466.879Z" fill="#EA4882"/>
<path d="M907.015 478.122C905.705 478.122 901.394 478.122 901.394 478.122C901.394 478.122 901.394 474.295 901.394 472.501C901.394 471.099 901.394 466.879 901.394 466.879C901.394 466.879 905.312 466.879 907.015 466.879C910.119 466.879 912.636 469.396 912.636 472.501C912.636 475.605 910.119 478.122 907.015 478.122Z" fill="#EA4882"/>
<path d="M946.363 478.121H957.606V466.879C951.397 466.879 946.363 471.912 946.363 478.121Z" fill="#EA4882"/>
<path d="M963.228 478.122C961.917 478.122 957.606 478.122 957.606 478.122C957.606 478.122 957.606 474.295 957.606 472.501C957.606 471.099 957.606 466.879 957.606 466.879C957.606 466.879 961.525 466.879 963.228 466.879C966.332 466.879 968.849 469.396 968.849 472.501C968.849 475.605 966.332 478.122 963.228 478.122Z" fill="#EA4882"/>
<path d="M991.333 478.121V466.879H980.091C980.091 473.088 985.124 478.121 991.333 478.121Z" fill="#EA4882"/>
<path d="M1002.58 466.879H991.333V478.122H1002.58V466.879Z" fill="#EA4882"/>
<path d="M1013.82 466.879H1002.58V478.122H1013.82V466.879Z" fill="#EA4882"/>
<path d="M1025.06 466.879H1013.82V478.122H1025.06V466.879Z" fill="#EA4882"/>
<path d="M1036.3 466.879H1025.06V478.122H1036.3V466.879Z" fill="#EA4882"/>
<path d="M1047.55 466.879H1036.3V478.122H1047.55V466.879Z" fill="#EA4882"/>
<path d="M1058.79 478.121H1070.03V466.879C1063.82 466.879 1058.79 471.912 1058.79 478.121Z" fill="#EA4882"/>
<path d="M1081.27 466.879H1070.03V478.122H1081.27V466.879Z" fill="#EA4882"/>
<path d="M1092.51 466.879H1081.27V478.121C1087.48 478.121 1092.51 473.088 1092.51 466.879Z" fill="#EA4882"/>
<path d="M755.242 483.744C755.242 485.054 755.242 489.365 755.242 489.365C755.242 489.365 751.416 489.365 749.621 489.365C748.22 489.365 744 489.365 744 489.365C744 489.365 744 485.447 744 483.744C744 480.64 746.517 478.123 749.621 478.123C752.726 478.123 755.242 480.64 755.242 483.744Z" fill="#EA4882"/>
<path d="M766.485 483.744C766.485 482.434 766.485 478.123 766.485 478.123C766.485 478.123 770.312 478.123 772.107 478.123C773.508 478.123 777.728 478.123 777.728 478.123C777.728 478.123 777.728 482.041 777.728 483.744C777.728 486.849 775.211 489.365 772.107 489.365C769.002 489.365 766.485 486.849 766.485 483.744Z" fill="#EA4882"/>
<path d="M794.591 478.123C797.696 478.123 800.212 480.64 800.212 483.744C800.212 486.849 797.696 489.365 794.591 489.365C791.486 489.365 788.97 486.849 788.97 483.744C788.97 480.64 791.486 478.123 794.591 478.123Z" fill="#EA4882"/>
<path d="M833.94 483.744C833.94 485.054 833.94 489.365 833.94 489.365C833.94 489.365 830.113 489.365 828.318 489.365C826.917 489.365 822.697 489.365 822.697 489.365C822.697 489.365 822.697 485.447 822.697 483.744C822.697 480.64 825.214 478.123 828.318 478.123C831.423 478.123 833.94 480.64 833.94 483.744Z" fill="#EA4882"/>
<path d="M850.803 478.123C853.907 478.123 856.424 480.64 856.424 483.744C856.424 486.849 853.907 489.365 850.803 489.365C847.698 489.365 845.182 486.849 845.182 483.744C845.182 480.64 847.698 478.123 850.803 478.123Z" fill="#EA4882"/>
<path d="M923.879 483.744C923.879 485.054 923.879 489.365 923.879 489.365C923.879 489.365 920.052 489.365 918.258 489.365C916.857 489.365 912.637 489.365 912.637 489.365C912.637 489.365 912.637 485.447 912.637 483.744C912.637 480.64 915.153 478.123 918.258 478.123C921.362 478.123 923.879 480.64 923.879 483.744Z" fill="#EA4882"/>
<path d="M957.606 478.123H946.363V489.365H957.606V478.123Z" fill="#EA4882"/>
<path d="M980.091 483.744C980.091 485.054 980.091 489.365 980.091 489.365C980.091 489.365 976.264 489.365 974.47 489.365C973.068 489.365 968.849 489.365 968.849 489.365C968.849 489.365 968.849 485.447 968.849 483.744C968.849 480.64 971.365 478.123 974.47 478.123C977.574 478.123 980.091 480.64 980.091 483.744Z" fill="#EA4882"/>
<path d="M1002.58 489.366V478.124H991.333C991.333 484.333 996.366 489.366 1002.58 489.366Z" fill="#EA4882"/>
<path d="M1013.82 478.123H1002.58V489.365H1013.82V478.123Z" fill="#EA4882"/>
<path d="M1025.06 478.123H1013.82V489.365H1025.06V478.123Z" fill="#EA4882"/>
<path d="M1036.3 478.123H1025.06V489.365H1036.3V478.123Z" fill="#EA4882"/>
<path d="M1047.55 478.124H1036.3V489.366C1042.51 489.366 1047.55 484.333 1047.55 478.124Z" fill="#EA4882"/>
<path d="M1070.03 478.123H1058.79V489.365H1070.03V478.123Z" fill="#EA4882"/>
<path d="M1081.27 478.124H1070.03V489.366C1076.24 489.366 1081.27 484.333 1081.27 478.124Z" fill="#EA4882"/>
<path d="M1092.52 489.366H1103.76V478.124C1097.55 478.124 1092.52 483.157 1092.52 489.366Z" fill="#EA4882"/>
<path d="M1109.38 489.365C1108.07 489.365 1103.76 489.365 1103.76 489.365C1103.76 489.365 1103.76 485.538 1103.76 483.744C1103.76 482.343 1103.76 478.123 1103.76 478.123C1103.76 478.123 1107.68 478.123 1109.38 478.123C1112.48 478.123 1115 480.64 1115 483.744C1115 486.849 1112.48 489.365 1109.38 489.365Z" fill="#EA4882"/>
<path d="M744 494.986C744 493.676 744 489.365 744 489.365C744 489.365 747.827 489.365 749.621 489.365C751.023 489.365 755.242 489.365 755.242 489.365C755.242 489.365 755.242 493.283 755.242 494.986C755.242 498.09 752.726 500.607 749.621 500.607C746.517 500.607 744 498.09 744 494.986Z" fill="#EA4882"/>
<path d="M783.349 489.364C786.453 489.364 788.97 491.881 788.97 494.985C788.97 498.09 786.453 500.607 783.349 500.607C780.244 500.607 777.728 498.09 777.728 494.985C777.728 491.881 780.244 489.364 783.349 489.364Z" fill="#EA4882"/>
<path d="M800.212 500.607H811.454V489.364C805.245 489.364 800.212 494.398 800.212 500.607Z" fill="#EA4882"/>
<path d="M822.697 489.365H811.454V500.607H822.697V489.365Z" fill="#EA4882"/>
<path d="M833.94 489.364H822.697V500.607H833.94V489.364Z" fill="#EA4882"/>
<path d="M833.939 489.365V500.607H845.182C845.182 494.398 840.148 489.365 833.939 489.365Z" fill="#EA4882"/>
<path d="M856.424 500.607H867.666V489.365C861.457 489.365 856.424 494.398 856.424 500.607Z" fill="#EA4882"/>
<path d="M878.909 489.365H867.667V500.607H878.909V489.365Z" fill="#EA4882"/>
<path d="M890.152 489.365H878.909V500.607H890.152V489.365Z" fill="#EA4882"/>
<path d="M901.394 489.364H890.151V500.607H901.394V489.364Z" fill="#EA4882"/>
<path d="M912.636 489.365H901.394V500.607H912.636V489.365Z" fill="#EA4882"/>
<path d="M923.879 489.365H912.637V500.607H923.879V489.365Z" fill="#EA4882"/>
<path d="M957.606 489.365H946.363V500.607H957.606V489.365Z" fill="#EA4882"/>
<path d="M968.849 494.985C968.849 493.675 968.849 489.364 968.849 489.364C968.849 489.364 972.676 489.364 974.47 489.364C975.871 489.364 980.091 489.364 980.091 489.364C980.091 489.364 980.091 493.282 980.091 494.985C980.091 498.09 977.574 500.607 974.47 500.607C971.365 500.607 968.849 498.09 968.849 494.985Z" fill="#EA4882"/>
<path d="M1036.3 489.365H1025.06V500.607H1036.3V489.365Z" fill="#EA4882"/>
<path d="M1053.17 489.365C1054.48 489.365 1058.79 489.365 1058.79 489.365C1058.79 489.365 1058.79 493.191 1058.79 494.986C1058.79 496.387 1058.79 500.607 1058.79 500.607C1058.79 500.607 1054.87 500.607 1053.17 500.607C1050.06 500.607 1047.55 498.089 1047.55 494.986C1047.55 491.882 1050.06 489.365 1053.17 489.365Z" fill="#EA4882"/>
<path d="M1070.03 489.364H1058.79V500.607H1070.03V489.364Z" fill="#EA4882"/>
<path d="M1086.89 489.365C1088.2 489.365 1092.51 489.365 1092.51 489.365C1092.51 489.365 1092.51 493.191 1092.51 494.986C1092.51 496.387 1092.51 500.607 1092.51 500.607C1092.51 500.607 1088.6 500.607 1086.89 500.607C1083.79 500.607 1081.27 498.089 1081.27 494.986C1081.27 491.882 1083.79 489.365 1086.89 489.365Z" fill="#EA4882"/>
<path d="M1103.76 489.365H1092.52V500.607H1103.76V489.365Z" fill="#EA4882"/>
<path d="M760.863 500.608C763.968 500.608 766.485 503.125 766.485 506.229C766.485 509.334 763.968 511.85 760.863 511.85C757.759 511.85 755.242 509.334 755.242 506.229C755.242 503.125 757.759 500.608 760.863 500.608Z" fill="#EA4882"/>
<path d="M794.591 500.608C795.901 500.608 800.212 500.608 800.212 500.608C800.212 500.608 800.212 504.434 800.212 506.229C800.212 507.63 800.212 511.85 800.212 511.85C800.212 511.85 796.295 511.85 794.591 511.85C791.485 511.85 788.97 509.333 788.97 506.229C788.97 503.125 791.485 500.608 794.591 500.608Z" fill="#EA4882"/>
<path d="M811.454 500.608H800.212V511.851C806.421 511.851 811.454 506.817 811.454 500.608Z" fill="#EA4882"/>
<path d="M845.182 500.608H833.939V511.85H845.182V500.608Z" fill="#EA4882"/>
<path d="M856.424 500.608H845.182V511.85H856.424V500.608Z" fill="#EA4882"/>
<path d="M867.666 500.608H856.424V511.85H867.666V500.608Z" fill="#EA4882"/>
<path d="M878.909 500.608H867.667V511.85H878.909V500.608Z" fill="#EA4882"/>
<path d="M890.152 500.608H878.909V511.85H890.152V500.608Z" fill="#EA4882"/>
<path d="M901.394 500.608H890.151V511.85H901.394V500.608Z" fill="#EA4882"/>
<path d="M912.636 500.608H901.394V511.85H912.636V500.608Z" fill="#EA4882"/>
<path d="M923.879 500.608H912.637V511.85H923.879V500.608Z" fill="#EA4882"/>
<path d="M935.121 500.608H923.879V511.85H935.121V500.608Z" fill="#EA4882"/>
<path d="M946.364 500.608H935.121V511.85H946.364V500.608Z" fill="#EA4882"/>
<path d="M957.606 500.608H946.363V511.851C952.572 511.851 957.606 506.817 957.606 500.608Z" fill="#EA4882"/>
<path d="M996.954 500.608C1000.06 500.608 1002.58 503.125 1002.58 506.229C1002.58 509.334 1000.06 511.85 996.954 511.85C993.85 511.85 991.333 509.334 991.333 506.229C991.333 503.125 993.85 500.608 996.954 500.608Z" fill="#EA4882"/>
<path d="M1019.44 500.608C1020.75 500.608 1025.06 500.608 1025.06 500.608C1025.06 500.608 1025.06 504.434 1025.06 506.229C1025.06 507.63 1025.06 511.85 1025.06 511.85C1025.06 511.85 1021.14 511.85 1019.44 511.85C1016.33 511.85 1013.82 509.333 1013.82 506.229C1013.82 503.125 1016.33 500.608 1019.44 500.608Z" fill="#EA4882"/>
<path d="M1036.3 500.608H1025.06V511.85H1036.3V500.608Z" fill="#EA4882"/>
<path d="M1041.92 511.85C1040.61 511.85 1036.3 511.85 1036.3 511.85C1036.3 511.85 1036.3 508.023 1036.3 506.229C1036.3 504.828 1036.3 500.608 1036.3 500.608C1036.3 500.608 1040.22 500.608 1041.92 500.608C1045.03 500.608 1047.55 503.125 1047.55 506.229C1047.55 509.333 1045.03 511.85 1041.92 511.85Z" fill="#EA4882"/>
<path d="M1070.03 500.608H1058.79V511.85H1070.03V500.608Z" fill="#EA4882"/>
<path d="M1103.76 511.851V500.608H1092.52C1092.52 506.817 1097.55 511.851 1103.76 511.851Z" fill="#EA4882"/>
<path d="M1109.38 511.85C1108.07 511.85 1103.76 511.85 1103.76 511.85C1103.76 511.85 1103.76 508.023 1103.76 506.229C1103.76 504.828 1103.76 500.608 1103.76 500.608C1103.76 500.608 1107.68 500.608 1109.38 500.608C1112.48 500.608 1115 503.125 1115 506.229C1115 509.333 1112.48 511.85 1109.38 511.85Z" fill="#EA4882"/>
<path d="M772.107 511.85C775.211 511.85 777.728 514.366 777.728 517.471C777.728 520.575 775.211 523.092 772.107 523.092C769.002 523.092 766.485 520.575 766.485 517.471C766.485 514.366 769.002 511.85 772.107 511.85Z" fill="#EA4882"/>
<path d="M817.075 511.85C818.386 511.85 822.697 511.85 822.697 511.85C822.697 511.85 822.697 515.676 822.697 517.471C822.697 518.872 822.697 523.092 822.697 523.092C822.697 523.092 818.779 523.092 817.075 523.092C813.97 523.092 811.454 520.574 811.454 517.471C811.454 514.367 813.97 511.85 817.075 511.85Z" fill="#EA4882"/>
<path d="M833.94 511.85H822.697V523.092H833.94V511.85Z" fill="#EA4882"/>
<path d="M845.182 511.85H833.939V523.092H845.182V511.85Z" fill="#EA4882"/>
<path d="M856.425 511.849H845.183V523.092C851.392 523.092 856.425 518.058 856.425 511.849Z" fill="#EA4882"/>
<path d="M901.394 511.85H890.151V523.092H901.394V511.85Z" fill="#EA4882"/>
<path d="M912.636 511.85H901.394V523.092H912.636V511.85Z" fill="#EA4882"/>
<path d="M923.879 511.85H912.637V523.092H923.879V511.85Z" fill="#EA4882"/>
<path d="M935.121 511.85H923.879V523.092H935.121V511.85Z" fill="#EA4882"/>
<path d="M968.849 517.471C968.849 518.781 968.849 523.092 968.849 523.092C968.849 523.092 965.022 523.092 963.228 523.092C961.826 523.092 957.606 523.092 957.606 523.092C957.606 523.092 957.606 519.174 957.606 517.471C957.607 514.366 960.123 511.85 963.228 511.85C966.332 511.85 968.849 514.366 968.849 517.471Z" fill="#EA4882"/>
<path d="M985.712 511.85C988.817 511.85 991.333 514.366 991.333 517.471C991.333 520.575 988.817 523.092 985.712 523.092C982.608 523.092 980.091 520.575 980.091 517.471C980.091 514.366 982.608 511.85 985.712 511.85Z" fill="#EA4882"/>
<path d="M1013.82 517.471C1013.82 518.781 1013.82 523.092 1013.82 523.092C1013.82 523.092 1009.99 523.092 1008.2 523.092C1006.8 523.092 1002.58 523.092 1002.58 523.092C1002.58 523.092 1002.58 519.174 1002.58 517.471C1002.58 514.366 1005.09 511.85 1008.2 511.85C1011.3 511.85 1013.82 514.366 1013.82 517.471Z" fill="#EA4882"/>
<path d="M1053.17 511.85C1054.48 511.85 1058.79 511.85 1058.79 511.85C1058.79 511.85 1058.79 515.676 1058.79 517.471C1058.79 518.872 1058.79 523.092 1058.79 523.092C1058.79 523.092 1054.87 523.092 1053.17 523.092C1050.06 523.092 1047.55 520.574 1047.55 517.471C1047.55 514.367 1050.06 511.85 1053.17 511.85Z" fill="#EA4882"/>
<path d="M1070.03 511.85H1058.79V523.092H1070.03V511.85Z" fill="#EA4882"/>
<path d="M1081.27 511.85H1070.03V523.092H1081.27V511.85Z" fill="#EA4882"/>
<path d="M1086.89 523.092C1085.58 523.092 1081.27 523.092 1081.27 523.092C1081.27 523.092 1081.27 519.265 1081.27 517.471C1081.27 516.069 1081.27 511.85 1081.27 511.85C1081.27 511.85 1085.19 511.85 1086.89 511.85C1090 511.85 1092.51 514.366 1092.51 517.471C1092.51 520.575 1090 523.092 1086.89 523.092Z" fill="#EA4882"/>
<path d="M749.621 523.091C752.726 523.091 755.242 525.608 755.242 528.713C755.242 531.817 752.726 534.334 749.621 534.334C746.517 534.334 744 531.817 744 528.713C744 525.608 746.517 523.091 749.621 523.091Z" fill="#EA4882"/>
<path d="M800.212 528.713C800.212 530.023 800.212 534.334 800.212 534.334C800.212 534.334 796.385 534.334 794.591 534.333C793.19 534.334 788.97 534.333 788.97 534.333C788.97 534.333 788.97 530.416 788.97 528.712C788.97 525.608 791.486 523.091 794.591 523.091C797.695 523.091 800.212 525.608 800.212 528.713Z" fill="#EA4882"/>
<path d="M833.939 528.713C833.939 527.402 833.939 523.091 833.939 523.091C833.939 523.091 837.766 523.091 839.561 523.091C840.962 523.091 845.182 523.091 845.182 523.091C845.182 523.091 845.182 527.01 845.182 528.713C845.182 531.817 842.665 534.334 839.561 534.334C836.456 534.334 833.939 531.817 833.939 528.713Z" fill="#EA4882"/>
<path d="M873.288 523.091C876.393 523.091 878.909 525.608 878.909 528.713C878.909 531.817 876.393 534.334 873.288 534.334C870.184 534.334 867.667 531.817 867.667 528.713C867.667 525.608 870.184 523.091 873.288 523.091Z" fill="#EA4882"/>
<path d="M901.394 523.091H890.151V534.334H901.394V523.091Z" fill="#EA4882"/>
<path d="M923.879 523.091H912.637V534.334H923.879V523.091Z" fill="#EA4882"/>
<path d="M935.121 523.091H923.879V534.333C930.088 534.333 935.121 529.3 935.121 523.091Z" fill="#EA4882"/>
<path d="M968.849 534.333V523.091H957.606C957.606 529.3 962.64 534.333 968.849 534.333Z" fill="#EA4882"/>
<path d="M968.849 523.091V534.333H980.091C980.091 528.124 975.058 523.091 968.849 523.091Z" fill="#EA4882"/>
<path d="M996.954 523.091C998.264 523.091 1002.58 523.091 1002.58 523.091C1002.58 523.091 1002.58 526.918 1002.58 528.713C1002.58 530.113 1002.58 534.334 1002.58 534.334C1002.58 534.334 998.658 534.334 996.954 534.334C993.849 534.334 991.333 531.816 991.333 528.713C991.333 525.609 993.849 523.091 996.954 523.091Z" fill="#EA4882"/>
<path d="M1013.82 523.091H1002.58V534.334H1013.82V523.091Z" fill="#EA4882"/>
<path d="M1025.06 534.333H1036.3V523.091C1030.09 523.091 1025.06 528.124 1025.06 534.333Z" fill="#EA4882"/>
<path d="M1036.3 523.091V534.333H1047.55C1047.55 528.124 1042.51 523.091 1036.3 523.091Z" fill="#EA4882"/>
<path d="M1115 528.713C1115 530.023 1115 534.334 1115 534.334C1115 534.334 1111.17 534.334 1109.38 534.333C1107.98 534.334 1103.76 534.333 1103.76 534.333C1103.76 534.333 1103.76 530.416 1103.76 528.712C1103.76 525.608 1106.27 523.091 1109.38 523.091C1112.48 523.091 1115 525.608 1115 528.713Z" fill="#EA4882"/>
<path d="M772.107 534.334C773.417 534.334 777.728 534.334 777.728 534.334C777.728 534.334 777.728 538.161 777.728 539.956C777.728 541.357 777.728 545.577 777.728 545.577C777.728 545.577 773.81 545.577 772.107 545.577C769.001 545.577 766.485 543.059 766.485 539.956C766.485 536.852 769.001 534.334 772.107 534.334Z" fill="#EA4882"/>
<path d="M788.97 534.334H777.728V545.577H788.97V534.334Z" fill="#EA4882"/>
<path d="M800.211 534.335H788.969V545.577C795.178 545.577 800.211 540.544 800.211 534.335Z" fill="#EA4882"/>
<path d="M817.075 534.334C818.386 534.334 822.697 534.334 822.697 534.334C822.697 534.334 822.697 538.161 822.697 539.956C822.697 541.357 822.697 545.577 822.697 545.577C822.697 545.577 818.779 545.577 817.075 545.577C813.97 545.577 811.454 543.059 811.454 539.956C811.454 536.852 813.97 534.334 817.075 534.334Z" fill="#EA4882"/>
<path d="M828.318 545.577C827.008 545.577 822.697 545.577 822.697 545.577C822.697 545.577 822.697 541.75 822.697 539.956C822.697 538.554 822.697 534.334 822.697 534.334C822.697 534.334 826.615 534.334 828.318 534.334C831.423 534.334 833.94 536.851 833.94 539.956C833.94 543.06 831.423 545.577 828.318 545.577Z" fill="#EA4882"/>
<path d="M845.183 545.577H856.425V534.335C850.216 534.335 845.183 539.368 845.183 545.577Z" fill="#EA4882"/>
<path d="M862.045 545.577C860.735 545.577 856.424 545.577 856.424 545.577C856.424 545.577 856.424 541.75 856.424 539.956C856.424 538.554 856.424 534.334 856.424 534.334C856.424 534.334 860.342 534.334 862.045 534.334C865.149 534.334 867.666 536.851 867.666 539.956C867.666 543.06 865.149 545.577 862.045 545.577Z" fill="#EA4882"/>
<path d="M884.53 534.334C885.841 534.334 890.152 534.334 890.152 534.334C890.152 534.334 890.152 538.161 890.152 539.956C890.152 541.357 890.152 545.577 890.152 545.577C890.152 545.577 886.234 545.577 884.53 545.577C881.425 545.577 878.909 543.059 878.909 539.956C878.909 536.852 881.425 534.334 884.53 534.334Z" fill="#EA4882"/>
<path d="M901.394 534.334H890.151V545.577H901.394V534.334Z" fill="#EA4882"/>
<path d="M923.879 534.334H912.637V545.577H923.879V534.334Z" fill="#EA4882"/>
<path d="M940.742 534.334C942.052 534.334 946.364 534.334 946.364 534.334C946.364 534.334 946.364 538.161 946.364 539.956C946.364 541.357 946.364 545.577 946.364 545.577C946.364 545.577 942.446 545.577 940.742 545.577C937.637 545.577 935.121 543.059 935.121 539.956C935.121 536.852 937.637 534.334 940.742 534.334Z" fill="#EA4882"/>
<path d="M951.984 545.577C950.674 545.577 946.363 545.577 946.363 545.577C946.363 545.577 946.363 541.75 946.363 539.956C946.363 538.554 946.363 534.334 946.363 534.334C946.363 534.334 950.282 534.334 951.984 534.334C955.089 534.334 957.606 536.851 957.606 539.956C957.606 543.06 955.089 545.577 951.984 545.577Z" fill="#EA4882"/>
<path d="M980.091 534.334H968.849V545.577H980.091V534.334Z" fill="#EA4882"/>
<path d="M1002.58 539.956C1002.58 538.645 1002.58 534.334 1002.58 534.334C1002.58 534.334 1006.4 534.334 1008.2 534.334C1009.6 534.334 1013.82 534.334 1013.82 534.334C1013.82 534.334 1013.82 538.253 1013.82 539.956C1013.82 543.06 1011.3 545.577 1008.2 545.577C1005.09 545.577 1002.58 543.06 1002.58 539.956Z" fill="#EA4882"/>
<path d="M1036.3 545.577V534.334H1025.06C1025.06 540.543 1030.09 545.577 1036.3 545.577Z" fill="#EA4882"/>
<path d="M1047.55 534.334H1036.3V545.577H1047.55V534.334Z" fill="#EA4882"/>
<path d="M1058.79 534.334H1047.55V545.577H1058.79V534.334Z" fill="#EA4882"/>
<path d="M1064.41 545.577C1063.1 545.577 1058.79 545.577 1058.79 545.577C1058.79 545.577 1058.79 541.75 1058.79 539.956C1058.79 538.554 1058.79 534.334 1058.79 534.334C1058.79 534.334 1062.71 534.334 1064.41 534.334C1067.51 534.334 1070.03 536.851 1070.03 539.956C1070.03 543.06 1067.51 545.577 1064.41 545.577Z" fill="#EA4882"/>
<path d="M1098.14 534.334C1099.45 534.334 1103.76 534.334 1103.76 534.334C1103.76 534.334 1103.76 538.161 1103.76 539.956C1103.76 541.357 1103.76 545.577 1103.76 545.577C1103.76 545.577 1099.84 545.577 1098.14 545.577C1095.03 545.577 1092.52 543.059 1092.52 539.956C1092.52 536.852 1095.03 534.334 1098.14 534.334Z" fill="#EA4882"/>
<path d="M1115 534.334H1103.76V545.577C1109.97 545.577 1115 540.543 1115 534.334Z" fill="#EA4882"/>
<path d="M760.863 545.577C763.968 545.577 766.485 548.094 766.485 551.198C766.485 554.303 763.968 556.82 760.863 556.82C757.759 556.82 755.242 554.303 755.242 551.198C755.242 548.094 757.759 545.577 760.863 545.577Z" fill="#EA4882"/>
<path d="M805.833 545.577C808.938 545.577 811.454 548.094 811.454 551.198C811.454 554.303 808.938 556.82 805.833 556.82C802.729 556.82 800.212 554.303 800.212 551.198C800.212 548.094 802.729 545.577 805.833 545.577Z" fill="#EA4882"/>
<path d="M856.424 545.577H845.182V556.82H856.424V545.577Z" fill="#EA4882"/>
<path d="M878.909 551.198C878.909 552.508 878.909 556.82 878.909 556.82C878.909 556.82 875.083 556.82 873.288 556.819C871.887 556.82 867.667 556.819 867.667 556.819C867.667 556.819 867.667 552.902 867.667 551.198C867.667 548.094 870.184 545.577 873.288 545.577C876.393 545.577 878.909 548.094 878.909 551.198Z" fill="#EA4882"/>
<path d="M901.394 556.819V545.577H890.151C890.151 551.786 895.185 556.819 901.394 556.819Z" fill="#EA4882"/>
<path d="M912.636 545.577H901.394V556.82H912.636V545.577Z" fill="#EA4882"/>
<path d="M923.879 545.577H912.637V556.819C918.846 556.819 923.879 551.786 923.879 545.577Z" fill="#EA4882"/>
<path d="M963.228 545.577C964.538 545.577 968.849 545.577 968.849 545.577C968.849 545.577 968.849 549.404 968.849 551.198C968.849 552.599 968.849 556.82 968.849 556.82C968.849 556.82 964.932 556.82 963.228 556.82C960.122 556.82 957.606 554.302 957.606 551.198C957.606 548.095 960.122 545.577 963.228 545.577Z" fill="#EA4882"/>
<path d="M980.091 545.577H968.849V556.819C975.058 556.819 980.091 551.786 980.091 545.577Z" fill="#EA4882"/>
<path d="M1025.06 551.198C1025.06 552.508 1025.06 556.82 1025.06 556.82C1025.06 556.82 1021.23 556.82 1019.44 556.819C1018.04 556.82 1013.82 556.819 1013.82 556.819C1013.82 556.819 1013.82 552.902 1013.82 551.198C1013.82 548.094 1016.34 545.577 1019.44 545.577C1022.54 545.577 1025.06 548.094 1025.06 551.198Z" fill="#EA4882"/>
<path d="M1047.55 545.577H1036.3V556.82H1047.55V545.577Z" fill="#EA4882"/>
<path d="M1058.79 545.577H1047.55V556.82H1058.79V545.577Z" fill="#EA4882"/>
<path d="M1075.65 545.577C1078.76 545.577 1081.27 548.094 1081.27 551.198C1081.27 554.303 1078.76 556.82 1075.65 556.82C1072.55 556.82 1070.03 554.303 1070.03 551.198C1070.03 548.094 1072.55 545.577 1075.65 545.577Z" fill="#EA4882"/>
<path d="M749.621 556.82C752.726 556.82 755.242 559.337 755.242 562.441C755.242 565.546 752.726 568.062 749.621 568.062C746.517 568.062 744 565.546 744 562.441C744 559.337 746.517 556.82 749.621 556.82Z" fill="#EA4882"/>
<path d="M783.349 556.82C784.659 556.82 788.97 556.82 788.97 556.82C788.97 556.82 788.97 560.646 788.97 562.441C788.97 563.842 788.97 568.062 788.97 568.062C788.97 568.062 785.053 568.062 783.349 568.062C780.243 568.062 777.728 565.544 777.728 562.441C777.728 559.337 780.243 556.82 783.349 556.82Z" fill="#EA4882"/>
<path d="M794.591 568.062C793.281 568.062 788.97 568.062 788.97 568.062C788.97 568.062 788.97 564.235 788.97 562.441C788.97 561.04 788.97 556.82 788.97 556.82C788.97 556.82 792.888 556.82 794.591 556.82C797.695 556.82 800.212 559.337 800.212 562.441C800.212 565.545 797.695 568.062 794.591 568.062Z" fill="#EA4882"/>
<path d="M817.075 556.82C820.18 556.82 822.697 559.337 822.697 562.441C822.697 565.546 820.18 568.062 817.075 568.062C813.971 568.062 811.454 565.546 811.454 562.441C811.454 559.337 813.971 556.82 817.075 556.82Z" fill="#EA4882"/>
<path d="M833.939 568.063H845.182V556.82C838.973 556.82 833.939 561.854 833.939 568.063Z" fill="#EA4882"/>
<path d="M856.424 556.82H845.182V568.062H856.424V556.82Z" fill="#EA4882"/>
<path d="M867.667 562.441C867.667 561.131 867.667 556.82 867.667 556.82C867.667 556.82 871.494 556.82 873.288 556.82C874.69 556.82 878.909 556.82 878.909 556.82C878.909 556.82 878.909 560.738 878.909 562.441C878.909 565.545 876.393 568.062 873.288 568.062C870.184 568.062 867.667 565.545 867.667 562.441Z" fill="#EA4882"/>
<path d="M940.742 556.82C943.847 556.82 946.364 559.337 946.364 562.441C946.364 565.546 943.847 568.062 940.742 568.062C937.638 568.062 935.121 565.546 935.121 562.441C935.121 559.337 937.638 556.82 940.742 556.82Z" fill="#EA4882"/>
<path d="M996.954 556.82C1000.06 556.82 1002.58 559.337 1002.58 562.441C1002.58 565.546 1000.06 568.062 996.954 568.062C993.85 568.062 991.333 565.546 991.333 562.441C991.333 559.337 993.85 556.82 996.954 556.82Z" fill="#EA4882"/>
<path d="M1025.06 556.82H1013.82V568.062H1025.06V556.82Z" fill="#EA4882"/>
<path d="M1036.3 556.82H1025.06V568.062H1036.3V556.82Z" fill="#EA4882"/>
<path d="M1047.55 556.82H1036.3V568.062H1047.55V556.82Z" fill="#EA4882"/>
<path d="M1058.79 556.82H1047.55V568.062H1058.79V556.82Z" fill="#EA4882"/>
<path d="M1058.79 556.82V568.063H1070.03C1070.03 561.854 1065 556.82 1058.79 556.82Z" fill="#EA4882"/>
<path d="M1103.76 562.441C1103.76 563.751 1103.76 568.062 1103.76 568.062C1103.76 568.062 1099.93 568.062 1098.14 568.062C1096.74 568.062 1092.52 568.062 1092.52 568.062C1092.52 568.062 1092.52 564.144 1092.52 562.441C1092.52 559.337 1095.03 556.82 1098.14 556.82C1101.24 556.82 1103.76 559.337 1103.76 562.441Z" fill="#EA4882"/>
<path d="M845.182 568.062H833.939V579.304H845.182V568.062Z" fill="#EA4882"/>
<path d="M856.424 568.062H845.182V579.304H856.424V568.062Z" fill="#EA4882"/>
<path d="M862.045 579.304C860.735 579.304 856.424 579.304 856.424 579.304C856.424 579.304 856.424 575.477 856.424 573.683C856.424 572.281 856.424 568.062 856.424 568.062C856.424 568.062 860.342 568.062 862.045 568.062C865.149 568.062 867.666 570.578 867.666 573.683C867.666 576.787 865.149 579.304 862.045 579.304Z" fill="#EA4882"/>
<path d="M884.53 568.062C885.841 568.062 890.152 568.062 890.152 568.062C890.152 568.062 890.152 571.888 890.152 573.683C890.152 575.084 890.152 579.304 890.152 579.304C890.152 579.304 886.234 579.304 884.53 579.304C881.425 579.304 878.909 576.786 878.909 573.683C878.909 570.579 881.425 568.062 884.53 568.062Z" fill="#EA4882"/>
<path d="M895.773 579.304C894.462 579.304 890.151 579.304 890.151 579.304C890.151 579.304 890.151 575.477 890.151 573.683C890.151 572.281 890.151 568.062 890.151 568.062C890.151 568.062 894.07 568.062 895.773 568.062C898.877 568.062 901.394 570.578 901.394 573.683C901.394 576.787 898.877 579.304 895.773 579.304Z" fill="#EA4882"/>
<path d="M918.258 568.062C921.363 568.062 923.879 570.578 923.879 573.683C923.879 576.787 921.363 579.304 918.258 579.304C915.153 579.304 912.637 576.787 912.637 573.683C912.637 570.578 915.153 568.062 918.258 568.062Z" fill="#EA4882"/>
<path d="M946.363 579.303H957.606V568.061C951.397 568.061 946.363 573.094 946.363 579.303Z" fill="#EA4882"/>
<path d="M957.606 568.061V579.303H968.849C968.849 573.094 963.815 568.061 957.606 568.061Z" fill="#EA4882"/>
<path d="M1002.58 579.303H1013.82V568.061C1007.61 568.061 1002.58 573.094 1002.58 579.303Z" fill="#EA4882"/>
<path d="M1025.06 568.062H1013.82V579.304H1025.06V568.062Z" fill="#EA4882"/>
<path d="M1070.03 568.062H1058.79V579.304H1070.03V568.062Z" fill="#EA4882"/>
<path d="M1075.65 579.304C1074.34 579.304 1070.03 579.304 1070.03 579.304C1070.03 579.304 1070.03 575.477 1070.03 573.683C1070.03 572.281 1070.03 568.062 1070.03 568.062C1070.03 568.062 1073.95 568.062 1075.65 568.062C1078.76 568.062 1081.27 570.578 1081.27 573.683C1081.27 576.787 1078.76 579.304 1075.65 579.304Z" fill="#EA4882"/>
<path d="M1092.52 573.683C1092.52 572.373 1092.52 568.062 1092.52 568.062C1092.52 568.062 1096.34 568.062 1098.14 568.062C1099.54 568.062 1103.76 568.062 1103.76 568.062C1103.76 568.062 1103.76 571.98 1103.76 573.683C1103.76 576.787 1101.24 579.304 1098.14 579.304C1095.03 579.304 1092.52 576.787 1092.52 573.683Z" fill="#EA4882"/>
<path d="M845.182 579.305H833.939V590.547H845.182V579.305Z" fill="#EA4882"/>
<path d="M912.636 584.926C912.636 586.236 912.636 590.547 912.636 590.547C912.636 590.547 908.809 590.547 907.015 590.547C905.613 590.547 901.394 590.547 901.394 590.547C901.394 590.547 901.394 586.629 901.394 584.926C901.394 581.821 903.91 579.305 907.015 579.305C910.119 579.305 912.636 581.821 912.636 584.926Z" fill="#EA4882"/>
<path d="M935.121 590.548H946.364V579.305C940.155 579.305 935.121 584.339 935.121 590.548Z" fill="#EA4882"/>
<path d="M957.606 579.305H946.363V590.547H957.606V579.305Z" fill="#EA4882"/>
<path d="M968.849 579.305H957.606V590.548C963.815 590.548 968.849 585.514 968.849 579.305Z" fill="#EA4882"/>
<path d="M1013.82 579.305H1002.58V590.547H1013.82V579.305Z" fill="#EA4882"/>
<path d="M1025.06 579.305H1013.82V590.547H1025.06V579.305Z" fill="#EA4882"/>
<path d="M1041.92 579.305C1045.03 579.305 1047.55 581.821 1047.55 584.926C1047.55 588.031 1045.03 590.547 1041.92 590.547C1038.82 590.547 1036.3 588.031 1036.3 584.926C1036.3 581.821 1038.82 579.305 1041.92 579.305Z" fill="#EA4882"/>
<path d="M1070.03 579.305H1058.79V590.547H1070.03V579.305Z" fill="#EA4882"/>
<path d="M845.182 601.789V590.546H833.939C833.939 596.755 838.973 601.789 845.182 601.789Z" fill="#EA4882"/>
<path d="M845.183 590.546V601.789H856.425C856.425 595.58 851.392 590.546 845.183 590.546Z" fill="#EA4882"/>
<path d="M873.288 590.546C874.598 590.546 878.909 590.546 878.909 590.546C878.909 590.546 878.909 594.373 878.909 596.168C878.909 597.568 878.909 601.789 878.909 601.789C878.909 601.789 874.992 601.789 873.288 601.789C870.183 601.789 867.667 599.271 867.667 596.168C867.667 593.064 870.183 590.546 873.288 590.546Z" fill="#EA4882"/>
<path d="M878.909 590.546V601.789H890.152C890.152 595.58 885.118 590.546 878.909 590.546Z" fill="#EA4882"/>
<path d="M912.636 601.789V590.546H901.394C901.394 596.755 906.427 601.789 912.636 601.789Z" fill="#EA4882"/>
<path d="M912.637 590.546V601.789H923.879C923.879 595.58 918.846 590.546 912.637 590.546Z" fill="#EA4882"/>
<path d="M946.364 590.546H935.121V601.789H946.364V590.546Z" fill="#EA4882"/>
<path d="M957.606 590.546H946.363V601.789H957.606V590.546Z" fill="#EA4882"/>
<path d="M974.47 590.546C975.78 590.546 980.091 590.546 980.091 590.546C980.091 590.546 980.091 594.373 980.091 596.168C980.091 597.568 980.091 601.789 980.091 601.789C980.091 601.789 976.174 601.789 974.47 601.789C971.364 601.789 968.849 599.271 968.849 596.168C968.849 593.064 971.364 590.546 974.47 590.546Z" fill="#EA4882"/>
<path d="M980.091 590.546V601.789H991.333C991.333 595.58 986.3 590.546 980.091 590.546Z" fill="#EA4882"/>
<path d="M1013.82 590.546H1002.58V601.789H1013.82V590.546Z" fill="#EA4882"/>
<path d="M1025.06 590.546H1013.82V601.789H1025.06V590.546Z" fill="#EA4882"/>
<path d="M1070.03 590.546H1058.79V601.789H1070.03V590.546Z" fill="#EA4882"/>
<path d="M1081.27 590.546H1070.03V601.789H1081.27V590.546Z" fill="#EA4882"/>
<path d="M1081.27 590.546V601.789H1092.51C1092.51 595.58 1087.48 590.546 1081.27 590.546Z" fill="#EA4882"/>
<path d="M856.425 613.032V601.79H845.183C845.183 607.999 850.216 613.032 856.425 613.032Z" fill="#EA4882"/>
<path d="M862.045 613.031C860.735 613.031 856.424 613.031 856.424 613.031C856.424 613.031 856.424 609.204 856.424 607.41C856.424 606.009 856.424 601.789 856.424 601.789C856.424 601.789 860.342 601.789 862.045 601.789C865.149 601.789 867.666 604.306 867.666 607.41C867.666 610.515 865.149 613.031 862.045 613.031Z" fill="#EA4882"/>
<path d="M878.909 607.41C878.909 606.1 878.909 601.789 878.909 601.789C878.909 601.789 882.736 601.789 884.53 601.789C885.932 601.789 890.152 601.789 890.152 601.789C890.152 601.789 890.152 605.707 890.152 607.41C890.152 610.515 887.635 613.031 884.53 613.031C881.426 613.031 878.909 610.515 878.909 607.41Z" fill="#EA4882"/>
<path d="M923.879 613.032V601.79H912.637C912.637 607.999 917.67 613.032 923.879 613.032Z" fill="#EA4882"/>
<path d="M935.121 601.789H923.879V613.031H935.121V601.789Z" fill="#EA4882"/>
<path d="M946.364 601.789H935.121V613.031H946.364V601.789Z" fill="#EA4882"/>
<path d="M957.606 601.789H946.363V613.031H957.606V601.789Z" fill="#EA4882"/>
<path d="M963.228 613.031C961.917 613.031 957.606 613.031 957.606 613.031C957.606 613.031 957.606 609.204 957.606 607.41C957.606 606.009 957.606 601.789 957.606 601.789C957.606 601.789 961.525 601.789 963.228 601.789C966.332 601.789 968.849 604.306 968.849 607.41C968.849 610.515 966.332 613.031 963.228 613.031Z" fill="#EA4882"/>
<path d="M991.333 613.032V601.79H980.091C980.091 607.999 985.124 613.032 991.333 613.032Z" fill="#EA4882"/>
<path d="M1002.58 601.789H991.333V613.031H1002.58V601.789Z" fill="#EA4882"/>
<path d="M1013.82 601.789H1002.58V613.031H1013.82V601.789Z" fill="#EA4882"/>
<path d="M1025.06 601.789H1013.82V613.031H1025.06V601.789Z" fill="#EA4882"/>
<path d="M1036.3 601.789H1025.06V613.031H1036.3V601.789Z" fill="#EA4882"/>
<path d="M1047.55 601.789H1036.3V613.031H1047.55V601.789Z" fill="#EA4882"/>
<path d="M1058.79 601.789H1047.55V613.031H1058.79V601.789Z" fill="#EA4882"/>
<path d="M1070.03 601.79H1058.79V613.032C1065 613.032 1070.03 607.999 1070.03 601.79Z" fill="#EA4882"/>
<path d="M1092.51 601.789H1081.27V613.031H1092.51V601.789Z" fill="#EA4882"/>
<path d="M845.182 618.653C845.182 619.963 845.182 624.274 845.182 624.274C845.182 624.274 841.355 624.274 839.561 624.274C838.159 624.274 833.939 624.274 833.939 624.274C833.939 624.274 833.939 620.356 833.939 618.653C833.94 615.548 836.456 613.032 839.561 613.032C842.665 613.032 845.182 615.548 845.182 618.653Z" fill="#EA4882"/>
<path d="M895.773 613.032C898.877 613.032 901.394 615.548 901.394 618.653C901.394 621.758 898.877 624.274 895.773 624.274C892.668 624.274 890.151 621.758 890.151 618.653C890.151 615.548 892.668 613.032 895.773 613.032Z" fill="#EA4882"/>
<path d="M935.121 613.032H923.879V624.274H935.121V613.032Z" fill="#EA4882"/>
<path d="M980.091 618.653C980.091 619.963 980.091 624.274 980.091 624.274C980.091 624.274 976.264 624.274 974.47 624.274C973.068 624.274 968.849 624.274 968.849 624.274C968.849 624.274 968.849 620.356 968.849 618.653C968.849 615.548 971.365 613.032 974.47 613.032C977.574 613.032 980.091 615.548 980.091 618.653Z" fill="#EA4882"/>
<path d="M1002.58 624.274V613.032H991.333C991.333 619.241 996.366 624.274 1002.58 624.274Z" fill="#EA4882"/>
<path d="M1013.82 613.032H1002.58V624.274C1008.79 624.274 1013.82 619.241 1013.82 613.032Z" fill="#EA4882"/>
<path d="M1058.79 613.032H1047.55V624.274H1058.79V613.032Z" fill="#EA4882"/>
<path d="M1070.03 624.274H1081.27V613.032C1075.06 613.032 1070.03 618.065 1070.03 624.274Z" fill="#EA4882"/>
<path d="M1092.51 613.032H1081.27V624.274C1087.48 624.274 1092.51 619.241 1092.51 613.032Z" fill="#EA4882"/>
<path d="M1109.38 613.032C1112.48 613.032 1115 615.548 1115 618.653C1115 621.758 1112.48 624.274 1109.38 624.274C1106.27 624.274 1103.76 621.758 1103.76 618.653C1103.76 615.548 1106.27 613.032 1109.38 613.032Z" fill="#EA4882"/>
<path d="M845.182 635.515V624.273H833.939C833.939 630.482 838.973 635.515 845.182 635.515Z" fill="#EA4882"/>
<path d="M850.803 635.516C849.493 635.516 845.182 635.516 845.182 635.516C845.182 635.516 845.182 631.689 845.182 629.895C845.182 628.493 845.182 624.273 845.182 624.273C845.182 624.273 849.1 624.273 850.803 624.273C853.907 624.273 856.424 626.79 856.424 629.895C856.424 632.999 853.907 635.516 850.803 635.516Z" fill="#EA4882"/>
<path d="M867.667 635.515H878.909V624.273C872.7 624.273 867.667 629.306 867.667 635.515Z" fill="#EA4882"/>
<path d="M884.53 635.516C883.22 635.516 878.909 635.516 878.909 635.516C878.909 635.516 878.909 631.689 878.909 629.895C878.909 628.493 878.909 624.273 878.909 624.273C878.909 624.273 882.827 624.273 884.53 624.273C887.635 624.273 890.152 626.79 890.152 629.895C890.152 632.999 887.635 635.516 884.53 635.516Z" fill="#EA4882"/>
<path d="M901.394 635.515H912.636V624.273C906.427 624.273 901.394 629.306 901.394 635.515Z" fill="#EA4882"/>
<path d="M923.879 624.273H912.637V635.516H923.879V624.273Z" fill="#EA4882"/>
<path d="M935.121 624.273H923.879V635.515C930.088 635.515 935.121 630.482 935.121 624.273Z" fill="#EA4882"/>
<path d="M980.091 624.273H968.849V635.516H980.091V624.273Z" fill="#EA4882"/>
<path d="M1036.3 635.515H1047.55V624.273C1041.34 624.273 1036.3 629.306 1036.3 635.515Z" fill="#EA4882"/>
<path d="M1058.79 624.273H1047.55V635.516H1058.79V624.273Z" fill="#EA4882"/>
<path d="M1081.27 624.273H1070.03V635.516H1081.27V624.273Z" fill="#EA4882"/>
<path d="M878.909 635.517H867.667V646.759H878.909V635.517Z" fill="#EA4882"/>
<path d="M895.773 635.517C897.083 635.517 901.394 635.517 901.394 635.517C901.394 635.517 901.394 639.343 901.394 641.138C901.394 642.539 901.394 646.759 901.394 646.759C901.394 646.759 897.477 646.759 895.773 646.759C892.667 646.759 890.151 644.241 890.151 641.138C890.151 638.034 892.667 635.517 895.773 635.517Z" fill="#EA4882"/>
<path d="M912.636 635.517H901.394V646.759C907.603 646.759 912.636 641.726 912.636 635.517Z" fill="#EA4882"/>
<path d="M946.364 641.138C946.364 642.448 946.364 646.759 946.364 646.759C946.364 646.759 942.537 646.759 940.742 646.759C939.341 646.759 935.121 646.759 935.121 646.759C935.121 646.759 935.121 642.841 935.121 641.138C935.121 638.033 937.638 635.517 940.742 635.517C943.847 635.517 946.364 638.033 946.364 641.138Z" fill="#EA4882"/>
<path d="M968.849 641.138C968.849 639.828 968.849 635.517 968.849 635.517C968.849 635.517 972.676 635.517 974.47 635.517C975.871 635.517 980.091 635.517 980.091 635.517C980.091 635.517 980.091 639.435 980.091 641.138C980.091 644.242 977.574 646.759 974.47 646.759C971.365 646.759 968.849 644.242 968.849 641.138Z" fill="#EA4882"/>
<path d="M996.954 635.517C998.264 635.517 1002.58 635.517 1002.58 635.517C1002.58 635.517 1002.58 639.343 1002.58 641.138C1002.58 642.539 1002.58 646.759 1002.58 646.759C1002.58 646.759 998.658 646.759 996.954 646.759C993.849 646.759 991.333 644.241 991.333 641.138C991.333 638.034 993.849 635.517 996.954 635.517Z" fill="#EA4882"/>
<path d="M1002.58 635.517V646.759H1013.82C1013.82 640.55 1008.79 635.517 1002.58 635.517Z" fill="#EA4882"/>
<path d="M1047.55 635.517H1036.3V646.759H1047.55V635.517Z" fill="#EA4882"/>
<path d="M1058.79 635.517H1047.55V646.759H1058.79V635.517Z" fill="#EA4882"/>
<path d="M1070.03 635.517H1058.79V646.759H1070.03V635.517Z" fill="#EA4882"/>
<path d="M1081.27 635.517H1070.03V646.759C1076.24 646.759 1081.27 641.726 1081.27 635.517Z" fill="#EA4882"/>
<path d="M1109.38 635.517C1112.48 635.517 1115 638.033 1115 641.138C1115 644.242 1112.48 646.759 1109.38 646.759C1106.27 646.759 1103.76 644.242 1103.76 641.138C1103.76 638.033 1106.27 635.517 1109.38 635.517Z" fill="#EA4882"/>
<path d="M839.561 646.758C842.665 646.758 845.182 649.275 845.182 652.38C845.182 655.484 842.665 658.001 839.561 658.001C836.456 658.001 833.939 655.484 833.939 652.38C833.939 649.275 836.456 646.758 839.561 646.758Z" fill="#EA4882"/>
<path d="M862.045 646.758C863.355 646.758 867.666 646.758 867.666 646.758C867.666 646.758 867.666 650.585 867.666 652.38C867.666 653.78 867.666 658.001 867.666 658.001C867.666 658.001 863.749 658.001 862.045 658.001C858.939 658.001 856.424 655.483 856.424 652.38C856.424 649.276 858.939 646.758 862.045 646.758Z" fill="#EA4882"/>
<path d="M878.909 646.758H867.667V658.001H878.909V646.758Z" fill="#EA4882"/>
<path d="M884.53 658.001C883.22 658.001 878.909 658.001 878.909 658.001C878.909 658.001 878.909 654.174 878.909 652.38C878.909 650.978 878.909 646.758 878.909 646.758C878.909 646.758 882.827 646.758 884.53 646.758C887.635 646.758 890.152 649.275 890.152 652.38C890.152 655.484 887.635 658.001 884.53 658.001Z" fill="#EA4882"/>
<path d="M929.5 646.758C930.81 646.758 935.121 646.758 935.121 646.758C935.121 646.758 935.121 650.585 935.121 652.38C935.121 653.78 935.121 658.001 935.121 658.001C935.121 658.001 931.204 658.001 929.5 658.001C926.395 658.001 923.879 655.483 923.879 652.38C923.879 649.276 926.395 646.758 929.5 646.758Z" fill="#EA4882"/>
<path d="M946.364 646.758H935.121V658.001H946.364V646.758Z" fill="#EA4882"/>
<path d="M957.606 646.758H946.363V658.001H957.606V646.758Z" fill="#EA4882"/>
<path d="M963.228 658.001C961.917 658.001 957.606 658.001 957.606 658.001C957.606 658.001 957.606 654.174 957.606 652.38C957.606 650.978 957.606 646.758 957.606 646.758C957.606 646.758 961.525 646.758 963.228 646.758C966.332 646.758 968.849 649.275 968.849 652.38C968.849 655.484 966.332 658.001 963.228 658.001Z" fill="#EA4882"/>
<path d="M985.712 646.758C988.817 646.758 991.333 649.275 991.333 652.38C991.333 655.484 988.817 658.001 985.712 658.001C982.608 658.001 980.091 655.484 980.091 652.38C980.091 649.275 982.608 646.758 985.712 646.758Z" fill="#EA4882"/>
<path d="M1002.58 652.38C1002.58 651.069 1002.58 646.758 1002.58 646.758C1002.58 646.758 1006.4 646.758 1008.2 646.758C1009.6 646.758 1013.82 646.758 1013.82 646.758C1013.82 646.758 1013.82 650.677 1013.82 652.38C1013.82 655.484 1011.3 658.001 1008.2 658.001C1005.09 658.001 1002.58 655.484 1002.58 652.38Z" fill="#EA4882"/>
<path d="M1030.68 646.758C1031.99 646.758 1036.3 646.758 1036.3 646.758C1036.3 646.758 1036.3 650.585 1036.3 652.38C1036.3 653.78 1036.3 658.001 1036.3 658.001C1036.3 658.001 1032.39 658.001 1030.68 658.001C1027.58 658.001 1025.06 655.483 1025.06 652.38C1025.06 649.276 1027.58 646.758 1030.68 646.758Z" fill="#EA4882"/>
<path d="M1047.55 646.758H1036.3V658C1042.51 658 1047.55 652.967 1047.55 646.758Z" fill="#EA4882"/>
<path d="M1058.79 652.38C1058.79 651.069 1058.79 646.758 1058.79 646.758C1058.79 646.758 1062.62 646.758 1064.41 646.758C1065.81 646.758 1070.03 646.758 1070.03 646.758C1070.03 646.758 1070.03 650.677 1070.03 652.38C1070.03 655.484 1067.51 658.001 1064.41 658.001C1061.3 658.001 1058.79 655.484 1058.79 652.38Z" fill="#EA4882"/>
<path d="M1086.89 646.758C1090 646.758 1092.51 649.275 1092.51 652.38C1092.51 655.484 1090 658.001 1086.89 658.001C1083.79 658.001 1081.27 655.484 1081.27 652.38C1081.27 649.275 1083.79 646.758 1086.89 646.758Z" fill="#EA4882"/>
<path d="M795.829 287.007H770.868C758.703 287.007 748.397 295.044 745.102 306.029C744.761 307.166 744.495 308.334 744.31 309.528C744.106 310.845 744 312.194 744 313.567V339.121C744 353.773 756.056 365.689 770.868 365.689L783.348 365.691L795.829 365.688C810.64 365.688 822.697 353.773 822.697 339.12V313.567C822.697 298.922 810.641 287.007 795.829 287.007ZM810.892 339.121C810.892 347.261 804.136 353.884 795.826 353.884L783.348 353.887L770.871 353.884C762.561 353.884 755.805 347.26 755.805 339.121V313.567C755.805 311.024 756.464 308.63 757.625 306.539C758.742 304.526 760.323 302.796 762.227 301.486C764.674 299.801 767.655 298.811 770.867 298.811H795.829C804.136 298.811 810.892 305.431 810.892 313.567V339.121Z" fill="#EA4882"/>
<path d="M1088.13 287.007H1063.17C1051.01 287.007 1040.7 295.044 1037.4 306.029C1037.06 307.166 1036.8 308.334 1036.61 309.528C1036.41 310.845 1036.3 312.194 1036.3 313.567V339.121C1036.3 353.773 1048.36 365.689 1063.17 365.689L1075.65 365.691L1088.13 365.688C1102.94 365.688 1115 353.773 1115 339.12V313.567C1115 298.922 1102.94 287.007 1088.13 287.007ZM1103.2 339.121C1103.2 347.261 1096.44 353.884 1088.13 353.884L1075.65 353.887L1063.17 353.884C1054.86 353.884 1048.11 347.26 1048.11 339.121V313.567C1048.11 311.024 1048.77 308.63 1049.93 306.539C1051.05 304.526 1052.63 302.796 1054.53 301.486C1056.98 299.801 1059.96 298.811 1063.17 298.811H1088.13C1096.44 298.811 1103.2 305.431 1103.2 313.567V339.121Z" fill="#EA4882"/>
<path d="M795.829 579.312H770.868C758.703 579.312 748.397 587.349 745.102 598.335C744.761 599.471 744.495 600.639 744.31 601.833C744.106 603.15 744 604.499 744 605.872V631.426C744 646.079 756.056 657.994 770.868 657.994L783.348 657.996L795.829 657.993C810.64 657.993 822.697 646.078 822.697 631.425V605.872C822.697 591.227 810.641 579.312 795.829 579.312ZM810.892 631.426C810.892 639.566 804.136 646.19 795.826 646.19L783.348 646.192L770.871 646.189C762.561 646.189 755.805 639.566 755.805 631.426V605.872C755.805 603.33 756.464 600.936 757.625 598.844C758.742 596.832 760.323 595.101 762.227 593.791C764.674 592.106 767.655 591.117 770.867 591.117H795.829C804.136 591.117 810.892 597.736 810.892 605.872V631.426Z" fill="#EA4882"/>
<path d="M775.71 343.213C770.62 343.213 766.48 339.155 766.48 334.171V318.522C766.48 316.965 766.885 315.5 767.594 314.218C768.278 312.985 769.247 311.924 770.413 311.124C771.912 310.093 773.739 309.485 775.705 309.485H790.992C796.077 309.485 800.217 313.539 800.217 318.522V334.171C800.217 339.154 796.078 343.212 790.992 343.212H783.349H775.71V343.213Z" fill="#EA4882"/>
<path d="M1068.01 343.213C1062.92 343.213 1058.78 339.155 1058.78 334.171V318.522C1058.78 316.965 1059.19 315.5 1059.9 314.218C1060.58 312.985 1061.55 311.924 1062.72 311.124C1064.21 310.093 1066.04 309.485 1068.01 309.485H1083.3C1088.38 309.485 1092.52 313.539 1092.52 318.522V334.171C1092.52 339.154 1088.38 343.212 1083.3 343.212H1075.65H1068.01V343.213Z" fill="#EA4882"/>
<path d="M775.71 635.518C770.62 635.518 766.48 631.46 766.48 626.476V610.827C766.48 609.271 766.885 607.805 767.594 606.523C768.278 605.29 769.247 604.229 770.413 603.429C771.912 602.398 773.739 601.791 775.705 601.791H790.992C796.077 601.791 800.217 605.844 800.217 610.827V626.476C800.217 631.459 796.078 635.517 790.992 635.517H783.349H775.71V635.518Z" fill="#EA4882"/>
</svg>
