<svg width="128" height="128" viewBox="0 0 128 128" fill="none" xmlns="http://www.w3.org/2000/svg">
<circle cx="64" cy="64" r="64" fill="#FF5880"/>
<path d="M71.1723 107.66C63.5083 108.668 63.0571 108.805 56.2843 108.995C49.5115 109.185 45.0051 104.095 45.0051 97.421V89.4119V81.4028C45.0051 78.7126 44.9936 78.5259 45.0051 77.3983C45.0051 75.6185 45.6767 73.8387 48.6143 73.8387C49.1715 73.8392 51.3736 73.8387 52.2683 73.8387H53.7716C56.0223 73.8387 57.3808 75.3909 57.3808 77.8381C57.3808 80.2853 59.0767 82.7377 61.6923 82.7377C64.308 82.7377 66.1335 80.8121 66.1335 78.0076C66.1335 75.2032 65.4602 72.267 61.6923 69.5943C56.487 65.902 49.9748 61.7714 47.3565 57.5647C44.7382 53.3581 45.2306 48.2542 45.0051 45.807V32.9035C45.0051 24.0045 49.5115 20 58.0886 20H68.9162C77.488 20 81.9995 23.1146 82 32.9035C82.0004 41.6982 81.9936 45.3722 81.9996 48.4767C81.9996 52.2587 81.0973 53.3711 77.488 53.3711H74.0191C70.8909 53.3711 69.8429 51.8138 69.8429 48.9216C69.8429 47.2112 68.3726 44.4722 65.6657 44.4722C63.1871 44.4722 61.3214 46.2519 61.3214 48.9216C61.3214 50.5752 61.6175 55.0733 64.7495 57.7493C69.3894 61.7134 72.6045 62.1773 76.6816 66.6054C81.4225 71.7545 81.9995 74.5062 81.9995 83.6276V87.1872V97.421C81.7744 103.433 78.8364 106.652 71.1723 107.66Z" fill="white"/>
</svg>
