<svg width="296" height="371" viewBox="0 0 296 371" fill="none" xmlns="http://www.w3.org/2000/svg">
<path d="M272.448 67.4016L189.477 10.3966L44.6836 7" stroke="#3842F1" stroke-width="2" stroke-miterlimit="1.5" stroke-linecap="round" stroke-linejoin="round"/>
<path d="M122.754 74.9502L123.961 77.1748L36.5662 190.1L34.6172 190.72" stroke="#3842F1" stroke-width="2" stroke-miterlimit="1.5" stroke-linecap="round" stroke-linejoin="round"/>
<path d="M189.395 286.356V290.132" stroke="#3842F1" stroke-width="2" stroke-miterlimit="1.5" stroke-linecap="round" stroke-linejoin="round"/>
<path d="M208.27 280.065V285.099" stroke="#3842F1" stroke-width="2" stroke-miterlimit="1.5" stroke-linecap="round" stroke-linejoin="round"/>
<path d="M183.105 282.582V286.357" stroke="#3842F1" stroke-width="2" stroke-miterlimit="1.5" stroke-linecap="round" stroke-linejoin="round"/>
<path d="M175.551 281.323V285.098" stroke="#3842F1" stroke-width="2" stroke-miterlimit="1.5" stroke-linecap="round" stroke-linejoin="round"/>
<path d="M123.961 74.9502L34.6172 190.72" stroke="#3842F1" stroke-width="2" stroke-miterlimit="1.5" stroke-linecap="round" stroke-linejoin="round"/>
<path d="M272.448 67.4014L123.961 74.9516" stroke="#3842F1" stroke-width="2" stroke-miterlimit="1.5" stroke-linecap="round" stroke-linejoin="round"/>
<path d="M269.931 68.6592L123.961 77.4677" stroke="#3842F1" stroke-width="2" stroke-miterlimit="1.5" stroke-linecap="round" stroke-linejoin="round"/>
<path d="M169.262 163.037L272.448 67.4014" stroke="#3842F1" stroke-width="2" stroke-miterlimit="1.5" stroke-linecap="round" stroke-linejoin="round"/>
<path d="M169.262 164.296L272.448 67.4014" stroke="#3842F1" stroke-width="2" stroke-miterlimit="1.5" stroke-linecap="round" stroke-linejoin="round"/>
<path d="M146.613 147.935L169.264 74.9502" stroke="#3842F1" stroke-width="2" stroke-miterlimit="1.5" stroke-linecap="round" stroke-linejoin="round"/>
<path d="M45.9414 190.72L165.486 169.328" stroke="#3842F1" stroke-width="2" stroke-miterlimit="1.5" stroke-linecap="round" stroke-linejoin="round"/>
<path d="M165.488 169.328L257.349 262.447" stroke="#3842F1" stroke-width="2" stroke-miterlimit="1.5" stroke-linecap="round" stroke-linejoin="round"/>
<path d="M91.2422 251.121L115.151 246.088" stroke="#3842F1" stroke-width="2" stroke-miterlimit="1.5" stroke-linecap="round" stroke-linejoin="round"/>
<path d="M74.8867 200.788L115.154 193.238" stroke="#3842F1" stroke-width="2" stroke-miterlimit="1.5" stroke-linecap="round" stroke-linejoin="round"/>
<path d="M74.8884 230.988L74.6096 202.419L71.1133 200.787" stroke="#3842F1" stroke-width="2" stroke-miterlimit="1.5" stroke-linecap="round" stroke-linejoin="round"/>
<path d="M71.4758 223.437L71.1133 199.449L116.414 190.72" stroke="#3842F1" stroke-width="2" stroke-miterlimit="1.5" stroke-linecap="round" stroke-linejoin="round"/>
<path d="M272.452 267.481L178.074 232.247" stroke="#3842F1" stroke-width="2" stroke-miterlimit="1.5" stroke-linecap="round" stroke-linejoin="round"/>
<path d="M144.129 317.815C143.806 313.574 146.35 312.618 149.257 311.648C160.877 307.772 265.552 270.496 273.763 267.522" stroke="#3842F1" stroke-width="2" stroke-miterlimit="1.5" stroke-linecap="round" stroke-linejoin="round"/>
<path d="M142.836 320.333V330.4" stroke="#3842F1" stroke-width="2" stroke-miterlimit="1.5" stroke-linecap="round" stroke-linejoin="round"/>
<path d="M40.9062 186.945L143.27 320.332" stroke="#3842F1" stroke-width="2" stroke-miterlimit="1.5" stroke-linecap="round" stroke-linejoin="round"/>
<path d="M272.444 267.482L185.617 180.654" stroke="#3842F1" stroke-width="2" stroke-miterlimit="1.5" stroke-linecap="round" stroke-linejoin="round"/>
<path d="M165.487 160.519L43.4258 181.911" stroke="#3842F1" stroke-width="2" stroke-miterlimit="1.5" stroke-linecap="round" stroke-linejoin="round"/>
<path d="M165.488 160.519V185.686" stroke="#3842F1" stroke-width="2" stroke-miterlimit="1.5" stroke-linecap="round" stroke-linejoin="round"/>
<path d="M43.4258 180.652L165.487 160.519" stroke="#3842F1" stroke-width="2" stroke-miterlimit="1.5" stroke-linecap="round" stroke-linejoin="round"/>
<path d="M278.741 271.256L184.363 179.396" stroke="#3842F1" stroke-width="2" stroke-miterlimit="1.5" stroke-linecap="round" stroke-linejoin="round"/>
<path d="M186.881 181.911L165.488 160.519" stroke="#3842F1" stroke-width="2" stroke-miterlimit="1.5" stroke-linecap="round" stroke-linejoin="round"/>
<path d="M278.684 281.952V274.996L278.741 270.793L143.098 320.333" stroke="#3842F1" stroke-width="2" stroke-miterlimit="1.5" stroke-linecap="round" stroke-linejoin="round"/>
<path fill-rule="evenodd" clip-rule="evenodd" d="M34.6172 191.979L39.6768 297.839L142.127 365.634L278.456 309.324L279.999 281.483L142.06 333.263L34.6172 191.979Z" stroke="#3842F1" stroke-width="2" stroke-miterlimit="1.5" stroke-linecap="round" stroke-linejoin="round"/>
<path d="M161.709 160.467L148.318 147.936L59.7812 160.519" stroke="#3842F1" stroke-width="2" stroke-miterlimit="1.5" stroke-linecap="round" stroke-linejoin="round"/>
<path d="M35.4473 190.721L17 167.468L45.8694 7L123.961 74.996" stroke="#3842F1" stroke-width="2" stroke-miterlimit="1.5" stroke-linecap="round" stroke-linejoin="round"/>
<path d="M185.617 267.481C187.783 268.544 202.96 277.011 208.268 280.065" stroke="#3842F1" stroke-width="2" stroke-miterlimit="1.5" stroke-linecap="round" stroke-linejoin="round"/>
<path d="M184.632 267.481L162.977 273.458L175.59 281.361L182.9 282.502L189.664 286.357L208.278 281.172" stroke="#3842F1" stroke-width="2" stroke-miterlimit="1.5" stroke-linecap="round" stroke-linejoin="round"/>
<path d="M162.977 273.772L163.032 277.661L175.63 285.302L182.931 286.405L189.687 290.131L208.278 285.118" stroke="#3842F1" stroke-width="2" stroke-miterlimit="1.5" stroke-linecap="round" stroke-linejoin="round"/>
<path d="M111.375 205.82C112.268 206.485 113.785 207.054 115.15 207.079" stroke="#3842F1" stroke-width="2" stroke-miterlimit="1.5" stroke-linecap="round" stroke-linejoin="round"/>
<path d="M114.805 203.304C111.649 204.431 111.455 205.922 111.435 207.565C111.385 211.689 111.371 214.858 111.376 218.611C111.387 226.578 112.479 231.255 115.15 232.246" stroke="#3842F1" stroke-width="2" stroke-miterlimit="1.5" stroke-linecap="round" stroke-linejoin="round"/>
<path d="M125.219 186.945C127.536 187.606 133.663 189.467 138.98 192.028C143.763 194.332 147.899 197.125 147.869 201.45C147.846 204.769 147.818 212.459 147.736 219.663" stroke="#3842F1" stroke-width="2" stroke-miterlimit="1.5" stroke-linecap="round" stroke-linejoin="round"/>
<path d="M147.867 182.065C150.375 181.357 155.875 183.25 161.785 185.232C167.19 187.045 171.808 188.519 171.776 192.755C171.752 196.004 171.794 205.059 171.706 212.114" stroke="#3842F1" stroke-width="2" stroke-miterlimit="1.5" stroke-linecap="round" stroke-linejoin="round"/>
<path d="M121.449 188.639C121.777 186.788 122.477 185.861 125.258 184.761C131.77 182.184 142.891 181.089 147.169 182.602C150.083 183.633 154.061 184.855 157.64 186.491C162.542 188.733 166.781 191.45 166.75 195.656C166.727 198.885 166.698 206.365 166.614 213.372" stroke="#3842F1" stroke-width="2" stroke-miterlimit="1.5" stroke-linecap="round" stroke-linejoin="round"/>
<path fill-rule="evenodd" clip-rule="evenodd" d="M161.664 214.132C170.338 212.767 177.683 213.291 178.058 215.303C178.432 217.314 171.695 220.056 163.022 221.421C154.348 222.786 147.002 222.261 146.628 220.25C146.254 218.238 152.991 215.497 161.664 214.132V214.132Z" stroke="#3842F1" stroke-width="2" stroke-miterlimit="1.5" stroke-linecap="round" stroke-linejoin="round"/>
<path fill-rule="evenodd" clip-rule="evenodd" d="M163.226 215.482C169.82 214.293 175.341 214.356 175.548 215.622C175.753 216.889 170.567 218.882 163.972 220.07C157.378 221.258 151.856 221.195 151.65 219.929C151.445 218.663 156.632 216.67 163.226 215.482Z" stroke="#3842F1" stroke-width="2" stroke-miterlimit="1.5" stroke-linecap="round" stroke-linejoin="round"/>
<path d="M178.074 215.888V238.538" stroke="#3842F1" stroke-width="2" stroke-miterlimit="1.5" stroke-linecap="round" stroke-linejoin="round"/>
<path fill-rule="evenodd" clip-rule="evenodd" d="M175.397 237.171C180.132 240.217 180.663 248.376 176.581 255.382C172.499 262.387 165.341 265.602 160.605 262.557C155.87 259.512 155.34 251.353 159.421 244.347C163.503 237.342 170.661 234.127 175.397 237.171V237.171Z" stroke="#3842F1" stroke-width="2" stroke-miterlimit="1.5" stroke-linecap="round" stroke-linejoin="round"/>
<path d="M165.406 263.63C158.553 264.728 151.56 253.91 157.91 242.879C161.959 235.845 170.671 231.038 176.81 238.585" stroke="#3842F1" stroke-width="2" stroke-miterlimit="1.5" stroke-linecap="round" stroke-linejoin="round"/>
<path d="M176.432 257.576C178.599 261.315 170.842 265.582 167.795 266.822C155.778 271.71 141.59 273.198 131.061 267.985C126.368 265.662 119.142 262.735 117.191 258.441C115.34 254.366 115.417 232.823 115.25 223.789C115.091 215.189 115.147 207.668 115.226 199.302C115.315 189.773 115.947 189.973 124.811 186.945" stroke="#3842F1" stroke-width="2" stroke-miterlimit="1.5" stroke-linecap="round" stroke-linejoin="round"/>
<path d="M166.747 263.569C164.597 263.951 158.371 263.464 156.302 262.978C152.581 262.104 148.222 258.819 147.113 254.201C146.096 249.962 146.978 222.064 146.789 220.922" stroke="#3842F1" stroke-width="2" stroke-miterlimit="1.5" stroke-linecap="round" stroke-linejoin="round"/>
</svg>
