<svg width="296" height="371" viewBox="0 0 296 371" fill="none" xmlns="http://www.w3.org/2000/svg">
<path d="M131.26 119.097C134.244 114.158 134.529 115.544 138.366 117.889C142.203 120.234 147.995 123.929 151.762 126.203C155.528 128.477 156.168 128.69 153.929 132.208C152.579 134.304 148.706 139.812 147.924 141.091C146.68 143.045 142.843 139.705 141.422 139.812C140 139.918 137.407 142.335 136.021 141.517C131.97 139.208 131.189 138.462 127.031 135.726" stroke="#3842F1" stroke-width="2" stroke-linecap="round" stroke-linejoin="round"/>
<path d="M155.2 129.259C155.182 130.282 155.027 131.297 154.738 132.279C154.457 132.88 154.136 133.461 153.779 134.02C152.464 136.116 149.124 141.126 148.201 142.406C146.602 144.467 143.048 140.736 141.094 141.126C140.028 141.375 137.292 143.614 135.729 142.797C132.333 140.866 129.058 138.73 125.922 136.401" stroke="#3842F1" stroke-width="2" stroke-linecap="round" stroke-linejoin="round"/>
<path d="M108.057 119.984C105.178 117.426 102.052 115.188 99.4223 112.381C98.2142 111.101 98.0366 108.827 96.6153 107.868C94.979 107.037 93.1887 106.553 91.3566 106.447C88.8463 105.841 86.5262 104.62 84.6055 102.894" stroke="#3842F1" stroke-width="2" stroke-linecap="round" stroke-linejoin="round"/>
<path d="M98.3965 111.173C96.1728 113.86 94.5929 117.02 93.7773 120.411" stroke="#3842F1" stroke-width="2" stroke-linecap="round" stroke-linejoin="round"/>
<path d="M96.8246 107.904C96.6243 106.484 96.7198 105.037 97.105 103.655C97.4902 102.273 98.1569 100.986 99.0631 99.874" stroke="#3842F1" stroke-width="2" stroke-linecap="round" stroke-linejoin="round"/>
<path d="M98.3229 110.464C98.1971 109.124 98.3569 107.772 98.7918 106.498C99.2266 105.224 99.9268 104.057 100.846 103.073" stroke="#3842F1" stroke-width="2" stroke-linecap="round" stroke-linejoin="round"/>
<path d="M126.105 117.108C123.653 111.565 119.389 108.474 115.836 103.642C112.283 98.8094 114.095 94.5811 104.359 89.6422C100.806 87.9366 95.0495 87.8656 91.0344 86.089C83.7527 83.449 76.3404 81.1838 68.8269 79.3023C57.5988 76.7085 54.6141 76.9927 48.6091 86.4087C42.6549 96.2759 37.3953 106.546 32.8685 117.144C24.7316 141.839 24.5161 136.965 11 148.922" stroke="#3842F1" stroke-width="2" stroke-linecap="round" stroke-linejoin="round"/>
<path d="M83.0117 93.4072C84.966 95.9655 84.7883 100.158 84.362 105.915C84.1132 109.255 84.1132 113.021 84.1488 116.29" stroke="#3842F1" stroke-width="2" stroke-linecap="round" stroke-linejoin="round"/>
<path d="M204.422 149.871C202.148 147.81 199.66 151.967 199.731 158.043C199.58 164.156 200.794 170.225 203.285 175.809" stroke="#3842F1" stroke-width="2" stroke-linecap="round" stroke-linejoin="round"/>
<path d="M159.969 156.831C159.969 157.115 160.715 157.826 161.177 157.791C166.151 157.115 182.496 156.476 185.516 156.369C185.812 156.328 186.084 156.185 186.285 155.964C186.486 155.743 186.604 155.459 186.618 155.161" stroke="#3842F1" stroke-width="2" stroke-linecap="round" stroke-linejoin="round"/>
<path d="M155.598 157.007C160.608 155.55 186.724 154.84 191.13 154.982" stroke="#3842F1" stroke-width="2" stroke-linecap="round" stroke-linejoin="round"/>
<path d="M140.207 274.087C140.207 279.95 142.126 283.645 153.141 287.625C169.414 293.558 201.18 293.843 218.91 288.229C230.387 284.675 233.123 279.381 233.336 274.407" stroke="#3842F1" stroke-width="2" stroke-linecap="round" stroke-linejoin="round"/>
<path d="M58.3435 259.093C55.7364 259.365 53.1716 259.949 50.7042 260.834C46.014 263.428 42.7094 267.478 46.7955 274.798C49.0341 278.813 51.699 288.762 41.3237 290.894C37.7795 291.204 34.2205 291.311 30.6641 291.214" stroke="#3842F1" stroke-width="2" stroke-linecap="round" stroke-linejoin="round"/>
<path d="M57.9635 256.854C54.3856 257.195 50.9089 258.233 47.7303 259.91C43.3243 262.93 39.1316 267.408 43.5375 275.011C46.1314 279.524 49.2938 288.762 36.9642 288.94C35.7561 288.94 33.4109 288.94 30.3906 288.94" stroke="#3842F1" stroke-width="2" stroke-linecap="round" stroke-linejoin="round"/>
<path d="M60.4102 256.854C60.8634 257.007 61.3031 257.197 61.7248 257.423" stroke="#3842F1" stroke-width="2" stroke-linecap="round" stroke-linejoin="round"/>
<path d="M61.5026 253.798C60.0813 254.082 59.7971 258.986 61.929 259.838" stroke="#3842F1" stroke-width="2" stroke-linecap="round" stroke-linejoin="round"/>
<path d="M62.3655 251.668C60.8021 251.136 59.0254 252.663 58.5635 253.978C58.0956 255.169 57.9742 256.469 58.2131 257.726C58.452 258.984 59.0415 260.148 59.9138 261.084C61.5482 262.683 63.8935 262.008 64.0712 260.587" stroke="#3842F1" stroke-width="2" stroke-linecap="round" stroke-linejoin="round"/>
<path d="M64.8539 252.7C64.458 253.066 64.1453 253.513 63.937 254.011C63.7286 254.508 63.6295 255.044 63.6464 255.583C63.6632 256.122 63.7956 256.651 64.0346 257.135C64.2736 257.618 64.6135 258.045 65.0315 258.385" stroke="#3842F1" stroke-width="2" stroke-linecap="round" stroke-linejoin="round"/>
<path d="M65.8113 250.499C63.0043 250.072 61.2987 252.275 61.5474 256.148C61.7961 260.021 66.0244 262.366 67.5168 259.24" stroke="#3842F1" stroke-width="2" stroke-linecap="round" stroke-linejoin="round"/>
<path d="M69.4051 249.109C66.7402 248.896 64.4304 250.53 65.0345 255.292C65.6385 260.053 70.3999 260.088 71.1105 258.134" stroke="#3842F1" stroke-width="2" stroke-linecap="round" stroke-linejoin="round"/>
<path d="M68.4034 251.667C66.3781 252.164 67.302 256.499 68.7233 257.068" stroke="#3842F1" stroke-width="2" stroke-linecap="round" stroke-linejoin="round"/>
<path d="M72.9579 247.934C71.5011 247.649 67.4859 248.395 68.4808 253.796C69.0493 256.781 71.5009 259.162 73.4552 258.096C73.6595 257.982 73.8358 257.824 73.9711 257.634C74.1064 257.443 74.1973 257.225 74.237 256.994" stroke="#3842F1" stroke-width="2" stroke-linecap="round" stroke-linejoin="round"/>
<path d="M71.9512 250.422C70.2812 250.138 69.9968 254.721 72.342 255.929" stroke="#3842F1" stroke-width="2" stroke-linecap="round" stroke-linejoin="round"/>
<path d="M78.4522 251.383C78.4522 250.352 76.6755 248.611 75.645 249.038C74.6146 249.464 74.4725 251.951 74.8279 253.159C74.8279 253.55 75.4318 254.936 76.0714 254.758" stroke="#3842F1" stroke-width="2" stroke-linecap="round" stroke-linejoin="round"/>
<path d="M80.3033 249.466C79.8992 248.676 79.3103 247.995 78.5865 247.481C77.8627 246.968 77.0254 246.637 76.1461 246.517C74.8669 246.517 70.9584 247.44 72.2021 253.232C73.4457 259.024 78.1713 257.212 78.0647 255.009" stroke="#3842F1" stroke-width="2" stroke-linecap="round" stroke-linejoin="round"/>
<path d="M77.7139 253.299C77.5424 251.738 76.7796 250.301 75.582 249.284" stroke="#3842F1" stroke-width="2" stroke-linecap="round" stroke-linejoin="round"/>
<path d="M146.755 159.108C146.009 156.763 149.384 155.91 150.912 155.732C152.44 155.554 154.963 155.199 155.353 157.153" stroke="#3842F1" stroke-width="2" stroke-linecap="round" stroke-linejoin="round"/>
<path d="M146.754 159.141C149.708 158.865 152.611 158.196 155.388 157.151" stroke="#3842F1" stroke-width="2" stroke-linecap="round" stroke-linejoin="round"/>
<path d="M191.128 158.357C176.39 158.259 161.671 159.448 147.14 161.911C137.266 163.493 128.12 168.084 120.953 175.058C90.7149 200.747 97.928 258.451 140.353 274.37C162.028 282.506 207.331 285.598 231.067 275.542C243.432 270.283 249.223 262.395 258.071 253.228C271.218 239.584 283.583 249.284 285.999 227.574C285.999 226.117 284.862 202.488 279.781 193.996C272.675 181.915 269.974 189.661 259.421 186.179C244.213 181.169 229.183 170.225 225.275 162.87C223.277 156.181 223.363 149.042 225.523 142.404C228.899 132.703 220.976 134.196 218.63 135.297C211.169 138.495 211.311 149.51 211.062 151.251" stroke="#3842F1" stroke-width="2" stroke-linecap="round" stroke-linejoin="round"/>
<path d="M192.754 177.085C190.98 168.744 190.691 160.156 191.902 151.715C192.683 147.806 196.023 139.492 201.495 141.482C208.602 144.111 217.52 160.847 217.165 165.466" stroke="#3842F1" stroke-width="2" stroke-linecap="round" stroke-linejoin="round"/>
<path d="M143.723 162.09C143.403 160.776 143.936 159.994 146.743 159.177" stroke="#3842F1" stroke-width="2" stroke-linecap="round" stroke-linejoin="round"/>
<path d="M80.0977 254.333C81.3765 252.075 83.3982 250.33 85.8185 249.394C92.6095 245.998 99.7608 243.376 107.138 241.577" stroke="#3842F1" stroke-width="2" stroke-linecap="round" stroke-linejoin="round"/>
<path d="M106.173 239.481C97.3374 241.402 88.8356 244.624 80.9453 249.04C79.3464 250.283 77.392 252.166 77.6762 254.014C77.7292 254.318 77.8456 254.608 78.0176 254.864C78.1896 255.12 78.4134 255.337 78.6747 255.501C78.936 255.665 79.2287 255.773 79.5341 255.817C79.8396 255.86 80.151 255.839 80.4478 255.755C81.5493 255.293 82.0111 253.979 81.4782 252.202" stroke="#3842F1" stroke-width="2" stroke-linecap="round" stroke-linejoin="round"/>
<path d="M223.106 183.339C220.406 186.893 228.365 193.502 229.644 194.461C232.202 196.38 238.492 200.572 240.766 198.014C242.507 196.095 237.212 190.268 234.796 188.136C232.38 186.004 225.238 180.497 223.106 183.339Z" stroke="#3842F1" stroke-width="2" stroke-linecap="round" stroke-linejoin="round"/>
<path d="M72.872 105.558C77.2779 116.999 100.018 124.283 106.876 120.588C112.242 117.71 125.779 115.684 130.008 118.207C131.497 119.175 132.666 120.562 133.368 122.193C134.07 123.825 134.273 125.628 133.952 127.374C133.276 135.12 114.622 141.907 110.429 142.44C95.044 144.359 91.0999 153.526 80.6179 161.983C78.0241 164.079 75.3591 168.556 69.0344 169.48C63.2197 170.609 57.5881 172.534 52.2988 175.2C39.8625 181.134 36.345 185.86 20.7109 194.423" stroke="#3842F1" stroke-width="2" stroke-linecap="round" stroke-linejoin="round"/>
</svg>
