<svg width="296" height="371" viewBox="0 0 296 371" fill="none" xmlns="http://www.w3.org/2000/svg">
<path d="M26.8359 93.791C34.167 96.3008 42.9228 98.8709 49.9496 101.424" stroke="#3842F1" stroke-width="2" stroke-linecap="round" stroke-linejoin="round"/>
<path d="M47.1328 54.6494C54.0949 56.661 58.9263 58.8337 65.78 61.2088" stroke="#3842F1" stroke-width="2" stroke-linecap="round" stroke-linejoin="round"/>
<path d="M42.3555 69.5449C42.563 70.6177 42.9019 71.6609 43.3645 72.6509C44.1989 73.1238 49.3968 76.3132 51.1095 77.4193" stroke="#3842F1" stroke-width="2" stroke-linecap="round" stroke-linejoin="round"/>
<path d="M73.9372 110.499C73.1743 110.871 72.3428 111.08 71.4949 111.115C70.647 111.15 69.8011 111.009 69.0105 110.701C62.4574 108.192 53.1337 105.053 51.0845 102.765C47.3172 98.5587 45.5864 88.0496 49.4085 80.4952C53.4536 72.4988 65.6148 58.1001 72.42 58.8674C73.6098 59.0015 86.7931 62.9046 89.4682 63.9526C90.8973 64.544 92.1374 65.5147 93.0543 66.7598C93.9713 68.0048 94.5303 69.4769 94.6708 71.0166" stroke="#3842F1" stroke-width="2" stroke-linecap="round" stroke-linejoin="round"/>
<path d="M75.8008 82.2888C76.2396 82.2523 76.6813 82.3032 77.1004 82.4383" stroke="#3842F1" stroke-width="2" stroke-linecap="round" stroke-linejoin="round"/>
<path d="M87.1914 71.2621C88.4474 70.5667 89.88 70.2554 91.3115 70.3668" stroke="#3842F1" stroke-width="2" stroke-linecap="round" stroke-linejoin="round"/>
<path d="M87.021 70.3691C86.7229 71.3712 87.9879 72.0409 88.9429 72.8438" stroke="#3842F1" stroke-width="2" stroke-linecap="round" stroke-linejoin="round"/>
<path d="M79.174 83.3881C78.8981 81.6416 84.4533 75.8612 86.5371 74.2611C87.2637 73.67 88.074 73.1901 88.9415 72.8369" stroke="#3842F1" stroke-width="2" stroke-linecap="round" stroke-linejoin="round"/>
<path d="M79.2656 83.4177C78.5432 82.9636 77.7551 82.6239 76.9289 82.4105C76.3595 82.3345 70.8361 86.7447 68.7313 97.5947C68.6574 97.9748 67.8351 97.9182 67.8518 97.6996C68.5728 91.8463 70.9284 86.3144 74.6487 81.7374C77.2225 78.1345 80.1732 74.8162 83.4508 71.8388C85.3739 70.1222 88.869 67.1056 91.9101 67.8464C92.349 67.9532 91.5005 69.9374 91.308 70.3698" stroke="#3842F1" stroke-width="2" stroke-linecap="round" stroke-linejoin="round"/>
<path d="M79.2148 83.4229C86.4886 88.2219 94.5785 91.6517 103.086 93.5432C118.945 96.1345 124.591 96.7563 134.73 101.377" stroke="#3842F1" stroke-width="2" stroke-linecap="round" stroke-linejoin="round"/>
<path d="M88.9766 72.8604C96.8792 79.22 105.93 84.0026 115.638 86.9481C123.682 89.3645 131.549 92.3303 139.186 95.8246" stroke="#3842F1" stroke-width="2" stroke-linecap="round" stroke-linejoin="round"/>
<path d="M134.793 101.388C135.322 101.648 135.814 101.977 136.257 102.367C136.581 102.759 136.769 103.246 136.792 103.754" stroke="#3842F1" stroke-width="2" stroke-linecap="round" stroke-linejoin="round"/>
<path d="M134.766 101.305C135.823 99.1911 137.307 97.3191 139.123 95.8066" stroke="#3842F1" stroke-width="2" stroke-linecap="round" stroke-linejoin="round"/>
<path d="M139.211 95.8301C140.156 96.3767 141.232 96.6557 142.324 96.6369" stroke="#3842F1" stroke-width="2" stroke-linecap="round" stroke-linejoin="round"/>
<path d="M152.418 122.517C152.948 122.54 153.475 122.44 153.96 122.225C154.444 122.01 154.872 121.686 155.211 121.278" stroke="#3842F1" stroke-width="2" stroke-linecap="round" stroke-linejoin="round"/>
<path d="M91.3203 70.377C95.8677 71.0464 100.304 72.5272 104.885 72.9691C110.016 73.4643 115.292 72.6017 120.45 72.7395C130.388 73.0052 140.222 74.8026 150.042 75.9753C156.827 76.7853 166.797 76.5164 172.85 79.8383C175.312 80.9613 177.609 82.4157 179.677 84.1612C185.107 88.9667 189.381 94.9366 192.179 101.625C193.095 103.512 196.311 107.955 192.738 108.984" stroke="#3842F1" stroke-width="2" stroke-linecap="round" stroke-linejoin="round"/>
<path d="M155.16 88.749C157.329 88.8635 159.425 89.4655 161.579 89.715C164.105 89.8578 166.602 90.3215 169.01 91.0949C171.638 92.5606 173.957 94.5209 175.84 96.8676" stroke="#3842F1" stroke-width="2" stroke-linecap="round" stroke-linejoin="round"/>
<path d="M129.992 79.0625C140.422 78.9856 142.947 83.3446 151.43 87.2247C153.263 88.0633 155.088 88.7979 156.909 89.4828C161.937 91.3737 166.94 92.8831 172.043 95.1465C179.287 98.3603 185.959 102.731 191.799 108.086C193.107 109.359 199.246 115.533 200.88 117.646C203.246 120.427 205.47 123.326 207.542 126.332C208.589 127.926 202.911 133.587 195.267 126.173C190.023 121.023 184.128 116.58 177.733 112.955C170.843 109.039 162.205 105.32 159.463 103.958" stroke="#3842F1" stroke-width="2" stroke-linecap="round" stroke-linejoin="round"/>
<path d="M148.891 118.979C154.539 120.041 160.3 124.559 165.237 127.285C172.15 131.102 178.15 134.784 184.918 138.844C191.166 142.592 196.705 148.666 204.569 146.94C213.582 144.962 204.376 137.563 202.23 135.699C201.391 134.971 203.022 136.479 202.23 135.699C191.759 125.657 180.085 116.947 167.475 109.768C164.322 107.793 161.02 106.065 157.6 104.6" stroke="#3842F1" stroke-width="2" stroke-linecap="round" stroke-linejoin="round"/>
<path d="M199.386 156.716C200.294 155.039 197.121 152.211 196.082 151.156C191.595 146.977 186.742 143.21 181.581 139.899C176.847 136.502 168.506 132.045 163.65 128.806C158.589 125.431 145.716 119.425 137.289 115.444" stroke="#3842F1" stroke-width="2" stroke-linecap="round" stroke-linejoin="round"/>
<path d="M102.891 128.529C122.802 127.824 145.167 135.709 161.697 144.216C187.028 157.252 195.413 163.109 199.376 156.716" stroke="#3842F1" stroke-width="2" stroke-linecap="round" stroke-linejoin="round"/>
<path d="M137.274 115.442C136.54 114.638 136.106 113.606 136.047 112.519C135.827 110.473 135.978 108.405 136.492 106.412C136.717 105.501 136.82 104.564 136.798 103.625" stroke="#3842F1" stroke-width="2" stroke-linecap="round" stroke-linejoin="round"/>
<path d="M136.801 103.639C137.784 102.1 138.857 100.621 140.015 99.2094C140.68 98.3236 141.404 97.4843 142.182 96.6973" stroke="#3842F1" stroke-width="2" stroke-linecap="round" stroke-linejoin="round"/>
<path d="M68.7301 97.6172C67.6427 101.796 69.1733 108.315 71.6819 109.538C72.2614 109.831 72.8589 110.087 73.4709 110.305C77.1394 111.546 81.4294 112.827 83.6983 116.182C87.369 121.609 86.5693 128.283 89.2558 134.004C91.0525 138.094 93.4954 141.869 96.4909 145.184C97.6425 146.466 102.58 155.737 107.397 159.265C108.884 160.672 110.234 162.217 111.428 163.879C113.332 166.847 115.398 170.26 119.243 168.674C120.329 167.683 121.205 166.485 121.819 165.149C122.523 162.875 122.743 160.478 122.466 158.114C122.188 155.749 121.418 153.469 120.206 151.42C118.806 148.777 116.571 146.563 114.945 144.05C112.52 140.303 109.539 135.987 112.41 131.577C113.115 130.658 113.961 129.855 114.916 129.198" stroke="#3842F1" stroke-width="2" stroke-linecap="round" stroke-linejoin="round"/>
<path d="M142.234 96.6541C143.677 96.3977 144.729 95.3925 146.127 95.7022C149.39 96.5389 152.457 98.0112 155.15 100.035C156.715 101.074 160.321 103.164 159.435 105.268" stroke="#3842F1" stroke-width="2" stroke-linecap="round" stroke-linejoin="round"/>
<path d="M150.685 121.447C150.119 120.962 149.67 120.357 149.37 119.675C149.07 118.994 148.927 118.253 148.952 117.509C148.516 113.738 149.452 109.937 151.589 106.799C152.168 105.892 153.019 105.19 154.02 104.795C155.022 104.4 156.122 104.331 157.165 104.599" stroke="#3842F1" stroke-width="2" stroke-linecap="round" stroke-linejoin="round"/>
<path d="M51.9399 75.9315C51.5006 75.6393 45.7717 71.9692 43.2656 70.3735C42.7284 70.0317 41.7993 69.5911 42.7611 68.4961C43.5381 67.6109 50.8224 59.9059 51.4914 59.1311C52.6855 57.7484 53.2699 58.291 54.0024 58.7015C55.9916 59.8161 61.8318 63.2087 62.5299 63.6481" stroke="#3842F1" stroke-width="2" stroke-linecap="round" stroke-linejoin="round"/>
<path d="M133.168 140.081C139.769 141.675 146.045 144.397 151.72 148.127" stroke="#3842F1" stroke-width="2" stroke-miterlimit="10"/>
<path d="M134 144.883C140.601 146.477 146.877 149.199 152.552 152.928" stroke="#3842F1" stroke-width="2" stroke-miterlimit="10"/>
<path d="M157.684 142.216C154.638 186.138 199.237 186.288 219.557 175.856C229.245 170.875 237.118 162.888 246.124 156.779C256.03 150.088 275.165 138.609 263.451 124.498C265.738 107.151 237.473 114.275 229.824 115.158C217.445 116.494 209.816 112.788 197.535 113.881" stroke="#3842F1" stroke-width="2" stroke-miterlimit="10"/>
<path fill-rule="evenodd" clip-rule="evenodd" d="M263.232 124.694C257.607 126.61 252.086 128.822 246.695 131.323L263.232 124.694Z" fill="#EB5A81" stroke="#3842F1" stroke-width="2" stroke-miterlimit="10"/>
<path d="M263.232 124.694C257.607 126.61 252.086 128.822 246.695 131.323" stroke="#3842F1" stroke-width="2" stroke-miterlimit="10"/>
<path d="M250.56 129.625C244.685 132.907 237.712 132.35 231.262 131.439C220.95 130.003 214.548 127.996 207.426 127.591" stroke="#3842F1" stroke-width="2" stroke-miterlimit="10"/>
<path d="M250.552 129.625C244.678 132.907 237.704 132.35 231.254 131.438" stroke="#3842F1" stroke-width="2" stroke-miterlimit="10"/>
<path d="M246.695 131.326C234.387 135.531 227.491 147.89 217.954 155.772C211.074 161.639 202.459 165.086 193.43 165.586C188.212 165.843 170.755 165.793 169.973 148.519" stroke="#3842F1" stroke-width="2" stroke-miterlimit="10"/>
<path d="M201.559 155.932C201.902 158.327 206.69 157.052 205.954 154.98C204.968 152.255 200.71 154.24 201.859 156.64" stroke="#3842F1" stroke-width="2" stroke-linecap="round" stroke-linejoin="round"/>
<path d="M212.966 149.812C211.213 147.589 207.223 150.898 209.172 152.633C209.39 152.863 209.653 153.045 209.944 153.168C210.235 153.291 210.549 153.353 210.865 153.349C211.182 153.345 211.494 153.277 211.782 153.147C212.071 153.017 212.329 152.829 212.542 152.595C212.754 152.361 212.916 152.085 213.017 151.786C213.118 151.486 213.156 151.169 213.129 150.854C213.101 150.539 213.009 150.233 212.858 149.955C212.707 149.677 212.5 149.433 212.251 149.239" stroke="#3842F1" stroke-width="2" stroke-linecap="round" stroke-linejoin="round"/>
<path d="M218.43 149.729C221.255 149.539 220.774 144.379 218.241 145.007C217.928 145.057 217.628 145.17 217.361 145.341C217.094 145.512 216.865 145.736 216.689 145.999C216.513 146.263 216.393 146.56 216.337 146.871C216.281 147.183 216.29 147.504 216.364 147.812C216.438 148.12 216.574 148.41 216.766 148.662C216.957 148.915 217.198 149.126 217.475 149.281C217.751 149.436 218.057 149.532 218.372 149.563C218.688 149.595 219.006 149.561 219.308 149.463" stroke="#3842F1" stroke-width="2" stroke-linecap="round" stroke-linejoin="round"/>
<path d="M218.56 137.96C217.738 140.811 222.985 142.887 223.271 140.105C223.63 136.431 218.554 135.51 218.509 138.947" stroke="#3842F1" stroke-width="2" stroke-linecap="round" stroke-linejoin="round"/>
<path d="M204.828 147.198C206.454 148.264 207.741 147.996 207.702 146.602C207.698 146.468 207.684 146.335 207.659 146.203" stroke="#3842F1" stroke-width="2" stroke-linecap="round" stroke-linejoin="round"/>
<path d="M199.411 149.761C197.187 147.382 193.707 149.222 196.082 151.157C198.945 154.396 201.604 151.272 198.549 149.112" stroke="#3842F1" stroke-width="2" stroke-linecap="round" stroke-linejoin="round"/>
<path d="M212.27 144.609C215.608 144.383 215.04 138.286 212.047 139.03C211.677 139.088 211.323 139.222 211.008 139.424C210.692 139.625 210.421 139.89 210.213 140.201C210.005 140.512 209.863 140.863 209.797 141.232C209.73 141.6 209.741 141.978 209.828 142.342C209.915 142.707 210.077 143.049 210.303 143.348C210.529 143.646 210.814 143.895 211.14 144.079C211.467 144.262 211.828 144.375 212.201 144.413C212.574 144.45 212.95 144.409 213.306 144.294" stroke="#3842F1" stroke-width="2" stroke-linecap="round" stroke-linejoin="round"/>
<path d="M206.709 139.092C206.969 138.848 207.178 138.555 207.324 138.23C207.47 137.904 207.551 137.554 207.562 137.197C207.572 136.841 207.512 136.486 207.386 136.153C207.259 135.82 207.068 135.514 206.824 135.255C206.543 135.014 206.212 134.839 205.854 134.744C205.497 134.649 205.123 134.635 204.759 134.705C204.396 134.774 204.053 134.924 203.756 135.144C203.459 135.365 203.215 135.649 203.043 135.976" stroke="#3842F1" stroke-width="2" stroke-linecap="round" stroke-linejoin="round"/>
<path d="M195.597 126.868L193.086 127.486" stroke="#3842F1" stroke-width="2" stroke-miterlimit="10"/>
<path d="M176.941 136.47L178.831 135.185" stroke="#3842F1" stroke-width="2" stroke-miterlimit="10"/>
<path d="M165.328 129.888L166.855 128.487" stroke="#3842F1" stroke-width="2" stroke-miterlimit="10"/>
<path d="M180.316 117.892L184.577 117.289" stroke="#3842F1" stroke-width="2" stroke-miterlimit="10"/>
<path d="M189.746 257.195C190.17 257.303 194.789 257.558 196.772 257.872" stroke="#3842F1" stroke-width="2" stroke-linecap="round" stroke-linejoin="round"/>
<path d="M165.359 255.144C168.526 255.006 171.699 255.052 174.86 255.284C179.714 255.583 184.549 256.129 189.347 256.92" stroke="#3842F1" stroke-width="2" stroke-linecap="round" stroke-linejoin="round"/>
<path d="M165.159 255.387C166.237 252.958 169.825 270.141 169.544 278.961C169.087 293.312 165.749 307.962 165.07 305.988" stroke="#3842F1" stroke-width="2" stroke-linecap="round" stroke-linejoin="round"/>
<path d="M189.195 256.893C191.084 256.656 192.944 272.316 192.722 282.982C192.648 292.754 191.242 302.469 188.543 311.861C188.349 312.691 166.421 306.443 165.23 306.183" stroke="#3842F1" stroke-width="2" stroke-linecap="round" stroke-linejoin="round"/>
<path d="M123.562 274.805C135.182 277.687 138.694 278.36 150.215 281.62C157.512 283.685 161.824 283.985 169.1 286.087" stroke="#3842F1" stroke-width="2" stroke-linecap="round" stroke-linejoin="round"/>
<path d="M87.2305 267.933C95.2368 268.209 103.178 269.476 110.873 271.705" stroke="#3842F1" stroke-width="2" stroke-linecap="round" stroke-linejoin="round"/>
<path d="M124.832 267.49C139.532 268.546 161.196 272.134 169.097 272.943" stroke="#3842F1" stroke-width="2" stroke-linecap="round" stroke-linejoin="round"/>
<path d="M87.3086 263.405C97.8351 262.912 106.043 265.19 110.492 265.654" stroke="#3842F1" stroke-width="2" stroke-linecap="round" stroke-linejoin="round"/>
<path d="M166.3 272.765C166.497 276.422 166.338 283.695 166.176 285.315" stroke="#3842F1" stroke-width="2" stroke-linecap="round" stroke-linejoin="round"/>
<path d="M84.072 262.939C83.9691 264.75 83.9828 266.565 84.1132 268.373C84.1726 268.706 86.3227 268.48 86.8698 268.452C87.223 268.435 87.1568 267.951 87.1243 265.577C87.0974 263.617 87.2382 262.903 86.6563 262.941C86.3802 262.959 84.3109 262.869 84.0707 262.939H84.072Z" stroke="#3842F1" stroke-width="2" stroke-linecap="round" stroke-linejoin="round"/>
<path d="M62.0947 251.627C61.7758 253.904 61.1242 256.122 60.1609 258.21C58.7699 260.163 57.763 262.362 57.1936 264.691C57.1106 265.29 57.1663 265.901 57.3562 266.475C57.5462 267.05 57.8655 267.573 58.2895 268.005C58.7136 268.437 59.231 268.766 59.8021 268.966C60.3732 269.167 60.9827 269.234 61.5838 269.162" stroke="#3842F1" stroke-width="2" stroke-linecap="round" stroke-linejoin="round"/>
<path d="M92.2046 253.766C89.314 254.55 86.3318 254.945 83.3367 254.941C77.1559 255.356 70.3391 256.366 64.5324 253.412C59.7598 250.984 60.7786 245.415 61.7118 240.802C62.4035 237.381 67.0753 233.577 74.9348 232.881C77.0432 232.531 79.1681 232.288 81.3011 232.152C90.2904 231.754 90.678 231.627 91.1793 231.627" stroke="#3842F1" stroke-width="2" stroke-linecap="round" stroke-linejoin="round"/>
<path d="M69.621 276.557C68.1253 278.442 67.3006 280.772 67.2768 283.179C66.8349 285.522 67.2545 287.946 68.4585 290.004C73.2023 297.124 80.3439 296.055 88.4342 296.731C91.063 296.844 93.696 296.818 96.3219 296.651" stroke="#3842F1" stroke-width="2" stroke-linecap="round" stroke-linejoin="round"/>
<path d="M65.2631 253.775C61.4221 254.986 60.6272 266.684 61.9707 269.833C62.633 271.4 63.6379 272.798 64.9116 273.925C66.1852 275.053 67.6954 275.881 69.331 276.348C70.9157 276.624 79.19 277.238 81.7656 277.213C85.1661 277.269 88.5625 276.953 91.8942 276.27" stroke="#3842F1" stroke-width="2" stroke-linecap="round" stroke-linejoin="round"/>
<path d="M73.4449 294.531C68.2459 296.73 69.2088 307.152 75.0853 309.738C76.8636 310.521 89.7383 312.639 96.3469 314.236C108.826 317.103 121.805 316.993 134.233 313.915C141.788 311.989 147.434 306.291 155.281 305.709C158.655 305.39 162.054 305.453 165.414 305.898" stroke="#3842F1" stroke-width="2" stroke-linecap="round" stroke-linejoin="round"/>
<path d="M188.672 311.776C190.361 312.183 192.013 312.728 193.613 313.404" stroke="#3842F1" stroke-width="2" stroke-linecap="round" stroke-linejoin="round"/>
<path d="M122.824 232.971C131.119 232.971 148.098 250.065 156.79 253.483C159.606 254.678 162.606 255.386 165.661 255.574" stroke="#3842F1" stroke-width="2" stroke-linecap="round" stroke-linejoin="round"/>
<path d="M74.0312 232.973C75.6418 232.579 76.5147 232.264 78.6449 231.627" stroke="#3842F1" stroke-width="2" stroke-linecap="round" stroke-linejoin="round"/>
<path d="M84.0742 268.089C84.682 271.4 86.2568 274.457 88.5998 276.874" stroke="#3842F1" stroke-width="2" stroke-linecap="round" stroke-linejoin="round"/>
<path d="M89.9722 254.353C88.3887 255.342 87.039 256.663 86.016 258.225C84.993 259.787 84.3212 261.552 84.0469 263.398" stroke="#3842F1" stroke-width="2" stroke-linecap="round" stroke-linejoin="round"/>
<path d="M87.8987 254.643C80.5409 258.828 80.6945 271.48 86.9317 276.981" stroke="#3842F1" stroke-width="2" stroke-linecap="round" stroke-linejoin="round"/>
<path d="M76.9356 255.344C69.8104 259.334 70.0427 271.557 76.1182 276.917" stroke="#3842F1" stroke-width="2" stroke-linecap="round" stroke-linejoin="round"/>
<path d="M192.74 274.573C194.677 274.794 199.932 275.047 203.984 275.253C206.221 275.367 206.699 277.403 206.595 279.242C206.494 281.023 206.284 285.405 206.014 287.683C205.974 288.474 205.639 289.221 205.076 289.779C204.513 290.336 203.762 290.663 202.971 290.695C202.017 290.658 195.273 290.27 192.527 290.089" stroke="#3842F1" stroke-width="2" stroke-linecap="round" stroke-linejoin="round"/>
<path d="M105.185 207.782C104.437 209.134 103.345 210.287 102.653 211.668C102.56 212.068 102.549 212.483 102.621 212.888C103.009 212.822 103.385 212.698 103.737 212.522C104.704 211.796 105.841 211.328 107.039 211.162C108.237 210.996 109.458 211.138 110.587 211.575C111.373 211.85 111.749 211.589 111.738 210.803C111.746 209.789 111.69 208.775 111.572 207.768C111.565 207.49 111.496 207.217 111.372 206.968C111.248 206.72 111.07 206.501 110.853 206.328C110.635 206.155 110.382 206.032 110.112 205.967C109.841 205.902 109.56 205.897 109.287 205.952C108.516 205.968 107.756 206.139 107.051 206.453C106.347 206.767 105.712 207.219 105.185 207.782V207.782Z" stroke="#3842F1" stroke-width="2" stroke-miterlimit="10"/>
<path d="M71.239 224.653C71.0726 224.004 70.849 223.37 70.571 222.76C69.5936 221.148 68.6455 219.504 67.5201 217.998C65.5868 215.265 63.5037 212.642 61.2805 210.14C59.1767 207.916 56.9539 205.809 54.6216 203.826C52.8412 202.487 51.0721 200.93 48.6844 199.048C46.751 197.524 44.6526 196.21 42.6961 194.714C38.9483 191.85 35.7035 188.609 35.7665 183.43C35.8333 181.71 36.3969 180.046 37.3892 178.639C38.3815 177.233 39.7601 176.143 41.3584 175.503C46.6102 173.098 52.5952 172.842 58.0329 174.792C65.2214 177.392 72.0468 180.904 78.3419 185.24V185.24C79.3631 186.152 80.4515 186.986 81.5978 187.735C84.5595 190.332 84.196 189.622 87.0809 192.303C88.9889 194.076 90.8277 195.935 92.5876 197.852C93.3406 198.672 100.9 209.589 102.66 211.67C102.951 212.013 102.628 212.89 95.0745 216.599C91.2495 218.479 85.6151 220.173 82.1775 223.735C77.6444 228.432 78.1137 230.611 78.7485 230.556" stroke="#3842F1" stroke-width="2" stroke-miterlimit="10"/>
<path d="M42.6143 194.778C38.8665 191.913 35.6217 188.673 35.6845 183.493C35.7509 181.773 36.3143 180.109 37.3066 178.702C38.2989 177.295 39.6777 176.205 41.2762 175.565C46.528 173.159 52.5131 172.904 57.9509 174.853C65.1906 177.335 72.0316 180.855 78.2599 185.302C79.3319 186.143 80.4892 186.896 81.5158 187.796C84.4772 190.394 84.1135 189.683 86.9989 192.365C88.9069 194.138 90.7457 195.996 92.5054 197.913C93.2586 198.734 93.9274 198.408 94.7018 198.201C96.2013 197.681 97.7429 197.292 99.3095 197.038C103.703 196.614 108.137 196.915 112.433 197.93C116.618 198.753 120.339 201.121 122.855 204.563C124.793 207.385 125.846 210.721 125.88 214.144C126.16 218.17 124.954 222.159 122.49 225.356C121.973 226.072 121.659 226.915 121.582 227.795C121.505 228.675 121.668 229.56 122.053 230.355C123.37 234.504 124.262 238.776 124.717 243.105C125.039 247.684 125.667 252.269 125.599 256.842C125.463 261.756 125.024 266.658 124.284 271.518C124.269 272.741 123.987 273.946 123.457 275.047C122.926 276.149 122.16 277.121 121.213 277.895C119.093 278.911 116.661 279.062 114.432 278.316C112.436 277.549 110.868 276.555 110.868 271.704M64.9993 236.265C63.1531 235.606 61.1374 235.593 59.283 236.229C56.0962 237.277 53.4562 239.548 51.9433 242.541C49.9559 245.811 48.8134 249.524 48.6188 253.346C48.4029 256.874 48.9495 260.407 50.2214 263.706C50.6283 264.435 50.9894 265.189 51.3029 265.963C51.4756 266.693 51.5792 267.813 51.1747 268.209C50.8507 268.458 50.4712 268.625 50.0686 268.696C49.6659 268.767 49.2522 268.739 48.8626 268.615C47.2905 267.957 45.858 267.007 44.6417 265.813C42.6369 263.756 40.9401 261.42 39.6039 258.878C38.6409 256.512 38.1303 253.986 38.0987 251.432C37.8737 247.201 38.7004 242.98 40.505 239.146C41.9782 235.597 43.9708 232.287 46.4177 229.324C48.6797 226.376 51.5914 223.989 54.9263 222.349C57.0463 221.29 59.4102 220.815 61.7749 220.972C64.3245 221.205 66.7747 222.074 68.9011 223.499C69.5449 223.857 70.1965 224.197 71.1598 224.716C70.9933 224.066 70.7698 223.433 70.4918 222.823C69.5144 221.21 68.5663 219.567 67.4408 218.06C65.5075 215.328 63.4244 212.705 61.2012 210.203M105.179 207.778C104.431 209.13 103.339 210.284 102.647 211.665C102.482 211.994 102.617 212.473 102.614 212.882C103.002 212.817 103.379 212.694 103.731 212.518C104.698 211.791 105.835 211.323 107.033 211.158C108.231 210.992 109.452 211.134 110.58 211.57C111.366 211.845 111.743 211.585 111.731 210.798C111.739 209.784 111.684 208.77 111.566 207.763C111.558 207.485 111.49 207.212 111.366 206.963C111.242 206.714 111.064 206.496 110.847 206.323C110.629 206.15 110.376 206.027 110.105 205.962C109.835 205.897 109.553 205.892 109.281 205.947C108.51 205.963 107.749 206.134 107.045 206.448C106.34 206.762 105.706 207.215 105.179 207.778Z" stroke="#3842F1" stroke-width="2" stroke-miterlimit="10"/>
<path d="M89.5039 194.769C92.0356 197.778 101.558 208.509 102.622 212.883" stroke="#3842F1" stroke-width="2" stroke-miterlimit="10"/>
<path d="M102.645 211.666C105.847 205.136 111.359 195.482 118.323 200.301" stroke="#3842F1" stroke-width="2" stroke-miterlimit="10"/>
<path d="M110.578 211.569C115.746 213.291 119.954 221.22 122.057 230.354" stroke="#3842F1" stroke-width="2" stroke-miterlimit="10"/>
<path d="M71.1562 224.715C74.001 226.211 76.5653 228.187 78.7359 230.556C78.7359 230.556 78.4976 223.875 88.9955 219.29C100.969 214.061 101.912 213.268 103.246 212.722" stroke="#3842F1" stroke-width="2" stroke-miterlimit="10"/>
<path d="M82.3125 232.298C85.702 229.27 91.1219 228.627 98.6946 238.763C106.487 249.13 110.746 258.736 110.87 271.704" stroke="#3842F1" stroke-width="2" stroke-miterlimit="10"/>
<path d="M35.0898 199.364C41.2533 202.215 46.8781 206.107 51.7164 210.871" stroke="#3842F1" stroke-width="2" stroke-miterlimit="10"/>
<path d="M34.4805 203.645C40.6439 206.495 46.2688 210.387 51.1071 215.151" stroke="#3842F1" stroke-width="2" stroke-miterlimit="10"/>
<path d="M76.9805 169.281C83.1439 172.131 88.7687 176.024 93.607 180.788" stroke="#3842F1" stroke-width="2" stroke-miterlimit="10"/>
<path d="M75.7734 173.562C81.9373 176.412 87.5625 180.304 92.4011 185.068" stroke="#3842F1" stroke-width="2" stroke-miterlimit="10"/>
</svg>
