<svg width="296" height="371" viewBox="0 0 296 371" fill="none" xmlns="http://www.w3.org/2000/svg">
<path d="M119.376 177.579C122.977 174.36 123.329 175.236 125.806 178.039C128.238 180.79 132.08 185.183 134.54 187.921C137.075 190.743 137.449 190.964 134.823 193.237C133.255 194.593 128.824 198.086 127.887 198.895C126.421 200.161 124.135 196.578 122.976 196.312C121.475 195.966 119.15 197.38 118.246 196.388C115.615 193.507 113.495 190.684 110.838 187.495" stroke="#3842F1" stroke-width="2" stroke-linecap="round" stroke-linejoin="round"/>
<path d="M136.605 191.15C136.206 192.45 135.689 193.71 135.061 194.915C134.691 195.336 134.288 195.726 133.856 196.082C132.288 197.438 128.396 200.742 127.385 201.459C125.596 202.726 123.658 198.882 122.029 198.741C121.112 198.661 118.357 199.843 117.339 198.791C114.633 195.993 111.132 191.221 108.474 188.031" stroke="#3842F1" stroke-width="2" stroke-linecap="round" stroke-linejoin="round"/>
<path d="M100.221 170.715C98.5805 168.042 96.6706 165.602 95.2892 162.786C94.6673 161.519 95.0231 159.798 94.1576 158.638C93.0862 157.618 91.8149 156.831 90.4239 156.327C88.6192 155.277 87.0959 153.805 85.9844 152.037" stroke="#3842F1" stroke-width="2" stroke-linecap="round" stroke-linejoin="round"/>
<path d="M94.8062 161.486C92.4565 163.053 90.4942 165.134 89.0679 167.572" stroke="#3842F1" stroke-width="2" stroke-linecap="round" stroke-linejoin="round"/>
<path d="M94.2296 158.705C94.4055 157.557 94.8179 156.458 95.4406 155.477C96.0634 154.497 96.8829 153.656 97.8474 153.009" stroke="#3842F1" stroke-width="2" stroke-linecap="round" stroke-linejoin="round"/>
<path d="M94.8884 161.055C95.1024 159.986 95.5402 158.975 96.1731 158.087C96.8059 157.199 97.6194 156.456 98.5601 155.905" stroke="#3842F1" stroke-width="2" stroke-linecap="round" stroke-linejoin="round"/>
<path d="M114.875 172.693C114.269 167.797 111.685 164.415 110.067 159.851C108.474 155.357 110.81 152.419 104.403 146.306C102.188 144.192 97.6006 142.757 94.8917 140.541C89.8517 136.794 84.6255 133.304 79.2331 130.085C71.1462 125.47 68.8606 125.04 61.8696 130.974C54.9952 137.203 48.5624 143.902 42.6178 151.024C30.5564 168.256 15.3183 169.199 4.00043 172.643" stroke="#3842F1" stroke-width="2" stroke-linecap="round" stroke-linejoin="round"/>
<path d="M86.9688 144.321C87.8997 146.747 86.7819 149.97 85.1122 154.323C84.1326 156.875 83.2681 159.715 82.503 162.335" stroke="#3842F1" stroke-width="2" stroke-linecap="round" stroke-linejoin="round"/>
<path d="M76.3044 151.336C77.056 161.223 92.9816 172.169 99.1662 170.911C103.99 169.93 114.964 171.495 117.659 174.44C118.595 175.536 119.182 176.885 119.348 178.317C119.513 179.748 119.248 181.196 118.587 182.476C116.256 188.319 100.217 189.235 96.8322 188.67C84.4518 186.6 79.2805 192.77 69.1539 196.895C66.6659 197.909 63.5479 200.778 58.4276 200.013C53.6578 199.536 48.8451 199.715 44.1235 200.543C33.1008 202.272 29.2751 205.098 15.1383 208.095" stroke="#3842F1" stroke-width="2" stroke-linecap="round" stroke-linejoin="round"/>
<path d="M164 177C164.498 176.482 165.024 175.831 165.476 175.255C166.065 174.508 166.845 173.492 167.401 172.723C167.786 172.19 170.054 169.954 169.999 168" stroke="#3842F1" stroke-width="2" stroke-linecap="round" stroke-linejoin="round"/>
<path d="M151 202C153.035 207.94 154.198 214.029 156 220" stroke="#3842F1" stroke-width="2" stroke-linecap="round" stroke-linejoin="round"/>
<path d="M150 222.674C151.795 221.519 153.73 220.62 155.753 220C158.272 220.705 160.704 221.711 163 223" stroke="#3842F1" stroke-width="2" stroke-linecap="round" stroke-linejoin="round"/>
<path d="M151 222.636C152.496 221.928 154.105 221.378 155.783 221C157.945 221.478 160.031 222.149 162 223" stroke="#3842F1" stroke-width="2" stroke-linecap="round" stroke-linejoin="round"/>
<path d="M163.723 178.019C165.161 175.693 167.752 173.887 166.236 171.009C164.834 168.341 162.613 164.182 163.058 162.108C163.922 158.08 166.373 153.15 167.64 149.241C169.451 143.654 172.419 139.539 173.39 132.546C174.3 129.518 175.721 126.668 177.592 124.118C184.466 111.405 198.786 106.874 212.096 105.197C224.721 103.607 232.952 103.082 239.73 106.949C242.614 108.594 247.894 107.786 257.09 113.32C260.86 115.589 271.459 122.457 274.777 125.273C282.59 131.906 282.901 141.419 284.523 151.253C284.842 155.021 284.919 158.805 284.753 162.583C284.48 166.126 284.002 169.65 283.32 173.138C282.893 178.602 281.562 180.752 278.447 189.662C275.754 197.368 272.262 199.741 270.988 202.345C264.974 214.637 260.575 214.189 260.246 221.376C260.152 223.447 264.221 235.82 274.516 244.779C279.701 249.866 285.207 254.616 291 259" stroke="#3842F1" stroke-width="2" stroke-linecap="round" stroke-linejoin="round"/>
<path d="M247.555 184C247.591 185.488 247.925 186.943 248.016 188.424C248.136 189.088 248.094 189.77 247.892 190.414C247.278 191.673 246.509 192.854 245.601 193.933C245.241 194.387 244.78 195.099 245.117 195.66C245.432 196.184 246.095 195.992 246.581 195.81C247.658 195.403 248.683 194.858 249.796 194.545C252.604 193.757 255.726 195.111 258.406 193.763C258.877 193.489 259.306 193.151 259.679 192.761C260.135 192.386 260.535 191.951 260.868 191.47C261.432 190.535 260.043 189.327 259.515 188.689C259.32 188.453 259.087 188.252 258.876 188.029C258.572 187.71 258.244 187.414 257.893 187.144C257.575 186.897 257.259 186.664 256.924 186.438C255.683 185.459 254.258 184.723 252.728 184.271" stroke="#3842F1" stroke-width="2" stroke-linecap="round" stroke-linejoin="round"/>
<path d="M249.041 185.909C248.862 183.944 249.272 181.97 250.22 180.234C251.993 175.674 257.131 171.329 262.176 173.641C263.71 174.417 264.982 175.619 265.836 177.099C266.69 178.579 267.088 180.273 266.984 181.974C266.524 185.638 265.055 189.106 262.737 192" stroke="#3842F1" stroke-width="2" stroke-linecap="round" stroke-linejoin="round"/>
<path d="M171.204 241.786C176.559 243.438 184.585 247.425 202.802 237.624C214.126 232.125 224.945 225.636 235.131 218.231C239.713 214.852 252.538 209.469 256.875 205.655C261.147 201.108 264.853 196.059 267.913 190.62C268.878 188.555 269.72 186.434 270.433 184.269C273.194 175.738 272.604 168.775 266.262 165.743C259.479 162.498 246.366 170.596 231.419 176.297C225.281 178.639 208.275 180.322 191.437 185.785C184.683 187.976 178.859 185.636 173.992 183.645C170.856 182.36 164.997 178.065 162.673 176.841C161.834 176.399 159.078 181.986 158.324 183.38C157.387 185.163 156.609 187.026 156 188.947" stroke="#3842F1" stroke-width="2" stroke-linecap="round" stroke-linejoin="round"/>
<path d="M150.137 223C149.626 223.316 150.67 223.926 151.209 224.236C152.811 225.158 153.987 225.83 155.735 226.684C156.226 226.912 156.762 227.019 157.301 226.997C157.84 226.975 158.366 226.825 158.838 226.558C161.323 225.146 162.758 224.458 162.977 223.912C163.14 223.505 162.4 223.168 162.217 223.082" stroke="#3842F1" stroke-width="2" stroke-linecap="round" stroke-linejoin="round"/>
<path d="M151.103 223C150.713 223.134 151.522 223.54 151.978 223.8C153.286 224.545 154.365 225.073 155.817 225.753C156.231 225.931 156.682 226.014 157.135 225.998C157.588 225.981 158.032 225.865 158.431 225.658C159.665 225.106 160.848 224.454 161.968 223.709C162.14 223.55 161.568 223.304 161.414 223.24" stroke="#3842F1" stroke-width="2" stroke-linecap="round" stroke-linejoin="round"/>
<path d="M159.099 205.329C158.807 204.868 158.419 204.471 157.962 204.163C157.505 203.855 156.987 203.642 156.441 203.538C153.017 202.899 149.782 202.193 148.869 201.877C147.834 201.519 147.989 200.414 148.038 198.69C148.072 197.499 149.231 190.666 153.036 189.218C156.269 187.989 159.791 192.29 161.315 193.647C163.956 196 164.186 201.162 164.566 204.29C164.923 207.22 165.299 210.642 165.453 213.598C165.755 219.406 166.065 225.397 166.431 231.141C166.337 233.552 167.111 235.918 168.617 237.832C168.896 238.087 171.517 240.372 170.909 241.513C170.02 243.176 160.74 240.217 158.554 238.085C155.941 235.537 152.317 232.641 151.88 230.907C150.633 225.963 149.088 223.244 150.097 222.598" stroke="#3842F1" stroke-width="2" stroke-linecap="round" stroke-linejoin="round"/>
<path d="M193 241C193.556 241.301 194.093 241.63 194.609 241.985C196.397 243.062 197.092 245.44 197.944 247.131C199.229 249.682 200.294 252.384 201.805 254.838C204.295 259.022 207.03 263.082 210 267" stroke="#3842F1" stroke-width="2" stroke-linecap="round" stroke-linejoin="round"/>
<path d="M265 171.951C264.264 166.751 252.363 173.556 251.507 173.88C245.714 176.08 239.318 180.243 234.393 182.202C232.015 182.791 229.912 184.174 228.433 186.121C227.292 188.156 228.715 190.887 229.177 192.903C229.511 195.144 230.355 197.279 231.647 199.143C232.939 201.007 234.643 202.55 236.627 203.653C238.443 204.496 240.415 204.954 242.418 204.997C244.421 205.04 246.411 204.667 248.262 203.901C253.414 202.491 257.949 199.41 261.15 195.145" stroke="#3842F1" stroke-width="2" stroke-linecap="round" stroke-linejoin="round"/>
<path d="M259.436 171.024C260.625 170.936 261.818 171.088 262.947 171.472C264.076 171.855 265.116 172.463 266.008 173.258C266.899 174.053 267.623 175.019 268.137 176.1C268.651 177.182 268.945 178.356 269 179.553C268.992 182.408 268.387 185.23 267.225 187.835C266.063 190.44 264.37 192.771 262.255 194.675C257.196 198.313 241.637 207.616 240 200.223" stroke="#3842F1" stroke-width="2" stroke-linecap="round" stroke-linejoin="round"/>
<path d="M163 163C164.47 163.4 165.832 164.082 167 165" stroke="#3842F1" stroke-width="2" stroke-linecap="round" stroke-linejoin="round"/>
<path d="M179 163.402C182.125 162.476 185.353 162.004 188.597 162C193.641 162.73 198.52 164.424 203 167" stroke="#3842F1" stroke-width="2" stroke-linecap="round" stroke-linejoin="round"/>
<path d="M156 221C156 222.606 156 224.398 156 226" stroke="#3842F1" stroke-width="2" stroke-linecap="round" stroke-linejoin="round"/>
</svg>
