<svg width="296" height="371" viewBox="0 0 296 371" fill="none" xmlns="http://www.w3.org/2000/svg">
<path d="M174.778 153.726C169.134 150.168 165.269 147.223 159.441 143.941" stroke="white" stroke-width="2" stroke-linecap="round" stroke-linejoin="round"/>
<path d="M198.525 168.572C198.739 167.173 198.567 165.741 198.026 164.433C197.485 163.125 196.597 161.989 195.457 161.149C193.279 159.646 182.329 153.389 181.286 153.021C175.367 150.905 161.472 161.241 156.165 167.529C150.859 173.817 150.522 183.234 153.098 187.804C154.448 190.288 162.116 195.043 167.453 198.662C168.096 199.103 168.822 199.407 169.587 199.555C170.353 199.702 171.14 199.691 171.901 199.521" stroke="white" stroke-width="2" stroke-linecap="round" stroke-linejoin="round"/>
<path d="M180.42 175.198C180.067 175.001 179.683 174.866 179.285 174.799" stroke="white" stroke-width="2" stroke-linecap="round" stroke-linejoin="round"/>
<path d="M195.669 167.285C194.412 166.889 193.063 166.889 191.805 167.285" stroke="white" stroke-width="2" stroke-linecap="round" stroke-linejoin="round"/>
<path d="M193.033 169.064C192.358 168.144 191.346 167.285 191.837 166.457" stroke="white" stroke-width="2" stroke-linecap="round" stroke-linejoin="round"/>
<path d="M193.024 169.062C192.17 169.182 191.341 169.441 190.571 169.829C188.393 170.811 182.197 174.798 182.074 176.424" stroke="white" stroke-width="2" stroke-linecap="round" stroke-linejoin="round"/>
<path d="M195.669 167.283C195.945 166.945 197.111 165.35 196.743 165.135C194.166 163.847 190.424 165.81 188.338 166.945C184.783 168.911 181.451 171.256 178.4 173.939C174.107 177.25 170.832 181.704 168.953 186.79C168.953 186.974 169.628 187.22 169.781 186.79C173.922 177.589 179.781 174.736 180.271 174.92C180.968 175.3 181.608 175.775 182.173 176.331" stroke="white" stroke-width="2" stroke-linecap="round" stroke-linejoin="round"/>
<path d="M227.965 204.121C219.868 197.987 214.96 196.116 201.341 190.472C194.133 186.992 187.617 182.232 182.109 176.424" stroke="white" stroke-width="2" stroke-linecap="round" stroke-linejoin="round"/>
<path d="M233.125 200.102C227.04 195.37 220.635 191.066 213.955 187.22C205.89 182.539 198.799 176.354 193.066 169" stroke="white" stroke-width="2" stroke-linecap="round" stroke-linejoin="round"/>
<path d="M229.312 206.669C229.39 206.211 229.326 205.74 229.128 205.32C228.8 204.895 228.43 204.504 228.023 204.154" stroke="white" stroke-width="2" stroke-linecap="round" stroke-linejoin="round"/>
<path d="M233.054 200.074C231.118 201.039 229.405 202.397 228.023 204.062" stroke="white" stroke-width="2" stroke-linecap="round" stroke-linejoin="round"/>
<path d="M235.755 201.484C234.768 201.27 233.856 200.793 233.117 200.104" stroke="white" stroke-width="2" stroke-linecap="round" stroke-linejoin="round"/>
<path d="M243.52 224.793C242.568 225.372 241.486 225.706 240.373 225.765C239.26 225.823 238.149 225.606 237.141 225.13" stroke="white" stroke-width="2" stroke-linecap="round" stroke-linejoin="round"/>
<path d="M278.235 223.109C281.64 222.925 279.677 218.294 279.278 216.392C278.176 209.83 275.607 203.602 271.763 198.172C270.284 196.176 268.54 194.391 266.579 192.866C261.856 188.633 252.899 186.731 246.98 184.615C238.452 181.548 230.048 177.836 221.215 175.413C216.644 174.217 211.737 173.879 207.258 172.346C203.271 170.966 199.59 168.726 195.664 167.162" stroke="white" stroke-width="2" stroke-linecap="round" stroke-linejoin="round"/>
<path d="M265.661 208.723C264.482 206.219 262.813 203.977 260.753 202.129C258.773 200.915 256.637 199.976 254.404 199.337C252.533 198.663 250.785 197.681 248.883 197.129" stroke="white" stroke-width="2" stroke-linecap="round" stroke-linejoin="round"/>
<path d="M284.217 244.765C285.843 244.611 287.837 243.415 287.284 242.065C286.203 238.829 284.943 235.654 283.512 232.557C282.5 230.318 278.328 223.355 277.377 222.097C273.28 216.089 268.236 210.785 262.44 206.393C258.36 203.326 254.189 200.902 250.17 198.142C248.668 197.16 247.103 196.118 245.754 195.075C238.975 189.83 237.625 185.382 228.301 183.266" stroke="white" stroke-width="2" stroke-linecap="round" stroke-linejoin="round"/>
<path d="M248.704 210.254C251.676 211.973 254.516 213.911 257.201 216.051C266.526 223.364 274.785 231.943 281.739 241.54C282.322 242.368 283.886 244.423 284.561 245.19C286.217 247.215 293.425 255.312 284.959 255.742C277.567 256.11 273.488 249.76 268.396 245.436C263.304 241.111 257.998 236.479 252.324 231.97C248.275 228.75 243.735 223.781 238.797 221.971" stroke="white" stroke-width="2" stroke-linecap="round" stroke-linejoin="round"/>
<path d="M227.288 217.221C233.304 221.714 239.05 226.558 244.495 231.729C248.145 235.624 253.267 242.771 256.764 246.82C260.581 250.995 264.02 255.501 267.04 260.285C267.745 261.451 269.217 265.408 268.052 266.696C266.886 267.984 264.524 267.616 263.113 267.585C258.574 267.585 252.163 262.003 249.28 258.782C246.397 255.562 242.256 251.973 238.821 248.568C226.551 236.575 211.767 225.257 193.793 221.73" stroke="white" stroke-width="2" stroke-linecap="round" stroke-linejoin="round"/>
<path d="M229.355 206.576C229.175 207.418 228.886 208.232 228.496 208.999C227.615 210.672 227.043 212.491 226.809 214.367C226.64 215.346 226.813 216.353 227.3 217.22" stroke="white" stroke-width="2" stroke-linecap="round" stroke-linejoin="round"/>
<path d="M235.601 201.516C234.744 202.053 233.925 202.647 233.147 203.295C231.817 204.314 230.547 205.41 229.344 206.577" stroke="white" stroke-width="2" stroke-linecap="round" stroke-linejoin="round"/>
<path d="M204.402 224.828C203.413 225.224 202.492 225.772 201.673 226.453C198.176 229.766 199.924 234.275 201.305 238.109C202.225 240.716 203.758 243.17 204.372 245.808C205.022 247.899 205.23 250.102 204.982 252.278C204.734 254.454 204.035 256.554 202.93 258.445C202.085 259.503 201.044 260.389 199.863 261.052C196.09 261.666 194.955 258.169 193.882 255.102C193.164 253.364 192.281 251.7 191.244 250.133C187.686 245.992 185.109 236.637 184.465 235.256C182.484 231.666 181.087 227.783 180.324 223.754C179.128 218.08 181.244 212.282 179.097 206.639C177.33 203.393 174.567 200.802 171.215 199.246C170.702 198.934 170.219 198.574 169.773 198.173C167.779 196.547 167.779 190.413 169.62 186.916" stroke="white" stroke-width="2" stroke-linecap="round" stroke-linejoin="round"/>
<path d="M250.627 211.391C250.542 210.535 250.241 209.715 249.753 209.007C249.265 208.299 248.605 207.726 247.836 207.342C245.259 205.638 242.563 204.12 239.769 202.802C238.554 202.086 237.209 201.617 235.812 201.422" stroke="white" stroke-width="2" stroke-linecap="round" stroke-linejoin="round"/>
<path d="M248.759 210.318C247.884 209.853 246.885 209.677 245.905 209.815C244.924 209.953 244.012 210.397 243.299 211.085C240.693 213.487 239.056 216.76 238.698 220.287C238.521 220.945 238.495 221.634 238.623 222.304C238.75 222.973 239.028 223.605 239.434 224.151" stroke="white" stroke-width="2" stroke-linecap="round" stroke-linejoin="round"/>
<path d="M121.222 141.122C123.523 137.288 123.737 138.361 126.713 140.201L137.141 146.673C140.209 148.514 140.546 148.606 138.828 151.336C137.786 152.961 134.78 157.286 134.135 158.237C133.185 159.771 130.179 157.194 129.074 157.255C127.97 157.317 126.007 159.219 124.872 158.605C121.805 156.795 121.13 156.213 117.879 154.096" stroke="white" stroke-width="2" stroke-linecap="round" stroke-linejoin="round"/>
<path d="M139.876 149.066C139.823 149.853 139.699 150.633 139.508 151.398C139.285 151.866 139.029 152.317 138.741 152.747C137.698 154.373 135.121 158.391 134.416 159.28C133.158 160.906 130.398 157.992 128.895 158.299C128.067 158.483 125.828 160.231 124.723 159.587C122.079 158.076 119.529 156.407 117.086 154.587" stroke="white" stroke-width="2" stroke-linecap="round" stroke-linejoin="round"/>
<path d="M98.9286 140.905C96.3214 138.574 93.4996 136.58 91.1071 134.004C90.0336 132.869 89.8802 130.937 88.5613 129.955C87.0931 129.203 85.4845 128.764 83.8377 128.667C81.5746 128.156 79.4694 127.104 77.7031 125.6" stroke="white" stroke-width="2" stroke-linecap="round" stroke-linejoin="round"/>
<path d="M90.1827 132.777C88.1746 135.208 86.7384 138.06 85.9805 141.12" stroke="white" stroke-width="2" stroke-linecap="round" stroke-linejoin="round"/>
<path d="M88.6585 129.987C88.4717 128.704 88.5581 127.395 88.9123 126.148C89.2665 124.9 89.8803 123.742 90.7136 122.748" stroke="white" stroke-width="2" stroke-linecap="round" stroke-linejoin="round"/>
<path d="M90.1207 132.255C90.0055 131.043 90.1482 129.821 90.5394 128.669C90.9307 127.516 91.5616 126.459 92.3906 125.568" stroke="white" stroke-width="2" stroke-linecap="round" stroke-linejoin="round"/>
<path d="M115.213 138.39C113.005 133.329 109.079 130.538 106.011 126.121C102.944 121.704 104.447 117.931 95.6131 113.453C92.5458 111.919 87.2087 111.858 83.5894 110.386C76.9994 108.006 70.2941 105.958 63.4987 104.251C53.3767 101.92 50.8002 102.196 45.0951 110.784C39.7513 119.649 35.0267 128.873 30.955 138.39C23.5935 160.658 20.0115 158.766 9 166.066" stroke="white" stroke-width="2" stroke-linecap="round" stroke-linejoin="round"/>
<path d="M76.293 116.92C78.0413 119.22 77.8879 123.054 77.5199 128.207C77.2745 131.275 77.2744 134.557 77.2744 137.593" stroke="white" stroke-width="2" stroke-linecap="round" stroke-linejoin="round"/>
<path d="M67.1161 127.869C71.1036 138.206 91.6543 144.801 97.7889 141.457C102.635 138.85 114.874 137.01 118.708 139.279C120.068 140.149 121.139 141.404 121.784 142.884C122.429 144.365 122.618 146.003 122.327 147.592C121.714 154.585 104.844 160.72 101.071 161.18C87.1454 162.959 83.618 171.21 74.1095 178.878C71.7784 180.749 69.3552 184.828 63.6501 185.657C58.3988 186.679 53.3114 188.413 48.5284 190.81C37.2715 196.208 34.1122 200.441 19.9414 208.201" stroke="white" stroke-width="2" stroke-linecap="round" stroke-linejoin="round"/>
<path d="M152.177 186.362C146.441 182.62 139.141 178.479 133.129 174.676" stroke="white" stroke-width="2" stroke-linecap="round" stroke-linejoin="round"/>
</svg>
