<svg width="296" height="371" viewBox="0 0 296 371" fill="none" xmlns="http://www.w3.org/2000/svg">
<path d="M127.173 141.806C129.99 137.207 130.646 138.032 134.195 140.233C137.679 142.394 143.196 145.857 146.705 147.994C150.321 150.197 150.792 150.313 148.713 153.587C147.473 155.54 143.856 160.696 143.114 161.863C141.953 163.688 138.359 160.591 137.035 160.678C135.319 160.79 133.287 163.048 132.002 162.28C128.264 160.043 125.092 157.706 121.227 155.15" stroke="#3842F1" stroke-width="2" stroke-linecap="round" stroke-linejoin="round"/>
<path d="M149.956 150.784C149.946 152.301 149.797 153.814 149.513 155.304C149.253 155.874 148.948 156.421 148.599 156.94C147.359 158.893 144.259 163.675 143.408 164.766C141.902 166.696 138.598 163.208 136.809 163.579C135.803 163.788 133.237 165.937 131.811 165.138C128.02 163.016 122.744 159.038 118.879 156.482" stroke="#3842F1" stroke-width="2" stroke-linecap="round" stroke-linejoin="round"/>
<path d="M104.499 140.617C101.887 138.286 99.0622 136.29 96.6814 133.723C95.6089 132.568 95.4377 130.614 94.1401 129.652C92.6667 128.905 91.0543 128.471 89.4048 128.379C87.1383 127.836 85.0371 126.752 83.2812 125.219" stroke="#3842F1" stroke-width="2" stroke-linecap="round" stroke-linejoin="round"/>
<path d="M95.7594 132.487C93.7504 134.917 92.3206 137.771 91.5781 140.835" stroke="#3842F1" stroke-width="2" stroke-linecap="round" stroke-linejoin="round"/>
<path d="M94.2475 129.696C94.0669 128.413 94.155 127.105 94.506 125.857C94.857 124.609 95.4633 123.447 96.2866 122.445" stroke="#3842F1" stroke-width="2" stroke-linecap="round" stroke-linejoin="round"/>
<path d="M95.6984 132.002C95.5839 130.79 95.7271 129.568 96.1186 128.416C96.5102 127.264 97.1412 126.207 97.9701 125.316" stroke="#3842F1" stroke-width="2" stroke-linecap="round" stroke-linejoin="round"/>
<path d="M120.801 138.024C118.582 132.985 114.735 130.198 111.539 125.838C108.394 121.545 109.948 117.653 101.136 113.175C98.0893 111.626 92.7228 111.565 89.1164 110.065C82.5253 107.678 75.8176 105.625 69.0191 103.914C58.8917 101.577 56.3099 101.85 50.7412 110.439C45.3911 119.305 40.6645 128.533 36.5955 138.055C29.2329 160.35 13.2448 166.251 2.25 173.566" stroke="#3842F1" stroke-width="2" stroke-linecap="round" stroke-linejoin="round"/>
<path d="M81.8633 116.655C83.6377 118.95 83.4768 122.753 83.0889 127.944C82.8612 130.988 82.8484 134.301 82.8717 137.347" stroke="#3842F1" stroke-width="2" stroke-linecap="round" stroke-linejoin="round"/>
<path d="M72.7064 127.577C76.6842 137.906 97.2243 144.495 103.432 141.165C108.275 138.567 120.509 136.718 124.337 139.001C125.688 139.873 126.75 141.127 127.386 142.604C128.022 144.081 128.204 145.714 127.909 147.295C127.292 154.29 110.439 160.419 106.638 160.901C92.7382 162.663 89.19 170.92 79.6879 178.581C77.3531 180.463 74.9411 184.531 69.2214 185.359C63.9687 186.381 58.8806 188.116 54.0985 190.517C42.8696 195.906 39.6866 200.155 25.5352 207.897" stroke="#3842F1" stroke-width="2" stroke-linecap="round" stroke-linejoin="round"/>
<path d="M204.492 184.243C206.649 183.246 208.931 182.443 210.174 182.01C216.968 179.642 221.876 178.082 228.415 176.267C233.716 175.418 239.139 175.724 244.311 177.166C256.25 179.943 259.491 181.02 260.069 185.135" stroke="#3842F1" stroke-width="2" stroke-linecap="round" stroke-linejoin="round"/>
<path d="M220.668 253.547C221.524 253.849 221.994 245.627 221.878 240.435C221.776 235.885 221.783 209.273 221.843 205.042C221.977 195.548 222.189 194.848 227.858 191.74C232.847 189.319 238.085 187.449 243.479 186.164C244.64 185.812 255.72 182.528 257.436 184.091" stroke="#3842F1" stroke-width="2" stroke-linecap="round" stroke-linejoin="round"/>
<path d="M198.473 217.642C198.54 209.151 198.607 199.406 198.615 197.1C198.637 191.02 198.542 187.071 204.611 184.2" stroke="#3842F1" stroke-width="2" stroke-linecap="round" stroke-linejoin="round"/>
<path d="M183.611 218.866C181.42 221.517 186.321 223.691 190.536 225.612C194.97 227.635 205.495 232.251 208.494 233.007C213.847 234.355 219.975 232.189 220.536 229.729C220.8 228.569 219.862 227.071 217.278 225.955" stroke="#3842F1" stroke-width="2" stroke-linecap="round" stroke-linejoin="round"/>
<path d="M217.573 226.095C213.139 224.073 197.935 217.44 194.936 216.684C192.434 216.091 189.823 216.138 187.344 216.821" stroke="#3842F1" stroke-width="2" stroke-linecap="round" stroke-linejoin="round"/>
<path d="M183.02 220.68C182.979 221.483 183.265 243.691 183.3 244.378C183.871 255.713 189.754 268.67 203.971 270.028C214.809 271.064 219.87 262.359 220.387 252.451C220.564 249.057 220.524 246.188 220.523 242.418C220.523 238.534 220.492 233.814 220.567 229.308" stroke="#3842F1" stroke-width="2" stroke-linecap="round" stroke-linejoin="round"/>
<path d="M187.307 216.812C183.13 217.916 183.064 219.877 183.023 220.673" stroke="#3842F1" stroke-width="2" stroke-linecap="round" stroke-linejoin="round"/>
<path d="M160.566 174.91C164.025 175.993 167.474 177.087 170.914 178.193C177.268 180.233 193.864 185.669 200.148 187.763" stroke="#3842F1" stroke-width="2" stroke-linecap="round" stroke-linejoin="round"/>
<path d="M193.531 163.075C201.566 165.645 209.579 168.241 217.57 170.862C219.542 171.509 225.373 173.447 232.293 175.753" stroke="#3842F1" stroke-width="2" stroke-linecap="round" stroke-linejoin="round"/>
<path d="M222.984 195.689C235.518 200.04 247.878 204.391 260.039 208.651" stroke="#3842F1" stroke-width="2" stroke-linecap="round" stroke-linejoin="round"/>
<path d="M255.621 183.714C268.155 188.065 280.834 192.555 292.995 196.814" stroke="#3842F1" stroke-width="2" stroke-linecap="round" stroke-linejoin="round"/>
<path d="M187.547 221.788C190.683 223.395 207.926 230.53 207.982 230.513C210.607 229.659 213.183 228.661 215.698 227.524" stroke="#3842F1" stroke-width="2" stroke-linecap="round" stroke-linejoin="round"/>
<path d="M215.784 227.452C212.648 225.845 195.405 218.709 195.348 218.727C192.724 219.581 190.148 220.579 187.633 221.715" stroke="#3842F1" stroke-width="2" stroke-linecap="round" stroke-linejoin="round"/>
</svg>
