<svg width="296" height="371" viewBox="0 0 296 371" fill="none" xmlns="http://www.w3.org/2000/svg">
<path d="M200.154 126.783C197.28 124.481 194.152 129.139 194.272 135.96C194.153 142.742 195.744 149.462 198.926 155.63" stroke="#3842F1" stroke-width="2.08759" stroke-linecap="round" stroke-linejoin="round"/>
<path d="M174.918 106.04C175.85 106.04 176.678 106.001 177.179 106C178.654 105.997 178.491 107.799 178.67 110.004C178.717 110.59 180.046 130.988 179.961 132.918" stroke="#3842F1" stroke-width="2.08759" stroke-linecap="round" stroke-linejoin="round"/>
<path d="M150.523 134.599C153.535 134.498 174.342 133.744 178.661 133.504C179.402 133.413 180.125 133.216 180.806 132.917" stroke="#3842F1" stroke-width="2.08759" stroke-linecap="round" stroke-linejoin="round"/>
<path d="M145.48 134.6C146.05 134.355 149.947 133.874 150.528 133.759" stroke="#3842F1" stroke-width="2.08759" stroke-linecap="round" stroke-linejoin="round"/>
<path d="M127.816 265.823C127.83 272.312 129.967 276.426 142.275 280.865C160.507 287.443 196.108 287.767 215.99 281.537C228.816 277.518 232.007 271.711 232.122 266.182" stroke="#3842F1" stroke-width="2.08759" stroke-linecap="round" stroke-linejoin="round"/>
<path d="M36.1234 248.999C33.1679 249.28 30.2615 249.929 27.4752 250.928C22.187 253.751 18.4666 258.223 23.0674 266.269C25.5875 270.676 28.5921 281.583 16.8827 283.949C12.9311 284.273 8.96447 284.39 5 284.298" stroke="#3842F1" stroke-width="2.08759" stroke-linecap="round" stroke-linejoin="round"/>
<path d="M35.2823 245.634C31.3489 246.016 27.5279 247.187 24.0377 249.079C19.1998 252.476 14.6094 257.498 19.4343 266.036C22.2876 271.085 25.7693 281.484 12.2188 281.65C10.8941 281.666 8.36212 281.673 5 281.804" stroke="#3842F1" stroke-width="2.08759" stroke-linecap="round" stroke-linejoin="round"/>
<path d="M38.6484 246.477C39.146 246.763 39.8409 246.989 40.3308 247.318" stroke="#3842F1" stroke-width="2.08759" stroke-linecap="round" stroke-linejoin="round"/>
<path d="M39.8583 243.11C38.3165 243.419 38.0183 248.915 40.3308 249.84" stroke="#3842F1" stroke-width="2.08759" stroke-linecap="round" stroke-linejoin="round"/>
<path d="M40.9303 240.719C39.1756 240.094 37.154 241.811 36.6318 243.305C36.1187 244.654 35.992 246.12 36.2663 247.537C36.5405 248.953 37.2048 250.266 38.184 251.325C40.0268 253.123 42.6897 252.364 42.8544 250.734" stroke="#3842F1" stroke-width="2.08759" stroke-linecap="round" stroke-linejoin="round"/>
<path d="M43.5924 241.43C43.3507 241.861 43.1595 242.389 43.0318 242.977C42.9041 243.566 42.843 244.201 42.8525 244.839C42.862 245.478 42.942 246.105 43.087 246.677C43.232 247.25 43.4386 247.756 43.6927 248.159" stroke="#3842F1" stroke-width="2.08759" stroke-linecap="round" stroke-linejoin="round"/>
<path d="M44.2882 238.959C41.1345 238.501 39.2247 240.999 39.5178 245.435C39.8234 250.073 44.5242 252.558 46.2177 248.979" stroke="#3842F1" stroke-width="2.08759" stroke-linecap="round" stroke-linejoin="round"/>
<path d="M48.5403 238.082C45.662 237.869 43.1367 239.591 43.8032 244.669C44.4732 249.775 49.6469 249.773 50.4247 247.697" stroke="#3842F1" stroke-width="2.08759" stroke-linecap="round" stroke-linejoin="round"/>
<path d="M47.5458 240.587C45.2606 241.12 46.2926 245.848 47.9011 246.475" stroke="#3842F1" stroke-width="2.08759" stroke-linecap="round" stroke-linejoin="round"/>
<path d="M52.5433 236.436C51.0778 236.132 47.0572 236.959 48.0614 243.028C48.6196 246.399 51.056 249.07 53.0421 247.863C53.2356 247.728 53.4022 247.548 53.531 247.337C53.6598 247.125 53.7481 246.886 53.7906 246.634" stroke="#3842F1" stroke-width="2.08759" stroke-linecap="round" stroke-linejoin="round"/>
<path d="M51.7068 238.922C50.0708 238.565 49.7939 244.164 52.1081 245.635" stroke="#3842F1" stroke-width="2.08759" stroke-linecap="round" stroke-linejoin="round"/>
<path d="M58.8343 240.033C58.8687 238.821 56.8958 236.814 55.8113 237.297C54.3087 237.967 54.5241 240.694 54.9153 242.097C55.0352 242.527 55.58 244.125 56.266 243.938" stroke="#3842F1" stroke-width="2.08759" stroke-linecap="round" stroke-linejoin="round"/>
<path d="M61.3597 237.968C60.8735 237.091 60.1608 236.335 59.2829 235.765C58.405 235.196 57.3884 234.831 56.3213 234.701C54.7705 234.648 50.0659 235.74 51.5521 242.113C53.0836 248.688 58.7628 246.516 58.6371 244.077" stroke="#3842F1" stroke-width="2.08759" stroke-linecap="round" stroke-linejoin="round"/>
<path d="M57.9962 242.27C57.791 240.632 56.8877 239.126 55.4727 238.064" stroke="#3842F1" stroke-width="2.08759" stroke-linecap="round" stroke-linejoin="round"/>
<path d="M150.778 134.6C150.532 132.361 149.022 111.613 148.865 109.662C148.733 108.018 149.184 107.531 150.958 107.417C152.07 107.345 172.991 106.098 174.107 106.028C176.082 105.902 176.493 106.108 176.638 108.741C177.12 117.523 177.981 129.427 178.285 133.37" stroke="#3842F1" stroke-width="2.08759" stroke-linecap="round" stroke-linejoin="round"/>
<path d="M132.18 137.123C131.041 133.775 136.244 132.563 138.589 132.308C141.339 132.009 144.911 131.529 145.478 134.34" stroke="#3842F1" stroke-width="2.08759" stroke-linecap="round" stroke-linejoin="round"/>
<path d="M132.02 137.124C136.625 136.786 141.153 135.937 145.478 134.601" stroke="#3842F1" stroke-width="2.08759" stroke-linecap="round" stroke-linejoin="round"/>
<path d="M184.888 136.272C177.685 136.481 154.133 136.193 135.706 140.067C124.659 141.843 114.424 146.972 106.388 154.758C72.5929 183.51 80.643 248.018 128.093 265.84C152.337 274.947 203.014 278.401 229.536 267.158C243.4 261.279 249.871 252.421 259.747 242.183C274.472 226.92 288.302 237.792 290.986 213.492C291.166 211.863 289.718 185.437 284.02 175.949C275.911 162.448 273.049 171.113 261.272 167.213C244.268 161.582 227.448 149.364 223.069 141.119C220.85 133.638 220.948 125.661 223.349 118.237C227.14 107.382 218.254 109.067 215.631 110.185C207.297 113.738 207.436 126.058 207.193 128.017" stroke="#3842F1" stroke-width="2.08759" stroke-linecap="round" stroke-linejoin="round"/>
<g filter="url(#filter0_f_3507_7295)">
<path d="M128.652 266.664C152.812 276.237 202.574 281.163 230.434 267.448" stroke="#3842F1" stroke-width="2.08759" stroke-linecap="round" stroke-linejoin="round"/>
</g>
<g filter="url(#filter1_f_3507_7295)">
<path d="M127.816 265.823C152.117 273.692 204.083 277.626 232.122 266.539" stroke="#3842F1" stroke-width="2.08759" stroke-linecap="round" stroke-linejoin="round"/>
</g>
<path d="M186.799 157.311C184.802 147.928 184.475 138.269 185.835 128.774C186.707 124.404 190.488 115.02 196.692 117.281C204.831 120.247 214.846 139.032 214.441 144.26" stroke="#3842F1" stroke-width="2.08759" stroke-linecap="round" stroke-linejoin="round"/>
<path d="M127.941 142.17C127.476 139.912 128.206 138.558 132.022 137.123" stroke="#3842F1" stroke-width="2.08759" stroke-linecap="round" stroke-linejoin="round"/>
<path d="M180.805 132.076C181.402 132.076 184.28 132.076 185.011 132.076" stroke="#3842F1" stroke-width="2.08759" stroke-linecap="round" stroke-linejoin="round"/>
<path d="M60.5195 243.953C61.9424 241.418 64.2066 239.458 66.9215 238.412C74.5329 234.619 82.5421 231.682 90.8018 229.653" stroke="#3842F1" stroke-width="2.08759" stroke-linecap="round" stroke-linejoin="round"/>
<path d="M89.9568 227.128C80.0492 229.309 70.5172 232.961 61.6728 237.965C59.8591 239.359 57.7327 241.488 58.0181 243.592C58.0812 243.931 58.2131 244.254 58.4059 244.54C58.5987 244.825 58.8482 245.067 59.1384 245.251C59.4286 245.435 59.7531 245.556 60.0919 245.607C60.4307 245.657 60.7764 245.637 61.1069 245.546C62.3613 245.011 62.8731 243.536 62.2713 241.71" stroke="#3842F1" stroke-width="2.08759" stroke-linecap="round" stroke-linejoin="round"/>
<g opacity="0.8" filter="url(#filter2_f_3507_7295)">
<path d="M219.386 162.589C215.847 167.158 226.312 175.706 227.996 176.936C231.352 179.385 239.643 184.789 242.615 181.528C244.897 179.025 237.688 171.524 234.75 168.757C231.278 165.488 222.206 158.946 219.386 162.589Z" fill="#3842F1"/>
<path d="M219.386 162.589C215.847 167.158 226.312 175.706 227.996 176.936C231.352 179.385 239.643 184.789 242.615 181.528C244.897 179.025 237.688 171.524 234.75 168.757C231.278 165.488 222.206 158.946 219.386 162.589Z" stroke="#3842F1" stroke-width="2.08759" stroke-linecap="round" stroke-linejoin="round"/>
</g>
<path d="M220.969 164.143C217.918 168.164 226.94 175.686 228.392 176.768C231.285 178.923 238.432 183.679 240.994 180.809C242.962 178.606 236.747 172.006 234.214 169.571C231.221 166.694 223.401 160.937 220.969 164.143Z" fill="#3842F1" stroke="#3842F1" stroke-width="2.08759" stroke-linecap="round" stroke-linejoin="round"/>
<defs>
<filter id="filter0_f_3507_7295" x="124.245" y="262.255" width="110.597" height="18.0702" filterUnits="userSpaceOnUse" color-interpolation-filters="sRGB">
<feFlood flood-opacity="0" result="BackgroundImageFix"/>
<feBlend mode="normal" in="SourceGraphic" in2="BackgroundImageFix" result="shape"/>
<feGaussianBlur stdDeviation="1.68235" result="effect1_foregroundBlur_3507_7295"/>
</filter>
<filter id="filter1_f_3507_7295" x="123.409" y="261.415" width="113.124" height="16.3876" filterUnits="userSpaceOnUse" color-interpolation-filters="sRGB">
<feFlood flood-opacity="0" result="BackgroundImageFix"/>
<feBlend mode="normal" in="SourceGraphic" in2="BackgroundImageFix" result="shape"/>
<feGaussianBlur stdDeviation="1.68235" result="effect1_foregroundBlur_3507_7295"/>
</filter>
<filter id="filter2_f_3507_7295" x="214.252" y="157.109" width="33.2099" height="29.8456" filterUnits="userSpaceOnUse" color-interpolation-filters="sRGB">
<feFlood flood-opacity="0" result="BackgroundImageFix"/>
<feBlend mode="normal" in="SourceGraphic" in2="BackgroundImageFix" result="shape"/>
<feGaussianBlur stdDeviation="1.68235" result="effect1_foregroundBlur_3507_7295"/>
</filter>
</defs>
</svg>
