<svg width="296" height="371" viewBox="0 0 296 371" fill="none" xmlns="http://www.w3.org/2000/svg">
<path d="M43.0352 144.621C43.8088 139.973 44.3332 135.287 44.6061 130.583C44.1397 121.484 45.8699 112.407 49.6504 104.118" stroke="#3842F1" stroke-width="2" stroke-linecap="round" stroke-linejoin="round"/>
<path d="M49.6992 104.018C50.8581 101.662 53.6609 93.3495 55.1844 89.5212C60.1211 77.1273 68.2358 64.6508 80.248 59.2656" stroke="#3842F1" stroke-width="2" stroke-linecap="round" stroke-linejoin="round"/>
<path d="M80.2305 59.2579C81.2744 59.0249 90.4203 53.1562 95.9283 50.9779C98.1048 50.1174 100.555 50.5957 102.791 49.8892C106.782 48.2043 110.896 46.8293 115.098 45.7766C120.056 45.0126 124.006 46.6323 128.761 45.8086C136.367 44.6887 144.1 44.7323 151.693 45.9381C156.251 46.3354 160.664 47.7383 164.615 50.0458C168.784 52.4804 173.562 52.1355 177.933 54.237C182.79 57.2658 187.34 60.7629 191.516 64.6782" stroke="#3842F1" stroke-width="2" stroke-linecap="round" stroke-linejoin="round"/>
<path d="M191.508 64.6514C193.602 65.6896 198.031 69.0242 199.67 69.8338C206.49 73.333 212.152 78.7318 215.971 85.3785C219.47 89.5468 222.726 93.9129 225.724 98.4552C227.43 102.672 228.555 107.1 229.067 111.62C229.891 114.9 231.484 118.129 232.034 121.444C233.527 132.403 232.569 143.556 229.228 154.099C228.796 157.27 228.564 160.466 228.533 163.667C228.199 165.83 227.465 170.313 226.821 172.856" stroke="#3842F1" stroke-width="2" stroke-linecap="round" stroke-linejoin="round"/>
<path d="M74.9042 160.991C74.9734 165.503 73.8431 169.952 71.6289 173.884" stroke="#3842F1" stroke-width="2" stroke-linecap="round" stroke-linejoin="round"/>
<path d="M202.926 181.677C203.717 178.127 205.331 174.813 207.639 172.002C210.495 168.102 218.521 163.396 222.361 170.052C224.057 173.14 224.957 176.602 224.979 180.126C225.002 183.649 224.146 187.122 222.489 190.232" stroke="#3842F1" stroke-width="2" stroke-linecap="round" stroke-linejoin="round"/>
<path d="M76.955 223.245C75.5069 224.407 73.7156 225.937 72.1719 227.08" stroke="#3842F1" stroke-width="2" stroke-linecap="round" stroke-linejoin="round"/>
<path d="M42.5391 224.501C49.5601 225.005 56.364 225.433 63.4979 225.952C73.258 226.661 72.8161 225.785 73.8789 233.072C75.4398 243.771 77.4149 255.531 78.4738 260.989" stroke="#3842F1" stroke-width="2" stroke-linecap="round" stroke-linejoin="round"/>
<path d="M47.4375 220.445C53.218 220.819 65.4005 221.739 71.3311 222.145C77.3763 222.559 77.4342 222.718 78.0012 226.025C78.3777 228.23 83.1423 255.269 83.4552 256.808" stroke="#3842F1" stroke-width="2" stroke-linecap="round" stroke-linejoin="round"/>
<path d="M47.8446 220.466C47.1947 220.486 47.0078 220.795 45.9533 221.662C44.8699 222.552 43.4521 223.452 42.6074 224.194C41.7477 224.948 42.0874 226.636 42.1756 227.416C42.4661 229.978 44.9466 245.022 45.41 247.449C45.6671 249.851 46.6958 252.105 48.3418 253.873C49.7587 255.469 52.1428 257.855 52.3114 258.969" stroke="#3842F1" stroke-width="2" stroke-linecap="round" stroke-linejoin="round"/>
<path d="M51.4432 257.677C50.7187 259.405 52.4774 259.159 55.6755 259.494C57.7533 259.714 73.7627 261.341 75.7374 261.45C77.0858 261.525 78.4239 261.177 79.5656 260.456C80.5307 259.734 81.4412 258.942 82.2898 258.086C82.948 257.46 84.4146 256.345 83.6629 256.287" stroke="#3842F1" stroke-width="2" stroke-linecap="round" stroke-linejoin="round"/>
<path d="M47.1982 220.47C46.924 218.642 49.5797 218.951 62.8429 219.745C74.5554 220.447 80.9516 221.049 82.2689 222.953" stroke="#3842F1" stroke-width="2" stroke-linecap="round" stroke-linejoin="round"/>
<path d="M50.68 256.712C50.1757 257.547 49.8028 258.454 49.5742 259.402C49.9234 261.57 50.4505 263.706 51.1504 265.788C52.1531 272.771 50.5597 275.567 57.9933 280.45C62.9656 283.716 72.8253 292.994 88.7702 288.781C90.3885 288.353 88.3248 276.021 87.875 273.44C86.4504 264.484 86.4161 255.361 87.7732 246.395C89.0504 236.183 89.6769 225.9 89.6491 215.609C90.7962 203.424 69.8353 194.42 64.0727 195.485C47.388 198.57 45.4229 210.89 45.774 221.294" stroke="#3842F1" stroke-width="2" stroke-linecap="round" stroke-linejoin="round"/>
<path d="M44.1324 222.261C42.855 217.07 38.3426 203.272 37.4597 196.206C36.8705 193.972 36.8473 191.627 37.3921 189.382C37.7761 188.432 39.4142 189.06 40.4226 188.882C44.379 188.583 48.2128 187.373 51.6247 185.348C58.5049 181.677 64.8287 174.81 72.885 173.742C77.9529 173.071 86.3716 179.615 89.9769 181.228C96.9182 184.228 104.134 186.548 111.523 188.155C122.757 190.384 142.174 196.11 152.913 199.333C180.049 207.479 184.121 212.874 192.757 220.149C213.963 238.012 209.09 282.518 196.208 290.438" stroke="#3842F1" stroke-width="2" stroke-linecap="round" stroke-linejoin="round"/>
<path d="M82.8008 289.875C94.6576 292.84 107.157 291.865 118.411 287.097C124.015 284.766 129.143 281.385 134.756 279.076C143.138 275.627 153.332 280.36 160.416 281.769C169.045 283.484 189.046 294.03 196.242 290.417" stroke="#3842F1" stroke-width="2" stroke-linecap="round" stroke-linejoin="round"/>
<path d="M197.017 186.232C196.697 188.502 197.013 190.815 197.928 192.917C198.327 193.547 198.526 194.283 198.5 195.028C198.474 195.774 198.224 196.494 197.783 197.095C196.685 198.58 195.68 200.132 194.776 201.742C194.492 202.123 194.296 202.562 194.2 203.028C194.104 203.494 194.111 203.975 194.221 204.438C194.582 205.257 195.343 204.957 195.9 204.67C197.134 204.035 199.641 203.108 200.917 202.62C204.137 201.391 207.716 203.502 210.786 201.397C211.346 200.949 211.838 200.423 212.246 199.834C212.785 199.223 213.243 198.545 213.609 197.817C214.256 196.358 212.663 194.471 212.059 193.476C211.835 193.108 211.568 192.792 211.326 192.446C210.986 191.958 210.609 191.496 210.198 191.065C209.834 190.68 209.472 190.313 209.088 189.962C207.605 188.606 201.371 185.893 202.939 181.567" stroke="#3842F1" stroke-width="2" stroke-linecap="round" stroke-linejoin="round"/>
<path d="M200.228 170.848C200.573 171.504 201.92 171.984 202.458 171.483C210.504 163.961 215.262 162.656 219.036 163.208C226.756 164.338 227.941 175.458 227.1 181.249C226.501 185.678 225.022 189.941 222.749 193.789C219.347 199.011 215.26 203.753 210.596 207.887C207.386 210.995 197.23 218.048 194.219 213.607" stroke="#3842F1" stroke-width="2" stroke-linecap="round" stroke-linejoin="round"/>
<path d="M92.6914 292.041C93.5506 298.476 95.5148 304.451 96.9804 310.725C98.0486 315.913 99.4737 321.021 101.246 326.012" stroke="#3842F1" stroke-width="2" stroke-linecap="round" stroke-linejoin="round"/>
<path d="M207.586 260.064C215.229 271.768 226.057 281.045 238.794 286.802C245.077 289.555 251.605 291.714 258.291 293.249" stroke="#3842F1" stroke-width="2" stroke-linecap="round" stroke-linejoin="round"/>
<path d="M209.587 208.899C205.971 215.452 202.894 222.289 200.387 229.34" stroke="#3842F1" stroke-width="2" stroke-linecap="round" stroke-linejoin="round"/>
<path d="M43.0333 144.431C41.2442 155.334 44.9803 159.219 45.3388 166.857C45.5306 174.172 44.6319 181.474 42.6721 188.524" stroke="#3842F1" stroke-width="2" stroke-linecap="round" stroke-linejoin="round"/>
<path d="M94.3711 149.3C99.2872 145.919 104.981 143.839 110.919 143.255C124.083 142.234 128.065 143.94 142.273 147.439" stroke="#3842F1" stroke-width="2" stroke-linecap="round" stroke-linejoin="round"/>
<path d="M66.4181 150.082C59.1425 145.465 49.3748 146.878 42.5508 148.97" stroke="#3842F1" stroke-width="2" stroke-linecap="round" stroke-linejoin="round"/>
<path d="M179.633 224.588C183.275 224.451 189.411 228.797 193.651 233.795C198.646 239.683 199.368 249.608 197.87 265.453C197.352 270.942 194.557 281.295 188.1 282.01C182.297 280.692 176.656 278.744 171.275 276.203C163.255 271.486 167.877 257.426 168.063 251.704C168.358 246.301 168.997 240.922 169.977 235.6C170.48 233.312 172.713 224.848 179.633 224.588Z" stroke="#3842F1" stroke-width="2" stroke-linecap="round" stroke-linejoin="round"/>
<path d="M167 263.908C176.685 259.24 191.509 246.563 192.722 236.877" stroke="#3842F1" stroke-width="2" stroke-linecap="round" stroke-linejoin="round"/>
</svg>
