<svg width="296" height="371" viewBox="0 0 296 371" fill="none" xmlns="http://www.w3.org/2000/svg">
<path d="M266.533 72.1385L187.611 18.2129L49.8828 15" stroke="#3842F1" stroke-width="2" stroke-miterlimit="1.5" stroke-linecap="round" stroke-linejoin="round"/>
<path d="M187.973 281.646V285.218" stroke="#3842F1" stroke-width="2" stroke-miterlimit="1.5" stroke-linecap="round" stroke-linejoin="round"/>
<path d="M205.828 276.886V280.457" stroke="#3842F1" stroke-width="2" stroke-miterlimit="1.5" stroke-linecap="round" stroke-linejoin="round"/>
<path d="M182.016 278.076V281.647" stroke="#3842F1" stroke-width="2" stroke-miterlimit="1.5" stroke-linecap="round" stroke-linejoin="round"/>
<path d="M174.879 276.886V280.457" stroke="#3842F1" stroke-width="2" stroke-miterlimit="1.5" stroke-linecap="round" stroke-linejoin="round"/>
<path d="M123.693 79.2812L39.1758 191.177" stroke="#3842F1" stroke-width="2" stroke-miterlimit="1.5" stroke-linecap="round" stroke-linejoin="round"/>
<path d="M266.534 72.1387L123.688 79.281" stroke="#3842F1" stroke-width="2" stroke-miterlimit="1.5" stroke-linecap="round" stroke-linejoin="round"/>
<path d="M168.922 164.989L266.533 72.1387" stroke="#3842F1" stroke-width="2" stroke-miterlimit="1.5" stroke-linecap="round" stroke-linejoin="round"/>
<path d="M168.922 166.179L266.533 72.1387" stroke="#3842F1" stroke-width="2" stroke-miterlimit="1.5" stroke-linecap="round" stroke-linejoin="round"/>
<path d="M147.496 149.514L168.923 79.2812" stroke="#3842F1" stroke-width="2" stroke-miterlimit="1.5" stroke-linecap="round" stroke-linejoin="round"/>
<path d="M49.8828 191.178L165.35 169.751" stroke="#3842F1" stroke-width="2" stroke-miterlimit="1.5" stroke-linecap="round" stroke-linejoin="round"/>
<path d="M165.348 169.751L252.246 259.03" stroke="#3842F1" stroke-width="2" stroke-miterlimit="1.5" stroke-linecap="round" stroke-linejoin="round"/>
<path d="M95.1172 248.315L110.592 244.744" stroke="#3842F1" stroke-width="2" stroke-miterlimit="1.5" stroke-linecap="round" stroke-linejoin="round"/>
<path d="M77.2656 200.701L134.404 189.987" stroke="#3842F1" stroke-width="2" stroke-miterlimit="1.5" stroke-linecap="round" stroke-linejoin="round"/>
<path d="M77.2626 225.699L76.9985 200.926L73.6914 199.511" stroke="#3842F1" stroke-width="2" stroke-miterlimit="1.5" stroke-linecap="round" stroke-linejoin="round"/>
<path d="M74.0448 222.128L73.6914 199.511L143.924 186.416" stroke="#3842F1" stroke-width="2" stroke-miterlimit="1.5" stroke-linecap="round" stroke-linejoin="round"/>
<path d="M271.295 266.172L182.016 231.65" stroke="#3842F1" stroke-width="2" stroke-miterlimit="1.5" stroke-linecap="round" stroke-linejoin="round"/>
<path d="M143.96 312.598C143.654 308.586 146.06 307.681 148.81 306.764C159.803 303.097 258.823 267.835 266.59 265.022" stroke="#3842F1" stroke-width="2" stroke-miterlimit="1.5" stroke-linecap="round" stroke-linejoin="round"/>
<path d="M142.734 314.977V324.5" stroke="#3842F1" stroke-width="2" stroke-miterlimit="1.5" stroke-linecap="round" stroke-linejoin="round"/>
<path d="M43.9375 185.226L142.853 314.978L273.087 267.957L273.682 276.885" stroke="#3842F1" stroke-width="2" stroke-miterlimit="1.5" stroke-linecap="round" stroke-linejoin="round"/>
<path d="M273.081 267.958L183.207 181.655" stroke="#3842F1" stroke-width="2" stroke-miterlimit="1.5" stroke-linecap="round" stroke-linejoin="round"/>
<path d="M165.355 162.609L46.3164 182.846" stroke="#3842F1" stroke-width="2" stroke-miterlimit="1.5" stroke-linecap="round" stroke-linejoin="round"/>
<path d="M165.348 162.609V191.179" stroke="#3842F1" stroke-width="2" stroke-miterlimit="1.5" stroke-linecap="round" stroke-linejoin="round"/>
<path d="M184.394 182.846L165.348 162.609" stroke="#3842F1" stroke-width="2" stroke-miterlimit="1.5" stroke-linecap="round" stroke-linejoin="round"/>
<path d="M142.734 326.883V357.833" stroke="#3842F1" stroke-width="2" stroke-miterlimit="1.5" stroke-linecap="round" stroke-linejoin="round"/>
<path fill-rule="evenodd" clip-rule="evenodd" d="M39.1758 191.179L44.0112 292.771L141.92 357.833L272.207 303.793L272.944 290.433L273.682 277.074L141.856 326.767L39.1758 191.179Z" stroke="#3842F1" stroke-width="2" stroke-miterlimit="1.5" stroke-linecap="round" stroke-linejoin="round"/>
<path d="M159.396 163.741L146.416 149.516L60.5938 163.8" stroke="#3842F1" stroke-width="2" stroke-miterlimit="1.5" stroke-linecap="round" stroke-linejoin="round"/>
<path d="M38.9763 191.177L21.3203 168.878L48.9512 15L123.693 80.2036" stroke="#3842F1" stroke-width="2" stroke-miterlimit="1.5" stroke-linecap="round" stroke-linejoin="round"/>
<path d="M183.207 263.792C185.37 264.897 200.524 273.709 205.824 276.886" stroke="#3842F1" stroke-width="2" stroke-miterlimit="1.5" stroke-linecap="round" stroke-linejoin="round"/>
<path d="M182.84 263.792L161.785 269.445L174.049 276.922L181.156 278.002L187.732 281.648L205.829 276.743" stroke="#3842F1" stroke-width="2" stroke-miterlimit="1.5" stroke-linecap="round" stroke-linejoin="round"/>
<path d="M161.785 269.745L161.839 273.423L174.087 280.651L181.186 281.695L187.754 285.22L205.829 280.478" stroke="#3842F1" stroke-width="2" stroke-miterlimit="1.5" stroke-linecap="round" stroke-linejoin="round"/>
<path d="M170.972 199.734C170.502 198.06 166.722 198.258 165.52 198.434C161.201 199.065 156.638 199.707 152.328 201.573C150.161 202.512 149.776 204.011 149.9 205.903C149.966 206.912 155.629 225.901 156.083 226.803C156.451 227.535 176.518 223.382 177.258 223.078" stroke="#3842F1" stroke-width="2" stroke-miterlimit="1.5" stroke-linecap="round" stroke-linejoin="round"/>
<path d="M166.415 192.2C168.478 192.302 169.394 189.412 171.194 190.091C172.218 190.476 178.895 221.342 179.921 225.531C181.314 231.219 181.465 240.735 177.823 245.669C174.464 250.22 164.69 255.098 163.121 255.253C155.859 255.97 145.838 254.825 137.363 251.558C132.459 249.668 126.024 249.463 120.692 248.105C114.975 246.65 110.839 244.382 109.892 242.893C108.795 241.169 109.815 239.668 110.532 239.19" stroke="#3842F1" stroke-width="2" stroke-miterlimit="1.5" stroke-linecap="round" stroke-linejoin="round"/>
<path d="M123.688 199.51C124.343 198.213 126.17 195.148 132.484 191.223C136.887 188.487 140.999 187.836 142.734 187.606" stroke="#3842F1" stroke-width="2" stroke-miterlimit="1.5" stroke-linecap="round" stroke-linejoin="round"/>
<path fill-rule="evenodd" clip-rule="evenodd" d="M177.477 222.716C177.638 224.337 177.834 226.405 178.09 227.935C179.069 233.803 180.279 232.6 179.239 237.621C178.685 240.299 177.003 242.133 175.061 246.132C173.885 248.553 162.805 250.271 161.678 249.164C160.701 248.204 161.386 246.466 160.507 243.252C159.903 241.046 158.851 238.687 158.729 236.987C158.331 231.423 154.761 225.877 154.106 224.278C153.002 221.587 148.763 212.97 147.971 211.082C146.737 208.144 144.765 202.951 145.171 199.788C145.411 197.924 150.94 188.681 157.01 188.799C161.932 188.894 168.88 193.543 171.416 198.635C172.745 201.305 173.067 215.793 174.15 221.623C174.201 221.898 175.876 222.608 177.477 222.716V222.716Z" stroke="#3842F1" stroke-width="2" stroke-miterlimit="1.5" stroke-linecap="round" stroke-linejoin="round"/>
<path d="M157.017 188.236C155.19 187.073 150.454 182.719 148.472 182.848C147.1 182.936 142.041 188.405 139.984 189.974C135.587 193.327 128.136 198.302 122.583 199.658C113.9 201.778 103.86 199.123 103.488 199.886C103.132 200.616 105.326 209.063 105.562 209.933C107.904 218.561 109.964 224.05 112.809 231.651" stroke="#3842F1" stroke-width="2" stroke-miterlimit="1.5" stroke-linecap="round" stroke-linejoin="round"/>
<path d="M112.976 230.462C112.391 231.373 112.047 232.457 111.101 233.188C110.409 233.723 108.321 233.754 108.216 234.594C108.138 235.22 111.155 242.011 111.688 243.556" stroke="#3842F1" stroke-width="2" stroke-miterlimit="1.5" stroke-linecap="round" stroke-linejoin="round"/>
<path d="M114.188 245.937C113.952 250.624 115.824 255.87 119.747 258.965C123.788 262.152 128.109 262.036 131.958 263.043C136.291 264.176 140.16 265.541 144.66 266.035C148.673 266.475 153.096 265.792 157.024 265.025C160.342 264.378 169.131 261.578 169.91 260.206C169.991 260.063 170.014 254.836 170.116 252.45" stroke="#3842F1" stroke-width="2" stroke-miterlimit="1.5" stroke-linecap="round" stroke-linejoin="round"/>
<path d="M165.348 191.179C166.16 191.179 168.074 191.179 168.919 191.179" stroke="#3842F1" stroke-width="2" stroke-miterlimit="1.5" stroke-linecap="round" stroke-linejoin="round"/>
</svg>
