<svg width="296" height="371" viewBox="0 0 296 371" fill="none" xmlns="http://www.w3.org/2000/svg">
<g clip-path="url(#clip0_3507_7293)">
<path d="M138.77 192.01C137.591 191.865 132.951 191.773 131.711 192.059C131.173 192.183 131.328 190.456 131.407 190.429C133.875 189.613 139.734 189.02 142.289 188.41" stroke="#3842F1" stroke-width="2" stroke-miterlimit="1.5" stroke-linecap="round" stroke-linejoin="round"/>
<path d="M194.347 237.979C195.778 234.547 198.46 230.149 203.284 227.868C207.592 225.831 213.758 230.842 216.457 233.853C220.254 238.088 221.924 243.109 222.256 245.042C223.744 253.692 221.367 259.476 217.41 263.943C214.498 267.23 210.091 268.669 205.921 269.61C203.722 270.106 194.889 271.487 191.027 263.889" stroke="#3842F1" stroke-width="2" stroke-miterlimit="1.5" stroke-linecap="round" stroke-linejoin="round"/>
<path d="M270.215 70.2327L189.885 16.1916L49.6992 12.9717" stroke="#3842F1" stroke-width="2" stroke-miterlimit="1.5" stroke-linecap="round" stroke-linejoin="round"/>
<path d="M125.302 79.9795L126.454 82.1098L43.0325 190.253L41.1719 190.846" stroke="#3842F1" stroke-width="2" stroke-miterlimit="1.5" stroke-linecap="round" stroke-linejoin="round"/>
<path d="M125.236 79.9795L41.1719 190.846" stroke="#3842F1" stroke-width="2" stroke-miterlimit="1.5" stroke-linecap="round" stroke-linejoin="round"/>
<path d="M270.214 70.2324L125.234 79.979" stroke="#3842F1" stroke-width="2" stroke-miterlimit="1.5" stroke-linecap="round" stroke-linejoin="round"/>
<path d="M267.778 72.668L126.453 81.1962" stroke="#3842F1" stroke-width="2" stroke-miterlimit="1.5" stroke-linecap="round" stroke-linejoin="round"/>
<path d="M171.531 164.043L270.215 70.2324" stroke="#3842F1" stroke-width="2" stroke-miterlimit="1.5" stroke-linecap="round" stroke-linejoin="round"/>
<path d="M171.531 166.48L270.215 70.2324" stroke="#3842F1" stroke-width="2" stroke-miterlimit="1.5" stroke-linecap="round" stroke-linejoin="round"/>
<path d="M149.598 149.424L171.527 79.9795" stroke="#3842F1" stroke-width="2" stroke-miterlimit="1.5" stroke-linecap="round" stroke-linejoin="round"/>
<path d="M50.9141 190.846L167.873 168.916" stroke="#3842F1" stroke-width="2" stroke-miterlimit="1.5" stroke-linecap="round" stroke-linejoin="round"/>
<path d="M49.6992 190.846L166.705 168.916L183.105 186.582" stroke="#3842F1" stroke-width="2" stroke-miterlimit="1.5" stroke-linecap="round" stroke-linejoin="round"/>
<path d="M200.773 204.248L254.379 259.072" stroke="#3842F1" stroke-width="2" stroke-miterlimit="1.5" stroke-linecap="round" stroke-linejoin="round"/>
<path d="M188.586 195.718C189.11 188.14 202.27 178.685 203.206 181.66" stroke="#3842F1" stroke-width="2" stroke-miterlimit="1.5" stroke-linecap="round" stroke-linejoin="round"/>
<path d="M143.512 195.284C146.398 188.441 156.744 193.006 161.786 204.248" stroke="#3842F1" stroke-width="2" stroke-miterlimit="1.5" stroke-linecap="round" stroke-linejoin="round"/>
<path d="M145.784 211.556C142.733 209.348 141.068 205.897 140.089 203.75C138.642 200.578 137.975 195.079 139.523 191.705C141.143 188.171 146.293 187.23 147.986 187.195C150.041 187.152 151.556 187.372 153.543 187.881C155.883 188.481 158.387 189.813 160.263 191.232C161.943 192.501 163.546 194.046 164.736 195.706C166.396 198.02 167.696 200.183 170.313 201.794" stroke="#3842F1" stroke-width="2" stroke-miterlimit="1.5" stroke-linecap="round" stroke-linejoin="round"/>
<path d="M152.039 187.189C156.164 187.363 163.411 189.133 167.108 189.841C168.158 190.042 171.658 190.921 171.529 191.481C171.439 191.869 166.286 192.932 164.672 193.281" stroke="#3842F1" stroke-width="2" stroke-miterlimit="1.5" stroke-linecap="round" stroke-linejoin="round"/>
<path d="M171.531 191.264C173.623 192.175 178.223 193.874 180.456 192.74C183.023 191.435 182.92 187.494 184.133 185.109C187.32 178.841 196.209 173.484 202.575 175.404C205.689 176.343 205.379 179.989 204.74 182.922C203.527 188.492 199.829 195.483 199.217 200.371C198.81 203.624 204.036 210.325 206.697 214.657C210.364 220.629 214.123 226.884 216.609 233.487" stroke="#3842F1" stroke-width="2" stroke-miterlimit="1.5" stroke-linecap="round" stroke-linejoin="round"/>
<path d="M78.9414 200.593L131.329 189.628" stroke="#3842F1" stroke-width="2" stroke-miterlimit="1.5" stroke-linecap="round" stroke-linejoin="round"/>
<path d="M150.824 187.191L156.916 184.754" stroke="#3842F1" stroke-width="2" stroke-miterlimit="1.5" stroke-linecap="round" stroke-linejoin="round"/>
<path d="M78.67 229.831V201.974L75.2852 200.592" stroke="#3842F1" stroke-width="2" stroke-miterlimit="1.5" stroke-linecap="round" stroke-linejoin="round"/>
<path d="M75.2852 226.177L75.2852 199.582L153.72 184.754H156.846L156.913 186.974" stroke="#3842F1" stroke-width="2" stroke-miterlimit="1.5" stroke-linecap="round" stroke-linejoin="round"/>
<path d="M271.436 266.381L200.773 195.719" stroke="#3842F1" stroke-width="2" stroke-miterlimit="1.5" stroke-linecap="round" stroke-linejoin="round"/>
<path d="M166.661 161.606L48.4844 183.536" stroke="#3842F1" stroke-width="2" stroke-miterlimit="1.5" stroke-linecap="round" stroke-linejoin="round"/>
<path d="M166.656 161.606V168.916" stroke="#3842F1" stroke-width="2" stroke-miterlimit="1.5" stroke-linecap="round" stroke-linejoin="round"/>
<path d="M275.087 268.818L201.988 195.719" stroke="#3842F1" stroke-width="2" stroke-miterlimit="1.5" stroke-linecap="round" stroke-linejoin="round"/>
<path d="M186.149 181.1L166.656 161.606" stroke="#3842F1" stroke-width="2" stroke-miterlimit="1.5" stroke-linecap="round" stroke-linejoin="round"/>
<path d="M274.98 276.879L275.09 268.816L144.455 316.331L44.8281 187.189" stroke="#3842F1" stroke-width="2" stroke-miterlimit="1.5" stroke-linecap="round" stroke-linejoin="round"/>
<path fill-rule="evenodd" clip-rule="evenodd" d="M41.1719 190.846L46.0455 293.336L144.726 358.974L276.04 304.456L277.526 277.501L144.662 327.633L41.1719 190.846V190.846Z" stroke="#3842F1" stroke-width="2" stroke-miterlimit="1.5" stroke-linecap="round" stroke-linejoin="round"/>
<path d="M161.782 161.556L148.978 149.423L64.3164 161.606" stroke="#3842F1" stroke-width="2" stroke-miterlimit="1.5" stroke-linecap="round" stroke-linejoin="round"/>
<path d="M40.5448 190.846L22.8945 168.332L50.5165 12.9717L125.233 78.8036" stroke="#3842F1" stroke-width="2" stroke-miterlimit="1.5" stroke-linecap="round" stroke-linejoin="round"/>
<path d="M212.954 268.064C204.825 280.254 182.295 282.217 169.197 282.22C153.742 282.224 138.951 278.94 124.621 272.343C121.489 270.901 112.161 264.44 110.67 261.661C109.098 258.732 106.222 248.937 105.49 244.734C104.218 237.444 104.105 227.209 105.732 221.112C107.57 214.219 109.102 210.96 113.257 205.119C117.81 198.719 124.59 194.518 131.978 192.064" stroke="#3842F1" stroke-width="2" stroke-miterlimit="1.5" stroke-linecap="round" stroke-linejoin="round"/>
</g>
<defs>
<clipPath id="clip0_3507_7293">
<rect width="296" height="371" fill="white"/>
</clipPath>
</defs>
</svg>
