<svg width="296" height="371" viewBox="0 0 296 371" fill="none" xmlns="http://www.w3.org/2000/svg">
<path d="M174.778 153.727C169.134 150.169 165.269 147.224 159.441 143.942" stroke="#3842F1" stroke-width="2" stroke-linecap="round" stroke-linejoin="round"/>
<path d="M198.525 168.573C198.739 167.174 198.567 165.742 198.026 164.434C197.485 163.126 196.597 161.99 195.457 161.15C193.279 159.647 182.329 153.39 181.286 153.022C175.367 150.906 161.472 161.242 156.165 167.53C150.859 173.818 150.522 183.235 153.098 187.805C154.448 190.289 162.116 195.044 167.453 198.663C168.096 199.104 168.822 199.408 169.587 199.556C170.353 199.703 171.14 199.692 171.901 199.522" stroke="#3842F1" stroke-width="2" stroke-linecap="round" stroke-linejoin="round"/>
<path d="M180.42 175.199C180.067 175.002 179.683 174.867 179.285 174.8" stroke="#3842F1" stroke-width="2" stroke-linecap="round" stroke-linejoin="round"/>
<path d="M195.669 167.286C194.412 166.89 193.063 166.89 191.805 167.286" stroke="#3842F1" stroke-width="2" stroke-linecap="round" stroke-linejoin="round"/>
<path d="M193.033 169.065C192.358 168.145 191.346 167.286 191.837 166.458" stroke="#3842F1" stroke-width="2" stroke-linecap="round" stroke-linejoin="round"/>
<path d="M193.024 169.063C192.17 169.183 191.341 169.442 190.571 169.83C188.393 170.812 182.197 174.799 182.074 176.425" stroke="#3842F1" stroke-width="2" stroke-linecap="round" stroke-linejoin="round"/>
<path d="M195.669 167.284C195.945 166.946 197.111 165.351 196.743 165.136C194.166 163.848 190.424 165.811 188.338 166.946C184.783 168.912 181.451 171.257 178.4 173.94C174.107 177.251 170.832 181.705 168.953 186.791C168.953 186.975 169.628 187.221 169.781 186.791C173.922 177.59 179.781 174.737 180.271 174.921C180.968 175.301 181.608 175.776 182.173 176.332" stroke="#3842F1" stroke-width="2" stroke-linecap="round" stroke-linejoin="round"/>
<path d="M227.965 204.122C219.868 197.988 214.96 196.117 201.341 190.473C194.133 186.993 187.617 182.233 182.109 176.425" stroke="#3842F1" stroke-width="2" stroke-linecap="round" stroke-linejoin="round"/>
<path d="M233.125 200.103C227.04 195.371 220.635 191.067 213.955 187.221C205.89 182.54 198.799 176.355 193.066 169.001" stroke="#3842F1" stroke-width="2" stroke-linecap="round" stroke-linejoin="round"/>
<path d="M229.312 206.67C229.39 206.212 229.326 205.741 229.128 205.321C228.8 204.896 228.43 204.505 228.023 204.155" stroke="#3842F1" stroke-width="2" stroke-linecap="round" stroke-linejoin="round"/>
<path d="M233.054 200.075C231.118 201.04 229.405 202.398 228.023 204.063" stroke="#3842F1" stroke-width="2" stroke-linecap="round" stroke-linejoin="round"/>
<path d="M235.755 201.485C234.767 201.27 233.856 200.794 233.117 200.104" stroke="#3842F1" stroke-width="2" stroke-linecap="round" stroke-linejoin="round"/>
<path d="M243.52 224.794C242.568 225.373 241.486 225.707 240.373 225.766C239.26 225.824 238.149 225.607 237.141 225.131" stroke="#3842F1" stroke-width="2" stroke-linecap="round" stroke-linejoin="round"/>
<path d="M278.235 223.11C281.64 222.926 279.677 218.295 279.278 216.393C278.176 209.831 275.607 203.603 271.763 198.173C270.284 196.177 268.54 194.392 266.579 192.867C261.856 188.634 252.899 186.732 246.98 184.616C238.452 181.549 230.048 177.837 221.215 175.414C216.644 174.218 211.737 173.88 207.258 172.347C203.271 170.967 199.59 168.727 195.664 167.163" stroke="#3842F1" stroke-width="2" stroke-linecap="round" stroke-linejoin="round"/>
<path d="M265.661 208.724C264.482 206.22 262.813 203.978 260.753 202.13C258.773 200.916 256.637 199.977 254.404 199.338C252.533 198.664 250.785 197.682 248.883 197.13" stroke="#3842F1" stroke-width="2" stroke-linecap="round" stroke-linejoin="round"/>
<path d="M284.217 244.765C285.843 244.612 287.837 243.416 287.284 242.066C286.203 238.83 284.943 235.655 283.512 232.558C282.5 230.319 278.328 223.356 277.377 222.098C273.28 216.09 268.236 210.786 262.44 206.394C258.36 203.327 254.189 200.903 250.17 198.143C248.668 197.161 247.103 196.119 245.754 195.076C238.975 189.831 237.625 185.383 228.301 183.267" stroke="#3842F1" stroke-width="2" stroke-linecap="round" stroke-linejoin="round"/>
<path d="M248.704 210.255C251.676 211.974 254.516 213.912 257.201 216.052C266.526 223.365 274.785 231.944 281.739 241.541C282.322 242.369 283.886 244.424 284.561 245.191C286.217 247.216 293.425 255.313 284.959 255.743C277.567 256.111 273.488 249.761 268.396 245.437C263.304 241.112 257.998 236.48 252.324 231.971C248.275 228.751 243.735 223.782 238.797 221.972" stroke="#3842F1" stroke-width="2" stroke-linecap="round" stroke-linejoin="round"/>
<path d="M227.288 217.222C233.304 221.715 239.05 226.559 244.495 231.73C248.145 235.625 253.267 242.772 256.764 246.821C260.581 250.996 264.02 255.502 267.04 260.286C267.745 261.452 269.217 265.409 268.052 266.697C266.886 267.985 264.524 267.617 263.113 267.586C258.574 267.586 252.163 262.004 249.28 258.783C246.397 255.563 242.256 251.974 238.821 248.569C226.551 236.576 211.767 225.258 193.793 221.731" stroke="#3842F1" stroke-width="2" stroke-linecap="round" stroke-linejoin="round"/>
<path d="M229.355 206.577C229.175 207.419 228.886 208.233 228.496 209C227.615 210.673 227.043 212.492 226.809 214.368C226.64 215.347 226.813 216.354 227.3 217.221" stroke="#3842F1" stroke-width="2" stroke-linecap="round" stroke-linejoin="round"/>
<path d="M235.601 201.517C234.744 202.054 233.925 202.648 233.147 203.296C231.817 204.315 230.547 205.411 229.344 206.578" stroke="#3842F1" stroke-width="2" stroke-linecap="round" stroke-linejoin="round"/>
<path d="M204.402 224.829C203.413 225.225 202.492 225.773 201.673 226.454C198.176 229.767 199.924 234.276 201.305 238.11C202.225 240.717 203.758 243.171 204.372 245.809C205.022 247.9 205.23 250.103 204.982 252.279C204.734 254.455 204.035 256.555 202.93 258.446C202.085 259.504 201.044 260.39 199.863 261.053C196.09 261.666 194.955 258.17 193.882 255.103C193.164 253.365 192.281 251.701 191.244 250.133C187.686 245.993 185.109 236.638 184.465 235.257C182.484 231.667 181.087 227.784 180.324 223.755C179.128 218.081 181.244 212.283 179.097 206.64C177.33 203.394 174.567 200.803 171.215 199.247C170.702 198.935 170.219 198.575 169.773 198.174C167.779 196.548 167.779 190.414 169.62 186.917" stroke="#3842F1" stroke-width="2" stroke-linecap="round" stroke-linejoin="round"/>
<path d="M250.627 211.392C250.542 210.536 250.241 209.716 249.753 209.008C249.265 208.3 248.605 207.727 247.836 207.343C245.259 205.639 242.563 204.121 239.769 202.803C238.554 202.087 237.209 201.618 235.812 201.423" stroke="#3842F1" stroke-width="2" stroke-linecap="round" stroke-linejoin="round"/>
<path d="M248.759 210.319C247.884 209.854 246.885 209.678 245.905 209.816C244.924 209.954 244.012 210.398 243.299 211.086C240.693 213.488 239.056 216.761 238.698 220.288C238.521 220.946 238.495 221.635 238.623 222.305C238.75 222.974 239.028 223.606 239.434 224.152" stroke="#3842F1" stroke-width="2" stroke-linecap="round" stroke-linejoin="round"/>
<path d="M121.222 141.123C123.523 137.288 123.737 138.362 126.713 140.202L137.141 146.674C140.209 148.515 140.546 148.607 138.828 151.337C137.786 152.962 134.78 157.287 134.135 158.238C133.185 159.772 130.179 157.195 129.074 157.256C127.97 157.318 126.007 159.22 124.872 158.606C121.805 156.796 121.13 156.214 117.879 154.097" stroke="#3842F1" stroke-width="2" stroke-linecap="round" stroke-linejoin="round"/>
<path d="M139.876 149.067C139.823 149.854 139.699 150.634 139.508 151.398C139.285 151.867 139.029 152.318 138.741 152.748C137.698 154.374 135.121 158.392 134.416 159.281C133.158 160.907 130.398 157.993 128.895 158.3C128.067 158.484 125.828 160.232 124.723 159.588C122.079 158.077 119.529 156.408 117.086 154.588" stroke="#3842F1" stroke-width="2" stroke-linecap="round" stroke-linejoin="round"/>
<path d="M98.9286 140.906C96.3214 138.575 93.4996 136.581 91.1071 134.005C90.0336 132.87 89.8802 130.938 88.5613 129.956C87.0931 129.204 85.4845 128.765 83.8377 128.668C81.5746 128.157 79.4694 127.105 77.7031 125.601" stroke="#3842F1" stroke-width="2" stroke-linecap="round" stroke-linejoin="round"/>
<path d="M90.1827 132.778C88.1746 135.209 86.7384 138.061 85.9805 141.121" stroke="#3842F1" stroke-width="2" stroke-linecap="round" stroke-linejoin="round"/>
<path d="M88.6585 129.988C88.4717 128.705 88.5581 127.396 88.9123 126.149C89.2665 124.901 89.8803 123.743 90.7136 122.749" stroke="#3842F1" stroke-width="2" stroke-linecap="round" stroke-linejoin="round"/>
<path d="M90.1207 132.256C90.0055 131.044 90.1482 129.822 90.5394 128.67C90.9307 127.517 91.5616 126.46 92.3906 125.569" stroke="#3842F1" stroke-width="2" stroke-linecap="round" stroke-linejoin="round"/>
<path d="M115.213 138.391C113.005 133.33 109.079 130.539 106.011 126.122C102.944 121.705 104.447 117.932 95.6131 113.454C92.5459 111.92 87.2088 111.859 83.5894 110.387C76.9994 108.007 70.2941 105.959 63.4988 104.252C53.3767 101.921 50.8002 102.197 45.0951 110.785C39.7513 119.65 35.0267 128.874 30.955 138.391C23.5935 160.659 20.0115 158.767 9 166.067" stroke="#3842F1" stroke-width="2" stroke-linecap="round" stroke-linejoin="round"/>
<path d="M76.293 116.921C78.0413 119.221 77.8879 123.055 77.5199 128.208C77.2745 131.276 77.2744 134.558 77.2744 137.594" stroke="#3842F1" stroke-width="2" stroke-linecap="round" stroke-linejoin="round"/>
<path d="M67.1161 127.87C71.1036 138.207 91.6543 144.801 97.7889 141.458C102.635 138.851 114.874 137.011 118.708 139.28C120.068 140.15 121.139 141.405 121.784 142.885C122.429 144.365 122.618 146.004 122.327 147.593C121.714 154.586 104.844 160.721 101.071 161.181C87.1454 162.96 83.618 171.211 74.1095 178.879C71.7784 180.75 69.3552 184.829 63.6501 185.658C58.3988 186.68 53.3114 188.414 48.5284 190.811C37.2715 196.209 34.1122 200.442 19.9414 208.202" stroke="#3842F1" stroke-width="2" stroke-linecap="round" stroke-linejoin="round"/>
<path d="M152.177 186.363C146.441 182.621 139.141 178.48 133.129 174.677" stroke="#3842F1" stroke-width="2" stroke-linecap="round" stroke-linejoin="round"/>
</svg>
