<svg width="296" height="371" viewBox="0 0 296 371" fill="none" xmlns="http://www.w3.org/2000/svg">
<path d="M206.418 278.697V282.416" stroke="#3842F1" stroke-width="1.6574" stroke-miterlimit="1.5" stroke-linecap="round" stroke-linejoin="round"/>
<path d="M197.739 237.793C197.72 237.775 198.6 238.671 198.978 239.033" stroke="#3842F1" stroke-width="1.6574" stroke-miterlimit="1.5" stroke-linecap="round" stroke-linejoin="round"/>
<path d="M202.789 247.708C202.192 247.161 204.901 245.729 205.182 246.944" stroke="#3842F1" stroke-width="1.6574" stroke-miterlimit="1.5" stroke-linecap="round" stroke-linejoin="round"/>
<path d="M205.269 237.79C204.672 236.696 207.382 233.831 207.663 236.262" stroke="#3842F1" stroke-width="1.6574" stroke-miterlimit="1.5" stroke-linecap="round" stroke-linejoin="round"/>
<path d="M207.574 236.552C208.172 237.646 205.462 240.51 205.181 238.08" stroke="#3842F1" stroke-width="1.6574" stroke-miterlimit="1.5" stroke-linecap="round" stroke-linejoin="round"/>
<path d="M211.375 216.717L253.521 260.103" stroke="#3842F1" stroke-width="1.6574" stroke-miterlimit="1.5" stroke-linecap="round" stroke-linejoin="round"/>
<path d="M270.876 267.54L211.375 242.748" stroke="#3842F1" stroke-width="1.6574" stroke-miterlimit="1.5" stroke-linecap="round" stroke-linejoin="round"/>
<path d="M167.996 163.417L269.643 69.207" stroke="#3842F1" stroke-width="2.20986" stroke-miterlimit="1.5" stroke-linecap="round" stroke-linejoin="round"/>
<path d="M146.922 148.541L169.235 76.6445" stroke="#3842F1" stroke-width="2.20986" stroke-miterlimit="1.5" stroke-linecap="round" stroke-linejoin="round"/>
<path d="M44.0352 189.444L164.167 168.371L181.631 185.831" stroke="#3842F1" stroke-width="1.6574" stroke-miterlimit="1.5" stroke-linecap="round" stroke-linejoin="round"/>
<path d="M177.914 182.008L187.831 193.164" stroke="#3842F1" stroke-width="1.6574" stroke-miterlimit="1.5" stroke-linecap="round" stroke-linejoin="round"/>
<path d="M164.274 160.936L42.793 180.769" stroke="#3842F1" stroke-width="2.20986" stroke-miterlimit="1.5" stroke-linecap="round" stroke-linejoin="round"/>
<path d="M164.281 160.936V168.373" stroke="#3842F1" stroke-width="2.20986" stroke-miterlimit="1.5" stroke-linecap="round" stroke-linejoin="round"/>
<path d="M164.281 169.613V206.801" stroke="#3842F1" stroke-width="1.6574" stroke-miterlimit="1.5" stroke-linecap="round" stroke-linejoin="round"/>
<path d="M275.845 268.781L164.281 160.936" stroke="#3842F1" stroke-width="1.6574" stroke-miterlimit="1.5" stroke-linecap="round" stroke-linejoin="round"/>
<path d="M159.318 160.885L146.127 148.541L58.9102 160.937" stroke="#3842F1" stroke-width="2.20986" stroke-miterlimit="1.5" stroke-linecap="round" stroke-linejoin="round"/>
<path d="M122.127 76.6445L35.3555 189.448" stroke="#3842F1" stroke-width="1.6574" stroke-miterlimit="1.5" stroke-linecap="round" stroke-linejoin="round"/>
<path d="M35.9585 189.446L18 166.852L46.1042 10.9434L122.126 77.0077" stroke="#3842F1" stroke-width="1.6574" stroke-miterlimit="1.5" stroke-linecap="round" stroke-linejoin="round"/>
<path d="M269.636 67.965L188.354 14.1498L46.5078 10.9434" stroke="#3842F1" stroke-width="2.20986" stroke-miterlimit="1.5" stroke-linecap="round" stroke-linejoin="round"/>
<path d="M269.645 69.207L122.133 76.6446" stroke="#3842F1" stroke-width="2.20986" stroke-miterlimit="1.5" stroke-linecap="round" stroke-linejoin="round"/>
<path d="M187.832 283.654V288.613" stroke="#3842F1" stroke-width="1.6574" stroke-miterlimit="1.5" stroke-linecap="round" stroke-linejoin="round"/>
<path d="M181.629 281.178V283.657" stroke="#3842F1" stroke-width="1.6574" stroke-miterlimit="1.5" stroke-linecap="round" stroke-linejoin="round"/>
<path d="M174.195 278.697V282.416" stroke="#3842F1" stroke-width="1.6574" stroke-miterlimit="1.5" stroke-linecap="round" stroke-linejoin="round"/>
<path d="M170.469 206.799C172.837 206.931 175.452 207.693 177.476 208.847C185.473 213.406 188.297 218.944 192.782 226.632" stroke="#3842F1" stroke-width="1.6574" stroke-miterlimit="1.5" stroke-linecap="round" stroke-linejoin="round"/>
<path d="M165.548 210.932C164.938 204.663 173.152 204.885 176.858 206.604C185.83 210.769 190.422 219.712 192.787 226.636" stroke="#3842F1" stroke-width="1.6574" stroke-miterlimit="1.5" stroke-linecap="round" stroke-linejoin="round"/>
<path d="M164.317 211.492C164.101 209.364 164.892 206.368 165.822 205.03C169.711 199.433 184.966 193.232 186.555 193.17C188.41 193.098 191.194 194.062 193.482 194.853C195.099 195.412 198.753 197.59 199.808 198.926C201.005 200.439 205.36 204.53 207.138 206.957C208.593 208.942 210.983 213.702 211.386 217.958" stroke="#3842F1" stroke-width="1.6574" stroke-miterlimit="1.5" stroke-linecap="round" stroke-linejoin="round"/>
<path d="M184.109 248.606C187.394 250.251 189.894 251.713 193.621 251.379C196.884 251.087 200.753 249.076 203.772 247.592C206.429 246.285 210.071 244.188 211.762 241.839C213.111 239.965 213.511 236.414 213.675 234.184C214.042 229.19 214.053 223.141 211.876 219.197" stroke="#3842F1" stroke-width="1.6574" stroke-miterlimit="1.5" stroke-linecap="round" stroke-linejoin="round"/>
<path d="M141.965 248.945C141.965 250.188 141.965 251.422 141.965 252.664" stroke="#3842F1" stroke-width="1.6574" stroke-miterlimit="1.5" stroke-linecap="round" stroke-linejoin="round"/>
<path d="M135.762 256.383C135.974 255.23 138.704 251.118 141.96 248.945" stroke="#3842F1" stroke-width="1.6574" stroke-miterlimit="1.5" stroke-linecap="round" stroke-linejoin="round"/>
<path fill-rule="evenodd" clip-rule="evenodd" d="M144.557 250.188C144.039 250.181 142.155 250.258 141.983 249.518C141.842 248.909 142.536 248.453 142.895 248.22C144.048 247.471 145.176 246.714 146.543 246.508C147.797 246.319 148.771 246.81 147.71 247.96C147.378 248.319 145.159 249.87 144.557 250.188V250.188Z" stroke="#3842F1" stroke-width="1.6574" stroke-miterlimit="1.5" stroke-linecap="round" stroke-linejoin="round"/>
<path d="M153.116 269.249C152.421 269.677 151.578 269.941 150.836 270.249C148.196 271.347 138.126 273.273 135.762 265.064" stroke="#3842F1" stroke-width="1.6574" stroke-miterlimit="1.5" stroke-linecap="round" stroke-linejoin="round"/>
<path d="M149.398 267.541C150.206 267.972 150.989 268.409 151.878 268.781" stroke="#3842F1" stroke-width="1.6574" stroke-miterlimit="1.5" stroke-linecap="round" stroke-linejoin="round"/>
<path d="M149.398 267.541C150.249 268.317 150.939 269.381 151.878 270.02" stroke="#3842F1" stroke-width="1.6574" stroke-miterlimit="1.5" stroke-linecap="round" stroke-linejoin="round"/>
<path d="M143.316 250.188C143.275 250.857 143.114 252.775 143.27 252.821C150.66 254.992 152.092 262.599 149.341 267.542" stroke="#3842F1" stroke-width="1.6574" stroke-miterlimit="1.5" stroke-linecap="round" stroke-linejoin="round"/>
<path d="M143.562 252.668C143.016 252.888 142.308 252.778 141.731 252.915C139.38 253.472 136.35 255.071 135.193 257.338C134.179 259.323 134.112 262.337 136.444 265.825C138.756 269.284 145.62 270.107 149.399 266.135" stroke="#3842F1" stroke-width="1.6574" stroke-miterlimit="1.5" stroke-linecap="round" stroke-linejoin="round"/>
<path d="M143.203 250.191C152.872 249.944 156.101 262.064 153.491 267.542" stroke="#3842F1" stroke-width="1.6574" stroke-miterlimit="1.5" stroke-linecap="round" stroke-linejoin="round"/>
<path d="M156.588 266.301C155.537 266.466 154.49 266.808 153.503 267.095C153.033 267.232 152.403 267.297 152.053 267.57C151.702 267.844 151.932 268.839 152.298 268.777C153.744 268.533 155.542 268.111 156.058 267.811C156.438 267.589 157.349 266.535 156.461 266.375" stroke="#3842F1" stroke-width="1.6574" stroke-miterlimit="1.5" stroke-linecap="round" stroke-linejoin="round"/>
<path d="M155.594 267.542C156.721 267.514 158.28 267.47 159.33 267.149C163.731 265.804 168.048 263.608 171.709 261.344" stroke="#3842F1" stroke-width="1.6574" stroke-miterlimit="1.5" stroke-linecap="round" stroke-linejoin="round"/>
<path d="M154.355 251.425C160.57 247.751 166.068 243.398 170.294 237.553C171.504 235.88 172.515 234.046 173.622 232.308C176.52 227.755 180.395 218.062 185.345 215.477" stroke="#3842F1" stroke-width="1.6574" stroke-miterlimit="1.5" stroke-linecap="round" stroke-linejoin="round"/>
<path d="M146.922 247.707C147.705 247.761 151.318 247.921 154.054 250.909C156.094 253.138 157.6 255.602 158.011 258.867C158.294 261.105 157.661 263.948 156.517 266.301" stroke="#3842F1" stroke-width="1.6574" stroke-miterlimit="1.5" stroke-linecap="round" stroke-linejoin="round"/>
<path d="M158.074 258.865C165.756 255.115 174.237 245.106 178.077 237.27C180.806 231.7 184.301 221.861 189.064 220.438" stroke="#3842F1" stroke-width="1.6574" stroke-miterlimit="1.5" stroke-linecap="round" stroke-linejoin="round"/>
<path d="M103.535 224.155C106.459 224.121 113.106 220.683 116.248 219.671C122.162 217.765 128.934 218.004 135.036 218.231C141.113 218.456 147.167 219.254 153.276 219.453C159.193 219.646 163.373 220.098 168.511 218.231C171.618 217.102 177.531 212.211 180.39 210.52" stroke="#3842F1" stroke-width="1.6574" stroke-miterlimit="1.5" stroke-linecap="round" stroke-linejoin="round"/>
<path d="M99.8125 217.955C103.494 216.663 107.454 214.923 111.31 213.938C115.602 212.841 120.324 212.52 124.734 212.647C132.185 212.862 139.274 213.82 146.721 214.066C151.552 214.225 156.452 214.711 161.143 213.147C164.558 212.009 167.58 208.411 170.47 206.799" stroke="#3842F1" stroke-width="1.6574" stroke-miterlimit="1.5" stroke-linecap="round" stroke-linejoin="round"/>
<path d="M175.426 267.542C177.909 266.499 179.797 264.304 178.931 262.372C178.724 261.909 178.234 261.412 177.813 261.344" stroke="#3842F1" stroke-width="1.6574" stroke-miterlimit="1.5" stroke-linecap="round" stroke-linejoin="round"/>
<path d="M178.165 266.299C177.648 263.765 177.921 257.443 179.059 255.042C180.51 251.98 183.381 249.281 185.909 247.089C190.297 243.285 194.424 240.151 198.987 236.549" stroke="#3842F1" stroke-width="1.6574" stroke-miterlimit="1.5" stroke-linecap="round" stroke-linejoin="round"/>
<path d="M121.131 261.354C119.965 261.221 119.554 262.384 119.666 263.001C120.131 265.571 127.411 269.693 131.237 270.94C143.226 274.848 153.25 274.174 161.795 271.904" stroke="#3842F1" stroke-width="1.6574" stroke-miterlimit="1.5" stroke-linecap="round" stroke-linejoin="round"/>
<path d="M75.0234 200.603L153.738 186.348" stroke="#3842F1" stroke-width="1.6574" stroke-miterlimit="1.5" stroke-linecap="round" stroke-linejoin="round"/>
<path d="M71.6693 221.676L71.3086 199.089L151.114 184.488H154.294L154.362 213.884" stroke="#3842F1" stroke-width="1.6574" stroke-miterlimit="1.5" stroke-linecap="round" stroke-linejoin="round"/>
<path d="M143.23 315.885C142.915 311.812 145.396 310.893 148.232 309.962C159.569 306.239 261.693 270.437 269.703 267.581C270.701 267.225 270.971 269.327 270.858 270.296" stroke="#3842F1" stroke-width="1.6574" stroke-miterlimit="1.5" stroke-linecap="round" stroke-linejoin="round"/>
<path d="M275.781 278.698V272.465L275.838 268.324L141.514 317.126L39.0742 184.488" stroke="#3842F1" stroke-width="1.6574" stroke-miterlimit="1.5" stroke-linecap="round" stroke-linejoin="round"/>
<path fill-rule="evenodd" clip-rule="evenodd" d="M36.5938 189.447L41.5521 294.484L141.957 361.752L275.564 305.88L277.076 278.255L141.891 329.632L36.5938 189.447V189.447Z" stroke="#3842F1" stroke-width="1.6574" stroke-miterlimit="1.5" stroke-linecap="round" stroke-linejoin="round"/>
<path d="M211.379 219.197C207.44 221.591 202.658 224.551 198.389 226.259C197.096 226.777 193.576 225.547 193.687 226.554C193.742 227.058 196.542 228.668 197.513 230.916C199.11 234.613 199.37 239.961 197.975 243.904C197.546 245.115 196.044 248.448 191.637 248.899C189.212 249.147 187.442 248.417 185.348 247.389" stroke="#3842F1" stroke-width="1.6574" stroke-miterlimit="1.5" stroke-linecap="round" stroke-linejoin="round"/>
<path d="M182.863 265.064C185.115 266.215 200.897 275.391 206.416 278.7" stroke="#3842F1" stroke-width="1.6574" stroke-miterlimit="1.5" stroke-linecap="round" stroke-linejoin="round"/>
<path d="M183.125 265.064L161.793 270.952L174.218 278.738L181.42 279.861L188.082 283.658L206.419 278.551" stroke="#3842F1" stroke-width="1.6574" stroke-miterlimit="1.5" stroke-linecap="round" stroke-linejoin="round"/>
<path d="M161.793 271.26L161.847 275.385L174.258 283.491L181.45 284.661L188.105 288.614L206.419 283.296" stroke="#3842F1" stroke-width="1.6574" stroke-miterlimit="1.5" stroke-linecap="round" stroke-linejoin="round"/>
<path d="M141.965 317.125V361.751" stroke="#3842F1" stroke-width="2.20986" stroke-miterlimit="1.5" stroke-linecap="round" stroke-linejoin="round"/>
<path d="M101.055 237.82C102.4 237.689 104.552 238.06 105.878 238.278C112.468 239.364 118.147 245.447 119.967 251.608C120.942 254.907 121.002 259.573 120.784 263.825" stroke="#3842F1" stroke-width="1.6574" stroke-miterlimit="1.5" stroke-linecap="round" stroke-linejoin="round"/>
<path d="M92.3828 250.185L115.935 245.227" stroke="#3842F1" stroke-width="1.6574" stroke-miterlimit="1.5" stroke-linecap="round" stroke-linejoin="round"/>
<path d="M79.9883 226.049C80.3559 226.505 81.0564 227.683 81.4737 228.109C81.5481 228.185 81.9671 228.731 82.1289 228.64C82.4336 228.468 82.5842 227.735 82.7089 227.475C83.2595 226.328 84.0948 224.955 85.7721 225.53C85.9762 225.6 86.2141 225.674 86.3863 225.8C87.4259 225.53 86.8061 226.014 88.6655 227.254C88.7676 228.121 89.1189 228.251 89.2853 229.113M89.2853 228.64C90.5249 232.212 91.1447 238.41 89.0498 238.904C88.537 239.338 85.739 238.663 84.1171 236.694C82.3772 234.582 82.1889 232.617 82.1817 230.207C82.1788 229.286 82.3531 228.252 82.7567 227.376" stroke="#3842F1" stroke-width="1.6574" stroke-miterlimit="1.5" stroke-linecap="round" stroke-linejoin="round"/>
<path d="M82.4675 220.438C81.7038 220.76 80.1845 222.128 79.9883 225.396" stroke="#3842F1" stroke-width="2.20986" stroke-miterlimit="1.5" stroke-linecap="round" stroke-linejoin="round"/>
<path d="M87.418 225.395C89.5766 225.839 89.9913 228.01 89.881 229.113" stroke="#3842F1" stroke-width="1.6574" stroke-miterlimit="1.5" stroke-linecap="round" stroke-linejoin="round"/>
<path d="M98.2471 219.019C97.4331 218.557 96.3307 218.247 95.4082 218.071C93.916 217.787 92.227 218.09 90.7622 218.362C89.2496 218.644 87.6988 218.947 86.1996 219.296C85.0637 219.561 84.0488 219.765 82.9655 220.231C82.7181 220.337 81.9716 220.8 82.955 221.713C83.5502 222.264 86.9243 225.165 88.292 225.377C89.4295 225.554 94.3844 224.34 95.9989 224.1C96.9329 223.962 100.083 222.7 100.986 221.826C101.359 221.465 96.0965 217.337 100.083 220.578" stroke="#3842F1" stroke-width="1.6574" stroke-miterlimit="1.5" stroke-linecap="round" stroke-linejoin="round"/>
<path d="M103.535 224.156C103.535 224.927 103.535 225.866 103.535 226.635" stroke="#3842F1" stroke-width="1.6574" stroke-miterlimit="1.5" stroke-linecap="round" stroke-linejoin="round"/>
<path d="M89.4408 228.668C91.0548 228.393 102.672 226.329 103.285 226.676C103.75 226.939 103.432 228.871 103.379 229.249C103.14 230.989 101.587 237.107 100.816 238.118C99.5844 239.734 97.4082 240.139 95.5917 240.626C94.0226 241.048 92.1594 241.328 90.5461 241.484C89.3916 241.596 87.6832 241.376 86.1797 240.784" stroke="#3842F1" stroke-width="1.6574" stroke-miterlimit="1.5" stroke-linecap="round" stroke-linejoin="round"/>
<path d="M81.2279 235.311C80.2794 232.197 79.8691 228.31 80.0181 225.395" stroke="#3842F1" stroke-width="2.20986" stroke-miterlimit="1.5" stroke-linecap="round" stroke-linejoin="round"/>
<path d="M99.8125 217.957C102.789 221.475 103.665 221.802 103.515 224.155" stroke="#3842F1" stroke-width="1.6574" stroke-miterlimit="1.5" stroke-linecap="round" stroke-linejoin="round"/>
<path d="M75.0274 225.395L74.7525 200.77L71.3086 199.363" stroke="#3842F1" stroke-width="2.20986" stroke-miterlimit="1.5" stroke-linecap="round" stroke-linejoin="round"/>
</svg>
