<svg width="296" height="371" viewBox="0 0 296 371" fill="none" xmlns="http://www.w3.org/2000/svg">
<path d="M113.745 195.692C100.737 192.226 100.817 192.359 94.4875 195.2C85.2247 199.357 22.7699 227.434 13.4272 231.424C2.83677 235.945 1.6716 238.472 13.1212 241.607C22.8804 244.279 173.424 295.308 176.348 296.032C188.517 299.046 189.571 297.376 195.484 293.059C203.131 287.475 254.793 246.281 265.001 238.404C270.133 234.444 265.823 233.775 252.172 229.831" stroke="#3842F1" stroke-width="2.69417" stroke-linecap="round" stroke-linejoin="round"/>
<path d="M163.996 250.74C158.29 249.116 105.88 233.877 105.581 233.8C100.845 232.568 100.721 232.686 98.1191 233.837C94.0717 235.627 66.781 247.718 62.6982 249.436C58.0705 251.383 57.561 252.47 62.5643 253.82C66.829 254.971 131.333 276.248 132.605 276.58C133.983 277.147 135.493 277.328 136.969 277.102C138.444 276.876 139.828 276.253 140.967 275.3C144.454 273.106 165.22 258.117 169.683 254.724C171.925 253.019 169.961 252.439 163.996 250.74Z" stroke="#3842F1" stroke-width="2.69417" stroke-linecap="round" stroke-linejoin="round"/>
<path d="M5 237.044C5 238.371 5.09906 239.764 5.16967 241.647C5.22365 243.082 7.89244 244.35 13.1239 245.767C22.882 248.41 173.408 298.874 176.332 299.59C188.499 302.572 189.553 300.921 195.465 296.651C203.112 291.129 253.627 251.277 263.834 243.487C264.357 243.087 266.031 241.549 266.553 241.024C266.874 239.226 267.055 237.406 267.095 235.581" stroke="#3842F1" stroke-width="2.69417" stroke-linecap="round" stroke-linejoin="round"/>
<path d="M114.576 195.062C102.575 191.966 103.994 187.641 104.49 179.599C105.13 169.232 114.721 92.0417 116.082 79.7617C116.728 73.9279 116.412 68.9724 125.466 70.1838C130.986 70.9228 273.153 87.2698 282.007 88.1969C292.36 89.2804 291.67 93.0102 290.085 103.475C287.968 117.459 277.928 184.397 276.661 192.124C274.41 205.844 272.045 219.774 270.632 226.871C270.39 228.094 270.051 233.4 261.891 231.709C259.479 231.209 256.463 230.509 252.16 229.324" stroke="#3842F1" stroke-width="2.69417" stroke-linecap="round" stroke-linejoin="round"/>
<path d="M189.289 189.602C185.005 188.351 185.549 186.74 185.79 183.727C186.101 179.845 190.303 149.928 190.889 145.332C191.168 143.149 191.091 141.288 194.334 141.81C196.31 142.129 246.579 150.012 249.75 150.426C253.459 150.908 253.182 152.303 252.531 156.215C251.661 161.444 248.145 185.583 247.629 188.471C246.713 193.6 246.401 196.501 245.838 199.152C245.741 199.609 245.578 201.596 242.661 200.901C241.8 200.696 190.824 190.077 189.29 189.601L189.289 189.602Z" stroke="#3842F1" stroke-width="2.69417" stroke-linecap="round" stroke-linejoin="round"/>
<path d="M194.58 134.6C192.867 134.268 192.547 132.181 192.791 129.132C193.106 125.201 195.098 111.068 195.692 106.417C195.975 104.207 195.897 102.323 199.188 102.853C201.194 103.175 252.687 109.422 255.906 109.842C259.671 110.33 259.39 111.743 258.731 115.702C257.849 120.993 256.588 127.841 256.065 130.765C255.137 135.956 254.821 138.893 254.25 141.576C254.152 142.038 253.987 144.05 251.026 143.346C250.15 143.137 196.182 134.909 194.58 134.599V134.6Z" stroke="#3842F1" stroke-width="2.69417" stroke-linecap="round" stroke-linejoin="round"/>
<path d="M129.113 177.957C124.793 176.675 125.341 175.023 125.584 171.935C125.898 167.954 129.611 140.394 130.201 135.683C130.482 133.445 130.405 131.537 133.674 132.072C135.667 132.398 178.349 139.094 181.548 139.519C185.287 140.013 185.008 141.443 184.352 145.454C183.474 150.815 180.55 171.912 180.03 174.873C179.106 180.13 178.792 183.104 178.224 185.823C178.127 186.291 177.962 188.328 175.022 187.616C174.152 187.405 130.662 178.446 129.114 177.957H129.113Z" stroke="#3842F1" stroke-width="2.69417" stroke-linecap="round" stroke-linejoin="round"/>
<path d="M252.926 228.391L115.331 194.851L113.023 196.678L250.819 230.269L252.926 228.392V228.391Z" stroke="#3842F1" stroke-width="2.69417" stroke-linecap="round" stroke-linejoin="round"/>
<path d="M121.536 79.7402L281.263 99.1479L263.671 217.871L109.484 181.588L121.537 79.7402H121.536Z" stroke="#3842F1" stroke-width="2.69417" stroke-linecap="round" stroke-linejoin="round"/>
<path d="M61.668 216.101L93.5444 225.841" stroke="#3842F1" stroke-width="2.69417" stroke-linecap="round" stroke-linejoin="round"/>
<path d="M97.0859 226.727L111.253 231.154" stroke="#3842F1" stroke-width="2.69417" stroke-linecap="round" stroke-linejoin="round"/>
<path d="M114.797 232.038L167.924 247.091" stroke="#3842F1" stroke-width="2.69417" stroke-linecap="round" stroke-linejoin="round"/>
<path d="M170.582 247.092L184.749 252.405" stroke="#3842F1" stroke-width="2.69417" stroke-linecap="round" stroke-linejoin="round"/>
<path d="M187.402 253.291L203.341 257.718" stroke="#3842F1" stroke-width="2.69417" stroke-linecap="round" stroke-linejoin="round"/>
<path d="M206.883 258.603L221.936 263.03" stroke="#3842F1" stroke-width="2.69417" stroke-linecap="round" stroke-linejoin="round"/>
<path d="M92.6602 202.819L107.713 206.361" stroke="#3842F1" stroke-width="2.69417" stroke-linecap="round" stroke-linejoin="round"/>
<path d="M110.367 207.246L123.649 210.788" stroke="#3842F1" stroke-width="2.69417" stroke-linecap="round" stroke-linejoin="round"/>
<path d="M126.305 211.673L140.472 215.215" stroke="#3842F1" stroke-width="2.69417" stroke-linecap="round" stroke-linejoin="round"/>
<path d="M144.02 216.101L158.187 220.528" stroke="#3842F1" stroke-width="2.69417" stroke-linecap="round" stroke-linejoin="round"/>
<path d="M160.84 221.413L175.893 224.955" stroke="#3842F1" stroke-width="2.69417" stroke-linecap="round" stroke-linejoin="round"/>
<path d="M178.547 225.841L194.485 230.268" stroke="#3842F1" stroke-width="2.69417" stroke-linecap="round" stroke-linejoin="round"/>
<path d="M198.027 230.268L211.309 234.695" stroke="#3842F1" stroke-width="2.69417" stroke-linecap="round" stroke-linejoin="round"/>
<path d="M213.965 234.695L229.018 239.123" stroke="#3842F1" stroke-width="2.69417" stroke-linecap="round" stroke-linejoin="round"/>
<path d="M232.562 240.008L246.73 243.55" stroke="#3842F1" stroke-width="2.69417" stroke-linecap="round" stroke-linejoin="round"/>
<path d="M79.3789 209.017L92.6608 212.558" stroke="#3842F1" stroke-width="2.69417" stroke-linecap="round" stroke-linejoin="round"/>
<path d="M96.2031 213.445L110.37 216.987" stroke="#3842F1" stroke-width="2.69417" stroke-linecap="round" stroke-linejoin="round"/>
<path d="M113.91 217.872L127.192 222.299" stroke="#3842F1" stroke-width="2.69417" stroke-linecap="round" stroke-linejoin="round"/>
<path d="M129.848 223.185L144.9 227.612" stroke="#3842F1" stroke-width="2.69417" stroke-linecap="round" stroke-linejoin="round"/>
<path d="M148.445 228.497L162.613 232.039" stroke="#3842F1" stroke-width="2.69417" stroke-linecap="round" stroke-linejoin="round"/>
<path d="M166.152 232.924L182.091 237.351" stroke="#3842F1" stroke-width="2.69417" stroke-linecap="round" stroke-linejoin="round"/>
<path d="M184.746 238.237L200.684 241.779" stroke="#3842F1" stroke-width="2.69417" stroke-linecap="round" stroke-linejoin="round"/>
<path d="M203.344 242.664L217.511 247.091" stroke="#3842F1" stroke-width="2.69417" stroke-linecap="round" stroke-linejoin="round"/>
<path d="M216.625 246.206L236.105 252.404" stroke="#3842F1" stroke-width="2.69417" stroke-linecap="round" stroke-linejoin="round"/>
<path d="M75.8359 209.902L107.712 219.642" stroke="#3842F1" stroke-width="2.69417" stroke-linecap="round" stroke-linejoin="round"/>
<path d="M110.367 220.527L123.649 224.069" stroke="#3842F1" stroke-width="2.69417" stroke-linecap="round" stroke-linejoin="round"/>
<path d="M127.191 224.956L180.319 239.123" stroke="#3842F1" stroke-width="2.69417" stroke-linecap="round" stroke-linejoin="round"/>
<path d="M182.09 240.008L198.028 243.55" stroke="#3842F1" stroke-width="2.69417" stroke-linecap="round" stroke-linejoin="round"/>
<path d="M200.684 244.436L214.851 248.863" stroke="#3842F1" stroke-width="2.69417" stroke-linecap="round" stroke-linejoin="round"/>
<path d="M218.391 249.748L234.329 254.175" stroke="#3842F1" stroke-width="2.69417" stroke-linecap="round" stroke-linejoin="round"/>
<path d="M103.285 198.392L116.567 201.933" stroke="#3842F1" stroke-width="2.69417" stroke-linecap="round" stroke-linejoin="round"/>
<path d="M119.223 202.819L133.39 206.361" stroke="#3842F1" stroke-width="2.69417" stroke-linecap="round" stroke-linejoin="round"/>
<path d="M136.934 206.361L150.215 209.903" stroke="#3842F1" stroke-width="2.69417" stroke-linecap="round" stroke-linejoin="round"/>
<path d="M152.867 210.788L167.92 214.33" stroke="#3842F1" stroke-width="2.69417" stroke-linecap="round" stroke-linejoin="round"/>
<path d="M170.582 215.216L184.749 219.643" stroke="#3842F1" stroke-width="2.69417" stroke-linecap="round" stroke-linejoin="round"/>
<path d="M187.402 220.527L204.226 224.069" stroke="#3842F1" stroke-width="2.69417" stroke-linecap="round" stroke-linejoin="round"/>
<path d="M206.883 224.956L220.165 228.498" stroke="#3842F1" stroke-width="2.69417" stroke-linecap="round" stroke-linejoin="round"/>
<path d="M222.824 229.383L237.877 232.925" stroke="#3842F1" stroke-width="2.69417" stroke-linecap="round" stroke-linejoin="round"/>
<path d="M240.531 233.811L255.584 237.352" stroke="#3842F1" stroke-width="2.69417" stroke-linecap="round" stroke-linejoin="round"/>
<path d="M90.0039 203.705L104.171 207.247" stroke="#3842F1" stroke-width="2.69417" stroke-linecap="round" stroke-linejoin="round"/>
<path d="M106.824 208.132L120.992 211.674" stroke="#3842F1" stroke-width="2.69417" stroke-linecap="round" stroke-linejoin="round"/>
<path d="M123.648 212.559L137.816 216.1" stroke="#3842F1" stroke-width="2.69417" stroke-linecap="round" stroke-linejoin="round"/>
<path d="M140.477 216.986L154.644 222.299" stroke="#3842F1" stroke-width="2.69417" stroke-linecap="round" stroke-linejoin="round"/>
<path d="M158.184 222.299L173.236 226.726" stroke="#3842F1" stroke-width="2.69417" stroke-linecap="round" stroke-linejoin="round"/>
<path d="M175.891 227.611L191.829 231.153" stroke="#3842F1" stroke-width="2.69417" stroke-linecap="round" stroke-linejoin="round"/>
<path d="M194.488 232.038L209.541 236.465" stroke="#3842F1" stroke-width="2.69417" stroke-linecap="round" stroke-linejoin="round"/>
<path d="M212.199 236.467L229.908 241.78" stroke="#3842F1" stroke-width="2.69417" stroke-linecap="round" stroke-linejoin="round"/>
<path d="M229.023 241.778L244.962 245.32" stroke="#3842F1" stroke-width="2.69417" stroke-linecap="round" stroke-linejoin="round"/>
<path d="M61.668 216.101L75.8353 209.902" stroke="#3842F1" stroke-width="2.69417" stroke-linecap="round" stroke-linejoin="round"/>
<path d="M79.3789 209.018L89.1189 203.705" stroke="#3842F1" stroke-width="2.69417" stroke-linecap="round" stroke-linejoin="round"/>
<path d="M92.6602 202.819L102.4 198.392" stroke="#3842F1" stroke-width="2.69417" stroke-linecap="round" stroke-linejoin="round"/>
<path d="M221.938 263.03L234.334 254.176" stroke="#3842F1" stroke-width="2.69417" stroke-linecap="round" stroke-linejoin="round"/>
<path d="M236.105 252.405L244.96 245.321" stroke="#3842F1" stroke-width="2.69417" stroke-linecap="round" stroke-linejoin="round"/>
<path d="M246.727 243.55L255.581 237.352" stroke="#3842F1" stroke-width="2.69417" stroke-linecap="round" stroke-linejoin="round"/>
<path d="M240.532 233.811L232.562 240.009" stroke="#3842F1" stroke-width="2.69417" stroke-linecap="round" stroke-linejoin="round"/>
<path d="M218.396 249.748L206 258.603" stroke="#3842F1" stroke-width="2.69417" stroke-linecap="round" stroke-linejoin="round"/>
<path d="M222.819 229.383L213.965 234.696" stroke="#3842F1" stroke-width="2.69417" stroke-linecap="round" stroke-linejoin="round"/>
<path d="M212.197 236.467L202.457 242.665" stroke="#3842F1" stroke-width="2.69417" stroke-linecap="round" stroke-linejoin="round"/>
<path d="M200.684 244.436L187.402 253.29" stroke="#3842F1" stroke-width="2.69417" stroke-linecap="round" stroke-linejoin="round"/>
<path d="M237.878 232.924L229.023 239.122" stroke="#3842F1" stroke-width="2.69417" stroke-linecap="round" stroke-linejoin="round"/>
<path d="M214.855 248.862L203.344 257.717" stroke="#3842F1" stroke-width="2.69417" stroke-linecap="round" stroke-linejoin="round"/>
<path d="M220.168 228.497L212.199 234.695" stroke="#3842F1" stroke-width="2.69417" stroke-linecap="round" stroke-linejoin="round"/>
<path d="M209.538 236.467L200.684 241.78" stroke="#3842F1" stroke-width="2.69417" stroke-linecap="round" stroke-linejoin="round"/>
<path d="M198.025 243.551L185.629 252.405" stroke="#3842F1" stroke-width="2.69417" stroke-linecap="round" stroke-linejoin="round"/>
<path d="M206.882 224.956L198.027 230.269" stroke="#3842F1" stroke-width="2.69417" stroke-linecap="round" stroke-linejoin="round"/>
<path d="M194.486 232.038L184.746 238.236" stroke="#3842F1" stroke-width="2.69417" stroke-linecap="round" stroke-linejoin="round"/>
<path d="M182.093 240.008L170.582 247.091" stroke="#3842F1" stroke-width="2.69417" stroke-linecap="round" stroke-linejoin="round"/>
<path d="M204.228 224.07L194.488 230.269" stroke="#3842F1" stroke-width="2.69417" stroke-linecap="round" stroke-linejoin="round"/>
<path d="M191.83 231.153L182.09 237.352" stroke="#3842F1" stroke-width="2.69417" stroke-linecap="round" stroke-linejoin="round"/>
<path d="M180.318 239.122L167.922 247.091" stroke="#3842F1" stroke-width="2.69417" stroke-linecap="round" stroke-linejoin="round"/>
<path d="M187.401 220.527L178.547 225.84" stroke="#3842F1" stroke-width="2.69417" stroke-linecap="round" stroke-linejoin="round"/>
<path d="M175.892 227.611L166.152 232.924" stroke="#3842F1" stroke-width="2.69417" stroke-linecap="round" stroke-linejoin="round"/>
<path d="M184.745 219.643L175.891 224.955" stroke="#3842F1" stroke-width="2.69417" stroke-linecap="round" stroke-linejoin="round"/>
<path d="M173.235 226.727L162.609 232.039" stroke="#3842F1" stroke-width="2.69417" stroke-linecap="round" stroke-linejoin="round"/>
<path d="M170.58 215.216L160.84 221.414" stroke="#3842F1" stroke-width="2.69417" stroke-linecap="round" stroke-linejoin="round"/>
<path d="M158.185 222.299L148.445 228.497" stroke="#3842F1" stroke-width="2.69417" stroke-linecap="round" stroke-linejoin="round"/>
<path d="M167.924 214.33L158.184 220.528" stroke="#3842F1" stroke-width="2.69417" stroke-linecap="round" stroke-linejoin="round"/>
<path d="M154.642 222.299L144.902 227.612" stroke="#3842F1" stroke-width="2.69417" stroke-linecap="round" stroke-linejoin="round"/>
<path d="M152.874 210.788L144.02 215.215" stroke="#3842F1" stroke-width="2.69417" stroke-linecap="round" stroke-linejoin="round"/>
<path d="M140.473 216.986L129.848 223.185" stroke="#3842F1" stroke-width="2.69417" stroke-linecap="round" stroke-linejoin="round"/>
<path d="M127.193 224.956L114.797 232.04" stroke="#3842F1" stroke-width="2.69417" stroke-linecap="round" stroke-linejoin="round"/>
<path d="M150.217 209.902L140.477 215.215" stroke="#3842F1" stroke-width="2.69417" stroke-linecap="round" stroke-linejoin="round"/>
<path d="M137.817 216.101L127.191 222.299" stroke="#3842F1" stroke-width="2.69417" stroke-linecap="round" stroke-linejoin="round"/>
<path d="M123.654 224.07L111.258 231.154" stroke="#3842F1" stroke-width="2.69417" stroke-linecap="round" stroke-linejoin="round"/>
<path d="M136.045 206.361L126.305 211.674" stroke="#3842F1" stroke-width="2.69417" stroke-linecap="round" stroke-linejoin="round"/>
<path d="M123.65 212.559L113.91 217.871" stroke="#3842F1" stroke-width="2.69417" stroke-linecap="round" stroke-linejoin="round"/>
<path d="M110.368 220.527L97.0859 226.726" stroke="#3842F1" stroke-width="2.69417" stroke-linecap="round" stroke-linejoin="round"/>
<path d="M116.566 201.933L107.711 206.36" stroke="#3842F1" stroke-width="2.69417" stroke-linecap="round" stroke-linejoin="round"/>
<path d="M104.171 207.246L92.6602 212.559" stroke="#3842F1" stroke-width="2.69417" stroke-linecap="round" stroke-linejoin="round"/>
<path d="M119.222 202.819L110.367 207.247" stroke="#3842F1" stroke-width="2.69417" stroke-linecap="round" stroke-linejoin="round"/>
<path d="M106.829 208.132L96.2031 213.445" stroke="#3842F1" stroke-width="2.69417" stroke-linecap="round" stroke-linejoin="round"/>
<path d="M133.388 206.361L123.648 210.789" stroke="#3842F1" stroke-width="2.69417" stroke-linecap="round" stroke-linejoin="round"/>
<path d="M120.993 211.673L110.367 216.986" stroke="#3842F1" stroke-width="2.69417" stroke-linecap="round" stroke-linejoin="round"/>
<path d="M107.71 219.643L93.543 225.841" stroke="#3842F1" stroke-width="2.69417" stroke-linecap="round" stroke-linejoin="round"/>
<path d="M136.481 138.181C136.398 139.379 136.255 140.558 136.116 141.75C136.086 142.017 136.04 142.823 136.048 142.554C136.079 141.554 136.56 139.281 137.565 138.741C137.749 139.461 137.845 140.199 137.853 140.942C137.856 141.133 137.668 141.542 137.857 141.517C138.559 141.427 138.771 138.83 139.218 140.779C139.274 141.025 139.298 141.276 139.356 141.522C139.396 141.686 139.481 142.122 139.675 142.25C140.052 142.5 140.342 141.409 140.654 141.313C141.25 141.129 141.751 142.087 142.18 141.121C142.316 140.76 142.422 140.388 142.497 140.009C142.537 139.802 142.571 139.173 142.589 139.383C142.643 139.977 142.577 140.578 142.62 141.172C142.638 141.429 142.533 142.056 142.76 141.934C142.888 141.865 142.957 141.517 143.155 141.547C143.566 141.61 143.842 141.987 144.291 142.044C145.037 142.013 145.785 142.035 146.527 142.111C146.937 142.231 147.105 142.549 147.558 142.549" stroke="#3842F1" stroke-width="2.69417" stroke-linecap="round" stroke-linejoin="round"/>
<path d="M135.164 147.921C140.104 148.548 170.952 154.409 175.895 155.005" stroke="#3842F1" stroke-width="2.69417" stroke-linecap="round" stroke-linejoin="round"/>
<path d="M133.391 161.202C138.329 161.829 169.179 167.689 174.122 168.286" stroke="#3842F1" stroke-width="2.69417" stroke-linecap="round" stroke-linejoin="round"/>
<path d="M135.164 154.13C135.426 153.779 135.716 153.478 136.029 153.234C136.168 153.253 135.561 155.777 135.467 156.776" stroke="#3842F1" stroke-width="2.69417" stroke-linecap="round" stroke-linejoin="round"/>
<path d="M137.561 154.282C137.834 154.078 138.459 153.929 138.618 154.712C138.707 155.151 138.406 155.437 138.142 155.55C138.002 155.611 137.553 155.609 137.701 155.618C137.879 155.61 138.056 155.62 138.232 155.651C138.313 155.67 138.389 155.711 138.457 155.773C138.524 155.835 138.581 155.915 138.623 156.008C138.665 156.102 138.692 156.206 138.701 156.314C138.71 156.422 138.702 156.532 138.677 156.636C138.632 156.874 138.539 157.091 138.408 157.264C138.278 157.438 138.115 157.561 137.936 157.62C137.757 157.68 137.569 157.674 137.393 157.603C137.216 157.532 137.058 157.398 136.934 157.216" stroke="#3842F1" stroke-width="2.69417" stroke-linecap="round" stroke-linejoin="round"/>
<path d="M141.359 156.775C141.359 157.67 141.359 158.534 141.359 159.432" stroke="#3842F1" stroke-width="2.69417" stroke-linecap="round" stroke-linejoin="round"/>
<path d="M141.359 156.775C141.645 156.775 141.932 156.775 142.221 156.775C142.549 156.775 143.493 156.775 142.981 156.775C142.519 156.775 141.983 156.775 141.444 156.775" stroke="#3842F1" stroke-width="2.69417" stroke-linecap="round" stroke-linejoin="round"/>
<path d="M143.954 155.005C143.787 155.657 143.57 156.298 143.303 156.926C143.274 156.997 143.04 157.486 143.166 157.563C143.432 157.665 143.731 157.689 144.014 157.629" stroke="#3842F1" stroke-width="2.69417" stroke-linecap="round" stroke-linejoin="round"/>
<path d="M143.129 155.89C143.417 155.89 143.715 155.89 144.014 155.89" stroke="#3842F1" stroke-width="2.69417" stroke-linecap="round" stroke-linejoin="round"/>
<path fill-rule="evenodd" clip-rule="evenodd" d="M136.551 165.642C137.185 165.654 137.799 165.86 138.312 166.232C138.824 166.604 139.21 167.124 139.418 167.721C139.625 168.319 139.644 168.966 139.472 169.574C139.3 170.183 138.946 170.725 138.456 171.126C137.966 171.527 137.365 171.769 136.733 171.819C136.102 171.868 135.47 171.723 134.923 171.404C134.376 171.084 133.941 170.605 133.676 170.03C133.41 169.456 133.328 168.814 133.439 168.192C133.517 167.444 133.888 166.757 134.471 166.279C135.053 165.802 135.801 165.573 136.551 165.642V165.642Z" fill="#3842F1" stroke="#3842F1" stroke-width="2.69417" stroke-linecap="round" stroke-linejoin="round"/>
<path fill-rule="evenodd" clip-rule="evenodd" d="M144.52 167.412C145.153 167.425 145.768 167.631 146.28 168.003C146.793 168.375 147.179 168.894 147.387 169.492C147.594 170.089 147.613 170.736 147.441 171.345C147.269 171.954 146.915 172.495 146.425 172.896C145.935 173.298 145.334 173.539 144.702 173.589C144.07 173.639 143.439 173.494 142.892 173.174C142.345 172.854 141.91 172.375 141.644 171.801C141.379 171.226 141.296 170.585 141.407 169.962C141.486 169.214 141.857 168.527 142.44 168.05C143.022 167.573 143.77 167.344 144.52 167.412V167.412Z" fill="#3842F1" stroke="#3842F1" stroke-width="2.69417" stroke-linecap="round" stroke-linejoin="round"/>
<path fill-rule="evenodd" clip-rule="evenodd" d="M152.037 169.181C152.58 169.192 153.107 169.369 153.546 169.687C153.986 170.006 154.316 170.451 154.494 170.964C154.672 171.476 154.689 172.03 154.541 172.552C154.394 173.074 154.089 173.538 153.67 173.882C153.25 174.226 152.735 174.433 152.193 174.475C151.652 174.518 151.11 174.394 150.642 174.12C150.173 173.846 149.8 173.435 149.572 172.943C149.345 172.45 149.274 171.9 149.369 171.367C149.437 170.725 149.755 170.137 150.254 169.727C150.753 169.318 151.394 169.122 152.037 169.181Z" fill="#3842F1" stroke="#3842F1" stroke-width="2.69417" stroke-linecap="round" stroke-linejoin="round"/>
<path d="M159.575 170.069C160.208 170.081 160.823 170.287 161.335 170.659C161.848 171.031 162.234 171.551 162.441 172.148C162.649 172.746 162.668 173.392 162.496 174.001C162.324 174.61 161.969 175.151 161.479 175.553C160.99 175.954 160.388 176.196 159.757 176.245C159.125 176.295 158.493 176.15 157.947 175.83C157.4 175.511 156.964 175.031 156.699 174.457C156.434 173.883 156.351 173.241 156.462 172.618C156.541 171.87 156.912 171.183 157.494 170.706C158.077 170.229 158.824 170 159.575 170.069V170.069Z" stroke="#3842F1" stroke-width="2.69417" stroke-linecap="round" stroke-linejoin="round"/>
<path d="M168.426 170.954C169.06 170.967 169.674 171.173 170.187 171.545C170.699 171.917 171.085 172.436 171.293 173.034C171.5 173.631 171.519 174.278 171.347 174.887C171.175 175.496 170.821 176.037 170.331 176.438C169.841 176.84 169.24 177.081 168.608 177.131C167.977 177.181 167.345 177.036 166.798 176.716C166.251 176.396 165.816 175.917 165.551 175.343C165.285 174.769 165.203 174.127 165.314 173.504C165.392 172.756 165.763 172.069 166.346 171.592C166.928 171.115 167.676 170.886 168.426 170.954V170.954Z" stroke="#3842F1" stroke-width="2.69417" stroke-linecap="round" stroke-linejoin="round"/>
<path d="M189.176 158.809L189.971 176.782L198.534 151.462L198.84 183.279L206.362 160.145L206.668 174.292L210.888 163.242L211.866 172.41L214.924 165.427L215.475 176.537L220.979 161.721L221.04 186.131L229.846 159.597L229.663 178.784L239.448 156.621L235.778 191.049L245.502 155.346L242.628 193.964L250.272 170.101" stroke="#3842F1" stroke-width="2.69417" stroke-linecap="round" stroke-linejoin="round"/>
</svg>
