<svg width="296" height="371" viewBox="0 0 296 371" fill="none" xmlns="http://www.w3.org/2000/svg">
<path d="M133.246 138.883C136.64 135.854 140.309 133.261 143.404 129.926C144.797 128.425 145.02 125.885 146.707 124.636C148.621 123.666 150.716 123.104 152.859 122.985C155.804 122.279 158.534 120.87 160.815 118.878" stroke="#3842F1" stroke-width="2" stroke-linecap="round" stroke-linejoin="round"/>
<path d="M144.617 128.323C147.228 131.48 149.085 135.189 150.05 139.169" stroke="#3842F1" stroke-width="2" stroke-linecap="round" stroke-linejoin="round"/>
<path d="M146.575 124.696C146.81 123.028 146.696 121.329 146.239 119.708C145.783 118.086 144.996 116.577 143.926 115.275" stroke="#3842F1" stroke-width="2" stroke-linecap="round" stroke-linejoin="round"/>
<path d="M144.682 127.69C144.831 126.116 144.645 124.528 144.136 123.031C143.627 121.534 142.807 120.161 141.73 119.004" stroke="#3842F1" stroke-width="2" stroke-linecap="round" stroke-linejoin="round"/>
<path d="M112.07 135.519C114.954 128.972 119.954 125.351 124.105 119.686C128.192 114.108 126.172 109.052 137.622 103.233C141.58 101.221 148.552 101.141 153.238 99.1918C161.802 96.0894 170.517 93.4218 179.35 91.1995C192.509 88.1625 195.863 88.5174 203.099 99.6764C205.061 102.703 218.459 126.419 221.476 135.558C231.043 164.526 251.816 172.192 266.102 181.695" stroke="#3842F1" stroke-width="2" stroke-linecap="round" stroke-linejoin="round"/>
<path d="M162.68 107.755C160.375 110.736 160.583 115.679 161.088 122.422C161.384 126.377 161.401 130.68 161.37 134.64" stroke="#3842F1" stroke-width="2" stroke-linecap="round" stroke-linejoin="round"/>
<path d="M227.716 256.954C224.315 256.622 220.971 255.855 217.765 254.673C211.68 251.335 207.399 246.049 212.693 236.535C215.593 231.325 219.05 218.429 205.577 215.632C202.174 215.249 198.747 215.115 195.324 215.23C193.731 215.238 180.642 215.641 181.772 197.759" stroke="#3842F1" stroke-width="2" stroke-linecap="round" stroke-linejoin="round"/>
<path d="M227.195 260.102C222.544 259.66 218.026 258.305 213.9 256.116C208.18 252.186 202.753 246.376 208.458 236.498C211.831 230.657 215.947 218.626 199.926 218.434C198.68 218.418 196.53 218.411 193.701 218.331C192.975 218.311 177.478 218.342 178.352 197.176" stroke="#3842F1" stroke-width="2" stroke-linecap="round" stroke-linejoin="round"/>
<path d="M230.371 259.791C230.88 259.539 231.591 259.342 232.093 259.053" stroke="#3842F1" stroke-width="2" stroke-linecap="round" stroke-linejoin="round"/>
<path d="M231.779 263.837C229.95 263.478 229.596 257.075 232.339 255.998" stroke="#3842F1" stroke-width="2" stroke-linecap="round" stroke-linejoin="round"/>
<path d="M232.887 266.581C230.87 267.298 228.548 265.326 227.946 263.61C227.356 262.06 227.211 260.377 227.526 258.749C227.841 257.122 228.604 255.615 229.73 254.397C231.849 252.332 234.91 253.203 235.1 255.076" stroke="#3842F1" stroke-width="2" stroke-linecap="round" stroke-linejoin="round"/>
<path d="M236.334 265.275C235.816 264.8 235.406 264.22 235.133 263.573C234.859 262.926 234.728 262.227 234.748 261.525C234.769 260.823 234.94 260.133 235.251 259.503C235.561 258.873 236.004 258.317 236.549 257.873" stroke="#3842F1" stroke-width="2" stroke-linecap="round" stroke-linejoin="round"/>
<path d="M237.362 268.145C233.706 268.666 231.492 265.826 231.831 260.788C232.186 255.52 237.636 252.696 239.6 256.762" stroke="#3842F1" stroke-width="2" stroke-linecap="round" stroke-linejoin="round"/>
<path d="M242.023 269.928C238.59 270.188 235.58 268.084 236.375 261.884C237.173 255.648 243.342 255.65 244.27 258.186" stroke="#3842F1" stroke-width="2" stroke-linecap="round" stroke-linejoin="round"/>
<path d="M240.697 266.59C238.072 265.954 239.256 260.318 241.104 259.57" stroke="#3842F1" stroke-width="2" stroke-linecap="round" stroke-linejoin="round"/>
<path d="M246.675 271.455C244.774 271.806 239.555 270.85 240.859 263.834C241.583 259.937 244.746 256.849 247.325 258.244C247.576 258.401 247.792 258.608 247.959 258.853C248.126 259.098 248.24 259.374 248.295 259.665" stroke="#3842F1" stroke-width="2" stroke-linecap="round" stroke-linejoin="round"/>
<path d="M245.349 268.221C243.193 268.603 242.826 262.621 245.879 261.05" stroke="#3842F1" stroke-width="2" stroke-linecap="round" stroke-linejoin="round"/>
<path d="M253.81 266.956C253.85 268.316 251.477 270.569 250.173 270.027C248.364 269.275 248.624 266.214 249.095 264.639C249.239 264.155 249.895 262.361 250.721 262.573" stroke="#3842F1" stroke-width="2" stroke-linecap="round" stroke-linejoin="round"/>
<path d="M256.229 269.449C255.707 270.482 254.94 271.372 253.996 272.043C253.053 272.713 251.96 273.143 250.812 273.296C249.145 273.359 244.087 272.073 245.682 264.573C247.328 256.834 253.434 259.392 253.298 262.261" stroke="#3842F1" stroke-width="2" stroke-linecap="round" stroke-linejoin="round"/>
<path d="M252.838 264.588C252.612 266.616 251.615 268.479 250.055 269.793" stroke="#3842F1" stroke-width="2" stroke-linecap="round" stroke-linejoin="round"/>
<path d="M255.961 263.146C257.607 266.083 260.228 268.352 263.369 269.563C272.176 273.956 281.443 277.358 291.001 279.707" stroke="#3842F1" stroke-width="2" stroke-linecap="round" stroke-linejoin="round"/>
<path d="M289.789 282.435C278.32 279.933 267.285 275.742 257.047 269.999C254.947 268.4 252.485 265.958 252.815 263.542C252.888 263.152 253.041 262.782 253.264 262.454C253.487 262.126 253.776 261.848 254.112 261.637C254.448 261.427 254.824 261.288 255.216 261.229C255.608 261.171 256.008 261.195 256.391 261.299C257.843 261.914 258.436 263.605 257.739 265.701" stroke="#3842F1" stroke-width="2" stroke-linecap="round" stroke-linejoin="round"/>
<path d="M174.564 121.944C169.396 135.364 142.709 143.926 134.643 139.599C128.35 136.226 112.454 133.82 107.481 136.788C105.724 137.92 104.345 139.55 103.518 141.469C102.692 143.389 102.455 145.51 102.839 147.565C103.641 156.652 125.539 164.616 130.476 165.242C148.537 167.532 153.146 178.259 165.492 188.213C168.525 190.659 171.659 195.944 179.09 197.02C185.915 198.348 192.526 200.603 198.739 203.723C213.329 210.723 217.465 216.245 235.852 226.304" stroke="#3842F1" stroke-width="2" stroke-linecap="round" stroke-linejoin="round"/>
<path d="M70.457 125.016C70.8601 125.143 75.9101 126.845 77.4 127.312" stroke="#3842F1" stroke-width="2" stroke-linecap="round" stroke-linejoin="round"/>
<path d="M70.457 146.017C70.7297 146.103 72.9571 146.853 74.9421 147.51" stroke="#3842F1" stroke-width="2" stroke-linecap="round" stroke-linejoin="round"/>
<path d="M69.1914 124.758L70.4915 125.192" stroke="#3842F1" stroke-width="2" stroke-linecap="round" stroke-linejoin="round"/>
<path d="M69.1914 145.755C69.5825 145.886 70.0256 146.034 70.4915 146.189" stroke="#3842F1" stroke-width="2" stroke-linecap="round" stroke-linejoin="round"/>
<path d="M72.2109 120.814C72.6136 120.942 77.6642 122.644 79.154 123.111" stroke="#3842F1" stroke-width="2" stroke-linecap="round" stroke-linejoin="round"/>
<path d="M72.2109 141.812C72.4313 141.883 73.8586 142.367 75.5178 142.92" stroke="#3842F1" stroke-width="2" stroke-linecap="round" stroke-linejoin="round"/>
<path d="M69.8242 119.847C70.2765 119.996 71.2509 120.322 72.3567 120.69" stroke="#3842F1" stroke-width="2" stroke-linecap="round" stroke-linejoin="round"/>
<path d="M69.8242 140.847C70.2765 140.996 71.2509 141.322 72.3567 141.69" stroke="#3842F1" stroke-width="2" stroke-linecap="round" stroke-linejoin="round"/>
<path d="M73.217 125.96C73.057 126.3 72.8109 126.592 72.503 126.807C72.1952 127.023 71.8364 127.154 71.4622 127.187C70.0883 127.187 68.9727 125.296 68.9727 122.968C68.9727 120.64 70.0883 118.749 71.4622 118.749C72.4897 118.749 73.3727 119.806 73.7525 121.314" stroke="#3842F1" stroke-width="2" stroke-linecap="round" stroke-linejoin="round"/>
<path d="M73.182 146.933C73.0232 147.28 72.7759 147.578 72.465 147.798C72.1541 148.018 71.7908 148.153 71.4114 148.188C70.0375 148.188 68.9219 146.297 68.9219 143.969C68.9219 141.64 70.0375 139.75 71.4114 139.75C72.4322 139.75 73.3089 140.793 73.6954 142.285" stroke="#3842F1" stroke-width="2" stroke-linecap="round" stroke-linejoin="round"/>
<path d="M72.183 120.829C71.4669 121.224 70.9063 121.851 70.5926 122.607C70.279 123.362 70.2309 124.201 70.4563 124.988" stroke="#3842F1" stroke-width="2" stroke-linecap="round" stroke-linejoin="round"/>
<path d="M72.183 141.83C71.4669 142.226 70.9063 142.852 70.5926 143.608C70.2789 144.363 70.2309 145.203 70.4563 145.989" stroke="#3842F1" stroke-width="2" stroke-linecap="round" stroke-linejoin="round"/>
<path d="M10.6484 99.646C21.7273 98.153 70.767 91.8913 84.3466 89.9766" stroke="#3842F1" stroke-width="2" stroke-linecap="round" stroke-linejoin="round"/>
<path d="M19.8945 104.473C29.494 103.149 71.9856 97.5982 83.7521 95.9014" stroke="#3842F1" stroke-width="2" stroke-linecap="round" stroke-linejoin="round"/>
<path d="M35.3594 117.837C44.9589 116.514 68.6355 113.46 80.4027 111.763" stroke="#3842F1" stroke-width="2" stroke-linecap="round" stroke-linejoin="round"/>
<path d="M35.332 160.126C43.8004 158.455 62.6378 154.989 75.9767 152.378" stroke="#3842F1" stroke-width="2" stroke-linecap="round" stroke-linejoin="round"/>
<path d="M93.7109 165.17C86.0785 166.912 29.0676 178.909 12.7869 183.126C8.68339 184.189 9.02706 179.928 9 178.652" stroke="#3842F1" stroke-width="2" stroke-linecap="round" stroke-linejoin="round"/>
<path d="M91.7242 163.287C85.1249 164.763 35.8287 174.918 21.7512 178.485C18.2022 179.384 18.5005 175.777 18.4766 174.698" stroke="#3842F1" stroke-width="2" stroke-linecap="round" stroke-linejoin="round"/>
<path d="M83.5781 90.0859C86.386 89.6948 88.7969 89.3038 90.706 89.0567C94.3316 88.5873 94.7733 91.1499 94.8193 92.3773" stroke="#3842F1" stroke-width="2" stroke-linecap="round" stroke-linejoin="round"/>
<path d="M83.2695 95.9703C85.6386 95.6326 87.6777 95.3325 89.2828 95.082C93.0317 94.4972 92.7172 96.8424 92.7425 97.5438" stroke="#3842F1" stroke-width="2" stroke-linecap="round" stroke-linejoin="round"/>
<path d="M10.6904 99.6387C10.4481 99.663 10.2133 99.7367 10.0006 99.8553C9.78786 99.9739 9.60166 100.135 9.45349 100.328C9.30533 100.521 9.1984 100.743 9.13919 100.979C9.07998 101.215 9.0698 101.461 9.10927 101.702C9.11946 114.451 9.02565 166.352 9 179.635" stroke="#3842F1" stroke-width="2" stroke-linecap="round" stroke-linejoin="round"/>
<path d="M19.9415 104.467C19.7294 104.492 19.5246 104.56 19.3395 104.666C19.1544 104.773 18.9928 104.916 18.8646 105.087C18.7365 105.258 18.6443 105.453 18.5939 105.66C18.5434 105.868 18.5357 106.083 18.5711 106.294C18.5796 117.597 18.4987 163.605 18.4766 175.382" stroke="#3842F1" stroke-width="2" stroke-linecap="round" stroke-linejoin="round"/>
<path d="M35.3552 117.841C35.3552 131.068 35.3528 148.385 35.332 160.111" stroke="#3842F1" stroke-width="2" stroke-linecap="round" stroke-linejoin="round"/>
<path d="M59.7849 114.628C59.7849 127.856 59.7825 143.614 59.7617 155.34" stroke="#3842F1" stroke-width="2" stroke-linecap="round" stroke-linejoin="round"/>
<path d="M80.4154 111.759C80.4154 114.706 80.4154 118.563 80.4102 121.176" stroke="#3842F1" stroke-width="2" stroke-linecap="round" stroke-linejoin="round"/>
<path d="M93.5625 165.219C94.4638 164.973 94.5291 163.913 94.5288 163.174C94.5288 161.273 94.5288 158.468 94.5288 155.033" stroke="#3842F1" stroke-width="2" stroke-linecap="round" stroke-linejoin="round"/>
<path d="M94.793 119.819C94.8032 108.45 94.8092 102.671 94.8201 92.3857" stroke="#3842F1" stroke-width="2" stroke-linecap="round" stroke-linejoin="round"/>
<path d="M91.6875 163.294C92.6738 163.083 92.7455 162.168 92.7452 161.532C92.7452 160.251 92.7452 158.481 92.7452 156.338" stroke="#3842F1" stroke-width="2" stroke-linecap="round" stroke-linejoin="round"/>
<path d="M92.75 119.01C92.75 109.523 92.75 105.725 92.75 97.333" stroke="#3842F1" stroke-width="2" stroke-linecap="round" stroke-linejoin="round"/>
<path d="M110.012 135.794C103.881 132.008 98.8722 126.653 95.5039 120.283" stroke="#3842F1" stroke-width="2" stroke-linecap="round" stroke-linejoin="round"/>
<path d="M104.483 139.14C100.042 135.218 95.0704 131.942 89.7148 129.408" stroke="#3842F1" stroke-width="2" stroke-linecap="round" stroke-linejoin="round"/>
<path d="M103.006 149.036C97.6158 149.414 92.2683 150.257 87.0234 151.557" stroke="#3842F1" stroke-width="2" stroke-linecap="round" stroke-linejoin="round"/>
<path d="M95.512 120.285C91.6596 118.76 87.7037 117.511 83.6742 116.547C82.5926 118.09 80.324 121.309 79.2294 122.994C78.284 124.326 77.6596 125.859 77.4051 127.473C77.0986 130.236 76.4817 135.394 76.0031 139.652C75.872 140.816 75.7515 141.913 75.6517 142.874C75.4904 144.41 75.0523 147.513 74.8906 149.039C75.7894 151.49 76.9058 153.856 78.2266 156.108C82.1521 157.351 86.2083 158.136 90.3142 158.447C94.0006 154.572 98.901 152.073 104.202 151.365" stroke="#3842F1" stroke-width="2" stroke-linecap="round" stroke-linejoin="round"/>
<path d="M95.3653 120.423C94.2841 121.966 92.0149 125.185 90.9204 126.87C89.975 128.202 89.3505 129.735 89.0959 131.349C88.7058 134.868 88.1574 140.76 87.6865 145.239C87.5252 146.774 87.0892 149.877 86.9258 151.403C87.8246 153.854 88.941 156.22 90.2615 158.472" stroke="#3842F1" stroke-width="2" stroke-linecap="round" stroke-linejoin="round"/>
<path d="M48.2738 130.299C49.6612 130.299 50.7859 128.407 50.7859 126.074C50.7859 123.74 49.6612 121.849 48.2738 121.849C46.8864 121.849 45.7617 123.74 45.7617 126.074C45.7617 128.407 46.8864 130.299 48.2738 130.299Z" stroke="#3842F1" stroke-width="2" stroke-linecap="round" stroke-linejoin="round"/>
<path d="M48.2738 151.418C49.6612 151.418 50.7859 149.526 50.7859 147.193C50.7859 144.859 49.6612 142.968 48.2738 142.968C46.8864 142.968 45.7617 144.859 45.7617 147.193C45.7617 149.526 46.8864 151.418 48.2738 151.418Z" stroke="#3842F1" stroke-width="2" stroke-linecap="round" stroke-linejoin="round"/>
</svg>
