<svg width="296" height="371" viewBox="0 0 296 371" fill="none" xmlns="http://www.w3.org/2000/svg">
<path d="M199.613 89.4008C201.752 88.5361 210.153 85.291 216.002 86.6938C219.106 87.4386 242.286 92.6927 245.103 93.4401C254.216 95.8548 253.893 96.5909 253.625 103.151C253.489 106.44 253.35 111.638 253.205 117.158" stroke="#3842F1" stroke-width="2" stroke-linecap="round" stroke-linejoin="round"/>
<path d="M242.784 114.618C242.837 110.914 242.881 108.02 242.907 106.848C243.036 101.034 243.646 99.8183 237.898 97.7904C237.179 97.5365 223.461 94.2672 220.29 93.4975C210.925 91.2248 205.879 90.002 203.678 89.5288C196.898 88.0721 197.807 91.4979 197.605 97.1173" stroke="#3842F1" stroke-width="2" stroke-linecap="round" stroke-linejoin="round"/>
<path d="M120.367 169.014C120.641 151.744 120.858 141.946 121.097 127.117C121.317 113.39 139.877 107.262 147.604 105.05C159.228 101.723 164.902 100.252 176.448 97.0459C185.81 95.5462 195.386 96.088 204.519 98.6339C225.923 103.614 231.306 105.418 232.525 112.2" stroke="#3842F1" stroke-width="2" stroke-linecap="round" stroke-linejoin="round"/>
<path d="M162.09 246.595C164.18 247.98 164.123 231.633 164.227 223.441C164.328 215.405 164.721 155.33 164.826 147.86C165.062 131.095 165.438 129.859 175.448 124.371C184.258 120.093 193.508 116.79 203.035 114.52C205.172 113.873 226.374 107.589 227.978 111.268" stroke="#3842F1" stroke-width="2" stroke-linecap="round" stroke-linejoin="round"/>
<path d="M152.429 182.868C147.294 180.636 142.032 178.708 136.67 177.092C129.391 174.46 121.965 172.255 114.43 170.489C109.018 169.697 99.3379 168.863 98.7037 172.183C98.0823 175.444 109.699 179.664 111.906 180.535C122.647 184.673 133.776 187.725 145.125 189.645C152.557 190.65 161.708 187.216 152.429 182.868Z" stroke="#3842F1" stroke-width="2" stroke-linecap="round" stroke-linejoin="round"/>
<path d="M94.6013 169.932C89.1782 175.31 99.457 178.377 106.833 181.887C117.601 186.342 128.74 189.841 140.121 192.343C154.976 194.861 164.468 192.036 161.039 184.389" stroke="#3842F1" stroke-width="2" stroke-linecap="round" stroke-linejoin="round"/>
<path d="M91.9648 226.606C99.0473 215.217 122.882 215.067 136.298 241.881C140.802 251.255 142.11 261.846 140.023 272.034C139.341 276.295 137.334 280.233 134.288 283.289C131.242 286.345 127.311 288.365 123.052 289.061" stroke="#3842F1" stroke-width="2" stroke-linecap="round" stroke-linejoin="round"/>
<path d="M91.9714 175.586C91.7869 180.025 92.3461 191.637 92.437 196.037C92.6679 207.253 92.6472 225.742 91.7881 226.911C88.6059 231.437 86.9233 236.847 86.9772 242.38C86.6259 252.87 89.592 263.203 95.4534 271.909C100.195 279.554 107.432 285.325 115.94 288.246C122.213 289.315 128.611 289.428 134.918 288.582C141.697 287.464 148.056 284.561 153.342 280.171C156.059 277.65 158.208 274.579 159.647 271.163C161.086 267.748 161.782 264.064 161.688 260.359C162.037 244.655 162.526 235.62 162.475 225.074C162.433 216.231 162.396 212.715 162.538 202.457C162.759 186.529 164.999 184.827 154.523 180.666C149.433 178.644 136.721 174.479 132.048 172.92C123.81 169.543 115.014 167.735 106.112 167.588C91.9257 167.77 92.0823 172.918 91.971 175.586L91.9714 175.586Z" stroke="#3842F1" stroke-width="2" stroke-linecap="round" stroke-linejoin="round"/>
<path d="M127.145 238.598C111.681 217.008 95.8525 221.19 91.788 226.869C88.6356 231.41 86.9561 236.81 86.9772 242.338C86.6258 252.828 89.5919 263.161 95.4535 271.867C100.156 279.547 107.407 285.329 115.94 288.204C121.482 289.634 133.865 284.761 134.427 268.61C134.979 252.753 132.042 245.432 127.148 238.599L127.145 238.598Z" stroke="#3842F1" stroke-width="2" stroke-linecap="round" stroke-linejoin="round"/>
<path d="M222.91 110.203C245.045 114.991 266.525 120.322 287.001 125.252" stroke="#3842F1" stroke-width="2" stroke-linecap="round" stroke-linejoin="round"/>
<path d="M167.277 131.114C190.896 136.223 213.769 141.95 235.474 147.149" stroke="#3842F1" stroke-width="2" stroke-linecap="round" stroke-linejoin="round"/>
<path d="M112.375 84.8379C132.551 89.2016 152.181 94.0166 171.006 98.5686" stroke="#3842F1" stroke-width="2" stroke-linecap="round" stroke-linejoin="round"/>
<path d="M56.7227 105.749C58.9992 106.245 61.2691 106.745 63.5324 107.25C83.6699 111.743 103.292 116.581 122.186 121.179" stroke="#3842F1" stroke-width="2" stroke-linecap="round" stroke-linejoin="round"/>
<path d="M102.266 263.996C99.5568 253.551 103.418 250.385 106.685 249.447C110.464 248.363 114.153 251.469 117.212 253.751" stroke="#3842F1" stroke-width="2" stroke-linecap="round" stroke-linejoin="round"/>
<path d="M103.633 265.282C104.04 266.227 104.739 267.016 105.627 267.534C106.516 268.052 107.547 268.272 108.57 268.161C113.077 267.943 113.393 260.434 114.565 257.199C115.016 255.778 115.968 254.571 117.244 253.801" stroke="#3842F1" stroke-width="2" stroke-linecap="round" stroke-linejoin="round"/>
<path d="M102.352 264.083C104.616 262.714 106.498 260.794 107.822 258.502C108.292 257.693 109.831 255.082 111.397 254.594" stroke="#3842F1" stroke-width="2" stroke-linecap="round" stroke-linejoin="round"/>
<path d="M103.652 265.222C107.646 263.147 108.978 257.815 111.38 254.604" stroke="#3842F1" stroke-width="2" stroke-linecap="round" stroke-linejoin="round"/>
<path d="M19.1011 274.094C21.9349 258.023 13.1542 249.345 14.3381 233.592C15.3568 220.027 24.1326 209.801 21.7376 195.053C20.319 186.319 13.7307 179.756 11.1402 171.425C7.63143 160.145 9.34208 146.117 11.4658 134.718" stroke="#3842F1" stroke-width="2" stroke-linecap="round" stroke-linejoin="round"/>
<path d="M38.3162 265.523C41.15 251.464 32.3689 243.871 33.5532 230.089C34.5719 218.222 43.3477 209.276 40.9523 196.374C39.5341 188.732 32.9458 182.991 30.3549 175.703C26.8461 165.835 28.5571 153.562 30.6809 143.59" stroke="#3842F1" stroke-width="2" stroke-linecap="round" stroke-linejoin="round"/>
<path d="M220.765 202.519C236.168 231.187 216.16 241.404 210.016 268.321C205.281 289.064 210.596 304.353 220.625 322.075" stroke="#3842F1" stroke-width="2" stroke-linecap="round" stroke-linejoin="round"/>
<path d="M203.858 201.804C219.262 233.453 199.255 244.732 193.11 274.449C188.375 297.35 193.69 314.228 203.718 333.793" stroke="#3842F1" stroke-width="2" stroke-linecap="round" stroke-linejoin="round"/>
<path d="M242.438 100.103C245.784 99.057 250.029 97.7014 252.866 96.7295" stroke="#3842F1" stroke-width="2" stroke-linecap="round" stroke-linejoin="round"/>
</svg>
