<svg width="296" height="371" viewBox="0 0 296 371" fill="none" xmlns="http://www.w3.org/2000/svg">
<path d="M110.348 148.724C116.054 146.968 121.713 145.137 127.526 143.541" stroke="#3842F1" stroke-width="2" stroke-linecap="round" stroke-linejoin="round"/>
<path d="M64.5508 132.854C67.3289 133.763 103.819 146.037 106.747 147.043C112.226 148.926 113.135 151.354 113.005 158.061C112.882 164.392 112.751 213.137 112.62 222.972" stroke="#3842F1" stroke-width="2" stroke-linecap="round" stroke-linejoin="round"/>
<path d="M96.1719 131.553C102.868 126.792 110.386 123.308 118.347 121.277C131.823 117.42 138.4 115.714 151.785 111.998C156.061 110.811 167.882 110.013 184.327 113.839C208.767 119.524 215.4 121.728 216.584 130.151" stroke="#3842F1" stroke-width="2" stroke-linecap="round" stroke-linejoin="round"/>
<path d="M135.246 270.818C137.668 272.425 137.604 253.475 137.723 243.978C137.841 234.663 138.181 179.567 138.304 170.908C138.578 151.474 139.013 150.041 150.617 143.678C160.934 138.021 170.657 135.873 182.596 132.26C184.971 131.541 207.652 124.818 211.166 128.018" stroke="#3842F1" stroke-width="2" stroke-linecap="round" stroke-linejoin="round"/>
<path d="M60.0523 199.205C55.5678 204.632 65.9827 209.129 74.2286 213.81C86.1917 219.564 98.6477 224.231 111.446 227.755C122.404 230.515 134.494 226.478 135.641 221.444C136.182 219.071 133.934 216.565 128.642 214.281" stroke="#3842F1" stroke-width="2" stroke-linecap="round" stroke-linejoin="round"/>
<path d="M58.8517 202.916C58.769 204.56 59.3553 250.022 59.4264 251.428C60.5955 274.631 72.6365 301.156 101.741 303.936C123.927 306.056 134.286 288.236 135.345 267.954C135.708 261.006 135.626 255.134 135.623 247.418C135.62 239.466 135.559 229.803 135.713 220.579" stroke="#3842F1" stroke-width="2" stroke-linecap="round" stroke-linejoin="round"/>
<path d="M66.9637 196.055C59.4997 197.092 58.9261 201.286 58.8438 202.917" stroke="#3842F1" stroke-width="2" stroke-linecap="round" stroke-linejoin="round"/>
<path d="M12.8828 109.227C19.9634 111.445 27.024 113.685 34.0645 115.946C47.0724 120.123 60.0092 124.358 72.8747 128.652" stroke="#3842F1" stroke-width="2" stroke-linecap="round" stroke-linejoin="round"/>
<path d="M80.3555 85C96.8035 90.2614 113.206 95.5748 129.564 100.94C133.602 102.264 145.539 106.23 159.704 110.954" stroke="#3842F1" stroke-width="2" stroke-linecap="round" stroke-linejoin="round"/>
<path d="M140.664 151.763C166.322 160.667 191.622 169.577 216.517 178.297" stroke="#3842F1" stroke-width="2" stroke-linecap="round" stroke-linejoin="round"/>
<path d="M207.492 127.251C233.15 136.155 259.104 145.349 283.999 154.068" stroke="#3842F1" stroke-width="2" stroke-linecap="round" stroke-linejoin="round"/>
<path d="M128.442 216.93C128.442 211.601 128.775 157.903 128.853 151.344C128.965 141.99 127.614 142.661 119.308 139.734C113.191 137.577 92.9454 130.997 86.8659 128.853C83.3222 127.578 79.4962 127.299 75.8049 128.047C73.2078 128.588 70.6457 129.285 68.1326 130.135C65.4797 131.184 63.4159 131.703 63.4064 138.161C63.3981 143.376 63.6623 172.55 63.479 180.819C63.3362 183.934 63.7008 187.052 64.5584 190.05C66.4277 194.53 68.5415 199.91 70.7565 205.224" stroke="#3842F1" stroke-width="2" stroke-linecap="round" stroke-linejoin="round"/>
<path d="M70.793 205.27C77.2124 208.558 112.511 223.165 112.627 223.13C118 221.381 123.273 219.339 128.421 217.012" stroke="#3842F1" stroke-width="2" stroke-linecap="round" stroke-linejoin="round"/>
</svg>
