<svg width="296" height="371" viewBox="0 0 296 371" fill="none" xmlns="http://www.w3.org/2000/svg">
<path d="M53.9023 142.88C54.7089 138.033 55.2556 133.147 55.5403 128.241C55.0535 118.754 56.8576 109.289 60.8001 100.646" stroke="#3842F1" stroke-width="2" stroke-linecap="round" stroke-linejoin="round"/>
<path d="M60.8594 100.546C62.0677 98.0891 64.9912 89.4214 66.5802 85.4295C71.728 72.5055 80.1897 59.4961 92.7157 53.8809" stroke="#3842F1" stroke-width="2" stroke-linecap="round" stroke-linejoin="round"/>
<path d="M92.707 53.8672C93.796 53.6243 103.333 47.5046 109.077 45.2334C111.346 44.3359 113.901 44.8349 116.233 44.0981C120.394 42.3414 124.684 40.9077 129.065 39.8097C134.235 39.0131 138.355 40.7017 143.312 39.8432C151.244 38.6755 159.307 38.7209 167.224 39.9777C171.977 40.3926 176.579 41.8556 180.699 44.2615C185.046 46.8003 190.028 46.4404 194.586 48.6317C199.651 51.79 204.395 55.4365 208.75 59.5191" stroke="#3842F1" stroke-width="2" stroke-linecap="round" stroke-linejoin="round"/>
<path d="M208.734 59.4912C210.918 60.5742 215.537 64.051 217.244 64.8957C224.356 68.5432 230.259 74.1719 234.242 81.1018C237.89 85.448 241.286 90.0006 244.411 94.737C246.19 99.1335 247.363 103.751 247.898 108.464C248.756 111.884 250.417 115.252 250.991 118.709C252.549 130.135 251.549 141.765 248.065 152.759C247.615 156.066 247.372 159.398 247.34 162.736C246.993 164.992 245.836 170.708 245.164 173.361" stroke="#3842F1" stroke-width="2" stroke-linecap="round" stroke-linejoin="round"/>
<path d="M86.4476 160.693C86.5199 165.405 85.3396 170.051 83.0273 174.156" stroke="#3842F1" stroke-width="2" stroke-linecap="round" stroke-linejoin="round"/>
<path d="M220.109 182.291C220.936 178.585 222.621 175.126 225.03 172.191C228.014 168.119 236.394 163.204 240.402 170.154C242.174 173.379 243.113 176.995 243.137 180.674C243.16 184.353 242.266 187.98 240.536 191.227" stroke="#3842F1" stroke-width="2" stroke-linecap="round" stroke-linejoin="round"/>
<path d="M88.5713 225.695C87.0618 226.908 85.1896 228.506 83.5781 229.699" stroke="#3842F1" stroke-width="2" stroke-linecap="round" stroke-linejoin="round"/>
<path d="M52.6445 227.005C59.9754 227.531 67.0804 227.978 74.5288 228.52C84.7208 229.26 84.2588 228.345 85.3685 235.954C86.9978 247.126 89.0606 259.405 90.1665 265.104" stroke="#3842F1" stroke-width="2" stroke-linecap="round" stroke-linejoin="round"/>
<path d="M57.7578 222.773C63.7931 223.164 76.5137 224.124 82.7065 224.548C89.0186 224.98 89.0792 225.145 89.6692 228.599C90.0621 230.902 95.0373 259.135 95.3619 260.743" stroke="#3842F1" stroke-width="2" stroke-linecap="round" stroke-linejoin="round"/>
<path d="M58.1904 222.793C57.5119 222.814 57.3182 223.136 56.2163 224.041C55.0851 224.97 53.6037 225.911 52.7227 226.685C51.8247 227.473 52.1795 229.236 52.2718 230.05C52.5753 232.725 55.1641 248.433 55.6493 250.968C55.9179 253.476 56.9919 255.829 58.7102 257.675C60.1903 259.341 62.6791 261.833 62.8554 262.996" stroke="#3842F1" stroke-width="2" stroke-linecap="round" stroke-linejoin="round"/>
<path d="M61.9268 261.649C61.1706 263.454 63.0069 263.197 66.3464 263.546C68.5156 263.776 85.2323 265.475 87.2941 265.589C88.7021 265.667 90.0994 265.304 91.2914 264.551C92.2998 263.795 93.2512 262.967 94.1378 262.071C94.8228 261.418 96.3562 260.254 95.5716 260.191" stroke="#3842F1" stroke-width="2" stroke-linecap="round" stroke-linejoin="round"/>
<path d="M57.5116 222.796C57.2247 220.888 59.9985 221.21 73.8472 222.039C86.0766 222.771 92.7556 223.401 94.131 225.391" stroke="#3842F1" stroke-width="2" stroke-linecap="round" stroke-linejoin="round"/>
<path d="M61.1414 260.639C60.615 261.511 60.2256 262.458 59.9868 263.448C60.3513 265.712 60.9017 267.942 61.6326 270.116C62.6798 277.408 61.0156 280.328 68.7771 285.425C73.9695 288.836 84.2657 298.524 100.914 294.124C102.604 293.678 100.449 280.801 99.9795 278.105C98.4922 268.754 98.4562 259.229 99.8726 249.866C101.207 239.204 101.861 228.467 101.832 217.72C103.03 204.998 81.1434 195.596 75.126 196.709C57.7051 199.93 55.6525 212.793 56.0174 223.658" stroke="#3842F1" stroke-width="2" stroke-linecap="round" stroke-linejoin="round"/>
<path d="M54.3185 224.669C52.1823 215.994 45.5529 197.406 47.28 190.338C47.4292 189.728 52.707 190.063 55.8651 188.823C60.7558 187.093 65.3584 184.638 69.5182 181.538C73.7972 177.896 78.8759 175.317 84.3406 174.009C89.3402 174.019 97.1664 179.45 102.187 181.825C109.434 184.957 116.968 187.38 124.683 189.058C144.627 192.17 157.508 185.192 176.752 179.409C185.369 177.507 193.809 174.881 201.985 171.559C211.764 166.46 221.244 160.807 230.379 154.628C239.01 149.15 242.04 150.129 243.969 159.886C244.517 162.937 244.528 166.061 244 169.116" stroke="#3842F1" stroke-width="2" stroke-linecap="round" stroke-linejoin="round"/>
<path d="M94.6836 295.27C109.877 298.911 125.889 296.549 139.384 288.678C166.688 273.41 191.489 254.046 212.923 231.26C222.874 220.921 232.783 213.433 234.193 203.637" stroke="#3842F1" stroke-width="2" stroke-linecap="round" stroke-linejoin="round"/>
<path d="M213.941 187.044C213.608 189.414 213.937 191.829 214.894 194.023C215.309 194.681 215.517 195.45 215.49 196.228C215.463 197.006 215.202 197.758 214.741 198.386C213.594 199.936 212.546 201.556 211.602 203.237C211.305 203.635 211.1 204.094 210.999 204.58C210.899 205.067 210.907 205.569 211.022 206.052C211.399 206.908 212.193 206.594 212.775 206.295C214.064 205.632 216.682 204.664 218.014 204.155C221.375 202.869 225.113 205.076 228.318 202.878C228.903 202.41 229.416 201.86 229.843 201.245C230.406 200.607 230.885 199.9 231.266 199.14C231.942 197.615 230.279 195.646 229.648 194.606C229.415 194.222 229.136 193.893 228.883 193.531C228.528 193.021 228.134 192.539 227.706 192.089C227.325 191.687 226.948 191.305 226.547 190.938C224.998 189.522 218.489 186.689 220.126 182.172" stroke="#3842F1" stroke-width="2" stroke-linecap="round" stroke-linejoin="round"/>
<path d="M234.335 162.837C244.636 162.31 246.312 175.197 245.347 181.847C244.721 186.471 243.175 190.923 240.802 194.941C237.25 200.393 232.982 205.344 228.113 209.662C224.762 212.906 214.157 220.271 211.012 215.634" stroke="#3842F1" stroke-width="2" stroke-linecap="round" stroke-linejoin="round"/>
<path d="M240.57 164.472C241.286 162.353 240.079 160.799 237.788 161.263C235.443 162.028 233.291 163.29 231.479 164.963C221.441 172.678 204.109 180.294 201.082 189.107C199.013 195.131 201.89 205.048 203.707 210.957C204.263 214.255 206.007 217.235 208.61 219.335C210.163 219.968 211.842 220.227 213.513 220.091C215.183 219.956 216.798 219.429 218.229 218.555C223.674 216.294 228.157 212.198 230.9 206.978" stroke="#3842F1" stroke-width="2" stroke-linecap="round" stroke-linejoin="round"/>
<path d="M105.012 297.528C105.908 304.248 107.96 310.485 109.49 317.038C110.605 322.454 112.093 327.788 113.943 333" stroke="#3842F1" stroke-width="2" stroke-linecap="round" stroke-linejoin="round"/>
<path d="M221.157 223.09C220.221 225.11 219.701 227.176 218.71 229.107C216.855 233.202 216.167 237.73 216.722 242.191C217.535 250.095 220.374 257.656 224.965 264.141C232.946 276.361 244.251 286.048 257.552 292.059C264.112 294.934 270.928 297.187 277.909 298.79" stroke="#3842F1" stroke-width="2" stroke-linecap="round" stroke-linejoin="round"/>
<path d="M53.9212 142.683C52.0554 154.052 55.9514 158.104 56.3251 166.068C56.5255 173.695 55.5883 181.309 53.5447 188.66" stroke="#3842F1" stroke-width="2" stroke-linecap="round" stroke-linejoin="round"/>
<path d="M106.77 148.486C111.903 144.954 117.848 142.782 124.049 142.173C137.791 141.107 141.953 142.889 156.786 146.541" stroke="#3842F1" stroke-width="2" stroke-linecap="round" stroke-linejoin="round"/>
<path d="M77.5657 149.303C69.9686 144.483 59.7702 145.96 52.6445 148.143" stroke="#3842F1" stroke-width="2" stroke-linecap="round" stroke-linejoin="round"/>
<path d="M35.8049 250.159C35.2623 251.522 35.0076 252.983 35.0568 254.45C35.106 255.916 35.4581 257.356 36.0909 258.68C36.7237 260.004 37.6235 261.182 38.7338 262.142C39.8442 263.101 41.1409 263.82 42.5426 264.253" stroke="#3842F1" stroke-width="2" stroke-linecap="round" stroke-linejoin="round"/>
<path d="M27.8871 245.677C26.721 248.522 26.2114 251.593 26.3964 254.662C26.5814 257.731 27.4563 260.719 28.9557 263.403C30.4551 266.088 32.5406 268.399 35.0569 270.166C37.5732 271.933 40.4556 273.11 43.4895 273.609" stroke="#3842F1" stroke-width="2" stroke-linecap="round" stroke-linejoin="round"/>
<path d="M20.9715 241.468C14.0984 252.015 18.0644 280.016 44.3982 281.954" stroke="#3842F1" stroke-width="2" stroke-linecap="round" stroke-linejoin="round"/>
</svg>
