<svg width="296" height="371" viewBox="0 0 296 371" fill="none" xmlns="http://www.w3.org/2000/svg">
<path d="M286.999 130.848C276.25 137.594 263.253 144.989 253 151.697" stroke="#3842F1" stroke-width="2" stroke-linecap="round" stroke-linejoin="round"/>
<path d="M253.164 97.9551C253.245 99.7461 253.091 101.54 252.706 103.291C251.563 104.358 244.473 111.41 242.148 113.811" stroke="#3842F1" stroke-width="2" stroke-linecap="round" stroke-linejoin="round"/>
<path d="M239.974 76C229.607 81.7936 222.708 87.0916 212.684 93.4569" stroke="#3842F1" stroke-width="2" stroke-linecap="round" stroke-linejoin="round"/>
<path d="M218.126 175.174C219.481 175.486 220.886 175.511 222.251 175.249C223.616 174.986 224.912 174.442 226.054 173.65C235.583 167.17 249.267 158.67 251.706 154.249C256.127 146.13 254.946 128.712 246.027 118.077C236.574 106.643 211.723 88.4234 201.203 92.1969C199.335 92.8448 179.782 104.013 175.894 106.681C173.839 108.163 172.227 110.178 171.233 112.509C170.238 114.839 169.9 117.398 170.253 119.907" stroke="#3842F1" stroke-width="2" stroke-linecap="round" stroke-linejoin="round"/>
<path d="M204.59 130.848C203.871 130.932 203.18 131.18 202.57 131.572" stroke="#3842F1" stroke-width="2" stroke-linecap="round" stroke-linejoin="round"/>
<path d="M182.266 117.507C180.018 116.821 177.616 116.821 175.367 117.507" stroke="#3842F1" stroke-width="2" stroke-linecap="round" stroke-linejoin="round"/>
<path d="M182.228 116.02C183.067 117.506 181.313 119.069 180.094 120.708" stroke="#3842F1" stroke-width="2" stroke-linecap="round" stroke-linejoin="round"/>
<path d="M199.607 133.86C199.416 130.963 188.363 123.835 184.361 122.044C182.981 121.394 181.519 120.932 180.016 120.672" stroke="#3842F1" stroke-width="2" stroke-linecap="round" stroke-linejoin="round"/>
<path d="M199.48 133.936C200.451 132.927 201.585 132.089 202.835 131.458C203.711 131.115 214.269 136.108 221.587 152.612C221.854 153.184 223.15 152.612 223.036 152.612C219.666 143.565 213.83 135.643 206.189 129.743C200.736 124.965 194.796 120.774 188.465 117.241C184.653 115.221 178.021 111.714 173.447 114.039C172.799 114.383 174.896 117.241 175.353 117.851" stroke="#3842F1" stroke-width="2" stroke-linecap="round" stroke-linejoin="round"/>
<path d="M199.56 133.936C189.745 144.312 178.12 152.811 165.256 159.016C140.9 169.116 132.133 172.204 117.688 183.371" stroke="#3842F1" stroke-width="2" stroke-linecap="round" stroke-linejoin="round"/>
<path d="M180.015 120.748C169.777 133.839 157.139 144.861 142.777 153.222C130.821 160.034 119.358 167.676 108.473 176.092" stroke="#3842F1" stroke-width="2" stroke-linecap="round" stroke-linejoin="round"/>
<path d="M117.622 183.449C116.867 184.052 116.2 184.758 115.64 185.546C115.28 186.292 115.173 187.135 115.335 187.947" stroke="#3842F1" stroke-width="2" stroke-linecap="round" stroke-linejoin="round"/>
<path d="M117.616 183.297C115.138 180.319 112.077 177.881 108.621 176.131" stroke="#3842F1" stroke-width="2" stroke-linecap="round" stroke-linejoin="round"/>
<path d="M108.467 176.279C107.179 177.524 105.568 178.382 103.816 178.757" stroke="#3842F1" stroke-width="2" stroke-linecap="round" stroke-linejoin="round"/>
<path d="M101.345 220.915C99.5371 221.766 97.5462 222.157 95.5507 222.05C93.5551 221.944 91.617 221.344 89.9102 220.305" stroke="#3842F1" stroke-width="2" stroke-linecap="round" stroke-linejoin="round"/>
<path d="M175.329 117.658C168.353 120.403 161.836 124.443 154.67 126.882C146.666 129.588 137.937 130.16 129.742 132.333C114.001 136.487 98.9832 143.043 83.737 148.57C73.2172 152.381 57.0562 155.736 48.8232 163.282C45.3042 166.006 42.175 169.2 39.5231 172.773C32.6627 182.474 28.0888 193.603 26.1445 205.324C25.3822 208.678 21.9137 216.758 28.0122 217.254" stroke="#3842F1" stroke-width="2" stroke-linecap="round" stroke-linejoin="round"/>
<path d="M80.4921 170.908C77.0617 171.899 73.9362 173.614 70.6202 174.72C66.6106 175.888 62.7676 177.566 59.1855 179.713C55.5414 183.037 52.577 187.037 50.457 191.491" stroke="#3842F1" stroke-width="2" stroke-linecap="round" stroke-linejoin="round"/>
<path d="M116.896 146.02C100.239 149.831 97.838 157.683 85.7554 167.059C83.1636 169.079 80.5336 170.871 77.8655 172.738C70.5473 177.617 63.1529 181.924 55.8347 187.413C45.4718 195.262 36.4597 204.751 29.1539 215.504C27.5149 218.02 20.0443 230.179 18.2148 234.143C16.3852 238.107 12.7261 246.949 11.4683 251.142C10.7822 253.505 14.3651 255.678 17.2237 255.945" stroke="#3842F1" stroke-width="2" stroke-linecap="round" stroke-linejoin="round"/>
<path d="M98.6768 215.235C89.834 218.475 81.7535 227.356 74.5116 233.111C64.3728 241.153 55.6825 248.738 45.8106 257.124C36.7391 264.747 29.4209 276.182 16.2711 275.534C1.02489 274.771 14.0223 260.287 16.9953 256.743C18.1388 255.332 20.8069 251.635 22.0266 250.187C34.3431 233.073 48.9945 217.767 65.5544 204.715C70.3648 200.876 75.4617 197.41 80.8006 194.348" stroke="#3842F1" stroke-width="2" stroke-linecap="round" stroke-linejoin="round"/>
<path d="M178.683 214.778C146.666 221.143 120.023 241.458 98.3735 262.727C92.1987 268.825 85.4523 274.543 79.6968 280.984C74.5131 286.702 63.0785 296.65 54.9599 296.688C52.4443 296.688 48.0229 297.183 46.1933 295.087C44.3638 292.991 46.727 285.711 47.9848 283.652C53.3602 275.122 59.4828 267.086 66.2802 259.64C72.5693 252.436 81.5264 239.667 88.1966 232.692C97.9005 223.46 108.16 214.829 118.918 206.85" stroke="#3842F1" stroke-width="2" stroke-linecap="round" stroke-linejoin="round"/>
<path d="M118.909 206.774C119.789 205.226 120.099 203.419 119.786 201.666C119.383 198.318 118.362 195.074 116.775 192.099C116.081 190.723 115.568 189.262 115.25 187.754" stroke="#3842F1" stroke-width="2" stroke-linecap="round" stroke-linejoin="round"/>
<path d="M115.25 187.716C113.111 185.622 110.845 183.662 108.465 181.846C107.087 180.67 105.622 179.599 104.082 178.645" stroke="#3842F1" stroke-width="2" stroke-linecap="round" stroke-linejoin="round"/>
<path d="M221.516 152.65C224.832 158.901 224.832 169.917 221.287 172.775C220.478 173.465 219.625 174.102 218.733 174.681C213.321 178.035 206.956 181.694 204.592 187.907C200.781 197.932 204.593 208.299 202.42 218.4C201.08 225.596 198.596 232.532 195.064 238.944C193.73 241.421 189.308 258.002 182.943 265.625C181.088 268.421 179.517 271.396 178.255 274.506C176.311 279.956 174.443 286.169 167.582 285.064C165.477 283.888 163.624 282.308 162.132 280.414C160.158 277.045 158.911 273.3 158.471 269.421C158.031 265.541 158.408 261.612 159.578 257.887C160.798 253.161 163.39 248.778 165.219 244.166C167.659 237.267 170.822 229.263 164.571 223.316C163.102 222.119 161.456 221.154 159.692 220.458" stroke="#3842F1" stroke-width="2" stroke-linecap="round" stroke-linejoin="round"/>
<path d="M103.976 178.682C101.477 179.051 99.0712 179.892 96.8864 181.159C91.8186 183.452 86.9266 186.114 82.25 189.125C80.8805 189.816 79.7039 190.835 78.8258 192.093C77.9476 193.35 77.3954 194.806 77.2188 196.329" stroke="#3842F1" stroke-width="2" stroke-linecap="round" stroke-linejoin="round"/>
<path d="M97.2619 218.893C97.9786 217.905 98.4667 216.77 98.6908 215.571C98.915 214.371 98.8696 213.136 98.5579 211.956C97.8048 205.778 94.8881 200.066 90.3249 195.833C89.0619 194.601 87.4408 193.801 85.6946 193.547C83.9483 193.294 82.1666 193.601 80.6055 194.423" stroke="#3842F1" stroke-width="2" stroke-linecap="round" stroke-linejoin="round"/>
<path d="M240.276 111.752C240.847 111.104 248.623 103.1 252.015 99.6316C252.777 98.8693 254.073 97.8402 252.015 96.4299C249.957 95.0197 235.93 85.7576 234.558 84.7666C232.157 83.0133 231.433 84.0805 230.404 85.0334C227.659 87.549 219.617 95.1721 218.664 96.125" stroke="#3842F1" stroke-width="2" stroke-linecap="round" stroke-linejoin="round"/>
</svg>
