<svg width="296" height="371" viewBox="0 0 296 371" fill="none" xmlns="http://www.w3.org/2000/svg">
<path d="M131.26 119.096C134.244 114.157 134.529 115.543 138.366 117.888C142.203 120.233 147.995 123.928 151.762 126.202C155.528 128.476 156.168 128.689 153.929 132.207C152.579 134.303 148.706 139.811 147.924 141.09C146.68 143.044 142.843 139.704 141.422 139.811C140 139.918 137.407 142.334 136.021 141.516C131.97 139.207 131.189 138.461 127.031 135.725" stroke="white" stroke-width="2" stroke-linecap="round" stroke-linejoin="round"/>
<path d="M155.2 129.258C155.182 130.281 155.027 131.296 154.738 132.278C154.457 132.879 154.136 133.46 153.779 134.019C152.464 136.116 149.124 141.126 148.201 142.405C146.602 144.466 143.048 140.735 141.094 141.126C140.028 141.374 137.292 143.613 135.729 142.796C132.333 140.865 129.058 138.729 125.922 136.4" stroke="white" stroke-width="2" stroke-linecap="round" stroke-linejoin="round"/>
<path d="M108.057 119.984C105.178 117.425 102.052 115.187 99.4223 112.38C98.2142 111.1 98.0366 108.826 96.6153 107.867C94.979 107.036 93.1887 106.552 91.3566 106.446C88.8463 105.84 86.5262 104.619 84.6055 102.893" stroke="white" stroke-width="2" stroke-linecap="round" stroke-linejoin="round"/>
<path d="M98.3965 111.172C96.1728 113.859 94.5929 117.019 93.7773 120.41" stroke="white" stroke-width="2" stroke-linecap="round" stroke-linejoin="round"/>
<path d="M96.8246 107.903C96.6243 106.483 96.7198 105.036 97.105 103.654C97.4902 102.272 98.1569 100.985 99.0631 99.873" stroke="white" stroke-width="2" stroke-linecap="round" stroke-linejoin="round"/>
<path d="M98.3229 110.463C98.1971 109.123 98.3569 107.771 98.7918 106.497C99.2266 105.223 99.9268 104.056 100.846 103.072" stroke="white" stroke-width="2" stroke-linecap="round" stroke-linejoin="round"/>
<path d="M126.105 117.107C123.653 111.564 119.389 108.473 115.836 103.641C112.283 98.8085 114.095 94.5802 104.359 89.6412C100.806 87.9357 95.0495 87.8646 91.0344 86.088C83.7527 83.4481 76.3404 81.1829 68.8269 79.3014C57.5988 76.7075 54.6141 76.9918 48.6091 86.4078C42.6549 96.2749 37.3953 106.545 32.8685 117.143C24.7316 141.838 24.5161 136.964 11 148.921" stroke="white" stroke-width="2" stroke-linecap="round" stroke-linejoin="round"/>
<path d="M83.0117 93.4062C84.966 95.9646 84.7883 100.157 84.362 105.914C84.1132 109.254 84.1132 113.02 84.1488 116.289" stroke="white" stroke-width="2" stroke-linecap="round" stroke-linejoin="round"/>
<path d="M204.422 149.87C202.148 147.809 199.66 151.966 199.731 158.042C199.58 164.155 200.794 170.224 203.285 175.808" stroke="white" stroke-width="2" stroke-linecap="round" stroke-linejoin="round"/>
<path d="M159.969 156.83C159.969 157.114 160.715 157.825 161.177 157.79C166.151 157.114 182.496 156.475 185.516 156.368C185.812 156.327 186.084 156.184 186.285 155.963C186.486 155.743 186.604 155.458 186.618 155.16" stroke="white" stroke-width="2" stroke-linecap="round" stroke-linejoin="round"/>
<path d="M155.598 157.006C160.608 155.549 186.724 154.839 191.13 154.981" stroke="white" stroke-width="2" stroke-linecap="round" stroke-linejoin="round"/>
<path d="M140.207 274.086C140.207 279.949 142.126 283.644 153.141 287.624C169.414 293.557 201.18 293.842 218.91 288.228C230.387 284.674 233.123 279.38 233.336 274.406" stroke="white" stroke-width="2" stroke-linecap="round" stroke-linejoin="round"/>
<path d="M58.3435 259.092C55.7364 259.364 53.1716 259.948 50.7042 260.833C46.014 263.427 42.7094 267.477 46.7955 274.797C49.0341 278.812 51.699 288.761 41.3237 290.893C37.7795 291.203 34.2205 291.31 30.6641 291.213" stroke="white" stroke-width="2" stroke-linecap="round" stroke-linejoin="round"/>
<path d="M57.9635 256.854C54.3856 257.194 50.9089 258.232 47.7303 259.909C43.3243 262.93 39.1316 267.407 43.5375 275.01C46.1314 279.523 49.2938 288.761 36.9642 288.939C35.7561 288.939 33.4108 288.939 30.3906 288.939" stroke="white" stroke-width="2" stroke-linecap="round" stroke-linejoin="round"/>
<path d="M60.4102 256.854C60.8634 257.006 61.3031 257.196 61.7248 257.422" stroke="white" stroke-width="2" stroke-linecap="round" stroke-linejoin="round"/>
<path d="M61.5026 253.797C60.0813 254.081 59.7971 258.985 61.929 259.837" stroke="white" stroke-width="2" stroke-linecap="round" stroke-linejoin="round"/>
<path d="M62.3655 251.668C60.8021 251.135 59.0254 252.662 58.5635 253.977C58.0956 255.168 57.9742 256.468 58.2131 257.725C58.452 258.983 59.0415 260.147 59.9138 261.084C61.5482 262.682 63.8935 262.007 64.0712 260.586" stroke="white" stroke-width="2" stroke-linecap="round" stroke-linejoin="round"/>
<path d="M64.8539 252.699C64.458 253.065 64.1453 253.512 63.937 254.01C63.7286 254.507 63.6295 255.043 63.6464 255.582C63.6632 256.121 63.7956 256.65 64.0346 257.134C64.2736 257.617 64.6135 258.044 65.0315 258.384" stroke="white" stroke-width="2" stroke-linecap="round" stroke-linejoin="round"/>
<path d="M65.8113 250.498C63.0043 250.071 61.2987 252.274 61.5474 256.147C61.7961 260.02 66.0244 262.365 67.5168 259.239" stroke="white" stroke-width="2" stroke-linecap="round" stroke-linejoin="round"/>
<path d="M69.4051 249.108C66.7402 248.895 64.4304 250.529 65.0345 255.291C65.6385 260.052 70.3999 260.087 71.1105 258.133" stroke="white" stroke-width="2" stroke-linecap="round" stroke-linejoin="round"/>
<path d="M68.4034 251.666C66.3781 252.163 67.302 256.498 68.7233 257.067" stroke="white" stroke-width="2" stroke-linecap="round" stroke-linejoin="round"/>
<path d="M72.9579 247.933C71.501 247.648 67.4859 248.394 68.4808 253.795C69.0493 256.78 71.5009 259.161 73.4551 258.095C73.6595 257.981 73.8358 257.823 73.9711 257.633C74.1064 257.442 74.1973 257.224 74.237 256.993" stroke="white" stroke-width="2" stroke-linecap="round" stroke-linejoin="round"/>
<path d="M71.9512 250.421C70.2812 250.137 69.9968 254.72 72.342 255.928" stroke="white" stroke-width="2" stroke-linecap="round" stroke-linejoin="round"/>
<path d="M78.4522 251.382C78.4522 250.351 76.6755 248.61 75.645 249.037C74.6146 249.463 74.4725 251.95 74.8279 253.158C74.8279 253.549 75.4318 254.935 76.0714 254.757" stroke="white" stroke-width="2" stroke-linecap="round" stroke-linejoin="round"/>
<path d="M80.3033 249.465C79.8992 248.675 79.3103 247.994 78.5865 247.48C77.8627 246.967 77.0254 246.636 76.1461 246.516C74.8669 246.516 70.9584 247.439 72.2021 253.231C73.4457 259.023 78.1713 257.211 78.0647 255.008" stroke="white" stroke-width="2" stroke-linecap="round" stroke-linejoin="round"/>
<path d="M77.7139 253.298C77.5424 251.737 76.7796 250.3 75.582 249.283" stroke="white" stroke-width="2" stroke-linecap="round" stroke-linejoin="round"/>
<path d="M146.755 159.107C146.009 156.762 149.384 155.909 150.912 155.731C152.44 155.553 154.963 155.198 155.353 157.152" stroke="white" stroke-width="2" stroke-linecap="round" stroke-linejoin="round"/>
<path d="M146.754 159.14C149.708 158.864 152.611 158.195 155.388 157.15" stroke="white" stroke-width="2" stroke-linecap="round" stroke-linejoin="round"/>
<path d="M191.128 158.356C176.39 158.258 161.671 159.447 147.14 161.91C137.266 163.492 128.12 168.083 120.953 175.057C90.7149 200.746 97.928 258.45 140.353 274.369C162.028 282.505 207.331 285.597 231.067 275.541C243.432 270.282 249.223 262.394 258.071 253.227C271.218 239.583 283.583 249.283 285.999 227.573C285.999 226.116 284.862 202.487 279.781 193.995C272.675 181.914 269.974 189.66 259.421 186.178C244.213 181.168 229.183 170.224 225.275 162.869C223.277 156.18 223.363 149.041 225.523 142.403C228.899 132.702 220.976 134.195 218.63 135.296C211.169 138.494 211.311 149.509 211.062 151.25" stroke="white" stroke-width="2" stroke-linecap="round" stroke-linejoin="round"/>
<path d="M192.754 177.084C190.98 168.743 190.691 160.155 191.902 151.714C192.683 147.805 196.023 139.491 201.495 141.481C208.602 144.11 217.52 160.846 217.165 165.465" stroke="white" stroke-width="2" stroke-linecap="round" stroke-linejoin="round"/>
<path d="M143.723 162.089C143.403 160.775 143.936 159.993 146.743 159.176" stroke="white" stroke-width="2" stroke-linecap="round" stroke-linejoin="round"/>
<path d="M80.0977 254.332C81.3765 252.074 83.3982 250.329 85.8185 249.393C92.6095 245.997 99.7608 243.375 107.138 241.576" stroke="white" stroke-width="2" stroke-linecap="round" stroke-linejoin="round"/>
<path d="M106.173 239.48C97.3373 241.401 88.8356 244.623 80.9453 249.039C79.3464 250.282 77.392 252.165 77.6762 254.013C77.7292 254.317 77.8456 254.607 78.0176 254.863C78.1896 255.119 78.4134 255.336 78.6747 255.5C78.936 255.664 79.2287 255.772 79.5341 255.816C79.8396 255.859 80.151 255.838 80.4478 255.754C81.5493 255.292 82.0111 253.978 81.4782 252.201" stroke="white" stroke-width="2" stroke-linecap="round" stroke-linejoin="round"/>
<path d="M223.106 183.338C220.406 186.892 228.365 193.501 229.644 194.46C232.202 196.379 238.492 200.572 240.766 198.013C242.507 196.094 237.212 190.267 234.796 188.135C232.38 186.003 225.238 180.496 223.106 183.338Z" stroke="white" stroke-width="2" stroke-linecap="round" stroke-linejoin="round"/>
<path d="M72.872 105.557C77.2779 116.998 100.018 124.282 106.876 120.587C112.242 117.709 125.779 115.683 130.008 118.206C131.497 119.174 132.666 120.561 133.368 122.192C134.07 123.824 134.273 125.627 133.952 127.373C133.276 135.119 114.622 141.906 110.429 142.439C95.044 144.358 91.0999 153.525 80.6179 161.982C78.0241 164.078 75.3591 168.555 69.0344 169.479C63.2197 170.608 57.5881 172.533 52.2988 175.199C39.8625 181.133 36.345 185.859 20.7109 194.422" stroke="white" stroke-width="2" stroke-linecap="round" stroke-linejoin="round"/>
</svg>
