<svg width="296" height="371" viewBox="0 0 296 371" fill="none" xmlns="http://www.w3.org/2000/svg">
<path d="M206.418 278.698V282.417" stroke="#3842F1" stroke-width="2" stroke-miterlimit="1.5" stroke-linecap="round" stroke-linejoin="round"/>
<path d="M197.739 237.794C197.72 237.776 198.6 238.672 198.978 239.034" stroke="#3842F1" stroke-width="2" stroke-miterlimit="1.5" stroke-linecap="round" stroke-linejoin="round"/>
<path d="M202.789 247.709C202.192 247.162 204.901 245.73 205.182 246.945" stroke="#3842F1" stroke-width="2" stroke-miterlimit="1.5" stroke-linecap="round" stroke-linejoin="round"/>
<path d="M205.269 237.791C204.672 236.697 207.382 233.832 207.663 236.263" stroke="#3842F1" stroke-width="2" stroke-miterlimit="1.5" stroke-linecap="round" stroke-linejoin="round"/>
<path d="M207.574 236.553C208.172 237.647 205.462 240.511 205.181 238.081" stroke="#3842F1" stroke-width="2" stroke-miterlimit="1.5" stroke-linecap="round" stroke-linejoin="round"/>
<path d="M211.375 216.718L253.521 260.104" stroke="#3842F1" stroke-width="2" stroke-miterlimit="1.5" stroke-linecap="round" stroke-linejoin="round"/>
<path d="M270.876 267.541L211.375 242.749" stroke="#3842F1" stroke-width="2" stroke-miterlimit="1.5" stroke-linecap="round" stroke-linejoin="round"/>
<path d="M167.996 163.418L269.643 69.208" stroke="#3842F1" stroke-width="2" stroke-miterlimit="1.5" stroke-linecap="round" stroke-linejoin="round"/>
<path d="M146.922 148.542L169.235 76.6455" stroke="#3842F1" stroke-width="2" stroke-miterlimit="1.5" stroke-linecap="round" stroke-linejoin="round"/>
<path d="M44.0352 189.445L164.167 168.372L181.631 185.832" stroke="#3842F1" stroke-width="2" stroke-miterlimit="1.5" stroke-linecap="round" stroke-linejoin="round"/>
<path d="M177.914 182.009L187.831 193.165" stroke="#3842F1" stroke-width="2" stroke-miterlimit="1.5" stroke-linecap="round" stroke-linejoin="round"/>
<path d="M164.274 160.937L42.793 180.77" stroke="#3842F1" stroke-width="2" stroke-miterlimit="1.5" stroke-linecap="round" stroke-linejoin="round"/>
<path d="M164.281 160.937V168.374" stroke="#3842F1" stroke-width="2" stroke-miterlimit="1.5" stroke-linecap="round" stroke-linejoin="round"/>
<path d="M164.281 169.614V206.802" stroke="#3842F1" stroke-width="2" stroke-miterlimit="1.5" stroke-linecap="round" stroke-linejoin="round"/>
<path d="M275.845 268.782L164.281 160.937" stroke="#3842F1" stroke-width="2" stroke-miterlimit="1.5" stroke-linecap="round" stroke-linejoin="round"/>
<path d="M159.318 160.886L146.127 148.542L58.9102 160.938" stroke="#3842F1" stroke-width="2" stroke-miterlimit="1.5" stroke-linecap="round" stroke-linejoin="round"/>
<path d="M122.127 76.6455L35.3555 189.449" stroke="#3842F1" stroke-width="2" stroke-miterlimit="1.5" stroke-linecap="round" stroke-linejoin="round"/>
<path d="M35.9585 189.447L18 166.853L46.1042 10.9443L122.126 77.0087" stroke="#3842F1" stroke-width="2" stroke-miterlimit="1.5" stroke-linecap="round" stroke-linejoin="round"/>
<path d="M269.636 67.9659L188.354 14.1508L46.5078 10.9443" stroke="#3842F1" stroke-width="2" stroke-miterlimit="1.5" stroke-linecap="round" stroke-linejoin="round"/>
<path d="M269.645 69.208L122.133 76.6456" stroke="#3842F1" stroke-width="2" stroke-miterlimit="1.5" stroke-linecap="round" stroke-linejoin="round"/>
<path d="M187.832 283.655V288.614" stroke="#3842F1" stroke-width="2" stroke-miterlimit="1.5" stroke-linecap="round" stroke-linejoin="round"/>
<path d="M181.629 281.179V283.658" stroke="#3842F1" stroke-width="2" stroke-miterlimit="1.5" stroke-linecap="round" stroke-linejoin="round"/>
<path d="M174.195 278.698V282.417" stroke="#3842F1" stroke-width="2" stroke-miterlimit="1.5" stroke-linecap="round" stroke-linejoin="round"/>
<path d="M170.469 206.8C172.837 206.932 175.452 207.694 177.476 208.848C185.473 213.407 188.297 218.945 192.782 226.633" stroke="#3842F1" stroke-width="2" stroke-miterlimit="1.5" stroke-linecap="round" stroke-linejoin="round"/>
<path d="M165.548 210.933C164.938 204.664 173.152 204.886 176.858 206.605C185.83 210.77 190.422 219.713 192.787 226.637" stroke="#3842F1" stroke-width="2" stroke-miterlimit="1.5" stroke-linecap="round" stroke-linejoin="round"/>
<path d="M164.317 211.493C164.101 209.365 164.892 206.369 165.822 205.031C169.711 199.434 184.966 193.233 186.555 193.171C188.41 193.099 191.194 194.063 193.482 194.854C195.099 195.413 198.753 197.591 199.808 198.927C201.005 200.44 205.36 204.531 207.138 206.958C208.593 208.943 210.983 213.703 211.386 217.959" stroke="#3842F1" stroke-width="2" stroke-miterlimit="1.5" stroke-linecap="round" stroke-linejoin="round"/>
<path d="M184.109 248.607C187.394 250.252 189.894 251.714 193.621 251.38C196.884 251.088 200.753 249.077 203.772 247.593C206.429 246.286 210.071 244.189 211.762 241.84C213.111 239.966 213.511 236.415 213.675 234.185C214.042 229.191 214.053 223.142 211.876 219.198" stroke="#3842F1" stroke-width="2" stroke-miterlimit="1.5" stroke-linecap="round" stroke-linejoin="round"/>
<path d="M141.965 248.946C141.965 250.189 141.965 251.423 141.965 252.665" stroke="#3842F1" stroke-width="2" stroke-miterlimit="1.5" stroke-linecap="round" stroke-linejoin="round"/>
<path d="M135.762 256.384C135.974 255.231 138.704 251.119 141.96 248.946" stroke="#3842F1" stroke-width="2" stroke-miterlimit="1.5" stroke-linecap="round" stroke-linejoin="round"/>
<path fill-rule="evenodd" clip-rule="evenodd" d="M144.557 250.189C144.039 250.182 142.155 250.259 141.983 249.519C141.842 248.91 142.536 248.454 142.895 248.221C144.048 247.472 145.176 246.715 146.543 246.509C147.797 246.32 148.771 246.811 147.71 247.961C147.378 248.32 145.159 249.871 144.557 250.189V250.189Z" stroke="#3842F1" stroke-width="2" stroke-miterlimit="1.5" stroke-linecap="round" stroke-linejoin="round"/>
<path d="M153.116 269.25C152.421 269.678 151.578 269.942 150.836 270.25C148.196 271.348 138.126 273.274 135.762 265.065" stroke="#3842F1" stroke-width="2" stroke-miterlimit="1.5" stroke-linecap="round" stroke-linejoin="round"/>
<path d="M149.398 267.542C150.206 267.973 150.989 268.41 151.878 268.782" stroke="#3842F1" stroke-width="2" stroke-miterlimit="1.5" stroke-linecap="round" stroke-linejoin="round"/>
<path d="M149.398 267.542C150.249 268.318 150.939 269.382 151.878 270.021" stroke="#3842F1" stroke-width="2" stroke-miterlimit="1.5" stroke-linecap="round" stroke-linejoin="round"/>
<path d="M143.316 250.188C143.275 250.858 143.114 252.776 143.27 252.822C150.66 254.993 152.092 262.6 149.341 267.543" stroke="#3842F1" stroke-width="2" stroke-miterlimit="1.5" stroke-linecap="round" stroke-linejoin="round"/>
<path d="M143.562 252.669C143.016 252.889 142.308 252.779 141.731 252.916C139.38 253.473 136.35 255.072 135.193 257.339C134.179 259.324 134.112 262.338 136.444 265.826C138.756 269.285 145.62 270.108 149.399 266.136" stroke="#3842F1" stroke-width="2" stroke-miterlimit="1.5" stroke-linecap="round" stroke-linejoin="round"/>
<path d="M143.203 250.192C152.872 249.945 156.101 262.065 153.491 267.543" stroke="#3842F1" stroke-width="2" stroke-miterlimit="1.5" stroke-linecap="round" stroke-linejoin="round"/>
<path d="M156.588 266.302C155.537 266.467 154.49 266.809 153.503 267.096C153.033 267.233 152.403 267.298 152.053 267.571C151.702 267.845 151.932 268.84 152.298 268.778C153.744 268.534 155.542 268.112 156.058 267.812C156.438 267.59 157.349 266.536 156.461 266.376" stroke="#3842F1" stroke-width="2" stroke-miterlimit="1.5" stroke-linecap="round" stroke-linejoin="round"/>
<path d="M155.594 267.543C156.721 267.515 158.28 267.471 159.33 267.15C163.731 265.805 168.048 263.609 171.709 261.345" stroke="#3842F1" stroke-width="2" stroke-miterlimit="1.5" stroke-linecap="round" stroke-linejoin="round"/>
<path d="M154.355 251.426C160.57 247.752 166.068 243.399 170.294 237.554C171.504 235.881 172.515 234.047 173.622 232.309C176.52 227.756 180.395 218.063 185.345 215.478" stroke="#3842F1" stroke-width="2" stroke-miterlimit="1.5" stroke-linecap="round" stroke-linejoin="round"/>
<path d="M146.922 247.708C147.705 247.762 151.318 247.922 154.054 250.91C156.094 253.139 157.6 255.603 158.011 258.868C158.294 261.106 157.661 263.949 156.517 266.302" stroke="#3842F1" stroke-width="2" stroke-miterlimit="1.5" stroke-linecap="round" stroke-linejoin="round"/>
<path d="M158.074 258.866C165.756 255.116 174.237 245.107 178.077 237.271C180.806 231.7 184.301 221.862 189.064 220.438" stroke="#3842F1" stroke-width="2" stroke-miterlimit="1.5" stroke-linecap="round" stroke-linejoin="round"/>
<path d="M103.535 224.156C106.459 224.122 113.106 220.684 116.248 219.672C122.162 217.766 128.934 218.005 135.036 218.232C141.113 218.457 147.167 219.254 153.276 219.454C159.193 219.647 163.373 220.099 168.511 218.232C171.618 217.103 177.531 212.212 180.39 210.521" stroke="#3842F1" stroke-width="2" stroke-miterlimit="1.5" stroke-linecap="round" stroke-linejoin="round"/>
<path d="M99.8125 217.956C103.494 216.664 107.454 214.924 111.31 213.939C115.602 212.842 120.324 212.521 124.734 212.648C132.185 212.863 139.274 213.821 146.721 214.067C151.552 214.226 156.452 214.712 161.143 213.148C164.558 212.01 167.58 208.412 170.47 206.8" stroke="#3842F1" stroke-width="2" stroke-miterlimit="1.5" stroke-linecap="round" stroke-linejoin="round"/>
<path d="M175.426 267.543C177.909 266.5 179.797 264.304 178.931 262.373C178.724 261.91 178.234 261.413 177.813 261.345" stroke="#3842F1" stroke-width="2" stroke-miterlimit="1.5" stroke-linecap="round" stroke-linejoin="round"/>
<path d="M178.165 266.3C177.648 263.766 177.921 257.444 179.059 255.043C180.51 251.981 183.381 249.282 185.909 247.09C190.297 243.286 194.424 240.152 198.987 236.55" stroke="#3842F1" stroke-width="2" stroke-miterlimit="1.5" stroke-linecap="round" stroke-linejoin="round"/>
<path d="M121.131 261.355C119.965 261.222 119.554 262.385 119.666 263.002C120.131 265.572 127.411 269.694 131.237 270.941C143.226 274.849 153.25 274.175 161.795 271.905" stroke="#3842F1" stroke-width="2" stroke-miterlimit="1.5" stroke-linecap="round" stroke-linejoin="round"/>
<path d="M75.0234 200.604L153.738 186.349" stroke="#3842F1" stroke-width="2" stroke-miterlimit="1.5" stroke-linecap="round" stroke-linejoin="round"/>
<path d="M71.6693 221.677L71.3086 199.09L151.114 184.489H154.294L154.362 213.885" stroke="#3842F1" stroke-width="2" stroke-miterlimit="1.5" stroke-linecap="round" stroke-linejoin="round"/>
<path d="M143.23 315.886C142.915 311.813 145.396 310.894 148.232 309.963C159.569 306.24 261.693 270.438 269.703 267.582C270.701 267.226 270.971 269.328 270.858 270.297" stroke="#3842F1" stroke-width="2" stroke-miterlimit="1.5" stroke-linecap="round" stroke-linejoin="round"/>
<path d="M275.781 278.699V272.466L275.838 268.325L141.514 317.127L39.0742 184.489" stroke="#3842F1" stroke-width="2" stroke-miterlimit="1.5" stroke-linecap="round" stroke-linejoin="round"/>
<path fill-rule="evenodd" clip-rule="evenodd" d="M36.5938 189.448L41.5521 294.485L141.957 361.753L275.564 305.881L277.076 278.256L141.891 329.633L36.5938 189.448V189.448Z" stroke="#3842F1" stroke-width="2" stroke-miterlimit="1.5" stroke-linecap="round" stroke-linejoin="round"/>
<path d="M211.379 219.198C207.44 221.592 202.658 224.552 198.389 226.26C197.096 226.778 193.576 225.548 193.687 226.555C193.742 227.059 196.542 228.669 197.513 230.917C199.11 234.614 199.37 239.962 197.975 243.905C197.546 245.116 196.044 248.449 191.637 248.9C189.212 249.148 187.442 248.418 185.348 247.39" stroke="#3842F1" stroke-width="2" stroke-miterlimit="1.5" stroke-linecap="round" stroke-linejoin="round"/>
<path d="M182.863 265.065C185.115 266.216 200.897 275.392 206.416 278.701" stroke="#3842F1" stroke-width="2" stroke-miterlimit="1.5" stroke-linecap="round" stroke-linejoin="round"/>
<path d="M183.125 265.065L161.793 270.953L174.218 278.739L181.42 279.862L188.082 283.659L206.419 278.552" stroke="#3842F1" stroke-width="2" stroke-miterlimit="1.5" stroke-linecap="round" stroke-linejoin="round"/>
<path d="M161.793 271.261L161.847 275.386L174.258 283.491L181.45 284.662L188.105 288.615L206.419 283.297" stroke="#3842F1" stroke-width="2" stroke-miterlimit="1.5" stroke-linecap="round" stroke-linejoin="round"/>
<path d="M141.965 317.126V361.752" stroke="#3842F1" stroke-width="2" stroke-miterlimit="1.5" stroke-linecap="round" stroke-linejoin="round"/>
<path d="M101.055 237.821C102.4 237.69 104.552 238.061 105.878 238.279C112.468 239.365 118.147 245.448 119.967 251.609C120.942 254.908 121.002 259.574 120.784 263.826" stroke="#3842F1" stroke-width="2" stroke-miterlimit="1.5" stroke-linecap="round" stroke-linejoin="round"/>
<path d="M92.3828 250.186L115.935 245.228" stroke="#3842F1" stroke-width="2" stroke-miterlimit="1.5" stroke-linecap="round" stroke-linejoin="round"/>
<path d="M79.9883 226.05C80.3559 226.506 81.0564 227.684 81.4737 228.11C81.5481 228.186 81.9671 228.732 82.1289 228.641C82.4336 228.469 82.5842 227.736 82.7089 227.476C83.2595 226.329 84.0948 224.956 85.7721 225.531C85.9762 225.601 86.2141 225.675 86.3863 225.801C87.4259 225.531 86.8061 226.015 88.6655 227.255C88.7676 228.122 89.1189 228.252 89.2853 229.114M89.2853 228.641C90.5249 232.213 91.1447 238.411 89.0498 238.905C88.537 239.339 85.739 238.664 84.1171 236.695C82.3772 234.583 82.1889 232.618 82.1817 230.208C82.1788 229.287 82.3531 228.253 82.7567 227.377" stroke="#3842F1" stroke-width="2" stroke-miterlimit="1.5" stroke-linecap="round" stroke-linejoin="round"/>
<path d="M82.4675 220.438C81.7038 220.761 80.1845 222.129 79.9883 225.397" stroke="#3842F1" stroke-width="2" stroke-miterlimit="1.5" stroke-linecap="round" stroke-linejoin="round"/>
<path d="M87.418 225.396C89.5766 225.84 89.9913 228.011 89.881 229.114" stroke="#3842F1" stroke-width="2" stroke-miterlimit="1.5" stroke-linecap="round" stroke-linejoin="round"/>
<path d="M98.2471 219.02C97.4332 218.558 96.3307 218.248 95.4082 218.072C93.916 217.788 92.227 218.091 90.7622 218.363C89.2496 218.645 87.6988 218.948 86.1996 219.297C85.0637 219.562 84.0488 219.766 82.9655 220.232C82.7181 220.338 81.9716 220.801 82.955 221.714C83.5502 222.265 86.9243 225.166 88.292 225.378C89.4295 225.555 94.3844 224.341 95.9989 224.101C96.9329 223.963 100.083 222.701 100.986 221.827C101.359 221.466 96.0965 217.338 100.083 220.579" stroke="#3842F1" stroke-width="2" stroke-miterlimit="1.5" stroke-linecap="round" stroke-linejoin="round"/>
<path d="M103.535 224.157C103.535 224.927 103.535 225.867 103.535 226.636" stroke="#3842F1" stroke-width="2" stroke-miterlimit="1.5" stroke-linecap="round" stroke-linejoin="round"/>
<path d="M89.4408 228.669C91.0548 228.394 102.672 226.33 103.285 226.677C103.75 226.94 103.432 228.872 103.379 229.25C103.14 230.99 101.587 237.108 100.816 238.119C99.5844 239.735 97.4082 240.14 95.5917 240.627C94.0226 241.048 92.1594 241.329 90.5461 241.485C89.3916 241.597 87.6832 241.377 86.1797 240.785" stroke="#3842F1" stroke-width="2" stroke-miterlimit="1.5" stroke-linecap="round" stroke-linejoin="round"/>
<path d="M81.2279 235.312C80.2794 232.198 79.8691 228.311 80.0181 225.396" stroke="#3842F1" stroke-width="2" stroke-miterlimit="1.5" stroke-linecap="round" stroke-linejoin="round"/>
<path d="M99.8125 217.958C102.789 221.476 103.665 221.803 103.515 224.156" stroke="#3842F1" stroke-width="2" stroke-miterlimit="1.5" stroke-linecap="round" stroke-linejoin="round"/>
<path d="M75.0274 225.396L74.7525 200.771L71.3086 199.364" stroke="#3842F1" stroke-width="2" stroke-miterlimit="1.5" stroke-linecap="round" stroke-linejoin="round"/>
</svg>
