<svg width="296" height="371" viewBox="0 0 296 371" fill="none" xmlns="http://www.w3.org/2000/svg">
<path d="M197.941 130.48C195.529 128.306 192.88 132.722 192.982 139.244C192.883 145.709 194.229 152.115 196.922 157.994" stroke="#3842F1" stroke-width="2" stroke-linecap="round" stroke-linejoin="round"/>
<path d="M174.156 110.846H176.5C178.063 110.846 177.893 112.544 178.063 114.616C178.063 115.194 179.523 134.385 179.421 136.186" stroke="#3842F1" stroke-width="2" stroke-linecap="round" stroke-linejoin="round"/>
<path d="M151.133 137.816C153.952 137.816 173.416 136.967 177.458 136.729C178.149 136.645 178.824 136.462 179.462 136.186" stroke="#3842F1" stroke-width="2" stroke-linecap="round" stroke-linejoin="round"/>
<path d="M146.301 137.781C146.844 137.577 150.513 137.203 151.056 137.102" stroke="#3842F1" stroke-width="2" stroke-linecap="round" stroke-linejoin="round"/>
<path d="M129.457 263.227C129.457 269.477 131.529 273.417 143.248 277.663C160.606 283.981 194.505 284.457 213.46 278.308C225.654 274.47 228.711 268.899 228.813 263.566" stroke="#3842F1" stroke-width="2" stroke-linecap="round" stroke-linejoin="round"/>
<path d="M41.8265 246.818C39.0391 247.103 36.2994 247.742 33.6741 248.721C28.6468 251.438 25.1482 255.786 29.4961 263.599C31.8739 267.878 34.7271 278.476 23.6535 280.786C19.9138 281.088 16.1613 281.201 12.4102 281.126" stroke="#3842F1" stroke-width="2" stroke-linecap="round" stroke-linejoin="round"/>
<path d="M41.4163 244.238C37.5815 244.635 33.8635 245.79 30.4785 247.635C25.791 251.032 21.3072 255.617 25.9948 263.736C28.7801 268.525 32.1769 278.41 18.9974 278.58C17.7066 278.58 15.2609 278.58 12 278.58" stroke="#3842F1" stroke-width="2" stroke-linecap="round" stroke-linejoin="round"/>
<path d="M44.293 244.713C44.7346 244.917 45.3119 245.087 45.7196 245.324" stroke="#3842F1" stroke-width="2" stroke-linecap="round" stroke-linejoin="round"/>
<path d="M45.5941 241.383C44.0995 241.689 43.8278 246.954 46.0697 247.837" stroke="#3842F1" stroke-width="2" stroke-linecap="round" stroke-linejoin="round"/>
<path d="M46.3773 239.14C45.5226 238.999 44.6458 239.168 43.9047 239.617C43.1636 240.065 42.6069 240.763 42.3351 241.586C41.8472 242.859 41.7255 244.243 41.9837 245.582C42.2418 246.921 42.8694 248.16 43.7957 249.161C45.528 250.859 48.0418 250.112 48.2117 248.583" stroke="#3842F1" stroke-width="2" stroke-linecap="round" stroke-linejoin="round"/>
<path d="M49.1978 240.227C48.7772 240.62 48.4457 241.099 48.2254 241.632C48.0051 242.164 47.9009 242.737 47.9202 243.313C47.9395 243.889 48.0817 244.454 48.3372 244.97C48.5926 245.486 48.9556 245.942 49.4016 246.307" stroke="#3842F1" stroke-width="2" stroke-linecap="round" stroke-linejoin="round"/>
<path d="M50.0431 237.851C47.0539 237.443 45.2196 239.753 45.5253 243.897C45.831 248.041 50.2808 250.691 51.9113 247.294" stroke="#3842F1" stroke-width="2" stroke-linecap="round" stroke-linejoin="round"/>
<path d="M53.8779 236.391C51.0586 236.187 48.579 237.919 49.2244 243.184C49.8698 248.449 54.9648 248.28 55.7121 246.208" stroke="#3842F1" stroke-width="2" stroke-linecap="round" stroke-linejoin="round"/>
<path d="M52.7887 239.141C50.6148 239.65 51.5997 244.304 53.1283 244.915" stroke="#3842F1" stroke-width="2" stroke-linecap="round" stroke-linejoin="round"/>
<path d="M57.7248 235.134C56.1623 234.862 51.8482 235.644 52.9352 241.384C53.5127 244.781 56.1282 247.125 58.2342 246.004C58.4505 245.879 58.6363 245.708 58.7774 245.502C58.9185 245.296 59.0115 245.062 59.0496 244.815" stroke="#3842F1" stroke-width="2" stroke-linecap="round" stroke-linejoin="round"/>
<path d="M56.5994 237.785C54.8331 237.479 54.5274 242.405 57.041 243.696" stroke="#3842F1" stroke-width="2" stroke-linecap="round" stroke-linejoin="round"/>
<path d="M63.5675 238.837C63.5675 237.716 61.6653 235.882 60.5783 236.323C59.4914 236.765 59.3217 239.448 59.6953 240.739C59.6953 241.147 60.3746 242.607 61.0539 242.437" stroke="#3842F1" stroke-width="2" stroke-linecap="round" stroke-linejoin="round"/>
<path d="M65.5327 236.798C65.1089 235.945 64.4809 235.211 63.7046 234.659C62.9282 234.108 62.0276 233.758 61.083 233.639C59.7242 233.639 55.5802 234.624 56.871 240.806C58.1617 246.988 63.2568 245.052 63.1549 242.674" stroke="#3842F1" stroke-width="2" stroke-linecap="round" stroke-linejoin="round"/>
<path d="M62.7445 240.772C62.564 239.106 61.7491 237.573 60.4688 236.492" stroke="#3842F1" stroke-width="2" stroke-linecap="round" stroke-linejoin="round"/>
<path d="M151.095 137.748C150.858 135.608 149.397 116.111 149.261 114.276C149.125 112.442 149.567 112.272 151.265 112.17L173.446 110.846C175.315 110.846 175.722 110.846 175.858 113.393C176.3 121.681 177.149 132.857 177.421 136.559" stroke="#3842F1" stroke-width="2" stroke-linecap="round" stroke-linejoin="round"/>
<path d="M133.603 140.704C132.516 137.307 137.475 136.016 139.683 135.745C141.891 135.473 145.73 134.929 146.273 137.851" stroke="#3842F1" stroke-width="2" stroke-linecap="round" stroke-linejoin="round"/>
<path d="M133.637 140.736C137.975 140.354 142.239 139.37 146.307 137.814" stroke="#3842F1" stroke-width="2" stroke-linecap="round" stroke-linejoin="round"/>
<path d="M183.774 139.549C176.981 139.753 154.46 139.549 136.865 143.184C126.333 144.875 116.574 149.761 108.909 157.179C76.6397 184.625 84.3503 246.175 129.596 263.159C152.728 271.854 200.928 275.149 226.37 264.415C239.618 258.811 245.8 250.387 255.209 240.638C269.272 226.066 282.383 236.46 284.999 213.26C284.999 211.697 283.81 186.493 278.205 177.458C270.46 164.55 267.743 172.838 256.5 169.101C240.263 163.734 224.23 152.117 220.052 144.203C217.919 137.076 218.014 129.467 220.324 122.396C223.924 112.205 215.467 113.632 212.953 114.685C205.004 118.082 205.14 129.834 204.903 131.669" stroke="#3842F1" stroke-width="2" stroke-linecap="round" stroke-linejoin="round"/>
<path d="M185.475 159.555C183.594 150.618 183.295 141.42 184.592 132.38C185.407 128.236 188.973 119.303 194.782 121.476C202.459 124.262 211.766 142.095 211.528 147.054" stroke="#3842F1" stroke-width="2" stroke-linecap="round" stroke-linejoin="round"/>
<path d="M129.151 145.119C128.641 143.182 129.457 142.028 133.567 140.805" stroke="#3842F1" stroke-width="2" stroke-linecap="round" stroke-linejoin="round"/>
<path d="M179.594 136.016C180.205 136.016 182.99 136.016 183.772 136.016" stroke="#3842F1" stroke-width="2" stroke-linecap="round" stroke-linejoin="round"/>
<path d="M65.3281 241.96C66.6816 239.552 68.8314 237.691 71.4083 236.695C78.6357 233.079 86.2473 230.287 94.099 228.373" stroke="#3842F1" stroke-width="2" stroke-linecap="round" stroke-linejoin="round"/>
<path d="M93.142 226.133C83.7184 228.176 74.6516 231.61 66.2395 236.323C64.5071 237.648 62.503 239.72 62.8427 241.656C63.1823 243.592 65.4581 243.626 65.7639 243.49C66.9867 242.981 67.4623 241.588 66.8849 239.856" stroke="#3842F1" stroke-width="2" stroke-linecap="round" stroke-linejoin="round"/>
<path d="M217.916 166.214C215.028 169.985 223.52 177.084 224.709 178.103C227.46 180.107 234.186 184.591 236.598 181.907C238.432 179.835 232.59 173.619 230.212 171.309C227.834 168.999 220.191 163.191 217.916 166.214Z" stroke="#3842F1" stroke-width="2" stroke-linecap="round" stroke-linejoin="round"/>
<path d="M140.157 125.826C143.282 137.783 128.675 139.413 121.508 139.413C119.946 139.413 118.417 139.413 116.855 139.413C113.065 139.148 109.297 138.626 105.577 137.851C95.9304 136.866 86.1138 136.9 76.4329 136.118C71.8133 135.745 67.3635 133.639 62.676 133.944C54.6595 134.42 44.5031 140.738 38.8984 147.532" stroke="#3842F1" stroke-width="2" stroke-linecap="round" stroke-linejoin="round"/>
<path d="M139.863 125.485C137.927 125.043 136.229 124.228 134.225 123.923C129.141 123.707 124.073 123.219 119.041 122.462C108.851 119.948 99.8491 114.955 90.1343 111.558C81.2347 108.433 75.1884 107.584 66.3568 104.085C59.5632 101.368 59.869 96.6124 44.1418 91.3813C39.7538 89.814 35.1911 88.7874 30.5547 88.3242" stroke="#3842F1" stroke-width="2" stroke-linecap="round" stroke-linejoin="round"/>
<path d="M97.7335 137.545C96.5786 142.708 92.2988 147.022 89.4115 151.132C87.081 154.802 85.0041 158.626 83.1953 162.579" stroke="#3842F1" stroke-width="2" stroke-linecap="round" stroke-linejoin="round"/>
<path d="M55.1055 136.389C56.2943 138.257 59.6232 139.14 61.5255 139.785C66.3199 142.232 71.6 143.579 76.9808 143.726C78.8808 143.86 80.7862 143.558 82.5516 142.843" stroke="#3842F1" stroke-width="2" stroke-linecap="round" stroke-linejoin="round"/>
<path d="M70.384 144.34C68.5837 148.892 66.5116 153.341 64.6094 157.927" stroke="#3842F1" stroke-width="2" stroke-linecap="round" stroke-linejoin="round"/>
<path d="M57.756 143.592C54.7073 142.597 51.7703 141.288 48.9922 139.686" stroke="#3842F1" stroke-width="2" stroke-linecap="round" stroke-linejoin="round"/>
<path d="M53.264 142.57C52.2449 145.22 50.8862 147.733 49.8672 150.349" stroke="#3842F1" stroke-width="2" stroke-linecap="round" stroke-linejoin="round"/>
</svg>
