<svg width="296" height="371" viewBox="0 0 296 371" fill="none" xmlns="http://www.w3.org/2000/svg">
<path d="M286.999 130.85C276.25 137.596 263.253 144.99 253 151.699" stroke="#3842F1" stroke-width="2" stroke-linecap="round" stroke-linejoin="round"/>
<path d="M253.164 97.957C253.245 99.7481 253.091 101.542 252.706 103.293C251.563 104.36 244.473 111.412 242.148 113.813" stroke="#3842F1" stroke-width="2" stroke-linecap="round" stroke-linejoin="round"/>
<path d="M239.974 76.002C229.607 81.7955 222.708 87.0935 212.684 93.4588" stroke="#3842F1" stroke-width="2" stroke-linecap="round" stroke-linejoin="round"/>
<path d="M218.126 175.176C219.481 175.488 220.886 175.513 222.251 175.251C223.616 174.988 224.912 174.444 226.054 173.652C235.583 167.172 249.267 158.672 251.706 154.251C256.127 146.132 254.946 128.713 246.027 118.079C236.574 106.645 211.723 88.4254 201.203 92.1988C199.335 92.8468 179.782 104.015 175.894 106.683C173.839 108.164 172.227 110.18 171.233 112.51C170.238 114.841 169.9 117.399 170.253 119.909" stroke="#3842F1" stroke-width="2" stroke-linecap="round" stroke-linejoin="round"/>
<path d="M204.59 130.85C203.871 130.934 203.18 131.182 202.57 131.574" stroke="#3842F1" stroke-width="2" stroke-linecap="round" stroke-linejoin="round"/>
<path d="M182.266 117.509C180.018 116.823 177.616 116.823 175.367 117.509" stroke="#3842F1" stroke-width="2" stroke-linecap="round" stroke-linejoin="round"/>
<path d="M182.228 116.021C183.067 117.508 181.313 119.071 180.094 120.71" stroke="#3842F1" stroke-width="2" stroke-linecap="round" stroke-linejoin="round"/>
<path d="M199.607 133.862C199.416 130.965 188.363 123.837 184.361 122.046C182.981 121.396 181.519 120.934 180.016 120.674" stroke="#3842F1" stroke-width="2" stroke-linecap="round" stroke-linejoin="round"/>
<path d="M199.48 133.938C200.451 132.929 201.585 132.091 202.835 131.46C203.711 131.117 214.269 136.11 221.587 152.614C221.854 153.186 223.15 152.614 223.036 152.614C219.666 143.567 213.83 135.645 206.189 129.745C200.736 124.967 194.796 120.776 188.465 117.243C184.653 115.223 178.021 111.716 173.447 114.041C172.799 114.384 174.896 117.243 175.353 117.853" stroke="#3842F1" stroke-width="2" stroke-linecap="round" stroke-linejoin="round"/>
<path d="M199.56 133.938C189.745 144.314 178.12 152.813 165.256 159.017C140.9 169.118 132.133 172.205 117.688 183.373" stroke="#3842F1" stroke-width="2" stroke-linecap="round" stroke-linejoin="round"/>
<path d="M180.015 120.75C169.777 133.841 157.139 144.863 142.777 153.224C130.821 160.036 119.358 167.678 108.473 176.094" stroke="#3842F1" stroke-width="2" stroke-linecap="round" stroke-linejoin="round"/>
<path d="M117.622 183.451C116.867 184.054 116.2 184.759 115.64 185.548C115.28 186.294 115.173 187.137 115.335 187.949" stroke="#3842F1" stroke-width="2" stroke-linecap="round" stroke-linejoin="round"/>
<path d="M117.616 183.299C115.138 180.321 112.077 177.883 108.621 176.133" stroke="#3842F1" stroke-width="2" stroke-linecap="round" stroke-linejoin="round"/>
<path d="M108.467 176.281C107.179 177.526 105.568 178.384 103.816 178.759" stroke="#3842F1" stroke-width="2" stroke-linecap="round" stroke-linejoin="round"/>
<path d="M101.345 220.916C99.5371 221.768 97.5462 222.159 95.5507 222.052C93.5551 221.946 91.617 221.346 89.9102 220.307" stroke="#3842F1" stroke-width="2" stroke-linecap="round" stroke-linejoin="round"/>
<path d="M175.329 117.66C168.353 120.404 161.836 124.445 154.67 126.884C146.666 129.59 137.937 130.162 129.742 132.335C114.001 136.489 98.9832 143.045 83.737 148.572C73.2172 152.383 57.0562 155.738 48.8232 163.284C45.3042 166.008 42.175 169.202 39.5231 172.775C32.6627 182.476 28.0888 193.605 26.1445 205.326C25.3822 208.68 21.9137 216.76 28.0122 217.256" stroke="#3842F1" stroke-width="2" stroke-linecap="round" stroke-linejoin="round"/>
<path d="M80.4921 170.91C77.0617 171.901 73.9362 173.616 70.6202 174.722C66.6106 175.89 62.7676 177.568 59.1855 179.715C55.5414 183.039 52.577 187.039 50.457 191.493" stroke="#3842F1" stroke-width="2" stroke-linecap="round" stroke-linejoin="round"/>
<path d="M116.896 146.021C100.239 149.833 97.838 157.685 85.7554 167.061C83.1636 169.081 80.5336 170.873 77.8655 172.74C70.5473 177.619 63.1529 181.926 55.8347 187.415C45.4718 195.264 36.4597 204.753 29.1539 215.506C27.5149 218.022 20.0443 230.181 18.2148 234.145C16.3852 238.109 12.7261 246.951 11.4683 251.144C10.7822 253.507 14.3651 255.68 17.2237 255.947" stroke="#3842F1" stroke-width="2" stroke-linecap="round" stroke-linejoin="round"/>
<path d="M98.6768 215.237C89.834 218.477 81.7535 227.358 74.5116 233.113C64.3728 241.155 55.6825 248.74 45.8106 257.126C36.7391 264.749 29.4209 276.184 16.2711 275.536C1.02489 274.773 14.0223 260.289 16.9953 256.745C18.1388 255.334 20.8069 251.637 22.0266 250.189C34.3431 233.075 48.9945 217.769 65.5544 204.717C70.3648 200.878 75.4617 197.412 80.8006 194.35" stroke="#3842F1" stroke-width="2" stroke-linecap="round" stroke-linejoin="round"/>
<path d="M178.683 214.78C146.666 221.145 120.023 241.46 98.3735 262.729C92.1987 268.827 85.4523 274.545 79.6968 280.986C74.5131 286.704 63.0785 296.652 54.9599 296.69C52.4443 296.69 48.0229 297.185 46.1933 295.089C44.3638 292.993 46.727 285.713 47.9848 283.654C53.3602 275.124 59.4828 267.088 66.2802 259.642C72.5693 252.438 81.5264 239.669 88.1966 232.694C97.9005 223.461 108.16 214.831 118.918 206.852" stroke="#3842F1" stroke-width="2" stroke-linecap="round" stroke-linejoin="round"/>
<path d="M118.909 206.775C119.789 205.228 120.099 203.421 119.786 201.668C119.383 198.32 118.362 195.076 116.775 192.101C116.081 190.725 115.568 189.264 115.25 187.756" stroke="#3842F1" stroke-width="2" stroke-linecap="round" stroke-linejoin="round"/>
<path d="M115.25 187.718C113.111 185.624 110.845 183.664 108.465 181.848C107.087 180.672 105.622 179.601 104.082 178.646" stroke="#3842F1" stroke-width="2" stroke-linecap="round" stroke-linejoin="round"/>
<path d="M221.516 152.652C224.832 158.903 224.832 169.919 221.287 172.777C220.478 173.467 219.625 174.103 218.733 174.683C213.321 178.037 206.956 181.696 204.592 187.909C200.781 197.934 204.593 208.301 202.42 218.402C201.08 225.598 198.596 232.534 195.064 238.946C193.73 241.423 189.308 258.004 182.943 265.627C181.088 268.423 179.517 271.398 178.255 274.508C176.311 279.958 174.443 286.171 167.582 285.066C165.477 283.89 163.624 282.31 162.132 280.416C160.158 277.047 158.911 273.302 158.471 269.423C158.031 265.543 158.408 261.614 159.578 257.889C160.798 253.163 163.39 248.78 165.219 244.168C167.659 237.269 170.822 229.264 164.571 223.318C163.102 222.121 161.456 221.156 159.692 220.46" stroke="#3842F1" stroke-width="2" stroke-linecap="round" stroke-linejoin="round"/>
<path d="M103.976 178.684C101.477 179.053 99.0712 179.894 96.8864 181.161C91.8186 183.454 86.9266 186.116 82.25 189.127C80.8805 189.818 79.7039 190.837 78.8258 192.095C77.9476 193.352 77.3954 194.808 77.2188 196.331" stroke="#3842F1" stroke-width="2" stroke-linecap="round" stroke-linejoin="round"/>
<path d="M97.2619 218.895C97.9786 217.907 98.4667 216.772 98.6908 215.572C98.915 214.373 98.8696 213.138 98.5579 211.958C97.8048 205.78 94.8881 200.068 90.3249 195.835C89.0619 194.603 87.4408 193.803 85.6946 193.549C83.9483 193.296 82.1666 193.603 80.6055 194.425" stroke="#3842F1" stroke-width="2" stroke-linecap="round" stroke-linejoin="round"/>
<path d="M240.276 111.754C240.847 111.106 248.623 103.102 252.015 99.6336C252.777 98.8713 254.073 97.8422 252.015 96.4319C249.957 95.0216 235.93 85.7595 234.558 84.7685C232.157 83.0152 231.433 84.0825 230.404 85.0353C227.659 87.551 219.617 95.1741 218.664 96.127" stroke="#3842F1" stroke-width="2" stroke-linecap="round" stroke-linejoin="round"/>
</svg>
