<svg width="296" height="371" viewBox="0 0 296 371" fill="none" xmlns="http://www.w3.org/2000/svg">
<path d="M52.2227 80.2109C52.2227 87.0956 53.4008 94.017 53.5113 100.902C53.6953 111.21 54.1739 121.335 54.8366 131.607C54.8667 136.528 55.1616 141.444 55.7201 146.333" stroke="#3842F1" stroke-width="2" stroke-linecap="round" stroke-linejoin="round"/>
<path d="M95.0117 78C97.6993 98.8012 100.24 120.67 101.418 141.582" stroke="#3842F1" stroke-width="2" stroke-linecap="round" stroke-linejoin="round"/>
<path d="M105.207 92.3594C105.98 102.889 106.68 113.971 107.048 124.574" stroke="#3842F1" stroke-width="2" stroke-linecap="round" stroke-linejoin="round"/>
<path d="M43.6406 100.975C43.8983 111.541 44.2297 122.623 44.9292 133.226" stroke="#3842F1" stroke-width="2" stroke-linecap="round" stroke-linejoin="round"/>
<path d="M108.254 89.082C109.027 99.6483 109.763 110.693 110.095 121.296" stroke="#3842F1" stroke-width="2" stroke-linecap="round" stroke-linejoin="round"/>
<path d="M40.2617 98.0293C40.5194 108.596 40.8875 119.677 41.5871 130.28" stroke="#3842F1" stroke-width="2" stroke-linecap="round" stroke-linejoin="round"/>
<path d="M111.465 97.6973C112.569 106.865 113.6 116.51 114.079 125.714" stroke="#3842F1" stroke-width="2" stroke-linecap="round" stroke-linejoin="round"/>
<path d="M37.8281 105.834C38.0858 116.4 38.4172 127.482 39.1167 138.085" stroke="#3842F1" stroke-width="2" stroke-linecap="round" stroke-linejoin="round"/>
<path d="M248.234 189.666C248.971 189.666 256.997 190.292 260.457 190.844" stroke="#3842F1" stroke-width="2" stroke-linecap="round" stroke-linejoin="round"/>
<path d="M205.895 186.094C211.393 185.853 216.9 185.939 222.388 186.352C230.814 186.856 239.207 187.803 247.534 189.187" stroke="#3842F1" stroke-width="2" stroke-linecap="round" stroke-linejoin="round"/>
<path d="M205.565 186.536C207.443 182.302 213.665 212.307 213.186 227.476C212.376 252.364 206.596 277.804 205.418 274.38" stroke="#3842F1" stroke-width="2" stroke-linecap="round" stroke-linejoin="round"/>
<path d="M247.271 189.04C250.548 188.635 253.788 215.805 253.42 234.324C253.246 251.295 250.769 268.163 246.057 284.468C245.725 285.94 207.657 275.079 205.559 274.638" stroke="#3842F1" stroke-width="2" stroke-linecap="round" stroke-linejoin="round"/>
<path d="M70.3047 208.293C86.8761 209.305 103.298 212.032 119.307 216.429C139.446 221.436 159.621 226.407 179.649 232.076C192.314 235.758 199.788 236.2 212.416 239.845" stroke="#3842F1" stroke-width="2" stroke-linecap="round" stroke-linejoin="round"/>
<path d="M70.418 200.451C90.5197 198.5 110.511 205.679 130.502 207.115C156.016 208.956 198.686 215.619 212.418 217.018" stroke="#3842F1" stroke-width="2" stroke-linecap="round" stroke-linejoin="round"/>
<path d="M207.549 216.686C207.88 223.055 207.549 235.683 207.328 238.481" stroke="#3842F1" stroke-width="2" stroke-linecap="round" stroke-linejoin="round"/>
<path d="M64.9607 199.641C64.7579 202.779 64.7579 205.927 64.9607 209.066C64.9607 209.655 68.6423 209.066 69.7468 209.066C70.8513 209.066 70.2255 208.182 70.1887 204.059C70.1887 200.671 70.3727 199.42 69.3787 199.493C68.3847 199.567 65.2921 199.493 64.8871 199.493L64.9607 199.641Z" stroke="#3842F1" stroke-width="2" stroke-linecap="round" stroke-linejoin="round"/>
<path d="M26.6813 179.98C26.1164 183.942 24.9752 187.799 23.2942 191.43C20.8828 194.823 19.1456 198.648 18.1768 202.696C18.0347 203.732 18.1317 204.787 18.4604 205.779C18.789 206.772 19.3404 207.676 20.0725 208.422C20.8047 209.168 21.698 209.737 22.684 210.085C23.67 210.432 24.7226 210.55 25.7609 210.428" stroke="#3842F1" stroke-width="2" stroke-linecap="round" stroke-linejoin="round"/>
<path d="M78.9153 183.701C73.9004 185.071 68.7247 185.764 63.526 185.763C52.8125 186.462 40.9576 188.229 30.8699 183.075C22.5863 178.878 24.3535 169.195 25.9734 161.206C27.1884 155.242 35.2879 148.652 48.9468 147.437C52.6047 146.831 56.2911 146.414 59.9917 146.185C75.6018 145.485 109.841 142.761 101.336 140.221" stroke="#3842F1" stroke-width="2" stroke-linecap="round" stroke-linejoin="round"/>
<path d="M39.715 223.275C37.1235 226.561 35.6987 230.615 35.6652 234.799C34.8867 238.853 35.6062 243.053 37.6901 246.617C45.9369 258.987 58.3441 257.146 72.3711 258.325C76.9332 258.564 81.5047 258.564 86.0668 258.325" stroke="#3842F1" stroke-width="2" stroke-linecap="round" stroke-linejoin="round"/>
<path d="M32.1633 183.738C25.4995 185.837 24.1005 206.159 26.4568 211.608C27.5991 214.325 29.3366 216.751 31.5413 218.707C33.7459 220.664 36.3615 222.1 39.1952 222.911C41.9564 223.389 56.3147 224.457 60.7695 224.42C66.6773 224.531 72.5794 223.987 78.3678 222.8" stroke="#3842F1" stroke-width="2" stroke-linecap="round" stroke-linejoin="round"/>
<path d="M46.5475 254.498C37.5275 258.18 39.1842 276.404 49.3824 280.895C52.4749 282.258 74.8224 285.939 86.1987 288.7C107.855 293.691 130.383 293.502 151.953 288.148C165.059 284.798 174.889 274.931 188.511 273.9C194.358 273.337 200.251 273.448 206.073 274.232" stroke="#3842F1" stroke-width="2" stroke-linecap="round" stroke-linejoin="round"/>
<path d="M246.391 284.43C249.314 285.167 252.181 286.115 254.969 287.265" stroke="#3842F1" stroke-width="2" stroke-linecap="round" stroke-linejoin="round"/>
<path d="M100.863 132.121C109.589 133.778 138.637 150.934 147.252 154.726C155.867 158.518 175.969 177.295 191.026 183.222C195.928 185.299 201.142 186.543 206.452 186.904" stroke="#3842F1" stroke-width="2" stroke-linecap="round" stroke-linejoin="round"/>
<path d="M47.4062 147.583C50.2043 146.92 51.7137 146.368 55.3953 145.264" stroke="#3842F1" stroke-width="2" stroke-linecap="round" stroke-linejoin="round"/>
<path d="M64.9648 208.59C66.0202 214.34 68.7629 219.646 72.8436 223.832" stroke="#3842F1" stroke-width="2" stroke-linecap="round" stroke-linejoin="round"/>
<path d="M75.0525 184.732C72.3365 186.47 70.0288 188.775 68.2875 191.488C66.5462 194.202 65.4127 197.26 64.9648 200.453" stroke="#3842F1" stroke-width="2" stroke-linecap="round" stroke-linejoin="round"/>
<path d="M71.4472 185.357C58.6719 192.721 58.9664 214.59 69.7904 224.125" stroke="#3842F1" stroke-width="2" stroke-linecap="round" stroke-linejoin="round"/>
<path d="M52.4102 186.461C40.04 193.382 40.4449 214.589 51.0112 223.903" stroke="#3842F1" stroke-width="2" stroke-linecap="round" stroke-linejoin="round"/>
<path d="M253.461 219.852C256.812 220.22 265.942 220.662 272.974 221.03C276.84 221.03 277.687 224.711 277.502 227.951C277.318 231.191 276.95 238.628 276.508 242.678C276.444 244.072 275.853 245.39 274.856 246.367C273.859 247.344 272.529 247.907 271.133 247.942C269.476 247.942 257.769 247.206 253.02 246.875" stroke="#3842F1" stroke-width="2" stroke-linecap="round" stroke-linejoin="round"/>
</svg>
