<svg width="485" height="115" viewBox="0 0 485 115" fill="none" xmlns="http://www.w3.org/2000/svg">
<path d="M159.836 113.61H181.343C182.636 113.61 183.768 113.125 184.092 111.993C186.194 103.908 185.547 71.082 188.619 71.082C192.662 71.082 191.854 103.423 193.309 111.832C193.632 113.125 194.603 113.61 195.896 113.61H217.403C218.858 113.61 219.667 112.963 219.99 111.508C223.063 98.0867 226.135 62.8351 229.369 3.16612C229.531 1.54908 228.722 0.578845 227.105 0.578845H204.79C203.173 0.578845 202.364 1.54908 202.526 3.32782C206.569 47.1497 206.569 49.0902 202.688 49.0902C198.969 49.0902 198.807 47.1497 197.028 3.65123C196.866 2.03419 195.896 1.06396 194.441 1.06396H182.798C181.343 1.06396 180.373 2.03419 180.211 3.65123C178.432 47.1497 178.27 49.0902 174.551 49.0902C170.67 49.0902 170.67 47.1497 174.713 3.32782C174.875 1.54908 174.066 0.578845 172.449 0.578845H150.134C148.517 0.578845 147.708 1.54908 147.87 3.16612C151.104 62.8351 154.176 97.925 157.249 111.508C157.572 112.963 158.381 113.61 159.836 113.61Z" fill="#4541F8"/>
<path d="M237.287 114.123C236.586 114.123 236.001 113.928 235.534 113.538C235.222 113.226 235.066 112.759 235.066 112.135C235.066 111.979 235.066 111.823 235.066 111.667C235.378 93.5823 235.534 75.4582 235.534 57.2953C235.534 39.0543 235.378 20.8913 235.066 2.8063C234.988 2.02677 235.144 1.40315 235.534 0.935434C236.001 0.54567 236.586 0.350784 237.287 0.350784C248.123 0.350784 264.337 0.350784 285.93 0.350784C286.709 0.350784 287.333 0.584645 287.801 1.05236C288.191 1.52008 288.346 2.1437 288.269 2.92323C288.269 4.01457 288.269 4.98897 288.269 5.84645C288.269 6.70393 288.269 7.48346 288.269 8.18504C288.269 10.9134 288.269 13.0961 288.269 14.7331C288.269 16.3701 288.269 19.3323 288.269 23.6197C288.346 24.4772 288.113 25.1008 287.567 25.4905C287.099 25.8803 286.398 25.9972 285.462 25.8413C282.11 25.8413 279.85 25.8413 278.68 25.8413C277.589 25.8413 275.484 25.8413 272.366 25.8413C269.248 25.8413 266.793 26.5429 265 27.9461C263.207 29.2712 262.31 31.6878 262.31 35.1957C262.31 38.7035 263.285 41.198 265.234 42.6791C267.26 44.1602 269.755 44.9008 272.717 44.9008C275.211 44.9008 276.615 44.9008 276.926 44.9008C277.238 44.9008 279.538 44.9008 283.825 44.9008C284.449 44.9008 285.111 45.0177 285.813 45.2516C286.437 45.4854 286.748 46.0311 286.748 46.8886C286.748 48.2917 286.748 50.7082 286.748 54.1382C286.748 57.4901 286.748 59.7897 286.748 61.037C286.748 61.8165 286.476 62.5181 285.93 63.1417C285.384 63.7653 284.527 64.0771 283.358 64.0771C278.68 64.0771 276.264 64.0771 276.108 64.0771C276.03 64.0771 274.9 64.0771 272.717 64.0771C268.585 64.0771 265.818 65.3244 264.415 67.8189C263.012 70.2354 262.31 72.2622 262.31 73.8992C262.31 76.2378 263.129 78.4984 264.766 80.6811C266.403 82.9417 269.053 84.072 272.717 84.072C275.523 84.072 277.706 84.072 279.265 84.072C280.746 84.072 283.085 84.072 286.281 84.072C286.904 84.072 287.528 84.15 288.152 84.3059C288.697 84.4618 289.009 84.8905 289.087 85.5921C289.087 85.6701 289.048 85.748 288.97 85.826C288.97 87.463 288.97 88.9051 288.97 90.1523C288.892 91.3996 288.853 92.5299 288.853 93.5433C288.775 97.4409 288.736 100.13 288.736 101.611C288.814 103.17 288.853 106.483 288.853 111.55C288.853 112.33 288.697 112.954 288.385 113.421C288.074 113.889 287.528 114.123 286.748 114.123C278.485 114.123 270.261 114.123 262.076 114.123C253.813 114.123 245.55 114.123 237.287 114.123Z" fill="#4541F8"/>
<path d="M298.441 114.123C297.74 114.123 297.155 113.928 296.687 113.538C296.376 113.226 296.22 112.759 296.22 112.135C296.22 111.979 296.22 111.823 296.22 111.667C296.532 93.5823 296.687 75.4582 296.687 57.2953C296.687 39.0543 296.532 20.8913 296.22 2.8063C296.142 2.02677 296.298 1.40315 296.687 0.935434C297.155 0.54567 297.74 0.350784 298.441 0.350784C309.277 0.350784 325.491 0.350784 347.084 0.350784C347.863 0.350784 348.487 0.584645 348.955 1.05236C349.344 1.52008 349.5 2.1437 349.422 2.92323C349.422 4.01457 349.422 4.98897 349.422 5.84645C349.422 6.70393 349.422 7.48346 349.422 8.18504C349.422 10.9134 349.422 13.0961 349.422 14.7331C349.422 16.3701 349.422 19.3323 349.422 23.6197C349.5 24.4772 349.267 25.1008 348.721 25.4905C348.253 25.8803 347.552 25.9972 346.616 25.8413C343.264 25.8413 341.004 25.8413 339.834 25.8413C338.743 25.8413 336.638 25.8413 333.52 25.8413C330.402 25.8413 327.946 26.5429 326.154 27.9461C324.361 29.2712 323.464 31.6878 323.464 35.1957C323.464 38.7035 324.439 41.198 326.387 42.6791C328.414 44.1602 330.909 44.9008 333.871 44.9008C336.365 44.9008 337.769 44.9008 338.08 44.9008C338.392 44.9008 340.692 44.9008 344.979 44.9008C345.603 44.9008 346.265 45.0177 346.967 45.2516C347.591 45.4854 347.902 46.0311 347.902 46.8886C347.902 48.2917 347.902 50.7082 347.902 54.1382C347.902 57.4901 347.902 59.7897 347.902 61.037C347.902 61.8165 347.63 62.5181 347.084 63.1417C346.538 63.7653 345.681 64.0771 344.511 64.0771C339.834 64.0771 337.418 64.0771 337.262 64.0771C337.184 64.0771 336.054 64.0771 333.871 64.0771C329.739 64.0771 326.972 65.3244 325.569 67.8189C324.166 70.2354 323.464 72.2622 323.464 73.8992C323.464 76.2378 324.283 78.4984 325.92 80.6811C327.557 82.9417 330.207 84.072 333.871 84.072C336.677 84.072 338.86 84.072 340.419 84.072C341.9 84.072 344.239 84.072 347.435 84.072C348.058 84.072 348.682 84.15 349.306 84.3059C349.851 84.4618 350.163 84.8905 350.241 85.5921C350.241 85.6701 350.202 85.748 350.124 85.826C350.124 87.463 350.124 88.9051 350.124 90.1523C350.046 91.3996 350.007 92.5299 350.007 93.5433C349.929 97.4409 349.89 100.13 349.89 101.611C349.968 103.17 350.007 106.483 350.007 111.55C350.007 112.33 349.851 112.954 349.539 113.421C349.228 113.889 348.682 114.123 347.902 114.123C339.639 114.123 331.415 114.123 323.23 114.123C314.967 114.123 306.704 114.123 298.441 114.123Z" fill="#4541F8"/>
<path d="M365.091 113.772C362.986 113.772 361.388 113.109 360.297 111.784C359.128 110.459 358.543 108.9 358.543 107.107C358.543 105.47 358.543 104.067 358.543 102.898C358.543 101.65 358.543 100.559 358.543 99.6236C358.543 95.1803 358.543 92.8807 358.543 92.7248C358.465 92.5689 358.465 90.2303 358.543 85.709C358.543 84.9295 358.543 84.0331 358.543 83.0197C358.543 82.0063 358.543 80.876 358.543 79.6287C358.543 77.446 358.816 75.887 359.361 74.9516C359.829 74.0161 360.57 72.7689 361.583 71.2098C365.715 65.2854 369.729 59.4 373.627 53.5535C377.602 47.6291 382.007 40.9252 386.84 33.4417C387.385 32.5842 387.424 31.8827 386.957 31.337C386.567 30.7134 385.943 30.4016 385.086 30.4016C384.696 30.4016 382.124 30.4016 377.369 30.4016C372.691 30.4016 368.014 30.4016 363.337 30.4016C361.466 30.5575 360.219 30.0508 359.595 28.8815C359.05 27.7901 358.777 26.8157 358.777 25.9583C358.777 24.8669 358.777 23.9315 358.777 23.152C358.777 22.2945 358.738 21.515 358.66 20.8134C358.66 18.085 358.621 16.0583 358.543 14.7331C358.543 13.3299 358.426 10.5236 358.192 6.31417C358.192 6.08031 358.192 5.88543 358.192 5.72952C358.192 4.01456 358.621 2.65039 359.478 1.63701C360.336 0.545668 361.817 0 363.922 0C373.9 0 388.906 0 408.939 0C411.044 0 412.525 0.506693 413.383 1.52008C414.24 2.53346 414.669 4.13149 414.669 6.31417C414.669 7.48346 414.669 8.53582 414.669 9.47125C414.591 10.4067 414.552 11.2252 414.552 11.9268C414.474 15.2008 414.435 16.8378 414.435 16.8378C414.435 16.8378 414.435 18.4748 414.435 21.7488C414.435 22.3724 414.435 23.035 414.435 23.7366C414.435 24.5161 414.435 25.3736 414.435 26.309C414.435 27.7901 414.357 29.1153 414.201 30.2846C413.967 31.4539 413.461 32.7012 412.681 34.0264C411.278 36.6768 409.953 39.1323 408.706 41.3929C407.458 43.5756 406.25 45.6803 405.081 47.7071C402.898 51.4488 400.715 55.1126 398.533 58.6984C396.35 62.2063 393.856 66.2208 391.049 70.7421C390.348 71.9893 390.27 72.8079 390.815 73.1976C391.361 73.6653 391.829 73.8992 392.219 73.8992C393.154 73.8992 395.103 73.8992 398.065 73.8992C400.949 73.8992 404.652 73.8992 409.173 73.8992C411.356 73.8992 412.837 74.6008 413.617 76.0039C414.396 77.485 414.786 78.6543 414.786 79.5118C414.786 81.0708 414.786 82.435 414.786 83.6043C414.864 84.8515 414.903 85.9429 414.903 86.8783C414.903 89.6846 414.942 91.8283 415.02 93.3094C415.098 94.8685 415.215 97.0511 415.37 99.8574C415.37 100.871 415.409 101.962 415.487 103.131C415.565 104.379 415.604 105.782 415.604 107.341C415.604 107.419 415.604 107.497 415.604 107.575C415.604 109.134 415.254 110.537 414.552 111.784C413.772 113.109 412.135 113.772 409.641 113.772C402.235 113.772 394.83 113.772 387.424 113.772C379.941 113.772 372.496 113.772 365.091 113.772Z" fill="#4541F8"/>
<path d="M439.926 113.772C438.99 113.772 438.367 113.538 438.055 113.07C437.665 112.525 437.626 111.862 437.938 111.083C438.873 104.768 439.575 99.0779 440.043 94.011C440.51 89.022 440.744 83.8382 440.744 78.4594C439.263 77.8358 437.821 76.6665 436.418 74.9516C434.937 73.1586 433.533 70.7421 432.208 67.702C429.792 61.9334 427.726 53.7484 426.011 43.1468C424.452 33.0909 423.672 20.5405 423.672 5.49567C423.672 4.56024 423.672 3.58583 423.672 2.57244C423.672 1.79291 423.906 1.16929 424.374 0.701573C424.842 0.233856 425.426 0 426.128 0C430.727 0 437.587 0 446.707 0C447.409 0 447.994 0.233856 448.461 0.701573C448.851 1.16929 449.007 1.87086 448.929 2.8063C448.695 8.96456 448.617 14.1874 448.695 18.4748C448.695 22.8401 448.812 26.5039 449.046 29.4661C449.514 34.8449 450.215 38.3138 451.151 39.8728C452.086 41.3539 453.1 42.0945 454.191 42.0945C455.204 42.0945 456.257 41.3539 457.348 39.8728C458.361 38.3138 459.102 34.8449 459.57 29.4661C459.804 26.5039 459.92 22.8791 459.92 18.5917C459.92 14.2264 459.726 8.96456 459.336 2.8063C459.258 1.87086 459.414 1.16929 459.804 0.701573C460.193 0.233856 460.817 0 461.674 0C466.196 0 473.056 0 482.254 0C482.956 0 483.54 0.233856 484.008 0.701573C484.398 1.16929 484.593 1.79291 484.593 2.57244C484.593 3.11811 484.593 3.66378 484.593 4.20945C484.593 28.6087 482.839 46.6157 479.331 58.2307C475.745 70.0795 471.847 76.8224 467.638 78.4594C467.638 83.8382 467.872 89.2169 468.339 94.5956C468.729 99.8964 469.431 105.392 470.444 111.083C470.756 111.862 470.717 112.525 470.327 113.07C469.937 113.538 469.314 113.772 468.456 113.772C463.701 113.772 458.946 113.772 454.191 113.772C449.436 113.772 444.681 113.772 439.926 113.772Z" fill="#4541F8"/>
<path d="M15.8028 113.5C19.9815 113.37 24.0632 112.253 27.2265 108.66C31.1834 104.165 30.6701 101.335 30.6701 93.5016C30.6701 85.6681 29.4613 81.865 25.5044 78.5807C22.7517 76.296 19.4899 75.2995 16.3903 75.4688C13.2907 75.6381 6.92515 76.4426 3.82841 76.7883C0.731669 77.134 0.346885 78.6904 0.390614 80.5949C0.635965 91.295 0.596625 88.6685 0.591259 93.2736C0.586403 97.4405 0.637492 100.356 0.387587 110.211C0.330648 112.459 1.59182 113.461 4.17549 113.499C10.386 113.591 10.871 113.5 15.8028 113.5ZM14.6705 100.015C11.2297 100.015 11.2297 100.707 11.2297 94.3108C11.2297 87.9147 11.2297 87.9147 14.6705 87.9147C17.7672 87.9147 18.4554 91.0263 18.4554 94.138C18.4554 97.2496 17.7672 100.015 14.6705 100.015Z" fill="#4541F8"/>
<path d="M20.3778 68.2251C14.5235 69.0071 14.1789 69.1135 9.00543 69.2608C3.83193 69.4082 0.389627 65.4591 0.389627 60.2805V54.0662V47.8519C0.389627 45.7645 0.380886 45.6197 0.389627 44.7447C0.389627 43.3638 0.90267 41.9828 3.14658 41.9828C3.57221 41.9831 5.25433 41.9828 5.93777 41.9828H7.08604C8.80525 41.9828 9.84299 43.1871 9.84299 45.086C9.84299 46.9848 11.1384 48.8876 13.1364 48.8876C15.1344 48.8876 16.5289 47.3935 16.5289 45.2175C16.5289 43.0415 16.0146 40.7633 13.1364 38.6895C9.16024 35.8246 4.18581 32.6196 2.18577 29.3556C0.185739 26.0916 0.561922 22.1315 0.389627 20.2327V10.2207C0.389627 3.3159 3.83193 0.20874 10.3836 0.20874H18.6545C25.2022 0.20874 28.6484 2.62542 28.6487 10.2207C28.649 17.0446 28.6438 19.8953 28.6484 22.3041C28.6484 25.2386 27.9591 26.1017 25.2022 26.1017H22.5524C20.1629 26.1017 19.3623 24.8934 19.3623 22.6493C19.3623 21.3222 18.2393 19.197 16.1715 19.197C14.2782 19.197 12.8531 20.5779 12.8531 22.6493C12.8531 23.9324 13.0793 27.4225 15.4717 29.4988C19.0159 32.5746 21.4718 32.9346 24.5862 36.3704C28.2076 40.3656 28.6484 42.5007 28.6484 49.5781V52.34V60.2805C28.4764 64.9453 26.2322 67.4431 20.3778 68.2251Z" fill="#4541F8"/>
<path d="M41.3846 64.9549C44.1443 64.979 49.3073 64.7822 53.7853 63.9189C58.2633 63.0556 63.0902 62.7102 63.0902 54.7682L62.7457 33.3572L63.0902 8.83815C63.0902 3.31685 58.9566 0.895468 54.823 0.550134C50.6895 0.204801 44.4506 0.204801 40.7 0.550134C36.9494 0.895468 32.7773 3.31685 32.7773 8.83815L33.1218 33.3572L32.7773 57.5309C32.7773 64.2642 38.4328 64.9291 41.3846 64.9549ZM47.911 41.9902C44.0991 41.9902 43.8002 36.6271 43.8002 33.1436C43.8002 29.5684 44.1446 24.297 47.9338 24.297C51.7229 24.297 52.0673 29.5684 52.0673 33.1436C52.0673 36.6271 51.7229 41.9902 47.911 41.9902Z" fill="#4541F8"/>
<path d="M83.4092 60.4655C83.4092 60.4655 90.1306 59.6063 93.0585 59.2609C98.7379 58.5911 99.6034 53.2135 99.6034 48.9009C99.6034 29.4011 98.872 21.0307 99.6034 2.97152C99.6034 0.895468 98.7379 0.208751 96.8476 0.208751H88.9208C87.1983 0.204801 86.0872 1.24485 86.1693 2.97152C86.8582 17.4755 86.8582 28.1809 86.8582 33.3609C86.8582 35.4329 85.1359 36.8142 83.4135 36.8142C81.6912 36.8142 79.9689 35.4329 79.9689 33.3609C79.9689 28.1809 79.9689 17.4755 80.6578 2.97152C80.6578 1.24485 79.7923 0.208751 77.9021 0.208847H69.9794C68.2528 0.208847 67.1292 0.895468 67.2237 2.97152C68.0465 21.0307 67.5682 31.1837 67.5682 51.3183C67.5682 60.2969 71.353 61.4325 75.4865 61.1562C79.6201 60.88 83.4092 60.4655 83.4092 60.4655Z" fill="#4541F8"/>
<path d="M106.493 57.2444L115.1 56.2053C117.171 55.8599 117.171 54.6513 117.171 53.274C117.171 45.0824 116.827 43.0302 116.827 39.2316C116.827 37.1596 117.86 35.7782 119.582 35.7782C121.305 35.7782 122.338 37.1596 122.338 39.2316C122.338 43.0302 121.994 44.1808 121.994 52.4688C121.994 53.5007 121.994 55.4001 124.745 55.0547L134.39 53.9042C136.284 53.7315 136.783 52.8682 136.629 50.9689C136.112 44.5802 136.112 45.0982 135.811 37.1891C135.811 27.747 133.526 26.2934 130.418 25.1933V25.1017C133.361 25.1017 136.806 21.8527 136.806 18.1662C136.806 14.1949 136.806 9.06413 136.806 7.11552C136.806 4.00752 134.05 0.208847 129.916 0.208847C126.26 0.208847 117.194 0.208847 112.349 0.208847C108.692 0.208847 108.3 0.208847 106.837 0.208847C104.89 0.208847 103.646 1.36414 103.737 3.31685C104.081 28.1809 104.081 25.1284 103.737 54.4818C103.719 56.0317 104.081 57.5898 106.493 57.2444ZM119.582 21.2742C117.171 21.2742 115.793 19.5475 115.793 16.0942C115.793 12.6409 117.171 10.9142 119.582 10.9142C121.994 10.9142 123.371 12.6409 123.371 16.0942C123.371 19.5475 121.994 21.2742 119.582 21.2742Z" fill="#4541F8"/>
<path d="M79.6162 113.539H91.3282C93.9075 113.539 93.7352 111.118 93.7352 111.118C93.7352 111.118 92.706 94.5482 92.3616 83.844C92.3577 83.4021 92.3616 82.9132 92.3616 82.4628C92.3616 81.7722 93.0505 81.0816 93.7394 81.0816C95.4748 81.0816 96.5523 83.844 98.5616 83.844C99.5954 83.844 100.284 83.1534 100.284 82.1175C100.284 72.6878 100.284 76.2475 100.284 67.9604C100.284 65.8823 99.7634 65.1924 97.5244 65.3666C95.2853 65.5409 73.756 68.3001 73.756 68.3001C70.8281 68.818 70.6597 69.5086 70.6597 72.4493C70.6597 81.7722 70.6584 74.1836 70.6599 82.1175C70.66 83.1534 71.3488 83.844 72.3822 83.844C74.3915 83.844 75.4696 81.0816 77.2049 81.0816C77.8983 81.0816 78.5828 81.7722 78.5828 82.4628C78.702 83.0938 78.6281 82.4444 78.5828 83.844C78.2383 94.4838 77.0285 111.118 77.0285 111.118C77.0285 111.118 77.0285 113.539 79.6162 113.539Z" fill="#4541F8"/>
<path d="M36.9481 113.54H45.9121C48.3251 113.54 48.4939 111.979 48.4939 110.768C48.4939 109.558 48.4939 109.039 48.3251 105.238C48.3251 103.854 49.0146 102.471 50.7382 102.471C52.4618 102.471 53.2125 103.856 53.1513 105.238C52.9753 109.212 52.9946 110.419 52.9753 110.768C52.8414 113.19 54.0095 113.54 55.5644 113.54H64.5272C66.0748 113.54 67.2814 113.017 67.109 110.422C65.9375 92.7894 66.0752 96.5848 65.04 72.7176C64.9424 70.4675 64.1782 69.7773 62.1098 69.7773C61.4204 69.7777 51.0793 71.161 51.0793 71.161L39.358 72.5447C37.9791 72.7176 36.5676 73.0635 36.4278 75.485C35.05 99.3531 35.7396 93.1266 34.3604 110.768C34.2221 113.123 35.5667 113.54 36.9481 113.54ZM50.7382 94.1686C49.0146 94.1686 46.9462 92.7849 46.9462 88.9799C46.9462 85.1748 49.0146 83.7911 50.7382 83.7911C52.4618 83.7911 54.5302 85.1748 54.5302 88.9799C54.5302 92.7849 52.4618 94.1686 50.7382 94.1686Z" fill="#4541F8"/>
<path d="M106.507 113.545H115.461C117.862 113.536 118.207 112.328 118.207 111.293C118.207 111.121 118.215 112.331 117.871 101.118C117.871 99.7384 118.904 98.7035 120.281 98.7035C121.658 98.7035 122.691 99.7384 122.691 101.118C122.347 112.331 122.338 111.121 122.338 111.293C122.338 112.503 123.027 113.545 125.102 113.545H134.052C136.46 113.545 136.804 112.501 136.804 110.776C135.083 82.4887 135.251 85.5928 134.217 64.2082C134.109 61.9659 132.323 61.2761 130.602 61.4479C128.88 61.6197 119.244 62.8199 119.244 62.8199C119.244 62.8199 110.292 63.8564 109.259 64.0289C108.226 64.2014 106.436 64.8093 106.333 66.9614C105.3 88.3609 105.811 82.8241 103.745 110.776C103.567 113.187 105.123 113.545 106.507 113.545ZM120.281 89.0436C117.527 89.0436 116.494 86.6286 116.494 82.4887C116.494 78.3487 117.527 75.9338 120.281 75.9338C123.036 75.9338 124.069 78.3487 124.069 82.4887C124.069 86.6286 123.036 89.0436 120.281 89.0436Z" fill="#4541F8"/>
</svg>
