<svg width="348" height="115" viewBox="0 0 348 115" fill="none" xmlns="http://www.w3.org/2000/svg">
<path d="M154.59 114.214C153.181 114.214 152.046 113.823 151.185 113.04C150.324 112.179 149.932 110.731 150.011 108.696C150.402 90.5367 150.598 73.3558 150.598 57.1534C150.598 40.951 150.402 23.7702 150.011 5.61098C150.011 5.45444 150.011 5.33703 150.011 5.25876C150.011 3.06713 150.48 1.65822 151.42 1.03204C152.437 0.405863 153.768 0.0927734 155.412 0.0927734C159.012 0.0927734 164.452 0.0927734 171.731 0.0927734C173.688 0.0927734 174.98 0.523272 175.606 1.38427C176.31 2.24527 176.584 3.61504 176.428 5.49358C175.645 15.669 175.41 23.5745 175.723 29.2101C176.115 34.8458 177.993 37.6636 181.359 37.6636C184.333 37.6636 186.094 34.8849 186.642 29.3276C187.268 23.7702 187.073 15.8255 186.055 5.49358C185.899 4.0064 186.055 2.7149 186.525 1.61909C186.995 0.601545 188.286 0.0927734 190.399 0.0927734C194.235 0.0927734 199.949 0.0927734 207.541 0.0927734C209.341 0.0927734 210.633 0.405863 211.416 1.03204C212.12 1.65822 212.472 2.94972 212.472 4.90653C212.472 4.98481 212.472 5.10221 212.472 5.25876C212.159 23.418 212.003 40.7945 212.003 57.3882C212.003 73.9037 212.159 91.2802 212.472 109.518C212.55 110.848 212.277 111.944 211.65 112.805C211.102 113.744 210.124 114.214 208.715 114.214C204.723 114.214 198.814 114.214 190.986 114.214C190.204 114.214 189.186 113.862 187.934 113.157C186.681 112.375 186.094 110.927 186.173 108.813C186.407 103.491 186.564 98.9509 186.642 95.1939C186.642 91.4368 186.603 88.3059 186.525 85.8012C186.368 81.0265 185.899 77.9348 185.116 76.5259C184.255 75.117 183.003 74.4125 181.359 74.4125C178.15 74.4125 176.389 76.7998 176.076 81.5744C175.684 86.3491 175.762 95.4287 176.31 108.813C176.31 109.674 176.115 110.809 175.723 112.218C175.41 113.549 174.119 114.214 171.849 114.214C169.031 114.214 166.174 114.214 163.278 114.214C160.382 114.214 157.486 114.214 154.59 114.214Z" fill="#4541F8"/>
<path d="M249.691 114.214C249.691 114.214 248.164 114.214 245.112 114.214C242.059 114.214 238.654 114.214 234.897 114.214C231.14 114.214 227.774 113.001 224.8 110.574C221.826 108.148 220.339 102.786 220.339 94.4894C220.339 87.9928 220.378 81.9658 220.456 76.4085C220.534 70.9294 220.573 65.7243 220.573 60.7931C220.652 51.5569 220.652 42.673 220.573 34.1413C220.495 25.6879 220.221 16.0212 219.752 5.14135C219.752 4.98481 219.752 4.82826 219.752 4.67171C219.752 3.02799 220.182 1.8539 221.043 1.14945C221.982 0.445 223.235 0.0927734 224.8 0.0927734C228.088 0.0927734 232.98 0.0927734 239.476 0.0927734C241.198 0.0927734 242.49 0.523272 243.351 1.38427C244.133 2.32354 244.525 3.5759 244.525 5.14135C243.899 18.5259 243.546 30.032 243.468 39.6595C243.39 49.287 243.351 56.4881 243.351 61.2627C243.351 63.2195 244.016 64.785 245.347 65.9591C246.599 67.1332 248.047 67.7202 249.691 67.7202C251.256 67.7202 252.704 67.1332 254.035 65.9591C255.366 64.785 256.031 63.2195 256.031 61.2627C256.031 56.4881 255.992 49.287 255.913 39.6595C255.757 30.032 255.366 18.5259 254.739 5.14135C254.661 3.5759 255.092 2.32354 256.031 1.38427C256.97 0.523272 258.223 0.0927734 259.788 0.0927734C263.075 0.0927734 267.967 0.0927734 274.464 0.0927734C276.186 0.0927734 277.478 0.445 278.339 1.14945C279.2 1.93218 279.63 3.26281 279.63 5.14135C279.317 11.0118 279.121 16.53 279.043 21.696C278.965 26.7837 278.926 31.7931 278.926 36.7243C279.004 45.7256 279.121 54.7661 279.278 63.8457C279.513 72.9253 279.63 83.3356 279.63 95.0765C279.63 99.6945 278.613 104.039 276.577 108.109C274.542 112.179 270.864 114.214 265.541 114.214C264.602 114.214 263.545 114.214 262.371 114.214C261.197 114.214 259.984 114.214 258.731 114.214C256.383 114.214 254.309 114.214 252.509 114.214C250.63 114.214 249.691 114.214 249.691 114.214Z" fill="#4541F8"/>
<path d="M329.646 114.449C327.768 114.449 325.654 114.449 323.306 114.449C320.88 114.371 318.297 114.292 315.557 114.214C312.035 114.214 308.278 114.175 304.286 114.097C300.216 114.018 296.146 113.979 292.075 113.979C290.353 113.979 289.062 113.51 288.201 112.57C287.34 111.631 286.909 110.144 286.909 108.109C286.988 101.769 287.066 95.6244 287.144 89.6757C287.222 83.7269 287.301 77.8565 287.379 72.0643C287.457 61.4193 287.457 50.8134 287.379 40.2466C287.379 29.6798 287.222 18.5651 286.909 6.90248C286.909 6.74594 286.909 6.62853 286.909 6.55025C286.909 4.35862 287.418 2.83231 288.436 1.97131C289.453 1.03204 290.823 0.562408 292.545 0.562408C296.302 0.562408 300.098 0.562408 303.934 0.562408C307.769 0.484136 311.33 0.405863 314.618 0.327591C316.888 0.327591 318.923 0.327591 320.723 0.327591C322.602 0.249318 324.167 0.210182 325.419 0.210182C333.56 0.210182 339.195 2.01045 342.326 5.61098C345.379 9.13325 346.905 15.7864 346.905 25.5705C346.905 33.3195 346.005 39.3856 344.205 43.7688C342.483 48.0738 339.235 50.8134 334.46 51.9874C334.46 51.9874 334.46 52.0657 334.46 52.2223C338.295 53.3181 341.465 55.7445 343.97 59.5016C346.475 63.2587 347.727 70.4206 347.727 80.9874C347.727 93.9024 346.044 102.708 342.679 107.404C339.391 112.101 335.047 114.449 329.646 114.449ZM316.144 43.8862C318.571 43.8862 320.449 43.0252 321.78 41.3032C323.11 39.5813 323.776 36.9983 323.776 33.5543C323.776 30.1886 323.11 27.6447 321.78 25.9227C320.449 24.2007 318.571 23.3397 316.144 23.3397C313.796 23.3397 311.957 24.2007 310.626 25.9227C309.295 27.6447 308.63 30.1886 308.63 33.5543C308.63 36.9983 309.295 39.5813 310.626 41.3032C311.957 43.0252 313.796 43.8862 316.144 43.8862ZM316.144 85.6838C318.571 85.6838 320.449 84.8228 321.78 83.1008C323.11 81.3788 323.776 78.8349 323.776 75.4692C323.776 72.0252 323.11 69.4422 321.78 67.7202C320.449 65.9982 318.571 65.1372 316.144 65.1372C313.796 65.1372 311.957 65.9982 310.626 67.7202C309.295 69.4422 308.63 72.0252 308.63 75.4692C308.63 78.8349 309.295 81.3788 310.626 83.1008C311.957 84.8228 313.796 85.6838 316.144 85.6838Z" fill="#4541F8"/>
<path d="M15.4803 113.818C19.6761 113.688 23.7745 112.566 26.9508 108.958C30.924 104.445 30.4086 101.604 30.4086 93.738C30.4086 85.8723 29.1948 82.0536 25.2217 78.7559C22.4577 76.4618 19.1825 75.4613 16.0702 75.6313C12.9579 75.8013 6.56624 76.609 3.45679 76.9561C0.347346 77.3033 -0.0390164 78.866 0.00489176 80.7783C0.251249 91.5223 0.211748 88.8851 0.20636 93.509C0.201484 97.6931 0.252782 100.62 0.0018522 110.516C-0.0553197 112.773 1.21102 113.779 3.80529 113.818C10.0412 113.91 10.5283 113.818 15.4803 113.818ZM14.3434 100.279C10.8884 100.279 10.8884 100.973 10.8884 94.5505C10.8884 88.1282 10.8884 88.1282 14.3434 88.1282C17.4528 88.1282 18.1438 91.2526 18.1438 94.377C18.1438 97.5014 17.4528 100.279 14.3434 100.279Z" fill="#4541F8"/>
<path d="M20.0741 68.3579C14.1958 69.1431 13.8498 69.2499 8.65504 69.3979C3.46033 69.5458 0.00390069 65.5806 0.00390069 60.3807V54.1409V47.9011C0.00390069 45.8052 -0.00487586 45.6597 0.00390069 44.7812C0.00390069 43.3946 0.519049 42.0079 2.77216 42.0079C3.19954 42.0083 4.88856 42.0079 5.5748 42.0079H6.72778C8.45404 42.0079 9.49605 43.2172 9.49605 45.1238C9.49605 47.0304 10.7968 48.9411 12.803 48.9411C14.8092 48.9411 16.2094 47.4408 16.2094 45.2559C16.2094 43.071 15.693 40.7834 12.803 38.7011C8.8105 35.8245 3.81565 32.6064 1.80741 29.329C-0.200824 26.0516 0.176902 22.0752 0.00390069 20.1686V10.1155C0.00390069 3.18241 3.46033 0.0625 10.0389 0.0625H18.3437C24.9182 0.0625 28.3786 2.48909 28.3789 10.1155C28.3792 16.9674 28.374 19.8298 28.3786 22.2485C28.3786 25.1951 27.6865 26.0617 24.9182 26.0617H22.2576C19.8583 26.0617 19.0544 24.8484 19.0544 22.5952C19.0544 21.2626 17.9268 19.1286 15.8506 19.1286C13.9494 19.1286 12.5185 20.5152 12.5185 22.5952C12.5185 23.8835 12.7456 27.3879 15.1479 29.4727C18.7066 32.5612 21.1726 32.9226 24.2997 36.3725C27.936 40.3841 28.3786 42.5279 28.3786 49.6344V52.4076V60.3807C28.2059 65.0646 25.9524 67.5727 20.0741 68.3579Z" fill="#4541F8"/>
<path d="M41.166 65.0743C43.937 65.0985 49.1212 64.9009 53.6176 64.034C58.114 63.1671 62.9606 62.8204 62.9606 54.8458L62.6147 33.3469L62.9606 8.72731C62.9606 3.18336 58.8101 0.752045 54.6596 0.405295C50.509 0.0585442 44.2446 0.0585442 40.4786 0.405295C36.7126 0.752045 32.5234 3.18336 32.5234 8.72731L32.8693 33.3469L32.5234 57.6198C32.5234 64.3808 38.2021 65.0484 41.166 65.0743ZM47.7191 42.0153C43.8916 42.0153 43.5915 36.6302 43.5915 33.1324C43.5915 29.5426 43.9374 24.2495 47.742 24.2495C51.5467 24.2495 51.8925 29.5426 51.8925 33.1324C51.8925 36.6302 51.5467 42.0153 47.7191 42.0153Z" fill="#4541F8"/>
<path d="M83.363 60.5664C83.363 60.5664 90.112 59.7037 93.0519 59.3569C98.7545 58.6843 99.6236 53.2847 99.6236 48.9544C99.6236 29.3746 98.8893 20.9698 99.6236 2.83661C99.6236 0.752045 98.7545 0.0625113 96.8566 0.0625113H88.8972C87.1676 0.0585442 86.052 1.10286 86.1344 2.83661C86.8261 17.4001 86.8261 28.1494 86.8261 33.3507C86.8261 35.4312 85.0967 36.8182 83.3673 36.8182C81.638 36.8182 79.9086 35.4312 79.9086 33.3507C79.9086 28.1494 79.9086 17.4001 80.6003 2.83661C80.6003 1.10286 79.7313 0.0625113 77.8333 0.0626077H69.8781C68.1444 0.0626077 67.0162 0.752045 67.1111 2.83661C67.9372 20.9698 67.457 31.1645 67.457 51.3817C67.457 60.3972 71.2573 61.5374 75.4078 61.26C79.5583 60.9826 83.363 60.5664 83.363 60.5664Z" fill="#4541F8"/>
<path d="M106.541 57.3322L115.184 56.2887C117.263 55.942 117.263 54.7284 117.263 53.3454C117.263 45.1202 116.917 43.0597 116.917 39.2454C116.917 37.1649 117.955 35.7779 119.684 35.7779C121.414 35.7779 122.452 37.1649 122.452 39.2454C122.452 43.0597 122.106 44.2149 122.106 52.5369C122.106 53.5731 122.106 55.4802 124.868 55.1335L134.553 53.9782C136.455 53.8049 136.955 52.938 136.801 51.0309C136.282 44.616 136.282 45.1361 135.98 37.1946C135.98 27.7138 133.685 26.2542 130.565 25.1496V25.0575C133.52 25.0575 136.978 21.7952 136.978 18.0936C136.978 14.106 136.978 8.95421 136.978 6.99762C136.978 3.87686 134.211 0.0626077 130.061 0.0626077C126.389 0.0626077 117.286 0.0626077 112.421 0.0626077C108.749 0.0626077 108.356 0.0626077 106.887 0.0626077C104.931 0.0626077 103.682 1.22264 103.774 3.18336C104.12 28.1494 104.12 25.0844 103.774 54.5582C103.756 56.1145 104.12 57.6789 106.541 57.3322ZM119.684 21.2144C117.263 21.2144 115.88 19.4806 115.88 16.0131C115.88 12.5456 117.263 10.8119 119.684 10.8119C122.106 10.8119 123.489 12.5456 123.489 16.0131C123.489 19.4806 122.106 21.2144 119.684 21.2144Z" fill="#4541F8"/>
<path d="M79.5553 113.858H91.3153C93.9052 113.858 93.7322 111.427 93.7322 111.427C93.7322 111.427 92.6988 94.7888 92.3529 84.0408C92.349 83.597 92.3529 83.1061 92.3529 82.6539C92.3529 81.9605 93.0447 81.2671 93.7365 81.2671C95.4789 81.2671 96.5609 84.0408 98.5784 84.0408C99.6164 84.0408 100.308 83.3473 100.308 82.3072C100.308 72.8387 100.308 76.4131 100.308 68.092C100.308 66.0054 99.7852 65.3127 97.5369 65.4876C95.2887 65.6625 73.6711 68.4331 73.6711 68.4331C70.7311 68.9532 70.562 69.6466 70.562 72.5993C70.5621 81.9605 70.5608 74.3407 70.5622 82.3072C70.5624 83.3473 71.254 84.0408 72.2916 84.0408C74.3092 84.0408 75.3917 81.2671 77.1341 81.2671C77.8304 81.2671 78.5177 81.9605 78.5177 82.6539C78.6373 83.2875 78.5631 82.6355 78.5177 84.0408C78.1718 94.7242 76.957 111.427 76.957 111.427C76.957 111.427 76.957 113.858 79.5553 113.858Z" fill="#4541F8"/>
<path d="M36.7146 113.858H45.7154C48.1383 113.858 48.3078 112.291 48.3078 111.075C48.3078 109.859 48.3078 109.338 48.1383 105.522C48.1383 104.133 48.8306 102.743 50.5613 102.743C52.292 102.743 53.0457 104.134 52.9843 105.522C52.8076 109.512 52.827 110.724 52.8076 111.075C52.6731 113.507 53.846 113.858 55.4072 113.858H64.4068C65.9608 113.858 67.1723 113.333 66.9992 110.728C65.8229 93.0224 65.9612 96.8334 64.9217 72.8684C64.8237 70.609 64.0564 69.916 61.9795 69.916C61.2873 69.9164 50.9038 71.3054 50.9038 71.3054L39.1344 72.6947C37.7498 72.8684 36.3326 73.2157 36.1922 75.647C34.8087 99.6131 35.5012 93.3611 34.1163 111.075C33.9775 113.439 35.3276 113.858 36.7146 113.858ZM50.5613 94.4073C48.8306 94.4073 46.7538 93.018 46.7538 89.1973C46.7538 85.3766 48.8306 83.9873 50.5613 83.9873C52.292 83.9873 54.3688 85.3766 54.3688 89.1973C54.3688 93.018 52.292 94.4073 50.5613 94.4073Z" fill="#4541F8"/>
<path d="M106.558 113.864H115.548C117.959 113.855 118.305 112.642 118.305 111.603C118.305 111.43 118.314 112.645 117.968 101.386C117.968 100.001 119.005 98.9614 120.388 98.9614C121.771 98.9614 122.808 100.001 122.808 101.386C122.462 112.645 122.454 111.43 122.454 111.603C122.454 112.818 123.145 113.864 125.228 113.864H134.216C136.633 113.864 136.979 112.815 136.979 111.083C135.25 82.6801 135.419 85.7969 134.381 64.3247C134.272 62.0732 132.48 61.3805 130.751 61.553C129.023 61.7255 119.347 62.9306 119.347 62.9306C119.347 62.9306 110.358 63.9714 109.321 64.1446C108.284 64.3178 106.487 64.9281 106.382 67.0891C105.345 88.5764 105.859 83.0168 103.785 111.083C103.606 113.504 105.168 113.864 106.558 113.864ZM120.388 89.2619C117.622 89.2619 116.585 86.837 116.585 82.6801C116.585 78.5232 117.622 76.0983 120.388 76.0983C123.154 76.0983 124.191 78.5232 124.191 82.6801C124.191 86.837 123.154 89.2619 120.388 89.2619Z" fill="#4541F8"/>
</svg>
