<svg width="490" height="114" viewBox="0 0 490 114" fill="none" xmlns="http://www.w3.org/2000/svg">
<path d="M152.826 113.883C150.383 113.883 148.846 113.338 148.216 112.248C147.664 111.158 147.389 109.834 147.389 108.277C147.467 102.359 147.546 97.1025 147.625 92.5082C147.704 87.8361 147.743 83.6312 147.743 79.8934C147.822 76 147.861 72.4959 147.861 69.3811C147.861 66.2664 147.861 63.3463 147.861 60.6209C147.94 55.6373 147.94 50.9652 147.861 46.6045C147.861 42.166 147.822 36.832 147.743 30.6025C147.743 27.4098 147.704 23.8668 147.625 19.9734C147.546 16.0021 147.467 11.5246 147.389 6.54099C147.389 6.46312 147.389 6.34631 147.389 6.19058C147.389 4.39959 147.94 2.99795 149.043 1.98566C150.147 0.895492 151.683 0.35041 153.653 0.35041C156.174 0.35041 159.878 0.35041 164.763 0.35041C171.303 0.35041 181.074 0.35041 194.075 0.35041C198.251 0.35041 201.6 1.86885 204.122 4.90574C206.722 8.02049 208.022 11.1352 208.022 14.25C208.022 20.791 208.022 30.6025 208.022 43.6844C208.022 50.1475 206.407 54.625 203.176 57.1168C199.946 59.6865 196.873 60.9713 193.957 60.9713C190.175 60.9713 184.541 60.9713 177.055 60.9713C175.007 60.9713 173.864 61.3607 173.628 62.1394C173.313 62.918 173.155 63.8135 173.155 64.8258C173.155 65.916 173.313 67.4344 173.628 69.3811C173.943 71.3279 174.179 74.209 174.337 78.0246C174.416 79.3484 174.494 80.5943 174.573 81.7623C174.652 83.0082 174.731 84.293 174.81 85.6168C175.046 88.1086 175.282 91.0676 175.519 94.4939C175.834 97.8422 176.149 102.398 176.464 108.16C176.622 109.484 176.504 110.691 176.11 111.781C175.716 112.949 174.455 113.689 172.328 114C172.328 114 171.224 114 169.018 114C166.891 114 164.527 113.961 161.927 113.883C160.114 113.883 158.42 113.883 156.844 113.883C155.189 113.883 153.85 113.883 152.826 113.883ZM178.946 41.582C181.31 41.582 183.162 40.7254 184.502 39.0123C185.841 37.2992 186.511 34.6906 186.511 31.1865C186.511 27.7602 185.841 25.1906 184.502 23.4775C183.162 21.6865 181.31 20.791 178.946 20.791C176.504 20.791 174.613 21.6865 173.273 23.4775C171.934 25.1906 171.264 27.7602 171.264 31.1865C171.264 34.6906 171.934 37.2992 173.273 39.0123C174.613 40.7254 176.504 41.582 178.946 41.582Z" fill="#4541F8"/>
<path d="M234.604 113.533C233.58 113.533 232.438 113.455 231.177 113.299C229.837 113.066 228.498 112.676 227.158 112.131C224.637 111.197 222.352 109.6 220.303 107.342C218.254 105.084 217.23 101.814 217.23 97.5307C217.388 89.043 217.624 76.3115 217.939 59.3361C217.782 49.8361 217.545 35.5861 217.23 16.5861C217.23 11.2131 218.963 7.28074 222.43 4.78894C225.976 2.21926 229.601 0.778689 233.304 0.467213C237.008 0.155738 241.538 0 246.897 0C252.334 0 257.101 0.155738 261.198 0.467213C265.217 0.778689 268.96 2.21926 272.427 4.78894C275.815 7.28074 277.509 11.2131 277.509 16.5861C277.351 26.0861 277.115 40.3361 276.8 59.3361C276.957 67.8238 277.194 80.5943 277.509 97.6476C277.509 102.865 275.578 106.836 271.717 109.561C267.935 112.287 263.72 113.65 259.071 113.65C254.5 113.65 249.97 113.65 245.478 113.65C240.987 113.65 237.362 113.611 234.604 113.533ZM246.542 73.8197C247.882 73.8197 249.024 73.5471 249.97 73.0021C250.836 72.3791 251.585 71.6004 252.215 70.666C253.397 68.7971 254.106 66.5389 254.343 63.8914C254.658 61.2439 254.816 58.8299 254.816 56.6496C254.816 54.3914 254.658 51.9385 254.343 49.291C254.106 46.6434 253.397 44.4242 252.215 42.6332C251.664 41.6209 250.915 40.8422 249.97 40.2971C249.024 39.6742 247.921 39.3627 246.66 39.3627C245.321 39.3627 244.178 39.6742 243.233 40.2971C242.366 40.8422 241.617 41.6209 240.987 42.6332C239.884 44.4242 239.175 46.6434 238.859 49.291C238.623 51.9385 238.505 54.3914 238.505 56.6496C238.505 58.8299 238.623 61.2439 238.859 63.8914C239.175 66.6168 239.884 68.875 240.987 70.666C241.539 71.6004 242.287 72.3791 243.233 73.0021C244.178 73.5471 245.281 73.8197 246.542 73.8197Z" fill="#4541F8"/>
<path d="M305.104 113.533C304.08 113.533 302.938 113.455 301.677 113.299C300.337 113.066 298.998 112.676 297.658 112.131C295.137 111.197 292.852 109.6 290.803 107.342C288.754 105.084 287.73 101.814 287.73 97.5307C287.888 89.043 288.124 76.3115 288.439 59.3361C288.282 49.8361 288.045 35.5861 287.73 16.5861C287.73 11.2131 289.463 7.28074 292.93 4.78894C296.476 2.21926 300.101 0.778689 303.804 0.467213C307.508 0.155738 312.039 0 317.397 0C322.834 0 327.601 0.155738 331.698 0.467213C335.717 0.778689 339.46 2.21926 342.927 4.78894C346.315 7.28074 348.009 11.2131 348.009 16.5861C347.851 26.0861 347.615 40.3361 347.3 59.3361C347.457 67.8238 347.694 80.5943 348.009 97.6476C348.009 102.865 346.078 106.836 342.217 109.561C338.435 112.287 334.22 113.65 329.571 113.65C325 113.65 320.47 113.65 315.978 113.65C311.487 113.65 307.862 113.611 305.104 113.533ZM317.042 73.8197C318.382 73.8197 319.524 73.5471 320.47 73.0021C321.336 72.3791 322.085 71.6004 322.715 70.666C323.897 68.7971 324.606 66.5389 324.843 63.8914C325.158 61.2439 325.316 58.8299 325.316 56.6496C325.316 54.3914 325.158 51.9385 324.843 49.291C324.606 46.6434 323.897 44.4242 322.715 42.6332C322.164 41.6209 321.415 40.8422 320.47 40.2971C319.524 39.6742 318.421 39.3627 317.16 39.3627C315.821 39.3627 314.678 39.6742 313.733 40.2971C312.866 40.8422 312.117 41.6209 311.487 42.6332C310.384 44.4242 309.675 46.6434 309.359 49.291C309.123 51.9385 309.005 54.3914 309.005 56.6496C309.005 58.8299 309.123 61.2439 309.359 63.8914C309.675 66.6168 310.384 68.875 311.487 70.666C312.039 71.6004 312.787 72.3791 313.733 73.0021C314.678 73.5471 315.781 73.8197 317.042 73.8197Z" fill="#4541F8"/>
<path d="M363.701 113.883C361.258 113.883 359.722 113.338 359.092 112.248C358.54 111.158 358.264 109.834 358.264 108.277C358.343 102.359 358.422 97.1025 358.501 92.5082C358.579 87.8361 358.619 83.6312 358.619 79.8934C358.698 76 358.737 72.4959 358.737 69.3811C358.737 66.2664 358.737 63.3463 358.737 60.6209C358.816 55.6373 358.816 50.9652 358.737 46.6045C358.737 42.166 358.698 36.832 358.619 30.6025C358.619 27.4098 358.579 23.8668 358.501 19.9734C358.422 16.0021 358.343 11.5246 358.264 6.54099C358.264 6.46312 358.264 6.34631 358.264 6.19058C358.264 4.39959 358.816 2.99795 359.919 1.98566C361.022 0.895492 362.559 0.35041 364.529 0.35041C367.05 0.35041 370.753 0.35041 375.639 0.35041C382.179 0.35041 391.95 0.35041 404.951 0.35041C409.127 0.35041 412.476 1.86885 414.997 4.90574C417.598 8.02049 418.898 11.1352 418.898 14.25C418.898 20.791 418.898 30.6025 418.898 43.6844C418.898 50.1475 417.282 54.625 414.052 57.1168C410.821 59.6865 407.748 60.9713 404.833 60.9713C401.05 60.9713 395.417 60.9713 387.931 60.9713C385.882 60.9713 384.74 61.3607 384.503 62.1394C384.188 62.918 384.031 63.8135 384.031 64.8258C384.031 65.916 384.188 67.4344 384.503 69.3811C384.818 71.3279 385.055 74.209 385.212 78.0246C385.291 79.3484 385.37 80.5943 385.449 81.7623C385.528 83.0082 385.606 84.293 385.685 85.6168C385.922 88.1086 386.158 91.0676 386.394 94.4939C386.71 97.8422 387.025 102.398 387.34 108.16C387.498 109.484 387.379 110.691 386.985 111.781C386.591 112.949 385.331 113.689 383.203 114C383.203 114 382.1 114 379.894 114C377.766 114 375.402 113.961 372.802 113.883C370.99 113.883 369.296 113.883 367.72 113.883C366.065 113.883 364.726 113.883 363.701 113.883ZM389.822 41.582C392.186 41.582 394.038 40.7254 395.377 39.0123C396.717 37.2992 397.386 34.6906 397.386 31.1865C397.386 27.7602 396.717 25.1906 395.377 23.4775C394.038 21.6865 392.186 20.791 389.822 20.791C387.379 20.791 385.488 21.6865 384.149 23.4775C382.809 25.1906 382.139 27.7602 382.139 31.1865C382.139 34.6906 382.809 37.2992 384.149 39.0123C385.488 40.7254 387.379 41.582 389.822 41.582Z" fill="#4541F8"/>
<path d="M444.451 113.883C443.506 113.883 442.875 113.65 442.56 113.182C442.166 112.637 442.127 111.975 442.442 111.197C443.387 104.889 444.097 99.2049 444.569 94.1434C445.042 89.1598 445.279 83.9816 445.279 78.6086C443.781 77.9857 442.324 76.8176 440.905 75.1045C439.408 73.3135 437.99 70.8996 436.65 67.8627C434.208 62.1004 432.12 53.9242 430.386 43.334C428.81 33.2889 428.022 20.7521 428.022 5.72336C428.022 4.78894 428.022 3.81557 428.022 2.80328C428.022 2.02459 428.259 1.40164 428.731 0.934426C429.204 0.467213 429.795 0.233607 430.504 0.233607C435.153 0.233607 442.087 0.233607 451.306 0.233607C452.016 0.233607 452.607 0.467213 453.079 0.934426C453.473 1.40164 453.631 2.10246 453.552 3.03689C453.316 9.18853 453.237 14.4057 453.316 18.6885C453.316 23.0492 453.434 26.709 453.67 29.668C454.143 35.041 454.852 38.5061 455.798 40.0635C456.743 41.543 457.768 42.2828 458.871 42.2828C459.895 42.2828 460.959 41.543 462.062 40.0635C463.086 38.5061 463.835 35.041 464.308 29.668C464.544 26.709 464.662 23.0881 464.662 18.8053C464.662 14.4447 464.465 9.18853 464.071 3.03689C463.993 2.10246 464.15 1.40164 464.544 0.934426C464.938 0.467213 465.569 0.233607 466.435 0.233607C471.005 0.233607 477.94 0.233607 487.237 0.233607C487.947 0.233607 488.538 0.467213 489.01 0.934426C489.404 1.40164 489.601 2.02459 489.601 2.80328C489.601 3.34836 489.601 3.89344 489.601 4.43853C489.601 28.8115 487.828 46.7992 484.283 58.4016C480.658 70.2377 476.718 76.9734 472.463 78.6086C472.463 83.9816 472.7 89.3545 473.172 94.7275C473.566 100.023 474.275 105.512 475.3 111.197C475.615 111.975 475.576 112.637 475.182 113.182C474.788 113.65 474.157 113.883 473.291 113.883C468.484 113.883 463.677 113.883 458.871 113.883C454.064 113.883 449.258 113.883 444.451 113.883Z" fill="#4541F8"/>
<path d="M15.5632 113.727C19.7815 113.596 23.9018 112.475 27.0951 108.868C31.0896 104.356 30.5714 101.515 30.5714 93.6515C30.5714 85.7879 29.3512 81.9702 25.3567 78.6733C22.578 76.3798 19.2852 75.3795 16.1562 75.5495C13.0273 75.7194 6.60139 76.527 3.4753 76.874C0.349206 77.2211 -0.0392254 78.7834 0.00491796 80.6952C0.252595 91.4365 0.212882 88.7999 0.207465 93.4226C0.202562 97.6056 0.254136 100.532 0.00186212 110.425C-0.0556159 112.682 1.21751 113.688 3.82567 113.726C10.095 113.818 10.5846 113.727 15.5632 113.727ZM14.4202 100.19C10.9467 100.19 10.9467 100.885 10.9467 94.4639C10.9467 88.0432 10.9467 88.0432 14.4202 88.0432C17.5462 88.0432 18.2409 91.1668 18.2409 94.2904C18.2409 97.4139 17.5462 100.19 14.4202 100.19Z" fill="#4541F8"/>
<path d="M20.1816 68.2778C14.2718 69.0628 13.9239 69.1696 8.70138 69.3175C3.47886 69.4654 0.00392157 65.5012 0.00392157 60.3027V54.0645V47.8263C0.00392157 45.7309 -0.00490196 45.5855 0.00392157 44.7072C0.00392157 43.3209 0.521828 41.9346 2.787 41.9346C3.21667 41.935 4.91474 41.9346 5.60465 41.9346H6.7638C8.49931 41.9346 9.54689 43.1436 9.54689 45.0497C9.54689 46.9558 10.8546 48.866 12.8715 48.866C14.8885 48.866 16.2961 47.3661 16.2961 45.1818C16.2961 42.9974 15.777 40.7104 12.8715 38.6287C8.85767 35.7528 3.83608 32.5355 1.81709 29.2589C-0.201899 25.9824 0.17785 22.007 0.00392157 20.1009V10.0504C0.00392157 3.1191 3.47886 0 10.0926 0H18.4419C25.0517 0 28.5305 2.42597 28.5309 10.0504C28.5312 16.9006 28.5259 19.7622 28.5305 22.1803C28.5305 25.1261 27.8348 25.9925 25.0517 25.9925H22.3768C19.9646 25.9925 19.1565 24.7796 19.1565 22.5269C19.1565 21.1947 18.0227 19.0612 15.9354 19.0612C14.0241 19.0612 12.5855 20.4475 12.5855 22.5269C12.5855 23.8148 12.8139 27.3184 15.229 29.4026C18.8067 32.4903 21.2859 32.8516 24.4298 36.3006C28.0856 40.3112 28.5305 42.4545 28.5305 49.5591V52.3316V60.3027C28.3569 64.9854 26.0914 67.4928 20.1816 68.2778Z" fill="#4541F8"/>
<path d="M41.3871 64.995C44.1729 65.0192 49.3848 64.8217 53.9053 63.955C58.4258 63.0884 63.2984 62.7417 63.2984 54.7692L62.9506 33.2759L63.2984 8.66257C63.2984 3.12006 59.1256 0.689368 54.9529 0.342706C50.7801 -0.00395479 44.4822 -0.00395479 40.696 0.342706C36.9098 0.689368 32.6982 3.12006 32.6982 8.66257L33.046 33.2759L32.6982 57.5425C32.6982 64.3017 38.4074 64.9691 41.3871 64.995ZM47.9753 41.942C44.1273 41.942 43.8256 36.5583 43.8256 33.0614C43.8256 29.4725 44.1733 24.1808 47.9983 24.1808C51.8233 24.1808 52.1711 29.4725 52.1711 33.0614C52.1711 36.5583 51.8233 41.942 47.9753 41.942Z" fill="#4541F8"/>
<path d="M83.81 60.4883C83.81 60.4883 90.5951 59.6258 93.5508 59.2792C99.284 58.6068 100.158 53.2085 100.158 48.8793C100.158 29.3045 99.4194 20.902 100.158 2.7734C100.158 0.689368 99.284 1.12592e-05 97.3758 1.12592e-05H89.3738C87.635 -0.00395481 86.5134 1.04009 86.5962 2.7734C87.2917 17.3332 87.2917 28.0797 87.2917 33.2796C87.2917 35.3596 85.553 36.7462 83.8144 36.7462C82.0757 36.7462 80.3371 35.3596 80.3371 33.2796C80.3371 28.0797 80.3371 17.3332 81.0326 2.7734C81.0326 1.04009 80.1589 1.12592e-05 78.2507 0.00010763H70.253C68.5099 0.00010763 67.3757 0.689368 67.4711 2.7734C68.3017 20.902 67.8189 31.094 67.8189 51.306C67.8189 60.3192 71.6395 61.4591 75.8122 61.1817C79.985 60.9044 83.81 60.4883 83.81 60.4883Z" fill="#4541F8"/>
<path d="M107.112 57.2549L115.801 56.2118C117.892 55.8651 117.892 54.6518 117.892 53.2692C117.892 45.0461 117.544 42.9861 117.544 39.1728C117.544 37.0929 118.587 35.7062 120.326 35.7062C122.065 35.7062 123.108 37.0929 123.108 39.1728C123.108 42.9861 122.76 44.141 122.76 52.4609C122.76 53.4968 122.76 55.4035 125.537 55.0568L135.274 53.9019C137.186 53.7285 137.689 52.8619 137.534 50.9552C137.013 44.542 137.013 45.062 136.709 37.1225C136.709 27.6441 134.402 26.1849 131.264 25.0806V24.9886C134.235 24.9886 137.712 21.7271 137.712 18.0265C137.712 14.0399 137.712 8.88942 137.712 6.93333C137.712 3.81338 134.931 0.00010763 130.758 0.00010763C127.067 0.00010763 117.915 0.00010763 113.024 0.00010763C109.332 0.00010763 108.936 0.00010763 107.46 0.00010763C105.494 0.00010763 104.238 1.15984 104.33 3.12006C104.678 28.0797 104.678 25.0154 104.33 54.4816C104.312 56.0375 104.678 57.6016 107.112 57.2549ZM120.326 21.1464C117.892 21.1464 116.501 19.4131 116.501 15.9465C116.501 12.4799 117.892 10.7466 120.326 10.7466C122.76 10.7466 124.151 12.4799 124.151 15.9465C124.151 19.4131 122.76 21.1464 120.326 21.1464Z" fill="#4541F8"/>
<path d="M79.9814 113.766H91.8043C94.4081 113.766 94.2342 111.336 94.2342 111.336C94.2342 111.336 93.1953 94.7019 92.8475 83.9566C92.8436 83.513 92.8475 83.0222 92.8475 82.5701C92.8475 81.8769 93.543 81.1836 94.2385 81.1836C95.9903 81.1836 97.078 83.9566 99.1064 83.9566C100.15 83.9566 100.845 83.2634 100.845 82.2235C100.845 72.7575 100.845 76.3309 100.845 68.012C100.845 65.9259 100.32 65.2334 98.0593 65.4083C95.799 65.5831 74.0657 68.353 74.0657 68.353C71.1099 68.8729 70.9399 69.5662 70.94 72.5181C70.94 81.8769 70.9387 74.2591 70.9401 82.2235C70.9403 83.2634 71.6356 83.9566 72.6788 83.9566C74.7072 83.9566 75.7955 81.1836 77.5472 81.1836C78.2472 81.1836 78.9382 81.8769 78.9382 82.5701C79.0585 83.2035 78.9839 82.5517 78.9382 83.9566C78.5904 94.6373 77.3691 111.336 77.3691 111.336C77.3691 111.336 77.3691 113.766 79.9814 113.766Z" fill="#4541F8"/>
<path d="M36.9102 113.767H45.9592C48.3951 113.767 48.5654 112.2 48.5654 110.984C48.5654 109.769 48.5654 109.248 48.3951 105.433C48.3951 104.044 49.0911 102.655 50.831 102.655C52.571 102.655 53.3288 104.045 53.267 105.433C53.0893 109.422 53.1088 110.634 53.0893 110.984C52.9542 113.415 54.1333 113.767 55.7029 113.767H64.7507C66.313 113.767 67.531 113.242 67.357 110.637C66.1744 92.9364 66.3134 96.7464 65.2684 72.7875C65.1698 70.5288 64.3984 69.8359 62.3104 69.8359C61.6145 69.8363 51.1754 71.2249 51.1754 71.2249L39.343 72.6139C37.951 72.7875 36.5261 73.1348 36.385 75.5655C34.9941 99.5254 35.6903 93.275 34.298 110.984C34.1584 113.348 35.5157 113.767 36.9102 113.767ZM50.831 94.3209C49.0911 94.3209 47.0031 92.932 47.0031 89.1123C47.0031 85.2926 49.0911 83.9036 50.831 83.9036C52.571 83.9036 54.659 85.2926 54.659 89.1123C54.659 92.932 52.571 94.3209 50.831 94.3209Z" fill="#4541F8"/>
<path d="M107.129 113.772H116.167C118.591 113.762 118.939 112.55 118.939 111.511C118.939 111.338 118.947 112.553 118.6 101.297C118.6 99.9121 119.642 98.8731 121.033 98.8731C122.423 98.8731 123.466 99.9121 123.466 101.297C123.118 112.553 123.109 111.338 123.109 111.511C123.109 112.726 123.805 113.772 125.899 113.772H134.935C137.365 113.772 137.712 112.723 137.712 110.992C135.974 82.596 136.144 85.7121 135.101 64.2453C134.991 61.9944 133.189 61.3019 131.451 61.4744C129.713 61.6468 119.986 62.8516 119.986 62.8516C119.986 62.8516 110.949 63.8921 109.906 64.0653C108.864 64.2384 107.057 64.8486 106.952 67.009C105.909 88.4908 106.426 82.9327 104.34 110.992C104.16 113.412 105.731 113.772 107.129 113.772ZM121.033 89.1761C118.252 89.1761 117.209 86.7519 117.209 82.596C117.209 78.4402 118.252 76.0159 121.033 76.0159C123.813 76.0159 124.856 78.4402 124.856 82.596C124.856 86.7519 123.813 89.1761 121.033 89.1761Z" fill="#4541F8"/>
</svg>
