<svg width="498" height="114" viewBox="0 0 498 114" fill="none" xmlns="http://www.w3.org/2000/svg">
<path d="M15.532 113.727C19.7418 113.596 23.8539 112.475 27.0408 108.868C31.0273 104.356 30.5101 101.515 30.5101 93.6515C30.5101 85.7879 29.2923 81.9702 25.3059 78.6733C22.5327 76.3798 19.2465 75.3795 16.1238 75.5495C13.0011 75.7194 6.58816 76.527 3.46833 76.874C0.348506 77.2211 -0.0391467 78.7834 0.0049081 80.6952C0.252088 91.4364 0.212455 88.7999 0.207049 93.4226C0.202156 97.6055 0.253627 100.532 0.00185838 110.425C-0.0555044 112.682 1.21507 113.688 3.818 113.726C10.0748 113.818 10.5634 113.727 15.532 113.727ZM14.3912 100.19C10.9248 100.19 10.9248 100.885 10.9248 94.4639C10.9248 88.0432 10.9248 88.0432 14.3912 88.0432C17.5111 88.0432 18.2044 91.1667 18.2044 94.2903C18.2044 97.4139 17.5111 100.19 14.3912 100.19Z" fill="#4541F8"/>
<path d="M20.1412 68.2778C14.2432 69.0628 13.896 69.1696 8.68395 69.3175C3.47189 69.4654 0.00391371 65.5012 0.00391371 60.3027V54.0645V47.8263C0.00391371 45.7309 -0.00489214 45.5855 0.00391371 44.7072C0.00391371 43.3209 0.520782 41.9346 2.78142 41.9346C3.21022 41.935 4.90489 41.9346 5.59342 41.9346H6.75025C8.48228 41.9346 9.52776 43.1436 9.52776 45.0497C9.52776 46.9558 10.8329 48.866 12.8457 48.866C14.8586 48.866 16.2635 47.3661 16.2635 45.1818C16.2635 42.9974 15.7454 40.7104 12.8457 38.6287C8.83992 35.7528 3.8284 32.5355 1.81345 29.2589C-0.201494 25.9824 0.177493 22.007 0.00391371 20.1009V10.0504C0.00391371 3.1191 3.47188 0 10.0724 0H18.4049C25.0015 0 28.4733 2.42597 28.4737 10.0504C28.474 16.9006 28.4687 19.7622 28.4734 22.1803C28.4734 25.1261 27.779 25.9925 25.0015 25.9925H22.3319C19.9246 25.9925 19.1181 24.7796 19.1181 22.5269C19.1181 21.1947 17.9866 19.0612 15.9035 19.0612C13.996 19.0612 12.5603 20.4475 12.5603 22.5269C12.5603 23.8148 12.7882 27.3184 15.1984 29.4026C18.7691 32.4903 21.2433 32.8516 24.3808 36.3006C28.0293 40.3112 28.4733 42.4545 28.4733 49.5591V52.3316V60.3027C28.3001 64.9854 26.0391 67.4928 20.1412 68.2778Z" fill="#4541F8"/>
<path d="M41.3052 64.995C44.0855 65.0192 49.2869 64.8217 53.7984 63.955C58.3098 63.0884 63.1726 62.7417 63.1726 54.7692L62.8256 33.2759L63.1726 8.66257C63.1726 3.12006 59.0082 0.689368 54.8438 0.342706C50.6795 -0.00395479 44.3941 -0.00395479 40.6155 0.342706C36.8369 0.689368 32.6338 3.12006 32.6338 8.66258L32.9808 33.2759L32.6338 57.5425C32.6338 64.3017 38.3315 64.9691 41.3052 64.995ZM47.8802 41.9421C44.0399 41.9421 43.7388 36.5583 43.7388 33.0614C43.7388 29.4725 44.0858 24.1808 47.9032 24.1808C51.7206 24.1808 52.0676 29.4725 52.0676 33.0614C52.0676 36.5583 51.7206 41.9421 47.8802 41.9421Z" fill="#4541F8"/>
<path d="M83.6431 60.4883C83.6431 60.4883 90.4146 59.6258 93.3644 59.2792C99.0861 58.6068 99.958 53.2085 99.958 48.8793C99.958 29.3045 99.2213 20.902 99.958 2.7734C99.958 0.689368 99.0861 1.12592e-05 97.1818 1.12592e-05H89.1958C87.4605 -0.00395481 86.3411 1.04009 86.4238 2.7734C87.1178 17.3332 87.1178 28.0797 87.1178 33.2796C87.1178 35.3596 85.3827 36.7462 83.6475 36.7462C81.9123 36.7462 80.1772 35.3596 80.1772 33.2796C80.1772 28.0797 80.1772 17.3332 80.8712 2.7734C80.8712 1.04009 79.9993 1.12592e-05 78.095 0.00010763H70.1133C68.3737 0.00010763 67.2417 0.689368 67.337 2.7734C68.1659 20.902 67.684 31.094 67.684 51.306C67.684 60.3192 71.497 61.4591 75.6614 61.1818C79.8258 60.9044 83.6431 60.4883 83.6431 60.4883Z" fill="#4541F8"/>
<path d="M106.899 57.2549L115.57 56.2118C117.657 55.8651 117.657 54.6518 117.657 53.2692C117.657 45.0461 117.31 42.9861 117.31 39.1728C117.31 37.0929 118.351 35.7062 120.086 35.7062C121.821 35.7062 122.862 37.0929 122.862 39.1728C122.862 42.9861 122.515 44.141 122.515 52.4609C122.515 53.4968 122.515 55.4035 125.287 55.0568L135.004 53.9019C136.913 53.7285 137.414 52.8619 137.26 50.9552C136.739 44.542 136.739 45.062 136.436 37.1225C136.436 27.6441 134.134 26.1849 131.002 25.0806V24.9886C133.967 24.9886 137.438 21.7271 137.438 18.0265C137.438 14.0399 137.438 8.88943 137.438 6.93333C137.438 3.81338 134.661 0.00010763 130.497 0.00010763C126.813 0.00010763 117.679 0.00010763 112.798 0.00010763C109.114 0.00010763 108.719 0.00010763 107.246 0.00010763C105.284 0.00010763 104.03 1.15984 104.122 3.12006C104.469 28.0797 104.469 25.0154 104.122 54.4816C104.104 56.0376 104.469 57.6016 106.899 57.2549ZM120.086 21.1464C117.657 21.1464 116.269 19.4131 116.269 15.9465C116.269 12.4799 117.657 10.7466 120.086 10.7466C122.515 10.7466 123.903 12.4799 123.903 15.9465C123.903 19.4131 122.515 21.1464 120.086 21.1464Z" fill="#4541F8"/>
<path d="M79.8207 113.766H91.6199C94.2184 113.766 94.0449 111.336 94.0449 111.336C94.0449 111.336 93.008 94.7019 92.661 83.9566C92.6571 83.5129 92.661 83.0222 92.661 82.5701C92.661 81.8769 93.3551 81.1836 94.0491 81.1836C95.7974 81.1836 96.883 83.9566 98.9073 83.9566C99.9488 83.9566 100.643 83.2634 100.643 82.2235C100.643 72.7575 100.642 76.3309 100.642 68.012C100.642 65.9259 100.118 65.2334 97.8623 65.4083C95.6066 65.5831 73.9168 68.353 73.9168 68.353C70.967 68.8729 70.7974 69.5661 70.7974 72.5181C70.7974 81.8769 70.7961 74.2591 70.7976 82.2235C70.7977 83.2634 71.4916 83.9566 72.5327 83.9566C74.5571 83.9566 75.6431 81.1836 77.3914 81.1836C78.09 81.1836 78.7796 81.8769 78.7796 82.5701C78.8996 83.2035 78.8252 82.5517 78.7796 83.9566C78.4325 94.6373 77.2137 111.336 77.2137 111.336C77.2137 111.336 77.2137 113.766 79.8207 113.766Z" fill="#4541F8"/>
<path d="M36.8357 113.766H45.8664C48.2975 113.766 48.4675 112.2 48.4675 110.984C48.4675 109.769 48.4675 109.248 48.2975 105.433C48.2975 104.044 48.9921 102.655 50.7286 102.655C52.465 102.655 53.2213 104.045 53.1596 105.433C52.9823 109.422 53.0018 110.633 52.9823 110.984C52.8474 113.415 54.0242 113.766 55.5907 113.766H64.6203C66.1795 113.766 67.395 113.241 67.2214 110.637C66.0412 92.9362 66.1799 96.7462 65.1369 72.7873C65.0386 70.5285 64.2687 69.8357 62.1849 69.8357C61.4904 69.836 51.0722 71.2247 51.0722 71.2247L39.2635 72.6137C37.8743 72.7873 36.4523 73.1345 36.3115 75.5652C34.9234 99.5252 35.6181 93.2747 34.2286 110.984C34.0894 113.348 35.4439 113.766 36.8357 113.766ZM50.7286 94.3207C48.9921 94.3207 46.9083 92.9317 46.9083 89.112C46.9083 85.2923 48.9921 83.9033 50.7286 83.9033C52.465 83.9033 54.5488 85.2923 54.5488 89.112C54.5488 92.9317 52.465 94.3207 50.7286 94.3207Z" fill="#4541F8"/>
<path d="M106.914 113.772H115.934C118.353 113.763 118.7 112.551 118.7 111.512C118.7 111.339 118.709 112.553 118.362 101.298C118.362 99.9124 119.403 98.8734 120.79 98.8734C122.178 98.8734 123.218 99.9124 123.218 101.298C122.872 112.553 122.863 111.339 122.863 111.512C122.863 112.726 123.557 113.772 125.647 113.772H134.664C137.09 113.772 137.437 112.724 137.437 110.992C135.702 82.5963 135.871 85.7124 134.83 64.2456C134.721 61.9946 132.922 61.3021 131.188 61.4746C129.454 61.6471 119.746 62.8519 119.746 62.8519C119.746 62.8519 110.727 63.8924 109.686 64.0655C108.646 64.2387 106.842 64.8489 106.738 67.0093C105.697 88.4911 106.212 82.933 104.131 110.992C103.952 113.413 105.519 113.772 106.914 113.772ZM120.79 89.1764C118.015 89.1764 116.975 86.7522 116.975 82.5963C116.975 78.4404 118.015 76.0162 120.79 76.0162C123.565 76.0162 124.606 78.4404 124.606 82.5963C124.606 86.7522 123.565 89.1764 120.79 89.1764Z" fill="#4541F8"/>
<path d="M172.234 113.185C165.185 113.185 159.917 112.642 156.431 111.557C152.945 110.471 150.543 108.726 149.226 106.322C148.529 105.081 148.026 103.608 147.716 101.902C147.483 100.196 147.367 98.2955 147.367 96.2017C147.367 78.9079 147.367 53.0059 147.367 18.4958C147.367 12.0591 148.994 7.36732 152.248 4.42039C155.424 1.47346 162.008 0 172.002 0C173.241 0 175.1 0 177.579 0C181.53 0 184.977 0.155101 187.921 0.465304C190.787 0.775507 193.266 1.31836 195.358 2.09387C199.231 3.48978 201.865 5.77753 203.26 8.95711C204.654 12.0591 205.351 16.402 205.351 21.9856C205.351 27.3366 205.351 31.0978 205.351 33.2693C205.429 35.4407 205.467 37.5345 205.467 39.5509C205.467 40.7917 205.274 41.9937 204.886 43.157C204.499 44.3978 203.143 45.0182 200.819 45.0182C199.812 45.0182 198.921 45.0182 198.147 45.0182C197.295 45.0182 196.016 45.0182 194.312 45.0182C193.692 45.0182 192.84 45.0182 191.756 45.0182C190.749 45.0182 189.393 44.8243 187.689 44.4366C185.984 44.0488 185.132 42.9243 185.132 41.0631C185.132 39.2794 185.132 38.9305 185.132 40.0162C185.132 41.1019 185.132 41.4509 185.132 41.0631C185.132 39.357 184.551 37.6897 183.389 36.0611C182.15 34.5101 180.523 33.7346 178.509 33.7346C176.495 33.7346 174.984 34.5101 173.977 36.0611C172.97 37.6897 172.273 39.357 171.885 41.0631C171.653 42.0713 171.459 44.0488 171.304 46.9957C171.15 49.8651 171.072 52.308 171.072 54.3243C171.072 56.263 171.111 59.0937 171.188 62.8161C171.266 66.5385 171.498 69.2528 171.885 70.9589C172.35 72.7426 173.164 74.2548 174.326 75.4956C175.565 76.814 177.076 77.4732 178.858 77.4732C180.717 77.4732 182.227 76.9691 183.389 75.9609C184.551 75.0303 185.132 73.5956 185.132 71.6569C185.132 70.4161 185.132 70.0671 185.132 70.6099C185.132 71.1528 185.132 71.114 185.132 70.4936C185.132 69.2528 185.752 68.361 186.992 67.8181C188.231 67.2753 189.548 67.0038 190.942 67.0038C191.949 67.0038 193.344 67.0038 195.126 67.0038C196.985 67.0038 198.883 67.0038 200.819 67.0038C202.756 67.0038 203.996 67.5079 204.538 68.5161C205.158 69.5242 205.467 70.8426 205.467 72.4712C205.467 73.7895 205.467 74.4487 205.467 74.4487C205.467 74.4487 205.429 75.7671 205.351 78.4038C205.351 79.0242 205.351 79.7997 205.351 80.7303C205.351 81.5834 205.351 82.6303 205.351 83.8711C205.351 85.3446 205.351 87.0895 205.351 89.1058C205.274 91.1221 205.235 93.4874 205.235 96.2017C205.235 102.251 203.376 106.593 199.657 109.23C195.862 111.867 188.541 113.185 177.696 113.185C176.766 113.185 175.875 113.185 175.023 113.185C174.093 113.185 173.164 113.185 172.234 113.185Z" fill="#4541F8"/>
<path d="M231.309 113.185C230.302 113.185 229.178 113.108 227.939 112.953C226.622 112.72 225.305 112.332 223.988 111.789C221.509 110.859 219.263 109.269 217.248 107.02C215.234 104.771 214.227 101.514 214.227 97.2486C214.382 88.7956 214.614 76.116 214.924 59.21C214.769 49.7488 214.537 35.557 214.227 16.6346C214.227 11.2836 215.931 7.36732 219.34 4.8857C222.826 2.32652 226.389 0.891833 230.03 0.58163C233.671 0.271428 238.126 0.116326 243.393 0.116326C248.739 0.116326 253.425 0.271428 257.454 0.58163C261.405 0.891833 265.084 2.32652 268.493 4.8857C271.824 7.36732 273.489 11.2836 273.489 16.6346C273.334 26.0958 273.102 40.2876 272.792 59.21C272.947 67.663 273.18 80.3813 273.489 97.3649C273.489 102.561 271.591 106.516 267.796 109.23C264.077 111.944 259.933 113.302 255.362 113.302C250.869 113.302 246.415 113.302 241.999 113.302C237.583 113.302 234.02 113.263 231.309 113.185ZM243.045 73.6344C244.362 73.6344 245.485 73.363 246.415 72.8201C247.267 72.1997 248.003 71.4242 248.622 70.4936C249.784 68.6324 250.482 66.3834 250.714 63.7467C251.024 61.11 251.179 58.7059 251.179 56.5345C251.179 54.2855 251.024 51.8427 250.714 49.2059C250.482 46.5692 249.784 44.359 248.622 42.5753C248.08 41.5672 247.344 40.7917 246.415 40.2488C245.485 39.6284 244.401 39.3182 243.161 39.3182C241.844 39.3182 240.721 39.6284 239.791 40.2488C238.939 40.7917 238.203 41.5672 237.583 42.5753C236.499 44.359 235.802 46.5692 235.492 49.2059C235.259 51.8427 235.143 54.2855 235.143 56.5345C235.143 58.7059 235.259 61.11 235.492 63.7467C235.802 66.461 236.499 68.7099 237.583 70.4936C238.126 71.4242 238.862 72.1997 239.791 72.8201C240.721 73.363 241.805 73.6344 243.045 73.6344Z" fill="#4541F8"/>
<path d="M298.75 113.185C297.743 113.185 296.619 113.108 295.38 112.953C294.063 112.72 292.746 112.332 291.429 111.789C288.95 110.859 286.703 109.269 284.689 107.02C282.675 104.771 281.668 101.514 281.668 97.2486C281.823 88.7956 282.055 76.116 282.365 59.21C282.21 49.7488 281.978 35.557 281.668 16.6346C281.668 11.2836 283.372 7.36732 286.781 4.8857C290.267 2.32652 293.83 0.891833 297.471 0.58163C301.112 0.271428 305.567 0.116326 310.834 0.116326C316.18 0.116326 320.866 0.271428 324.895 0.58163C328.846 0.891833 332.525 2.32652 335.934 4.8857C339.265 7.36732 340.93 11.2836 340.93 16.6346C340.775 26.0958 340.543 40.2876 340.233 59.21C340.388 67.663 340.62 80.3813 340.93 97.3649C340.93 102.561 339.032 106.516 335.237 109.23C331.518 111.944 327.374 113.302 322.803 113.302C318.31 113.302 313.856 113.302 309.44 113.302C305.024 113.302 301.461 113.263 298.75 113.185ZM310.486 73.6344C311.803 73.6344 312.926 73.363 313.856 72.8201C314.708 72.1997 315.444 71.4242 316.063 70.4936C317.225 68.6324 317.923 66.3834 318.155 63.7467C318.465 61.11 318.62 58.7059 318.62 56.5345C318.62 54.2855 318.465 51.8427 318.155 49.2059C317.923 46.5692 317.225 44.359 316.063 42.5753C315.521 41.5672 314.785 40.7917 313.856 40.2488C312.926 39.6284 311.842 39.3182 310.602 39.3182C309.285 39.3182 308.162 39.6284 307.232 40.2488C306.38 40.7917 305.644 41.5672 305.024 42.5753C303.94 44.359 303.243 46.5692 302.933 49.2059C302.7 51.8427 302.584 54.2855 302.584 56.5345C302.584 58.7059 302.7 61.11 302.933 63.7467C303.243 66.461 303.94 68.7099 305.024 70.4936C305.567 71.4242 306.303 72.1997 307.232 72.8201C308.162 73.363 309.246 73.6344 310.486 73.6344Z" fill="#4541F8"/>
<path d="M354.785 113.767C353.003 113.767 351.686 113.302 350.834 112.371C350.137 111.673 349.788 110.626 349.788 109.23C349.788 108.92 349.788 108.571 349.788 108.183C350.176 90.1915 350.486 73.1691 350.718 57.1161C350.873 41.0631 350.563 24.0019 349.788 5.93263C349.711 4.14896 349.982 2.79183 350.602 1.86122C351.144 1.00816 352.538 0.58163 354.785 0.58163C359.743 0.58163 367.218 0.58163 377.212 0.58163C379.071 0.58163 380.349 1.00816 381.046 1.86122C381.821 2.79183 382.286 4.14896 382.441 5.93263C382.905 10.5081 383.293 14.3857 383.603 17.5652C383.913 20.6673 384.222 23.2264 384.532 25.2428C385.075 29.0427 385.617 31.3305 386.159 32.106C386.701 32.8815 387.437 33.2693 388.367 33.2693C389.374 33.2693 390.11 32.8815 390.575 32.106C391.117 31.3305 391.659 29.0427 392.202 25.2428C392.434 23.304 392.705 20.7448 393.015 17.5652C393.402 14.4632 393.79 10.5857 394.177 5.93263C394.409 3.45101 395.029 1.93877 396.036 1.39591C397.121 0.853058 398.205 0.58163 399.29 0.58163C404.325 0.58163 411.917 0.58163 422.065 0.58163C423.924 0.58163 425.202 0.930609 425.9 1.62857C426.597 2.32652 426.907 3.76121 426.829 5.93263C426.442 24.0019 426.248 41.1794 426.248 57.4651C426.248 73.7507 426.442 90.8895 426.829 108.881C426.907 110.2 426.752 111.324 426.364 112.255C425.977 113.263 424.738 113.767 422.646 113.767C418.773 113.767 412.924 113.767 405.1 113.767C403.396 113.767 402.311 113.185 401.846 112.022C401.381 110.859 401.188 109.695 401.265 108.532C401.73 103.104 402.04 98.3731 402.195 94.3405C402.427 90.3854 402.543 86.9731 402.543 84.1038C402.543 78.9079 402.233 75.4181 401.614 73.6344C401.071 71.8507 400.297 70.9589 399.29 70.9589C397.895 70.9589 396.85 71.9671 396.152 73.9834C395.455 75.9997 394.022 80.4977 391.853 87.4772C391.311 89.0282 390.071 89.8037 388.135 89.8037C386.198 89.7262 384.997 88.9507 384.532 87.4772C382.208 80.4201 380.698 75.9222 380 73.9834C379.381 71.9671 378.257 70.9589 376.631 70.9589C375.546 70.9589 374.81 71.7732 374.423 73.4018C374.036 75.0303 373.919 78.4813 374.074 83.7548C374.152 86.5466 374.307 89.9588 374.539 93.9915C374.694 98.1017 374.965 102.949 375.352 108.532C375.507 110.626 375.275 112.022 374.655 112.72C374.036 113.418 373.106 113.767 371.866 113.767C369 113.767 366.134 113.767 363.268 113.767C360.479 113.767 357.651 113.767 354.785 113.767Z" fill="#4541F8"/>
<path d="M453.323 113.534C452.393 113.534 451.774 113.302 451.464 112.836C451.076 112.293 451.038 111.634 451.348 110.859C452.277 104.577 452.974 98.9159 453.439 93.8752C453.904 88.9119 454.136 83.7548 454.136 78.4038C452.664 77.7834 451.231 76.6201 449.837 74.914C448.365 73.1303 446.971 70.7263 445.654 67.7018C443.252 61.963 441.199 53.8202 439.495 43.2733C437.946 33.2693 437.171 20.7836 437.171 5.8163C437.171 4.8857 437.171 3.91631 437.171 2.90815C437.171 2.13264 437.403 1.51224 437.868 1.04693C438.333 0.58163 438.914 0.348978 439.611 0.348978C444.182 0.348978 450.999 0.348978 460.063 0.348978C460.76 0.348978 461.341 0.58163 461.806 1.04693C462.193 1.51224 462.348 2.2102 462.27 3.1408C462.038 9.26731 461.961 14.4632 462.038 18.7285C462.038 23.0713 462.154 26.7162 462.387 29.6632C462.851 35.0142 463.549 38.4652 464.478 40.0162C465.408 41.4896 466.415 42.2264 467.499 42.2264C468.506 42.2264 469.552 41.4896 470.637 40.0162C471.644 38.4652 472.38 35.0142 472.845 29.6632C473.077 26.7162 473.193 23.1101 473.193 18.8448C473.193 14.502 473 9.26731 472.612 3.1408C472.535 2.2102 472.69 1.51224 473.077 1.04693C473.464 0.58163 474.084 0.348978 474.936 0.348978C479.429 0.348978 486.246 0.348978 495.388 0.348978C496.085 0.348978 496.666 0.58163 497.131 1.04693C497.518 1.51224 497.712 2.13264 497.712 2.90815C497.712 3.45101 497.712 3.99386 497.712 4.53672C497.712 28.8101 495.969 46.7243 492.483 58.2794C488.919 70.0671 485.046 76.7752 480.862 78.4038C480.862 83.7548 481.095 89.1058 481.56 94.4568C481.947 99.7302 482.644 105.198 483.651 110.859C483.961 111.634 483.922 112.293 483.535 112.836C483.148 113.302 482.528 113.534 481.676 113.534C476.95 113.534 472.225 113.534 467.499 113.534C462.774 113.534 458.048 113.534 453.323 113.534Z" fill="#4541F8"/>
</svg>
