<svg width="44" height="54" viewBox="0 0 44 54" fill="none" xmlns="http://www.w3.org/2000/svg">
<rect width="44" height="54" fill="white"/>
<path d="M35.3295 38.2484H7.29373C6.38669 38.2484 5.64457 38.9905 5.64457 39.8976C5.64457 40.8046 6.38669 41.5467 7.29373 41.5467H35.3295C36.2365 41.5467 36.9786 40.8046 36.9786 39.8976C36.9786 38.9905 36.2365 38.2484 35.3295 38.2484ZM37.9187 22.8123C37.5558 21.4929 36.2035 20.7178 34.8842 21.0641L26.1272 23.406L15.4736 13.478C15.0283 13.0492 14.3851 12.9008 13.7914 13.0657C12.67 13.3791 12.1423 14.6654 12.7195 15.6714L18.3926 25.5004L10.1963 27.6938L7.60707 25.6488C7.19478 25.3355 6.66705 25.22 6.15581 25.352L5.61159 25.5004C5.08385 25.6323 4.83648 26.2425 5.11684 26.7043L8.21726 32.064C8.59657 32.7072 9.35518 33.0206 10.0643 32.8392L36.1541 25.8467C37.4734 25.4839 38.265 24.1316 37.9187 22.8123Z" fill="#3842F1"/>
</svg>
