<svg width="38" height="53" viewBox="0 0 38 53" fill="none" xmlns="http://www.w3.org/2000/svg">
<path d="M19 0C8.49572 0 0 8.52029 0 19.055C0 30.4063 11.9971 46.0586 16.9371 52.02C18.0229 53.3267 20.0043 53.3267 21.09 52.02C26.0029 46.0586 38 30.4063 38 19.055C38 8.52029 29.5043 0 19 0ZM19 25.8603C15.2543 25.8603 12.2143 22.8115 12.2143 19.055C12.2143 15.2984 15.2543 12.2496 19 12.2496C22.7457 12.2496 25.7857 15.2984 25.7857 19.055C25.7857 22.8115 22.7457 25.8603 19 25.8603Z" fill="#FF5880"/>
</svg>
