<svg width="54" height="15" viewBox="0 0 54 15" fill="none" xmlns="http://www.w3.org/2000/svg">
<g opacity="0.9">
<path d="M38.0098 14.4143C38.5545 14.3978 39.0866 14.2557 39.499 13.7985C40.0148 13.2267 39.9479 12.8666 39.9479 11.8699C39.9479 10.8733 39.7903 10.3894 39.2745 9.97151C38.9157 9.68082 38.4904 9.55404 38.0864 9.57558C37.6823 9.59712 36.8525 9.69947 36.4488 9.74346C36.0451 9.78745 35.9949 9.98547 36.0006 10.2278C36.0326 11.5892 36.0275 11.255 36.0268 11.8409C36.0262 12.3711 36.0328 12.742 36.0002 13.9959C35.9928 14.2819 36.1572 14.4094 36.494 14.4143C37.3036 14.4259 37.3669 14.4143 38.0098 14.4143ZM37.8622 12.6987C37.4136 12.6987 37.4136 12.7867 37.4136 11.9729C37.4136 11.1591 37.4136 11.1591 37.8622 11.1591C38.2659 11.1591 38.3556 11.555 38.3556 11.9509C38.3556 12.3468 38.2659 12.6987 37.8622 12.6987Z" fill="#333333"/>
<path d="M38.6062 8.65385C37.843 8.75334 37.7981 8.76688 37.1237 8.78562C36.4493 8.80437 36.0005 8.30193 36.0005 7.64304V6.85238V6.06172C36.0005 5.79614 35.9994 5.77771 36.0005 5.6664C36.0005 5.49069 36.0674 5.31499 36.3599 5.31499H36.7238H36.8735C37.0976 5.31499 37.2329 5.46822 37.2329 5.70981C37.2329 5.9514 37.4017 6.1935 37.6622 6.1935C37.9227 6.1935 38.1044 6.0034 38.1044 5.72655C38.1044 5.44969 38.0374 5.15983 37.6622 4.89598C37.1439 4.53147 36.4954 4.1237 36.2347 3.70841C35.9739 3.29313 36.023 2.78927 36.0005 2.54768V1.27384C36.0005 0.39533 36.4493 0 37.3033 0H38.3815C39.2351 0 39.6844 0.307479 39.6844 1.27384C39.6844 2.14206 39.6838 2.50476 39.6844 2.81123C39.6844 3.1846 39.5945 3.29441 39.2351 3.29441H38.8897C38.5782 3.29441 38.4738 3.14068 38.4738 2.85516C38.4738 2.68631 38.3274 2.4159 38.0579 2.4159C37.811 2.4159 37.6253 2.59161 37.6253 2.85516C37.6253 3.0184 37.6547 3.46246 37.9666 3.72663C38.4287 4.11797 38.7488 4.16377 39.1548 4.60091C39.6269 5.10923 39.6844 5.38088 39.6844 6.28135V6.63276V7.64304C39.6619 8.23655 39.3694 8.55435 38.6062 8.65385Z" fill="#333333"/>
<path d="M41.3447 8.23777C41.7045 8.24084 42.3775 8.2158 42.9613 8.10596C43.5451 7.99612 44.1743 7.95218 44.1743 6.9417L44.1294 4.21754L44.1743 1.09794C44.1743 0.395451 43.6354 0.0873737 43.0966 0.0434362C42.5577 -0.000501248 41.7444 -0.000501248 41.2555 0.0434362C40.7665 0.0873737 40.2227 0.395451 40.2227 1.09794L40.2676 4.21754L40.2227 7.2932C40.2227 8.1499 40.9599 8.23449 41.3447 8.23777ZM42.1955 5.31593C41.6986 5.31593 41.6596 4.63357 41.6596 4.19036C41.6596 3.73549 41.7045 3.06479 42.1985 3.06479C42.6924 3.06479 42.7373 3.73549 42.7373 4.19036C42.7373 4.63357 42.6924 5.31593 42.1955 5.31593Z" fill="#333333"/>
<path d="M46.8231 7.66657C46.8231 7.66657 47.6993 7.55726 48.081 7.51332C48.8214 7.42809 48.9342 6.7439 48.9342 6.1952C48.9342 3.71419 48.8389 2.64921 48.9342 0.351513C48.9342 0.0873737 48.8214 1.42705e-06 48.575 1.42705e-06H47.5416C47.3171 -0.000501251 47.1722 0.131826 47.1829 0.351513C47.2727 2.19689 47.2727 3.55895 47.2727 4.21801C47.2727 4.48163 47.0482 4.65738 46.8237 4.65738C46.5992 4.65738 46.3746 4.48163 46.3746 4.21801C46.3746 3.55895 46.3746 2.19689 46.4645 0.351513C46.4645 0.131826 46.3516 1.42705e-06 46.1052 1.36415e-05H45.0724C44.8473 1.36415e-05 44.7008 0.0873737 44.7132 0.351513C44.8204 2.64921 44.7581 3.941 44.7581 6.50276C44.7581 7.64513 45.2515 7.78961 45.7903 7.75446C46.3292 7.71931 46.8231 7.66657 46.8231 7.66657Z" fill="#333333"/>
<path d="M49.8323 7.25676L50.9544 7.12454C51.2244 7.0806 51.2244 6.92682 51.2244 6.75159C51.2244 5.70935 51.1795 5.44826 51.1795 4.96495C51.1795 4.70132 51.3142 4.52557 51.5387 4.52557C51.7633 4.52557 51.898 4.70132 51.898 4.96495C51.898 5.44826 51.8531 5.59464 51.8531 6.64914C51.8531 6.78044 51.8531 7.0221 52.2117 6.97816L53.4691 6.83177C53.7161 6.80981 53.781 6.69996 53.761 6.45831C53.6936 5.64546 53.6936 5.71137 53.6544 4.70508C53.6544 3.50375 53.3565 3.3188 52.9513 3.17884V3.16717C53.3349 3.16717 53.784 2.7538 53.784 2.28476C53.784 1.77948 53.784 1.12669 53.784 0.878763C53.784 0.483326 53.4248 1.36415e-05 52.8859 1.36415e-05C52.4092 1.36415e-05 51.2273 1.36415e-05 50.5957 1.36415e-05C50.119 1.36415e-05 50.0679 1.36415e-05 49.8772 1.36415e-05C49.6234 1.36415e-05 49.4612 0.147004 49.4731 0.395451C49.518 3.55895 49.518 3.17057 49.4731 6.90526C49.4707 7.10246 49.518 7.30069 49.8323 7.25676ZM51.5387 2.6802C51.2244 2.6802 51.0448 2.46051 51.0448 2.02114C51.0448 1.58176 51.2244 1.36207 51.5387 1.36207C51.8531 1.36207 52.0327 1.58176 52.0327 2.02114C52.0327 2.46051 51.8531 2.6802 51.5387 2.6802Z" fill="#333333"/>
<path d="M46.3293 14.4195H47.8561C48.1924 14.4195 48.1699 14.1115 48.1699 14.1115C48.1699 14.1115 48.0357 12.0032 47.9908 10.6413C47.9903 10.5851 47.9908 10.5229 47.9908 10.4656C47.9908 10.3777 48.0806 10.2898 48.1705 10.2898C48.3967 10.2898 48.5372 10.6413 48.7991 10.6413C48.9339 10.6413 49.0237 10.5534 49.0237 10.4216C49.0237 9.22188 49.0236 9.67479 49.0236 8.62041C49.0236 8.35601 48.9558 8.26823 48.6639 8.2904C48.372 8.31256 45.5653 8.66362 45.5653 8.66362C45.1836 8.72952 45.1617 8.81739 45.1617 9.19153C45.1617 10.3777 45.1615 9.4122 45.1617 10.4216C45.1617 10.5534 45.2515 10.6413 45.3862 10.6413C45.6482 10.6413 45.7887 10.2898 46.015 10.2898C46.1053 10.2898 46.1946 10.3777 46.1946 10.4656C46.2101 10.5459 46.2005 10.4632 46.1946 10.6413C46.1497 11.995 45.992 14.1115 45.992 14.1115C45.992 14.1115 45.992 14.4195 46.3293 14.4195Z" fill="#333333"/>
<path d="M40.7659 14.4195H41.9344C42.249 14.4195 42.271 14.221 42.271 14.0669C42.271 13.9129 42.271 13.8469 42.249 13.3633C42.249 13.1872 42.3389 13.0112 42.5636 13.0112C42.7883 13.0112 42.8861 13.1874 42.8782 13.3633C42.8552 13.8689 42.8577 14.0224 42.8552 14.0669C42.8378 14.375 42.99 14.4195 43.1927 14.4195H44.3611C44.5629 14.4195 44.7202 14.353 44.6977 14.0229C44.545 11.7794 44.5629 12.2623 44.428 9.22566C44.4153 8.93938 44.3156 8.85156 44.046 8.85156C43.9561 8.85161 42.608 9.02761 42.608 9.02761L41.08 9.20365C40.9003 9.22566 40.7163 9.26967 40.698 9.57775C40.5184 12.6145 40.6083 11.8223 40.4285 14.0669C40.4105 14.3665 40.5858 14.4195 40.7659 14.4195ZM42.5636 11.9549C42.3389 11.9549 42.0692 11.7789 42.0692 11.2947C42.0692 10.8106 42.3389 10.6346 42.5636 10.6346C42.7883 10.6346 43.0579 10.8106 43.0579 11.2947C43.0579 11.7789 42.7883 11.9549 42.5636 11.9549Z" fill="#333333"/>
<path d="M49.8341 14.4198H51.0012C51.3143 14.4186 51.3592 14.2649 51.3592 14.1332C51.3592 14.1113 51.3603 14.2652 51.3154 12.8387C51.3154 12.6631 51.4501 12.5314 51.6296 12.5314C51.8091 12.5314 51.9438 12.6631 51.9438 12.8387C51.8989 14.2652 51.8978 14.1113 51.8978 14.1332C51.8978 14.2872 51.9876 14.4198 52.258 14.4198H53.4248C53.7387 14.4198 53.7836 14.2869 53.7836 14.0674C53.5591 10.4684 53.581 10.8633 53.4463 8.14248C53.4322 7.85718 53.1994 7.76941 52.975 7.79127C52.7506 7.81313 51.4944 7.96584 51.4944 7.96584C51.4944 7.96584 50.3274 8.09771 50.1928 8.11966C50.0581 8.14161 49.8248 8.21895 49.8112 8.49277C49.6766 11.2155 49.7433 10.511 49.474 14.0674C49.4508 14.3742 49.6535 14.4198 49.8341 14.4198ZM51.6296 11.3023C51.2705 11.3023 51.1359 10.9951 51.1359 10.4683C51.1359 9.94161 51.2705 9.63435 51.6296 9.63435C51.9887 9.63435 52.1233 9.94161 52.1233 10.4683C52.1233 10.9951 51.9887 11.3023 51.6296 11.3023Z" fill="#333333"/>
</g>
<path d="M0.390137 10.2598H1.20014V8.5798H1.23014C1.29014 8.6698 1.36814 8.7478 1.45814 8.8198C1.62014 8.9398 1.84214 9.05981 2.16014 9.05981C2.85614 9.05981 3.48014 8.4298 3.48014 7.5298C3.48014 6.6358 2.85614 5.9998 2.16014 5.9998C1.84214 5.9998 1.62014 6.1198 1.45814 6.2398C1.36814 6.3118 1.29014 6.3898 1.23014 6.4798H1.20014V6.0598H0.390137V10.2598ZM1.92014 8.30981C1.50014 8.30981 1.17014 7.9798 1.17014 7.5298C1.17014 7.0798 1.50014 6.7498 1.92014 6.7498C2.34014 6.7498 2.67014 7.0798 2.67014 7.5298C2.67014 7.9798 2.34014 8.30981 1.92014 8.30981Z" fill="#323232"/>
<path d="M5.46154 8.30981C5.04154 8.30981 4.71154 7.9798 4.71154 7.5298C4.71154 7.0798 5.04154 6.7498 5.46154 6.7498C5.88154 6.7498 6.21154 7.0798 6.21154 7.5298C6.21154 7.9798 5.88154 8.30981 5.46154 8.30981ZM3.90154 7.5298C3.90154 8.3698 4.59154 9.05981 5.46154 9.05981C6.33154 9.05981 7.02154 8.3698 7.02154 7.5298C7.02154 6.6898 6.33154 5.9998 5.46154 5.9998C4.59154 5.9998 3.90154 6.6898 3.90154 7.5298Z" fill="#323232"/>
<path d="M8.23261 8.9998H8.9706L9.52861 7.2898H9.55261L10.1106 8.9998H10.8486L11.8806 6.0598H11.0106L10.4706 7.79981H10.4406L9.87061 6.0598H9.21061L8.6406 7.79981H8.61061L8.07061 6.0598H7.20061L8.23261 8.9998Z" fill="#323232"/>
<path d="M14.4578 8.00981C14.4038 8.07581 14.3378 8.1298 14.2598 8.1778C14.1218 8.2678 13.9358 8.33981 13.6778 8.33981C13.2278 8.33981 12.9878 8.0998 12.8978 7.8298H15.0278L15.0398 7.7278C15.0458 7.6618 15.0578 7.5838 15.0578 7.4698C15.0578 6.6598 14.3978 5.9998 13.5878 5.9998C12.7478 5.9998 12.0578 6.6898 12.0578 7.5298C12.0578 8.3698 12.7478 9.05981 13.6178 9.05981C14.0258 9.05981 14.3378 8.9398 14.5538 8.8198C14.6798 8.7478 14.7878 8.6698 14.8778 8.5798L14.4578 8.00981ZM12.8978 7.2298C12.9878 6.95981 13.2218 6.7198 13.5578 6.7198C13.8938 6.7198 14.1278 6.95981 14.2178 7.2298H12.8978Z" fill="#323232"/>
<path d="M15.6597 8.9998H16.4697V7.6198C16.4697 7.1398 16.7697 6.83981 17.1597 6.83981C17.2497 6.83981 17.3157 6.8518 17.3637 6.8578L17.4297 6.8698V5.9998H17.3697C17.0817 5.9998 16.8657 6.1198 16.7217 6.2398C16.6377 6.3118 16.5657 6.3898 16.4997 6.4798H16.4697V6.0598H15.6597V8.9998Z" fill="#323232"/>
<path d="M20.1004 8.00981C20.0464 8.07581 19.9804 8.1298 19.9024 8.1778C19.7644 8.2678 19.5784 8.33981 19.3204 8.33981C18.8704 8.33981 18.6304 8.0998 18.5404 7.8298H20.6704L20.6824 7.7278C20.6884 7.6618 20.7004 7.5838 20.7004 7.4698C20.7004 6.6598 20.0404 5.9998 19.2304 5.9998C18.3904 5.9998 17.7004 6.6898 17.7004 7.5298C17.7004 8.3698 18.3904 9.05981 19.2604 9.05981C19.6684 9.05981 19.9804 8.9398 20.1964 8.8198C20.3224 8.7478 20.4304 8.6698 20.5204 8.5798L20.1004 8.00981ZM18.5404 7.2298C18.6304 6.95981 18.8644 6.7198 19.2004 6.7198C19.5364 6.7198 19.7704 6.95981 19.8604 7.2298H18.5404Z" fill="#323232"/>
<path d="M23.4022 8.9998H24.2122V4.7998H23.4022V6.4798H23.3722C23.3122 6.3898 23.2342 6.3118 23.1442 6.2398C22.9822 6.1198 22.7542 5.9998 22.4422 5.9998C21.7462 5.9998 21.1222 6.6358 21.1222 7.5298C21.1222 8.4298 21.7462 9.05981 22.4422 9.05981C22.7542 9.05981 22.9822 8.9398 23.1442 8.8198C23.2342 8.7478 23.3122 8.6698 23.3722 8.5798H23.4022V8.9998ZM22.6822 8.30981C22.2622 8.30981 21.9322 7.9798 21.9322 7.5298C21.9322 7.0798 22.2622 6.7498 22.6822 6.7498C23.1022 6.7498 23.4322 7.0798 23.4322 7.5298C23.4322 7.9798 23.1022 8.30981 22.6822 8.30981Z" fill="#323232"/>
<path d="M26.3127 8.9998H27.1227V8.5798H27.1527C27.2127 8.6698 27.2907 8.7478 27.3807 8.8198C27.5427 8.9398 27.7647 9.05981 28.0827 9.05981C28.7787 9.05981 29.4027 8.4298 29.4027 7.5298C29.4027 6.6358 28.7787 5.9998 28.0827 5.9998C27.7647 5.9998 27.5427 6.1198 27.3807 6.2398C27.2907 6.3118 27.2127 6.3898 27.1527 6.4798H27.1227V4.7998H26.3127V8.9998ZM27.8427 8.30981C27.4227 8.30981 27.0927 7.9798 27.0927 7.5298C27.0927 7.0798 27.4227 6.7498 27.8427 6.7498C28.2627 6.7498 28.5927 7.0798 28.5927 7.5298C28.5927 7.9798 28.2627 8.30981 27.8427 8.30981Z" fill="#323232"/>
<path d="M29.8234 10.1698C29.8714 10.1878 29.9254 10.1998 29.9794 10.2178C30.0754 10.2418 30.2134 10.2598 30.3634 10.2598C30.9094 10.2598 31.2574 9.9058 31.5034 9.2398L32.7034 6.0598H31.8334L31.1734 8.00981H31.1434L30.4534 6.0598H29.5834L30.7234 8.96981L30.6634 9.1198C30.5734 9.3298 30.4234 9.47981 30.1534 9.47981C30.0634 9.47981 29.9854 9.4678 29.9194 9.4498C29.8834 9.4438 29.8534 9.43181 29.8234 9.41981V10.1698Z" fill="#323232"/>
</svg>
